<?xml version="1.0" encoding="UTF-8"?>
<svg version="1.1" viewBox="0 0 320 320" xmlns="http://www.w3.org/2000/svg" xmlns:cc="http://creativecommons.org/ns#" xmlns:dc="http://purl.org/dc/elements/1.1/" xmlns:rdf="http://www.w3.org/1999/02/22-rdf-syntax-ns#">
<metadata>
<rdf:RDF>
<cc:Work rdf:about="">
<dc:format>image/svg+xml</dc:format>
<dc:type rdf:resource="http://purl.org/dc/dcmitype/StillImage"/>
<dc:title/>
</cc:Work>
</rdf:RDF>
</metadata>
<g transform="matrix(1.3445 0 0 1.3445 -5.3598 -42.681)">
<path d="m123.99 68.334v-12.59h-2v12.59l-8.9-8.9-1.41 1.41 8.9 8.9h-12.59v2h12.59l-8.9 8.9 1.41 1.41 8.9-8.9v12.59h2v-12.59l8.9 8.9 1.41-1.41-8.9-8.9h12.59v-2h-12.59l8.9-8.9-1.41-1.41zm-40-36.59h2v2h-2zm0 4h2v2h-2zm0 4h2v2h-2zm0 4h2v2h-2zm0 4h2v2h-2zm0 4h2v2h-2zm0 4h2v2h-2zm0 4h2v2h-2zm0 4h2v2h-2zm0 4h2v2h-2zm0 4h2v2h-2zm0 4h2v2h-2zm0 4h2v2h-2zm0 4h2v2h-2zm0 4h2v2h-2zm0 4h2v2h-2zm0 4h2v2h-2zm0 4h2v2h-2zm0 4h2v2h-2zm0 4h2v2h-2zm4 0h2v2h-2zm4 0h2v2h-2zm4 0h2v2h-2zm4 0h2v2h-2zm4 0h2v2h-2zm4 0h2v2h-2zm4 0h2v2h-2zm4 0h2v2h-2zm4 0h2v2h-2zm4 0h2v2h-2zm4 0h2v2h-2zm4 0h2v2h-2zm4 0h2v2h-2zm4 0h2v2h-2zm4 0h2v2h-2zm4 0h2v2h-2zm4 0h2v2h-2zm4 0h2v2h-2zm4 0h2v2h-2zm-72-76h2v2h-2zm4 0h2v2h-2zm4 0h2v2h-2zm4 0h2v2h-2zm4 0h2v2h-2zm4 0h2v2h-2zm4 0h2v2h-2zm4 0h2v2h-2zm4 0h2v2h-2zm4 0h2v2h-2zm4 0h2v2h-2zm4 0h2v2h-2zm4 0h2v2h-2zm4 0h2v2h-2zm4 0h2v2h-2zm4 0h2v2h-2zm4 0h2v2h-2zm4 0h2v2h-2zm4 0h2v2h-2zm0 4h2v2h-2zm0 4h2v2h-2zm0 4h2v2h-2zm0 4h2v2h-2zm0 4h2v2h-2zm0 4h2v2h-2zm0 4h2v2h-2zm0 4h2v2h-2zm0 4h2v2h-2zm0 4h2v2h-2zm0 4h2v2h-2zm0 4h2v2h-2zm0 4h2v2h-2zm0 4h2v2h-2zm0 4h2v2h-2zm0 4h2v2h-2zm0 4h2v2h-2zm0 4h2v2h-2zm-72-68h70v70h-70zm2 68h66v-66h-66zm2-64h62v62h-62zm2 60h58v-58h-58zm2-39.6v-16.4h16.4a29.1 29.1 0 0 0-16.4 16.4zm2-14.4v6.67a31.17 31.17 0 0 1 6.67-6.67zm-2 52v-16.4a29.1 29.1 0 0 0 16.4 16.4zm2-8.67v6.67h6.67a31.17 31.17 0 0 1-6.67-6.67zm52 8.67h-16.4a29.1 29.1 0 0 0 16.4-16.4zm-8.67-2h6.67v-6.67a31.17 31.17 0 0 1-6.67 6.67zm8.67-52v16.4a29.1 29.1 0 0 0-16.4-16.4zm-2 8.67v-6.67h-6.67a31.17 31.17 0 0 1 6.67 6.67zm-26-8.67h2v2h-2zm7.02 0.66 1.93 0.52-0.51 1.93-1.94-0.52zm6.61 2.46 1.74 1-1 1.73-1.74-1zm5.75 4.08 1.42 1.42-1.42 1.4-1.4-1.4zm4.5 5.43 1 1.74-1.73 1-1-1.74zm2.94 6.42 0.52 1.93-1.93 0.52-0.52-1.94zm1.18 6.95v2h-2v-2zm-0.66 7.02-0.52 1.93-1.93-0.51 0.52-1.94zm-2.46 6.61-1 1.74-1.73-1 1-1.74zm-4.08 5.75-1.42 1.42-1.4-1.42 1.4-1.4zm-5.43 4.5-1.74 1-1-1.73 1.74-1zm-13.37 4.12h-2v-2h2zm6.95-1.18-1.93 0.52-0.52-1.93 1.94-0.52zm-13.97 0.52-1.93-0.52 0.51-1.93 1.94 0.52zm-6.61-2.46-1.74-1 1-1.73 1.74 1zm-5.75-4.08-1.42-1.42 1.42-1.4 1.4 1.4zm-4.5-5.43-1-1.74 1.73-1 1 1.74zm-2.94-6.42-0.52-1.93 1.93-0.52 0.52 1.94zm-1.18-6.95v-2h2v2zm0.66-7.02 0.52-1.93 1.93 0.51-0.52 1.94zm2.46-6.61 1-1.74 1.73 1-1 1.74zm4.08-5.75 1.42-1.42 1.4 1.42-1.4 1.4zm5.43-4.5 1.74-1 1 1.73-1.74 1zm6.42-2.94 1.93-0.52 0.52 1.93-1.94 0.52zm7.95 48.82a23 23 0 1 1 0-46 23 23 0 0 1 0 46zm0-2a21 21 0 1 0 0-42 21 21 0 0 0 0 42zm0-2a19 19 0 1 1 0-38 19 19 0 0 1 0 38zm0-2a17 17 0 1 0 0-34 17 17 0 0 0 0 34zm81-19.41v-12.59h-2v12.59l-8.9-8.9-1.41 1.41 8.9 8.9h-12.59v2h12.59l-8.9 8.9 1.41 1.41 8.9-8.9v12.59h2v-12.59l8.9 8.9 1.41-1.41-8.9-8.9h12.59v-2h-12.59l8.9-8.9-1.41-1.41zm-40-36.59h2v2h-2zm0 4h2v2h-2zm0 4h2v2h-2zm0 4h2v2h-2zm0 4h2v2h-2zm0 4h2v2h-2zm0 4h2v2h-2zm0 4h2v2h-2zm0 4h2v2h-2zm0 4h2v2h-2zm0 4h2v2h-2zm0 4h2v2h-2zm0 4h2v2h-2zm0 4h2v2h-2zm0 4h2v2h-2zm0 4h2v2h-2zm0 4h2v2h-2zm0 4h2v2h-2zm0 4h2v2h-2zm0 4h2v2h-2zm4 0h2v2h-2zm4 0h2v2h-2zm4 0h2v2h-2zm4 0h2v2h-2zm4 0h2v2h-2zm4 0h2v2h-2zm4 0h2v2h-2zm4 0h2v2h-2zm4 0h2v2h-2zm4 0h2v2h-2zm4 0h2v2h-2zm4 0h2v2h-2zm4 0h2v2h-2zm4 0h2v2h-2zm4 0h2v2h-2zm4 0h2v2h-2zm4 0h2v2h-2zm4 0h2v2h-2zm4 0h2v2h-2zm-72-76h2v2h-2zm4 0h2v2h-2zm4 0h2v2h-2zm4 0h2v2h-2zm4 0h2v2h-2zm4 0h2v2h-2zm4 0h2v2h-2zm4 0h2v2h-2zm4 0h2v2h-2zm4 0h2v2h-2zm4 0h2v2h-2zm4 0h2v2h-2zm4 0h2v2h-2zm4 0h2v2h-2zm4 0h2v2h-2zm4 0h2v2h-2zm4 0h2v2h-2zm4 0h2v2h-2zm4 0h2v2h-2zm0 4h2v2h-2zm0 4h2v2h-2zm0 4h2v2h-2zm0 4h2v2h-2zm0 4h2v2h-2zm0 4h2v2h-2zm0 4h2v2h-2zm0 4h2v2h-2zm0 4h2v2h-2zm0 4h2v2h-2zm0 4h2v2h-2zm0 4h2v2h-2zm0 4h2v2h-2zm0 4h2v2h-2zm0 4h2v2h-2zm0 4h2v2h-2zm0 4h2v2h-2zm0 4h2v2h-2zm-72-68h70v70h-70zm2 68h66v-66h-66zm2-64h62v62h-62zm2 60h58v-58h-58zm2-39.6v-16.4h16.4a29.1 29.1 0 0 0-16.4 16.4zm2-14.4v6.67a31.17 31.17 0 0 1 6.67-6.67zm-2 52v-16.4a29.1 29.1 0 0 0 16.4 16.4zm2-8.67v6.67h6.67a31.17 31.17 0 0 1-6.67-6.67zm52 8.67h-16.4a29.1 29.1 0 0 0 16.4-16.4zm-8.67-2h6.67v-6.67a31.17 31.17 0 0 1-6.67 6.67zm8.67-52v16.4a29.1 29.1 0 0 0-16.4-16.4zm-2 8.67v-6.67h-6.67a31.17 31.17 0 0 1 6.67 6.67zm-26-8.67h2v2h-2zm7.02 0.66 1.93 0.52-0.51 1.93-1.94-0.52zm6.61 2.46 1.74 1-1 1.73-1.74-1zm5.75 4.08 1.42 1.42-1.42 1.4-1.4-1.4zm4.5 5.43 1 1.74-1.73 1-1-1.74zm2.94 6.42 0.52 1.93-1.93 0.52-0.52-1.94zm1.18 6.95v2h-2v-2zm-0.66 7.02-0.52 1.93-1.93-0.51 0.52-1.94zm-2.46 6.61-1 1.74-1.73-1 1-1.74zm-4.08 5.75-1.42 1.42-1.4-1.42 1.4-1.4zm-5.43 4.5-1.74 1-1-1.73 1.74-1zm-13.37 4.12h-2v-2h2zm6.95-1.18-1.93 0.52-0.52-1.93 1.94-0.52zm-13.97 0.52-1.93-0.52 0.51-1.93 1.94 0.52zm-6.61-2.46-1.74-1 1-1.73 1.74 1zm-5.75-4.08-1.42-1.42 1.42-1.4 1.4 1.4zm-4.5-5.43-1-1.74 1.73-1 1 1.74zm-2.94-6.42-0.52-1.93 1.93-0.52 0.52 1.94zm-1.18-6.95v-2h2v2zm0.66-7.02 0.52-1.93 1.93 0.51-0.52 1.94zm2.46-6.61 1-1.74 1.73 1-1 1.74zm4.08-5.75 1.42-1.42 1.4 1.42-1.4 1.4zm5.43-4.5 1.74-1 1 1.73-1.74 1zm6.42-2.94 1.93-0.52 0.52 1.93-1.94 0.52zm7.95 48.82a23 23 0 1 1 0-46 23 23 0 0 1 0 46zm0-2a21 21 0 1 0 0-42 21 21 0 0 0 0 42zm0-2a19 19 0 1 1 0-38 19 19 0 0 1 0 38zm0-2a17 17 0 1 0 0-34 17 17 0 0 0 0 34zm-159 60.59v-12.59h-2v12.59l-8.9-8.9-1.41 1.41 8.9 8.9h-12.59v2h12.59l-8.9 8.9 1.41 1.41 8.9-8.9v12.59h2v-12.59l8.9 8.9 1.41-1.41-8.9-8.9h12.59v-2h-12.59l8.9-8.9-1.41-1.41zm-40-36.59h2v2h-2zm0 4h2v2h-2zm0 4h2v2h-2zm0 4h2v2h-2zm0 4h2v2h-2zm0 4h2v2h-2zm0 4h2v2h-2zm0 4h2v2h-2zm0 4h2v2h-2zm0 4h2v2h-2zm0 4h2v2h-2zm0 4h2v2h-2zm0 4h2v2h-2zm0 4h2v2h-2zm0 4h2v2h-2zm0 4h2v2h-2zm0 4h2v2h-2zm0 4h2v2h-2zm0 4h2v2h-2zm0 4h2v2h-2zm4 0h2v2h-2zm4 0h2v2h-2zm4 0h2v2h-2zm4 0h2v2h-2zm4 0h2v2h-2zm4 0h2v2h-2zm4 0h2v2h-2zm4 0h2v2h-2zm4 0h2v2h-2zm4 0h2v2h-2zm4 0h2v2h-2zm4 0h2v2h-2zm4 0h2v2h-2zm4 0h2v2h-2zm4 0h2v2h-2zm4 0h2v2h-2zm4 0h2v2h-2zm4 0h2v2h-2zm4 0h2v2h-2zm-72-76h2v2h-2zm4 0h2v2h-2zm4 0h2v2h-2zm4 0h2v2h-2zm4 0h2v2h-2zm4 0h2v2h-2zm4 0h2v2h-2zm4 0h2v2h-2zm4 0h2v2h-2zm4 0h2v2h-2zm4 0h2v2h-2zm4 0h2v2h-2zm4 0h2v2h-2zm4 0h2v2h-2zm4 0h2v2h-2zm4 0h2v2h-2zm4 0h2v2h-2zm4 0h2v2h-2zm4 0h2v2h-2zm0 4h2v2h-2zm0 4h2v2h-2zm0 4h2v2h-2zm0 4h2v2h-2zm0 4h2v2h-2zm0 4h2v2h-2zm0 4h2v2h-2zm0 4h2v2h-2zm0 4h2v2h-2zm0 4h2v2h-2zm0 4h2v2h-2zm0 4h2v2h-2zm0 4h2v2h-2zm0 4h2v2h-2zm0 4h2v2h-2zm0 4h2v2h-2zm0 4h2v2h-2zm0 4h2v2h-2zm-72-68h70v70h-70zm2 68h66v-66h-66zm2-64h62v62h-62zm2 60h58v-58h-58zm2-39.6v-16.4h16.4a29.1 29.1 0 0 0-16.4 16.4zm2-14.4v6.67a31.17 31.17 0 0 1 6.67-6.67zm-2 52v-16.4a29.1 29.1 0 0 0 16.4 16.4zm2-8.67v6.67h6.67a31.17 31.17 0 0 1-6.67-6.67zm52 8.67h-16.4a29.1 29.1 0 0 0 16.4-16.4zm-8.67-2h6.67v-6.67a31.17 31.17 0 0 1-6.67 6.67zm8.67-52v16.4a29.1 29.1 0 0 0-16.4-16.4zm-2 8.67v-6.67h-6.67a31.17 31.17 0 0 1 6.67 6.67zm-26-8.67h2v2h-2zm7.02 0.66 1.93 0.52-0.51 1.93-1.94-0.52zm6.61 2.46 1.74 1-1 1.73-1.74-1zm5.75 4.08 1.42 1.42-1.42 1.4-1.4-1.4zm4.5 5.43 1 1.74-1.73 1-1-1.74zm2.94 6.42 0.52 1.93-1.93 0.52-0.52-1.94zm1.18 6.95v2h-2v-2zm-0.66 7.02-0.52 1.93-1.93-0.51 0.52-1.94zm-2.46 6.61-1 1.74-1.73-1 1-1.74zm-4.08 5.75-1.42 1.42-1.4-1.42 1.4-1.4zm-5.43 4.5-1.74 1-1-1.73 1.74-1zm-13.37 4.12h-2v-2h2zm6.95-1.18-1.93 0.52-0.52-1.93 1.94-0.52zm-13.97 0.52-1.93-0.52 0.51-1.93 1.94 0.52zm-6.61-2.46-1.74-1 1-1.73 1.74 1zm-5.75-4.08-1.42-1.42 1.42-1.4 1.4 1.4zm-4.5-5.43-1-1.74 1.73-1 1 1.74zm-2.94-6.42-0.52-1.93 1.93-0.52 0.52 1.94zm-1.18-6.95v-2h2v2zm0.66-7.02 0.52-1.93 1.93 0.51-0.52 1.94zm2.46-6.61 1-1.74 1.73 1-1 1.74zm4.08-5.75 1.42-1.42 1.4 1.42-1.4 1.4zm5.43-4.5 1.74-1 1 1.73-1.74 1zm6.42-2.94 1.93-0.52 0.52 1.93-1.94 0.52zm7.95 48.82a23 23 0 1 1 0-46 23 23 0 0 1 0 46zm0-2a21 21 0 1 0 0-42 21 21 0 0 0 0 42zm0-2a19 19 0 1 1 0-38 19 19 0 0 1 0 38zm0-2a17 17 0 1 0 0-34 17 17 0 0 0 0 34zm1 60.59v-12.59h-2v12.59l-8.9-8.9-1.41 1.41 8.9 8.9h-12.59v2h12.59l-8.9 8.9 1.41 1.41 8.9-8.9v12.59h2v-12.59l8.9 8.9 1.41-1.41-8.9-8.9h12.59v-2h-12.59l8.9-8.9-1.41-1.41zm-40-36.59h2v2h-2zm0 4h2v2h-2zm0 4h2v2h-2zm0 4h2v2h-2zm0 4h2v2h-2zm0 4h2v2h-2zm0 4h2v2h-2zm0 4h2v2h-2zm0 4h2v2h-2zm0 4h2v2h-2zm0 4h2v2h-2zm0 4h2v2h-2zm0 4h2v2h-2zm0 4h2v2h-2zm0 4h2v2h-2zm0 4h2v2h-2zm0 4h2v2h-2zm0 4h2v2h-2zm0 4h2v2h-2zm0 4h2v2h-2zm4 0h2v2h-2zm4 0h2v2h-2zm4 0h2v2h-2zm4 0h2v2h-2zm4 0h2v2h-2zm4 0h2v2h-2zm4 0h2v2h-2zm4 0h2v2h-2zm4 0h2v2h-2zm4 0h2v2h-2zm4 0h2v2h-2zm4 0h2v2h-2zm4 0h2v2h-2zm4 0h2v2h-2zm4 0h2v2h-2zm4 0h2v2h-2zm4 0h2v2h-2zm4 0h2v2h-2zm4 0h2v2h-2zm-72-76h2v2h-2zm4 0h2v2h-2zm4 0h2v2h-2zm4 0h2v2h-2zm4 0h2v2h-2zm4 0h2v2h-2zm4 0h2v2h-2zm4 0h2v2h-2zm4 0h2v2h-2zm4 0h2v2h-2zm4 0h2v2h-2zm4 0h2v2h-2zm4 0h2v2h-2zm4 0h2v2h-2zm4 0h2v2h-2zm4 0h2v2h-2zm4 0h2v2h-2zm4 0h2v2h-2zm4 0h2v2h-2zm0 4h2v2h-2zm0 4h2v2h-2zm0 4h2v2h-2zm0 4h2v2h-2zm0 4h2v2h-2zm0 4h2v2h-2zm0 4h2v2h-2zm0 4h2v2h-2zm0 4h2v2h-2zm0 4h2v2h-2zm0 4h2v2h-2zm0 4h2v2h-2zm0 4h2v2h-2zm0 4h2v2h-2zm0 4h2v2h-2zm0 4h2v2h-2zm0 4h2v2h-2zm0 4h2v2h-2zm-72-68h70v70h-70zm2 68h66v-66h-66zm2-64h62v62h-62zm2 60h58v-58h-58zm2-39.6v-16.4h16.4a29.1 29.1 0 0 0-16.4 16.4zm2-14.4v6.67a31.17 31.17 0 0 1 6.67-6.67zm-2 52v-16.4a29.1 29.1 0 0 0 16.4 16.4zm2-8.67v6.67h6.67a31.17 31.17 0 0 1-6.67-6.67zm52 8.67h-16.4a29.1 29.1 0 0 0 16.4-16.4zm-8.67-2h6.67v-6.67a31.17 31.17 0 0 1-6.67 6.67zm8.67-52v16.4a29.1 29.1 0 0 0-16.4-16.4zm-2 8.67v-6.67h-6.67a31.17 31.17 0 0 1 6.67 6.67zm-26-8.67h2v2h-2zm7.02 0.66 1.93 0.52-0.51 1.93-1.94-0.52zm6.61 2.46 1.74 1-1 1.73-1.74-1zm5.75 4.08 1.42 1.42-1.42 1.4-1.4-1.4zm4.5 5.43 1 1.74-1.73 1-1-1.74zm2.94 6.42 0.52 1.93-1.93 0.52-0.52-1.94zm1.18 6.95v2h-2v-2zm-0.66 7.02-0.52 1.93-1.93-0.51 0.52-1.94zm-2.46 6.61-1 1.74-1.73-1 1-1.74zm-4.08 5.75-1.42 1.42-1.4-1.42 1.4-1.4zm-5.43 4.5-1.74 1-1-1.73 1.74-1zm-13.37 4.12h-2v-2h2zm6.95-1.18-1.93 0.52-0.52-1.93 1.94-0.52zm-13.97 0.52-1.93-0.52 0.51-1.93 1.94 0.52zm-6.61-2.46-1.74-1 1-1.73 1.74 1zm-5.75-4.08-1.42-1.42 1.42-1.4 1.4 1.4zm-4.5-5.43-1-1.74 1.73-1 1 1.74zm-2.94-6.42-0.52-1.93 1.93-0.52 0.52 1.94zm-1.18-6.95v-2h2v2zm0.66-7.02 0.52-1.93 1.93 0.51-0.52 1.94zm2.46-6.61 1-1.74 1.73 1-1 1.74zm4.08-5.75 1.42-1.42 1.4 1.42-1.4 1.4zm5.43-4.5 1.74-1 1 1.73-1.74 1zm6.42-2.94 1.93-0.52 0.52 1.93-1.94 0.52zm7.95 48.82a23 23 0 1 1 0-46 23 23 0 0 1 0 46zm0-2a21 21 0 1 0 0-42 21 21 0 0 0 0 42zm0-2a19 19 0 1 1 0-38 19 19 0 0 1 0 38zm0-2a17 17 0 1 0 0-34 17 17 0 0 0 0 34zm81-99.41v-12.59h-2v12.59l-8.9-8.9-1.41 1.41 8.9 8.9h-12.59v2h12.59l-8.9 8.9 1.41 1.41 8.9-8.9v12.59h2v-12.59l8.9 8.9 1.41-1.41-8.9-8.9h12.59v-2h-12.59l8.9-8.9-1.41-1.41zm-40-36.59h2v2h-2zm0 4h2v2h-2zm0 4h2v2h-2zm0 4h2v2h-2zm0 4h2v2h-2zm0 4h2v2h-2zm0 4h2v2h-2zm0 4h2v2h-2zm0 4h2v2h-2zm0 4h2v2h-2zm0 4h2v2h-2zm0 4h2v2h-2zm0 4h2v2h-2zm0 4h2v2h-2zm0 4h2v2h-2zm0 4h2v2h-2zm0 4h2v2h-2zm0 4h2v2h-2zm0 4h2v2h-2zm0 4h2v2h-2zm4 0h2v2h-2zm4 0h2v2h-2zm4 0h2v2h-2zm4 0h2v2h-2zm4 0h2v2h-2zm4 0h2v2h-2zm4 0h2v2h-2zm4 0h2v2h-2zm4 0h2v2h-2zm4 0h2v2h-2zm4 0h2v2h-2zm4 0h2v2h-2zm4 0h2v2h-2zm4 0h2v2h-2zm4 0h2v2h-2zm4 0h2v2h-2zm4 0h2v2h-2zm4 0h2v2h-2zm4 0h2v2h-2zm-72-76h2v2h-2zm4 0h2v2h-2zm4 0h2v2h-2zm4 0h2v2h-2zm4 0h2v2h-2zm4 0h2v2h-2zm4 0h2v2h-2zm4 0h2v2h-2zm4 0h2v2h-2zm4 0h2v2h-2zm4 0h2v2h-2zm4 0h2v2h-2zm4 0h2v2h-2zm4 0h2v2h-2zm4 0h2v2h-2zm4 0h2v2h-2zm4 0h2v2h-2zm4 0h2v2h-2zm4 0h2v2h-2zm0 4h2v2h-2zm0 4h2v2h-2zm0 4h2v2h-2zm0 4h2v2h-2zm0 4h2v2h-2zm0 4h2v2h-2zm0 4h2v2h-2zm0 4h2v2h-2zm0 4h2v2h-2zm0 4h2v2h-2zm0 4h2v2h-2zm0 4h2v2h-2zm0 4h2v2h-2zm0 4h2v2h-2zm0 4h2v2h-2zm0 4h2v2h-2zm0 4h2v2h-2zm0 4h2v2h-2zm-72-68h70v70h-70zm2 68h66v-66h-66zm2-64h62v62h-62zm2 60h58v-58h-58zm2-39.6v-16.4h16.4a29.1 29.1 0 0 0-16.4 16.4zm2-14.4v6.67a31.17 31.17 0 0 1 6.67-6.67zm-2 52v-16.4a29.1 29.1 0 0 0 16.4 16.4zm2-8.67v6.67h6.67a31.17 31.17 0 0 1-6.67-6.67zm52 8.67h-16.4a29.1 29.1 0 0 0 16.4-16.4zm-8.67-2h6.67v-6.67a31.17 31.17 0 0 1-6.67 6.67zm8.67-52v16.4a29.1 29.1 0 0 0-16.4-16.4zm-2 8.67v-6.67h-6.67a31.17 31.17 0 0 1 6.67 6.67zm-26-8.67h2v2h-2zm7.02 0.66 1.93 0.52-0.51 1.93-1.94-0.52zm6.61 2.46 1.74 1-1 1.73-1.74-1zm5.75 4.08 1.42 1.42-1.42 1.4-1.4-1.4zm4.5 5.43 1 1.74-1.73 1-1-1.74zm2.94 6.42 0.52 1.93-1.93 0.52-0.52-1.94zm1.18 6.95v2h-2v-2zm-0.66 7.02-0.52 1.93-1.93-0.51 0.52-1.94zm-2.46 6.61-1 1.74-1.73-1 1-1.74zm-4.08 5.75-1.42 1.42-1.4-1.42 1.4-1.4zm-5.43 4.5-1.74 1-1-1.73 1.74-1zm-13.37 4.12h-2v-2h2zm6.95-1.18-1.93 0.52-0.52-1.93 1.94-0.52zm-13.97 0.52-1.93-0.52 0.51-1.93 1.94 0.52zm-6.61-2.46-1.74-1 1-1.73 1.74 1zm-5.75-4.08-1.42-1.42 1.42-1.4 1.4 1.4zm-4.5-5.43-1-1.74 1.73-1 1 1.74zm-2.94-6.42-0.52-1.93 1.93-0.52 0.52 1.94zm-1.18-6.95v-2h2v2zm0.66-7.02 0.52-1.93 1.93 0.51-0.52 1.94zm2.46-6.61 1-1.74 1.73 1-1 1.74zm4.08-5.75 1.42-1.42 1.4 1.42-1.4 1.4zm5.43-4.5 1.74-1 1 1.73-1.74 1zm6.42-2.94 1.93-0.52 0.52 1.93-1.94 0.52zm7.95 48.82a23 23 0 1 1 0-46 23 23 0 0 1 0 46zm0-2a21 21 0 1 0 0-42 21 21 0 0 0 0 42zm0-2a19 19 0 1 1 0-38 19 19 0 0 1 0 38zm0-2a17 17 0 1 0 0-34 17 17 0 0 0 0 34zm81-19.41v-12.59h-2v12.59l-8.9-8.9-1.41 1.41 8.9 8.9h-12.59v2h12.59l-8.9 8.9 1.41 1.41 8.9-8.9v12.59h2v-12.59l8.9 8.9 1.41-1.41-8.9-8.9h12.59v-2h-12.59l8.9-8.9-1.41-1.41zm-40-36.59h2v2h-2zm0 4h2v2h-2zm0 4h2v2h-2zm0 4h2v2h-2zm0 4h2v2h-2zm0 4h2v2h-2zm0 4h2v2h-2zm0 4h2v2h-2zm0 4h2v2h-2zm0 4h2v2h-2zm0 4h2v2h-2zm0 4h2v2h-2zm0 4h2v2h-2zm0 4h2v2h-2zm0 4h2v2h-2zm0 4h2v2h-2zm0 4h2v2h-2zm0 4h2v2h-2zm0 4h2v2h-2zm0 4h2v2h-2zm4 0h2v2h-2zm4 0h2v2h-2zm4 0h2v2h-2zm4 0h2v2h-2zm4 0h2v2h-2zm4 0h2v2h-2zm4 0h2v2h-2zm4 0h2v2h-2zm4 0h2v2h-2zm4 0h2v2h-2zm4 0h2v2h-2zm4 0h2v2h-2zm4 0h2v2h-2zm4 0h2v2h-2zm4 0h2v2h-2zm4 0h2v2h-2zm4 0h2v2h-2zm4 0h2v2h-2zm4 0h2v2h-2zm-72-76h2v2h-2zm4 0h2v2h-2zm4 0h2v2h-2zm4 0h2v2h-2zm4 0h2v2h-2zm4 0h2v2h-2zm4 0h2v2h-2zm4 0h2v2h-2zm4 0h2v2h-2zm4 0h2v2h-2zm4 0h2v2h-2zm4 0h2v2h-2zm4 0h2v2h-2zm4 0h2v2h-2zm4 0h2v2h-2zm4 0h2v2h-2zm4 0h2v2h-2zm4 0h2v2h-2zm4 0h2v2h-2zm0 4h2v2h-2zm0 4h2v2h-2zm0 4h2v2h-2zm0 4h2v2h-2zm0 4h2v2h-2zm0 4h2v2h-2zm0 4h2v2h-2zm0 4h2v2h-2zm0 4h2v2h-2zm0 4h2v2h-2zm0 4h2v2h-2zm0 4h2v2h-2zm0 4h2v2h-2zm0 4h2v2h-2zm0 4h2v2h-2zm0 4h2v2h-2zm0 4h2v2h-2zm0 4h2v2h-2zm-72-68h70v70h-70zm2 68h66v-66h-66zm2-64h62v62h-62zm2 60h58v-58h-58zm2-39.6v-16.4h16.4a29.1 29.1 0 0 0-16.4 16.4zm2-14.4v6.67a31.17 31.17 0 0 1 6.67-6.67zm-2 52v-16.4a29.1 29.1 0 0 0 16.4 16.4zm2-8.67v6.67h6.67a31.17 31.17 0 0 1-6.67-6.67zm52 8.67h-16.4a29.1 29.1 0 0 0 16.4-16.4zm-8.67-2h6.67v-6.67a31.17 31.17 0 0 1-6.67 6.67zm8.67-52v16.4a29.1 29.1 0 0 0-16.4-16.4zm-2 8.67v-6.67h-6.67a31.17 31.17 0 0 1 6.67 6.67zm-26-8.67h2v2h-2zm7.02 0.66 1.93 0.52-0.51 1.93-1.94-0.52zm6.61 2.46 1.74 1-1 1.73-1.74-1zm5.75 4.08 1.42 1.42-1.42 1.4-1.4-1.4zm4.5 5.43 1 1.74-1.73 1-1-1.74zm2.94 6.42 0.52 1.93-1.93 0.52-0.52-1.94zm1.18 6.95v2h-2v-2zm-0.66 7.02-0.52 1.93-1.93-0.51 0.52-1.94zm-2.46 6.61-1 1.74-1.73-1 1-1.74zm-4.08 5.75-1.42 1.42-1.4-1.42 1.4-1.4zm-5.43 4.5-1.74 1-1-1.73 1.74-1zm-13.37 4.12h-2v-2h2zm6.95-1.18-1.93 0.52-0.52-1.93 1.94-0.52zm-13.97 0.52-1.93-0.52 0.51-1.93 1.94 0.52zm-6.61-2.46-1.74-1 1-1.73 1.74 1zm-5.75-4.08-1.42-1.42 1.42-1.4 1.4 1.4zm-4.5-5.43-1-1.74 1.73-1 1 1.74zm-2.94-6.42-0.52-1.93 1.93-0.52 0.52 1.94zm-1.18-6.95v-2h2v2zm0.66-7.02 0.52-1.93 1.93 0.51-0.52 1.94zm2.46-6.61 1-1.74 1.73 1-1 1.74zm4.08-5.75 1.42-1.42 1.4 1.42-1.4 1.4zm5.43-4.5 1.74-1 1 1.73-1.74 1zm6.42-2.94 1.93-0.52 0.52 1.93-1.94 0.52zm7.95 48.82a23 23 0 1 1 0-46 23 23 0 0 1 0 46zm0-2a21 21 0 1 0 0-42 21 21 0 0 0 0 42zm0-2a19 19 0 1 1 0-38 19 19 0 0 1 0 38zm0-2a17 17 0 1 0 0-34 17 17 0 0 0 0 34zm-79 60.59v-12.59h-2v12.59l-8.9-8.9-1.41 1.41 8.9 8.9h-12.59v2h12.59l-8.9 8.9 1.41 1.41 8.9-8.9v12.59h2v-12.59l8.9 8.9 1.41-1.41-8.9-8.9h12.59v-2h-12.59l8.9-8.9-1.41-1.41zm-40-36.59h2v2h-2zm0 4h2v2h-2zm0 4h2v2h-2zm0 4h2v2h-2zm0 4h2v2h-2zm0 4h2v2h-2zm0 4h2v2h-2zm0 4h2v2h-2zm0 4h2v2h-2zm0 4h2v2h-2zm0 4h2v2h-2zm0 4h2v2h-2zm0 4h2v2h-2zm0 4h2v2h-2zm0 4h2v2h-2zm0 4h2v2h-2zm0 4h2v2h-2zm0 4h2v2h-2zm0 4h2v2h-2zm0 4h2v2h-2zm4 0h2v2h-2zm4 0h2v2h-2zm4 0h2v2h-2zm4 0h2v2h-2zm4 0h2v2h-2zm4 0h2v2h-2zm4 0h2v2h-2zm4 0h2v2h-2zm4 0h2v2h-2zm4 0h2v2h-2zm4 0h2v2h-2zm4 0h2v2h-2zm4 0h2v2h-2zm4 0h2v2h-2zm4 0h2v2h-2zm4 0h2v2h-2zm4 0h2v2h-2zm4 0h2v2h-2zm4 0h2v2h-2zm-72-76h2v2h-2zm4 0h2v2h-2zm4 0h2v2h-2zm4 0h2v2h-2zm4 0h2v2h-2zm4 0h2v2h-2zm4 0h2v2h-2zm4 0h2v2h-2zm4 0h2v2h-2zm4 0h2v2h-2zm4 0h2v2h-2zm4 0h2v2h-2zm4 0h2v2h-2zm4 0h2v2h-2zm4 0h2v2h-2zm4 0h2v2h-2zm4 0h2v2h-2zm4 0h2v2h-2zm4 0h2v2h-2zm0 4h2v2h-2zm0 4h2v2h-2zm0 4h2v2h-2zm0 4h2v2h-2zm0 4h2v2h-2zm0 4h2v2h-2zm0 4h2v2h-2zm0 4h2v2h-2zm0 4h2v2h-2zm0 4h2v2h-2zm0 4h2v2h-2zm0 4h2v2h-2zm0 4h2v2h-2zm0 4h2v2h-2zm0 4h2v2h-2zm0 4h2v2h-2zm0 4h2v2h-2zm0 4h2v2h-2zm-72-68h70v70h-70zm2 68h66v-66h-66zm2-64h62v62h-62zm2 60h58v-58h-58zm2-39.6v-16.4h16.4a29.1 29.1 0 0 0-16.4 16.4zm2-14.4v6.67a31.17 31.17 0 0 1 6.67-6.67zm-2 52v-16.4a29.1 29.1 0 0 0 16.4 16.4zm2-8.67v6.67h6.67a31.17 31.17 0 0 1-6.67-6.67zm52 8.67h-16.4a29.1 29.1 0 0 0 16.4-16.4zm-8.67-2h6.67v-6.67a31.17 31.17 0 0 1-6.67 6.67zm8.67-52v16.4a29.1 29.1 0 0 0-16.4-16.4zm-2 8.67v-6.67h-6.67a31.17 31.17 0 0 1 6.67 6.67zm-26-8.67h2v2h-2zm7.02 0.66 1.93 0.52-0.51 1.93-1.94-0.52zm6.61 2.46 1.74 1-1 1.73-1.74-1zm5.75 4.08 1.42 1.42-1.42 1.4-1.4-1.4zm4.5 5.43 1 1.74-1.73 1-1-1.74zm2.94 6.42 0.52 1.93-1.93 0.52-0.52-1.94zm1.18 6.95v2h-2v-2zm-0.66 7.02-0.52 1.93-1.93-0.51 0.52-1.94zm-2.46 6.61-1 1.74-1.73-1 1-1.74zm-4.08 5.75-1.42 1.42-1.4-1.42 1.4-1.4zm-5.43 4.5-1.74 1-1-1.73 1.74-1zm-13.37 4.12h-2v-2h2zm6.95-1.18-1.93 0.52-0.52-1.93 1.94-0.52zm-13.97 0.52-1.93-0.52 0.51-1.93 1.94 0.52zm-6.61-2.46-1.74-1 1-1.73 1.74 1zm-5.75-4.08-1.42-1.42 1.42-1.4 1.4 1.4zm-4.5-5.43-1-1.74 1.73-1 1 1.74zm-2.94-6.42-0.52-1.93 1.93-0.52 0.52 1.94zm-1.18-6.95v-2h2v2zm0.66-7.02 0.52-1.93 1.93 0.51-0.52 1.94zm2.46-6.61 1-1.74 1.73 1-1 1.74zm4.08-5.75 1.42-1.42 1.4 1.42-1.4 1.4zm5.43-4.5 1.74-1 1 1.73-1.74 1zm6.42-2.94 1.93-0.52 0.52 1.93-1.94 0.52zm7.95 48.82a23 23 0 1 1 0-46 23 23 0 0 1 0 46zm0-2a21 21 0 1 0 0-42 21 21 0 0 0 0 42zm0-2a19 19 0 1 1 0-38 19 19 0 0 1 0 38zm0-2a17 17 0 1 0 0-34 17 17 0 0 0 0 34zm81-19.41v-12.59h-2v12.59l-8.9-8.9-1.41 1.41 8.9 8.9h-12.59v2h12.59l-8.9 8.9 1.41 1.41 8.9-8.9v12.59h2v-12.59l8.9 8.9 1.41-1.41-8.9-8.9h12.59v-2h-12.59l8.9-8.9-1.41-1.41zm-40-36.59h2v2h-2zm0 4h2v2h-2zm0 4h2v2h-2zm0 4h2v2h-2zm0 4h2v2h-2zm0 4h2v2h-2zm0 4h2v2h-2zm0 4h2v2h-2zm0 4h2v2h-2zm0 4h2v2h-2zm0 4h2v2h-2zm0 4h2v2h-2zm0 4h2v2h-2zm0 4h2v2h-2zm0 4h2v2h-2zm0 4h2v2h-2zm0 4h2v2h-2zm0 4h2v2h-2zm0 4h2v2h-2zm0 4h2v2h-2zm4 0h2v2h-2zm4 0h2v2h-2zm4 0h2v2h-2zm4 0h2v2h-2zm4 0h2v2h-2zm4 0h2v2h-2zm4 0h2v2h-2zm4 0h2v2h-2zm4 0h2v2h-2zm4 0h2v2h-2zm4 0h2v2h-2zm4 0h2v2h-2zm4 0h2v2h-2zm4 0h2v2h-2zm4 0h2v2h-2zm4 0h2v2h-2zm4 0h2v2h-2zm4 0h2v2h-2zm4 0h2v2h-2zm-72-76h2v2h-2zm4 0h2v2h-2zm4 0h2v2h-2zm4 0h2v2h-2zm4 0h2v2h-2zm4 0h2v2h-2zm4 0h2v2h-2zm4 0h2v2h-2zm4 0h2v2h-2zm4 0h2v2h-2zm4 0h2v2h-2zm4 0h2v2h-2zm4 0h2v2h-2zm4 0h2v2h-2zm4 0h2v2h-2zm4 0h2v2h-2zm4 0h2v2h-2zm4 0h2v2h-2zm4 0h2v2h-2zm0 4h2v2h-2zm0 4h2v2h-2zm0 4h2v2h-2zm0 4h2v2h-2zm0 4h2v2h-2zm0 4h2v2h-2zm0 4h2v2h-2zm0 4h2v2h-2zm0 4h2v2h-2zm0 4h2v2h-2zm0 4h2v2h-2zm0 4h2v2h-2zm0 4h2v2h-2zm0 4h2v2h-2zm0 4h2v2h-2zm0 4h2v2h-2zm0 4h2v2h-2zm0 4h2v2h-2zm-72-68h70v70h-70zm2 68h66v-66h-66zm2-64h62v62h-62zm2 60h58v-58h-58zm2-39.6v-16.4h16.4a29.1 29.1 0 0 0-16.4 16.4zm2-14.4v6.67a31.17 31.17 0 0 1 6.67-6.67zm-2 52v-16.4a29.1 29.1 0 0 0 16.4 16.4zm2-8.67v6.67h6.67a31.17 31.17 0 0 1-6.67-6.67zm52 8.67h-16.4a29.1 29.1 0 0 0 16.4-16.4zm-8.67-2h6.67v-6.67a31.17 31.17 0 0 1-6.67 6.67zm8.67-52v16.4a29.1 29.1 0 0 0-16.4-16.4zm-2 8.67v-6.67h-6.67a31.17 31.17 0 0 1 6.67 6.67zm-26-8.67h2v2h-2zm7.02 0.66 1.93 0.52-0.51 1.93-1.94-0.52zm6.61 2.46 1.74 1-1 1.73-1.74-1zm5.75 4.08 1.42 1.42-1.42 1.4-1.4-1.4zm4.5 5.43 1 1.74-1.73 1-1-1.74zm2.94 6.42 0.52 1.93-1.93 0.52-0.52-1.94zm1.18 6.95v2h-2v-2zm-0.66 7.02-0.52 1.93-1.93-0.51 0.52-1.94zm-2.46 6.61-1 1.74-1.73-1 1-1.74zm-4.08 5.75-1.42 1.42-1.4-1.42 1.4-1.4zm-5.43 4.5-1.74 1-1-1.73 1.74-1zm-13.37 4.12h-2v-2h2zm6.95-1.18-1.93 0.52-0.52-1.93 1.94-0.52zm-13.97 0.52-1.93-0.52 0.51-1.93 1.94 0.52zm-6.61-2.46-1.74-1 1-1.73 1.74 1zm-5.75-4.08-1.42-1.42 1.42-1.4 1.4 1.4zm-4.5-5.43-1-1.74 1.73-1 1 1.74zm-2.94-6.42-0.52-1.93 1.93-0.52 0.52 1.94zm-1.18-6.95v-2h2v2zm0.66-7.02 0.52-1.93 1.93 0.51-0.52 1.94zm2.46-6.61 1-1.74 1.73 1-1 1.74zm4.08-5.75 1.42-1.42 1.4 1.42-1.4 1.4zm5.43-4.5 1.74-1 1 1.73-1.74 1zm6.42-2.94 1.93-0.52 0.52 1.93-1.94 0.52zm7.95 48.82a23 23 0 1 1 0-46 23 23 0 0 1 0 46zm0-2a21 21 0 1 0 0-42 21 21 0 0 0 0 42zm0-2a19 19 0 1 1 0-38 19 19 0 0 1 0 38zm0-2a17 17 0 1 0 0-34 17 17 0 0 0 0 34zm-159-179.41v-12.59h-2v12.59l-8.9-8.9-1.41 1.41 8.9 8.9h-12.59v2h12.59l-8.9 8.9 1.41 1.41 8.9-8.9v12.59h2v-12.59l8.9 8.9 1.41-1.41-8.9-8.9h12.59v-2h-12.59l8.9-8.9-1.41-1.41zm-40-36.59h2v2h-2zm0 4h2v2h-2zm0 4h2v2h-2zm0 4h2v2h-2zm0 4h2v2h-2zm0 4h2v2h-2zm0 4h2v2h-2zm0 4h2v2h-2zm0 4h2v2h-2zm0 4h2v2h-2zm0 4h2v2h-2zm0 4h2v2h-2zm0 4h2v2h-2zm0 4h2v2h-2zm0 4h2v2h-2zm0 4h2v2h-2zm0 4h2v2h-2zm0 4h2v2h-2zm0 4h2v2h-2zm0 4h2v2h-2zm4 0h2v2h-2zm4 0h2v2h-2zm4 0h2v2h-2zm4 0h2v2h-2zm4 0h2v2h-2zm4 0h2v2h-2zm4 0h2v2h-2zm4 0h2v2h-2zm4 0h2v2h-2zm4 0h2v2h-2zm4 0h2v2h-2zm4 0h2v2h-2zm4 0h2v2h-2zm4 0h2v2h-2zm4 0h2v2h-2zm4 0h2v2h-2zm4 0h2v2h-2zm4 0h2v2h-2zm4 0h2v2h-2zm-72-76h2v2h-2zm4 0h2v2h-2zm4 0h2v2h-2zm4 0h2v2h-2zm4 0h2v2h-2zm4 0h2v2h-2zm4 0h2v2h-2zm4 0h2v2h-2zm4 0h2v2h-2zm4 0h2v2h-2zm4 0h2v2h-2zm4 0h2v2h-2zm4 0h2v2h-2zm4 0h2v2h-2zm4 0h2v2h-2zm4 0h2v2h-2zm4 0h2v2h-2zm4 0h2v2h-2zm4 0h2v2h-2zm0 4h2v2h-2zm0 4h2v2h-2zm0 4h2v2h-2zm0 4h2v2h-2zm0 4h2v2h-2zm0 4h2v2h-2zm0 4h2v2h-2zm0 4h2v2h-2zm0 4h2v2h-2zm0 4h2v2h-2zm0 4h2v2h-2zm0 4h2v2h-2zm0 4h2v2h-2zm0 4h2v2h-2zm0 4h2v2h-2zm0 4h2v2h-2zm0 4h2v2h-2zm0 4h2v2h-2zm-72-68h70v70h-70zm2 68h66v-66h-66zm2-64h62v62h-62zm2 60h58v-58h-58zm2-39.6v-16.4h16.4a29.1 29.1 0 0 0-16.4 16.4zm2-14.4v6.67a31.17 31.17 0 0 1 6.67-6.67zm-2 52v-16.4a29.1 29.1 0 0 0 16.4 16.4zm2-8.67v6.67h6.67a31.17 31.17 0 0 1-6.67-6.67zm52 8.67h-16.4a29.1 29.1 0 0 0 16.4-16.4zm-8.67-2h6.67v-6.67a31.17 31.17 0 0 1-6.67 6.67zm8.67-52v16.4a29.1 29.1 0 0 0-16.4-16.4zm-2 8.67v-6.67h-6.67a31.17 31.17 0 0 1 6.67 6.67zm-26-8.67h2v2h-2zm7.02 0.66 1.93 0.52-0.51 1.93-1.94-0.52zm6.61 2.46 1.74 1-1 1.73-1.74-1zm5.75 4.08 1.42 1.42-1.42 1.4-1.4-1.4zm4.5 5.43 1 1.74-1.73 1-1-1.74zm2.94 6.42 0.52 1.93-1.93 0.52-0.52-1.94zm1.18 6.95v2h-2v-2zm-0.66 7.02-0.52 1.93-1.93-0.51 0.52-1.94zm-2.46 6.61-1 1.74-1.73-1 1-1.74zm-4.08 5.75-1.42 1.42-1.4-1.42 1.4-1.4zm-5.43 4.5-1.74 1-1-1.73 1.74-1zm-13.37 4.12h-2v-2h2zm6.95-1.18-1.93 0.52-0.52-1.93 1.94-0.52zm-13.97 0.52-1.93-0.52 0.51-1.93 1.94 0.52zm-6.61-2.46-1.74-1 1-1.73 1.74 1zm-5.75-4.08-1.42-1.42 1.42-1.4 1.4 1.4zm-4.5-5.43-1-1.74 1.73-1 1 1.74zm-2.94-6.42-0.52-1.93 1.93-0.52 0.52 1.94zm-1.18-6.95v-2h2v2zm0.66-7.02 0.52-1.93 1.93 0.51-0.52 1.94zm2.46-6.61 1-1.74 1.73 1-1 1.74zm4.08-5.75 1.42-1.42 1.4 1.42-1.4 1.4zm5.43-4.5 1.74-1 1 1.73-1.74 1zm6.42-2.94 1.93-0.52 0.52 1.93-1.94 0.52zm7.95 48.82a23 23 0 1 1 0-46 23 23 0 0 1 0 46zm0-2a21 21 0 1 0 0-42 21 21 0 0 0 0 42zm0-2a19 19 0 1 1 0-38 19 19 0 0 1 0 38zm0-2a17 17 0 1 0 0-34 17 17 0 0 0 0 34z" fill="#f5df4d" fill-rule="evenodd"/>
</g>
</svg>
