<?xml version="1.0" encoding="UTF-8"?>
<svg version="1.1" viewBox="0 0 320 320" xmlns="http://www.w3.org/2000/svg" xmlns:cc="http://creativecommons.org/ns#" xmlns:dc="http://purl.org/dc/elements/1.1/" xmlns:rdf="http://www.w3.org/1999/02/22-rdf-syntax-ns#">
<metadata>
<rdf:RDF>
<cc:Work rdf:about="">
<dc:format>image/svg+xml</dc:format>
<dc:type rdf:resource="http://purl.org/dc/dcmitype/StillImage"/>
<dc:title/>
</cc:Work>
</rdf:RDF>
</metadata>
<g transform="matrix(1.3333 0 0 1.4035 53.333 84.211)" fill="#f5df4d" fill-rule="evenodd">
<g fill="#f5df4d">
<path d="m9.8 12-9.8-9.8v-1.4l10 10 10-10v1.4l-9.8 9.8zm-4 0-5.8-5.8v-1.4l7.2 7.2zm8.4 0 5.8-5.8v-1.4l-7.2 7.2zm-4.4-12 0.2 0.2 0.2-0.2zm-4 0 4.2 4.2 4.2-4.2h-1.4l-2.8 2.8-2.8-2.8z" fill="#f5df4d"/>
</g>
<g transform="translate(-40)">
<g fill="#f5df4d">
<path d="m9.8 12-9.8-9.8v-1.4l10 10 10-10v1.4l-9.8 9.8zm-4 0-5.8-5.8v-1.4l7.2 7.2zm8.4 0 5.8-5.8v-1.4l-7.2 7.2zm-4.4-12 0.2 0.2 0.2-0.2zm-4 0 4.2 4.2 4.2-4.2h-1.4l-2.8 2.8-2.8-2.8z" fill="#f5df4d"/>
</g>
</g>
<g transform="translate(-20)">
<g fill="#f5df4d">
<path d="m9.8 12-9.8-9.8v-1.4l10 10 10-10v1.4l-9.8 9.8zm-4 0-5.8-5.8v-1.4l7.2 7.2zm8.4 0 5.8-5.8v-1.4l-7.2 7.2zm-4.4-12 0.2 0.2 0.2-0.2zm-4 0 4.2 4.2 4.2-4.2h-1.4l-2.8 2.8-2.8-2.8z" fill="#f5df4d"/>
</g>
</g>
<g transform="translate(180)">
<g fill="#f5df4d">
<path d="m9.8 12-9.8-9.8v-1.4l10 10 10-10v1.4l-9.8 9.8zm-4 0-5.8-5.8v-1.4l7.2 7.2zm8.4 0 5.8-5.8v-1.4l-7.2 7.2zm-4.4-12 0.2 0.2 0.2-0.2zm-4 0 4.2 4.2 4.2-4.2h-1.4l-2.8 2.8-2.8-2.8z" fill="#f5df4d"/>
</g>
</g>
<g transform="translate(160)">
<g fill="#f5df4d">
<path d="m9.8 12-9.8-9.8v-1.4l10 10 10-10v1.4l-9.8 9.8zm-4 0-5.8-5.8v-1.4l7.2 7.2zm8.4 0 5.8-5.8v-1.4l-7.2 7.2zm-4.4-12 0.2 0.2 0.2-0.2zm-4 0 4.2 4.2 4.2-4.2h-1.4l-2.8 2.8-2.8-2.8z" fill="#f5df4d"/>
</g>
</g>
<g transform="translate(140)">
<g fill="#f5df4d">
<path d="m9.8 12-9.8-9.8v-1.4l10 10 10-10v1.4l-9.8 9.8zm-4 0-5.8-5.8v-1.4l7.2 7.2zm8.4 0 5.8-5.8v-1.4l-7.2 7.2zm-4.4-12 0.2 0.2 0.2-0.2zm-4 0 4.2 4.2 4.2-4.2h-1.4l-2.8 2.8-2.8-2.8z" fill="#f5df4d"/>
</g>
</g>
<g transform="translate(120)">
<g fill="#f5df4d">
<path d="m9.8 12-9.8-9.8v-1.4l10 10 10-10v1.4l-9.8 9.8zm-4 0-5.8-5.8v-1.4l7.2 7.2zm8.4 0 5.8-5.8v-1.4l-7.2 7.2zm-4.4-12 0.2 0.2 0.2-0.2zm-4 0 4.2 4.2 4.2-4.2h-1.4l-2.8 2.8-2.8-2.8z" fill="#f5df4d"/>
</g>
</g>
<g transform="translate(100)">
<g fill="#f5df4d">
<path d="m9.8 12-9.8-9.8v-1.4l10 10 10-10v1.4l-9.8 9.8zm-4 0-5.8-5.8v-1.4l7.2 7.2zm8.4 0 5.8-5.8v-1.4l-7.2 7.2zm-4.4-12 0.2 0.2 0.2-0.2zm-4 0 4.2 4.2 4.2-4.2h-1.4l-2.8 2.8-2.8-2.8z" fill="#f5df4d"/>
</g>
</g>
<g transform="translate(80)">
<g fill="#f5df4d">
<path d="m9.8 12-9.8-9.8v-1.4l10 10 10-10v1.4l-9.8 9.8zm-4 0-5.8-5.8v-1.4l7.2 7.2zm8.4 0 5.8-5.8v-1.4l-7.2 7.2zm-4.4-12 0.2 0.2 0.2-0.2zm-4 0 4.2 4.2 4.2-4.2h-1.4l-2.8 2.8-2.8-2.8z" fill="#f5df4d"/>
</g>
</g>
<g transform="translate(60)">
<g fill="#f5df4d">
<path d="m9.8 12-9.8-9.8v-1.4l10 10 10-10v1.4l-9.8 9.8zm-4 0-5.8-5.8v-1.4l7.2 7.2zm8.4 0 5.8-5.8v-1.4l-7.2 7.2zm-4.4-12 0.2 0.2 0.2-0.2zm-4 0 4.2 4.2 4.2-4.2h-1.4l-2.8 2.8-2.8-2.8z" fill="#f5df4d"/>
</g>
</g>
<g transform="translate(40)">
<g fill="#f5df4d">
<path d="m9.8 12-9.8-9.8v-1.4l10 10 10-10v1.4l-9.8 9.8zm-4 0-5.8-5.8v-1.4l7.2 7.2zm8.4 0 5.8-5.8v-1.4l-7.2 7.2zm-4.4-12 0.2 0.2 0.2-0.2zm-4 0 4.2 4.2 4.2-4.2h-1.4l-2.8 2.8-2.8-2.8z" fill="#f5df4d"/>
</g>
</g>
<g transform="translate(20)">
<g fill="#f5df4d">
<path d="m9.8 12-9.8-9.8v-1.4l10 10 10-10v1.4l-9.8 9.8zm-4 0-5.8-5.8v-1.4l7.2 7.2zm8.4 0 5.8-5.8v-1.4l-7.2 7.2zm-4.4-12 0.2 0.2 0.2-0.2zm-4 0 4.2 4.2 4.2-4.2h-1.4l-2.8 2.8-2.8-2.8z" fill="#f5df4d"/>
</g>
</g>
<g transform="translate(0,-60)">
<g fill="#f5df4d">
<path d="m9.8 12-9.8-9.8v-1.4l10 10 10-10v1.4l-9.8 9.8zm-4 0-5.8-5.8v-1.4l7.2 7.2zm8.4 0 5.8-5.8v-1.4l-7.2 7.2zm-4.4-12 0.2 0.2 0.2-0.2zm-4 0 4.2 4.2 4.2-4.2h-1.4l-2.8 2.8-2.8-2.8z" fill="#f5df4d"/>
</g>
<g transform="translate(-40)">
<g fill="#f5df4d">
<path d="m9.8 12-9.8-9.8v-1.4l10 10 10-10v1.4l-9.8 9.8zm-4 0-5.8-5.8v-1.4l7.2 7.2zm8.4 0 5.8-5.8v-1.4l-7.2 7.2zm-4.4-12 0.2 0.2 0.2-0.2zm-4 0 4.2 4.2 4.2-4.2h-1.4l-2.8 2.8-2.8-2.8z" fill="#f5df4d"/>
</g>
</g>
<g transform="translate(-20)">
<g fill="#f5df4d">
<path d="m9.8 12-9.8-9.8v-1.4l10 10 10-10v1.4l-9.8 9.8zm-4 0-5.8-5.8v-1.4l7.2 7.2zm8.4 0 5.8-5.8v-1.4l-7.2 7.2zm-4.4-12 0.2 0.2 0.2-0.2zm-4 0 4.2 4.2 4.2-4.2h-1.4l-2.8 2.8-2.8-2.8z" fill="#f5df4d"/>
</g>
</g>
<g transform="translate(180)">
<g fill="#f5df4d">
<path d="m9.8 12-9.8-9.8v-1.4l10 10 10-10v1.4l-9.8 9.8zm-4 0-5.8-5.8v-1.4l7.2 7.2zm8.4 0 5.8-5.8v-1.4l-7.2 7.2zm-4.4-12 0.2 0.2 0.2-0.2zm-4 0 4.2 4.2 4.2-4.2h-1.4l-2.8 2.8-2.8-2.8z" fill="#f5df4d"/>
</g>
</g>
<g transform="translate(160)">
<g fill="#f5df4d">
<path d="m9.8 12-9.8-9.8v-1.4l10 10 10-10v1.4l-9.8 9.8zm-4 0-5.8-5.8v-1.4l7.2 7.2zm8.4 0 5.8-5.8v-1.4l-7.2 7.2zm-4.4-12 0.2 0.2 0.2-0.2zm-4 0 4.2 4.2 4.2-4.2h-1.4l-2.8 2.8-2.8-2.8z" fill="#f5df4d"/>
</g>
</g>
<g transform="translate(140)">
<g fill="#f5df4d">
<path d="m9.8 12-9.8-9.8v-1.4l10 10 10-10v1.4l-9.8 9.8zm-4 0-5.8-5.8v-1.4l7.2 7.2zm8.4 0 5.8-5.8v-1.4l-7.2 7.2zm-4.4-12 0.2 0.2 0.2-0.2zm-4 0 4.2 4.2 4.2-4.2h-1.4l-2.8 2.8-2.8-2.8z" fill="#f5df4d"/>
</g>
</g>
<g transform="translate(120)">
<g fill="#f5df4d">
<path d="m9.8 12-9.8-9.8v-1.4l10 10 10-10v1.4l-9.8 9.8zm-4 0-5.8-5.8v-1.4l7.2 7.2zm8.4 0 5.8-5.8v-1.4l-7.2 7.2zm-4.4-12 0.2 0.2 0.2-0.2zm-4 0 4.2 4.2 4.2-4.2h-1.4l-2.8 2.8-2.8-2.8z" fill="#f5df4d"/>
</g>
</g>
<g transform="translate(100)">
<g fill="#f5df4d">
<path d="m9.8 12-9.8-9.8v-1.4l10 10 10-10v1.4l-9.8 9.8zm-4 0-5.8-5.8v-1.4l7.2 7.2zm8.4 0 5.8-5.8v-1.4l-7.2 7.2zm-4.4-12 0.2 0.2 0.2-0.2zm-4 0 4.2 4.2 4.2-4.2h-1.4l-2.8 2.8-2.8-2.8z" fill="#f5df4d"/>
</g>
</g>
<g transform="translate(80)">
<g fill="#f5df4d">
<path d="m9.8 12-9.8-9.8v-1.4l10 10 10-10v1.4l-9.8 9.8zm-4 0-5.8-5.8v-1.4l7.2 7.2zm8.4 0 5.8-5.8v-1.4l-7.2 7.2zm-4.4-12 0.2 0.2 0.2-0.2zm-4 0 4.2 4.2 4.2-4.2h-1.4l-2.8 2.8-2.8-2.8z" fill="#f5df4d"/>
</g>
</g>
<g transform="translate(60)">
<g fill="#f5df4d">
<path d="m9.8 12-9.8-9.8v-1.4l10 10 10-10v1.4l-9.8 9.8zm-4 0-5.8-5.8v-1.4l7.2 7.2zm8.4 0 5.8-5.8v-1.4l-7.2 7.2zm-4.4-12 0.2 0.2 0.2-0.2zm-4 0 4.2 4.2 4.2-4.2h-1.4l-2.8 2.8-2.8-2.8z" fill="#f5df4d"/>
</g>
</g>
<g transform="translate(40)">
<g fill="#f5df4d">
<path d="m9.8 12-9.8-9.8v-1.4l10 10 10-10v1.4l-9.8 9.8zm-4 0-5.8-5.8v-1.4l7.2 7.2zm8.4 0 5.8-5.8v-1.4l-7.2 7.2zm-4.4-12 0.2 0.2 0.2-0.2zm-4 0 4.2 4.2 4.2-4.2h-1.4l-2.8 2.8-2.8-2.8z" fill="#f5df4d"/>
</g>
</g>
<g transform="translate(20)">
<g fill="#f5df4d">
<path d="m9.8 12-9.8-9.8v-1.4l10 10 10-10v1.4l-9.8 9.8zm-4 0-5.8-5.8v-1.4l7.2 7.2zm8.4 0 5.8-5.8v-1.4l-7.2 7.2zm-4.4-12 0.2 0.2 0.2-0.2zm-4 0 4.2 4.2 4.2-4.2h-1.4l-2.8 2.8-2.8-2.8z" fill="#f5df4d"/>
</g>
</g>
</g>
<g transform="translate(0,-48)">
<g fill="#f5df4d">
<path d="m9.8 12-9.8-9.8v-1.4l10 10 10-10v1.4l-9.8 9.8zm-4 0-5.8-5.8v-1.4l7.2 7.2zm8.4 0 5.8-5.8v-1.4l-7.2 7.2zm-4.4-12 0.2 0.2 0.2-0.2zm-4 0 4.2 4.2 4.2-4.2h-1.4l-2.8 2.8-2.8-2.8z" fill="#f5df4d"/>
</g>
<g transform="translate(-40)">
<g fill="#f5df4d">
<path d="m9.8 12-9.8-9.8v-1.4l10 10 10-10v1.4l-9.8 9.8zm-4 0-5.8-5.8v-1.4l7.2 7.2zm8.4 0 5.8-5.8v-1.4l-7.2 7.2zm-4.4-12 0.2 0.2 0.2-0.2zm-4 0 4.2 4.2 4.2-4.2h-1.4l-2.8 2.8-2.8-2.8z" fill="#f5df4d"/>
</g>
</g>
<g transform="translate(-20)">
<g fill="#f5df4d">
<path d="m9.8 12-9.8-9.8v-1.4l10 10 10-10v1.4l-9.8 9.8zm-4 0-5.8-5.8v-1.4l7.2 7.2zm8.4 0 5.8-5.8v-1.4l-7.2 7.2zm-4.4-12 0.2 0.2 0.2-0.2zm-4 0 4.2 4.2 4.2-4.2h-1.4l-2.8 2.8-2.8-2.8z" fill="#f5df4d"/>
</g>
</g>
<g transform="translate(180)">
<g fill="#f5df4d">
<path d="m9.8 12-9.8-9.8v-1.4l10 10 10-10v1.4l-9.8 9.8zm-4 0-5.8-5.8v-1.4l7.2 7.2zm8.4 0 5.8-5.8v-1.4l-7.2 7.2zm-4.4-12 0.2 0.2 0.2-0.2zm-4 0 4.2 4.2 4.2-4.2h-1.4l-2.8 2.8-2.8-2.8z" fill="#f5df4d"/>
</g>
</g>
<g transform="translate(160)">
<g fill="#f5df4d">
<path d="m9.8 12-9.8-9.8v-1.4l10 10 10-10v1.4l-9.8 9.8zm-4 0-5.8-5.8v-1.4l7.2 7.2zm8.4 0 5.8-5.8v-1.4l-7.2 7.2zm-4.4-12 0.2 0.2 0.2-0.2zm-4 0 4.2 4.2 4.2-4.2h-1.4l-2.8 2.8-2.8-2.8z" fill="#f5df4d"/>
</g>
</g>
<g transform="translate(140)">
<g fill="#f5df4d">
<path d="m9.8 12-9.8-9.8v-1.4l10 10 10-10v1.4l-9.8 9.8zm-4 0-5.8-5.8v-1.4l7.2 7.2zm8.4 0 5.8-5.8v-1.4l-7.2 7.2zm-4.4-12 0.2 0.2 0.2-0.2zm-4 0 4.2 4.2 4.2-4.2h-1.4l-2.8 2.8-2.8-2.8z" fill="#f5df4d"/>
</g>
</g>
<g transform="translate(120)">
<g fill="#f5df4d">
<path d="m9.8 12-9.8-9.8v-1.4l10 10 10-10v1.4l-9.8 9.8zm-4 0-5.8-5.8v-1.4l7.2 7.2zm8.4 0 5.8-5.8v-1.4l-7.2 7.2zm-4.4-12 0.2 0.2 0.2-0.2zm-4 0 4.2 4.2 4.2-4.2h-1.4l-2.8 2.8-2.8-2.8z" fill="#f5df4d"/>
</g>
</g>
<g transform="translate(100)">
<g fill="#f5df4d">
<path d="m9.8 12-9.8-9.8v-1.4l10 10 10-10v1.4l-9.8 9.8zm-4 0-5.8-5.8v-1.4l7.2 7.2zm8.4 0 5.8-5.8v-1.4l-7.2 7.2zm-4.4-12 0.2 0.2 0.2-0.2zm-4 0 4.2 4.2 4.2-4.2h-1.4l-2.8 2.8-2.8-2.8z" fill="#f5df4d"/>
</g>
</g>
<g transform="translate(80)">
<g fill="#f5df4d">
<path d="m9.8 12-9.8-9.8v-1.4l10 10 10-10v1.4l-9.8 9.8zm-4 0-5.8-5.8v-1.4l7.2 7.2zm8.4 0 5.8-5.8v-1.4l-7.2 7.2zm-4.4-12 0.2 0.2 0.2-0.2zm-4 0 4.2 4.2 4.2-4.2h-1.4l-2.8 2.8-2.8-2.8z" fill="#f5df4d"/>
</g>
</g>
<g transform="translate(60)">
<g fill="#f5df4d">
<path d="m9.8 12-9.8-9.8v-1.4l10 10 10-10v1.4l-9.8 9.8zm-4 0-5.8-5.8v-1.4l7.2 7.2zm8.4 0 5.8-5.8v-1.4l-7.2 7.2zm-4.4-12 0.2 0.2 0.2-0.2zm-4 0 4.2 4.2 4.2-4.2h-1.4l-2.8 2.8-2.8-2.8z" fill="#f5df4d"/>
</g>
</g>
<g transform="translate(40)">
<g fill="#f5df4d">
<path d="m9.8 12-9.8-9.8v-1.4l10 10 10-10v1.4l-9.8 9.8zm-4 0-5.8-5.8v-1.4l7.2 7.2zm8.4 0 5.8-5.8v-1.4l-7.2 7.2zm-4.4-12 0.2 0.2 0.2-0.2zm-4 0 4.2 4.2 4.2-4.2h-1.4l-2.8 2.8-2.8-2.8z" fill="#f5df4d"/>
</g>
</g>
<g transform="translate(20)">
<g fill="#f5df4d">
<path d="m9.8 12-9.8-9.8v-1.4l10 10 10-10v1.4l-9.8 9.8zm-4 0-5.8-5.8v-1.4l7.2 7.2zm8.4 0 5.8-5.8v-1.4l-7.2 7.2zm-4.4-12 0.2 0.2 0.2-0.2zm-4 0 4.2 4.2 4.2-4.2h-1.4l-2.8 2.8-2.8-2.8z" fill="#f5df4d"/>
</g>
</g>
</g>
<g transform="translate(0,-36)">
<g fill="#f5df4d">
<path d="m9.8 12-9.8-9.8v-1.4l10 10 10-10v1.4l-9.8 9.8zm-4 0-5.8-5.8v-1.4l7.2 7.2zm8.4 0 5.8-5.8v-1.4l-7.2 7.2zm-4.4-12 0.2 0.2 0.2-0.2zm-4 0 4.2 4.2 4.2-4.2h-1.4l-2.8 2.8-2.8-2.8z" fill="#f5df4d"/>
</g>
<g transform="translate(-40)">
<g fill="#f5df4d">
<path d="m9.8 12-9.8-9.8v-1.4l10 10 10-10v1.4l-9.8 9.8zm-4 0-5.8-5.8v-1.4l7.2 7.2zm8.4 0 5.8-5.8v-1.4l-7.2 7.2zm-4.4-12 0.2 0.2 0.2-0.2zm-4 0 4.2 4.2 4.2-4.2h-1.4l-2.8 2.8-2.8-2.8z" fill="#f5df4d"/>
</g>
</g>
<g transform="translate(-20)">
<g fill="#f5df4d">
<path d="m9.8 12-9.8-9.8v-1.4l10 10 10-10v1.4l-9.8 9.8zm-4 0-5.8-5.8v-1.4l7.2 7.2zm8.4 0 5.8-5.8v-1.4l-7.2 7.2zm-4.4-12 0.2 0.2 0.2-0.2zm-4 0 4.2 4.2 4.2-4.2h-1.4l-2.8 2.8-2.8-2.8z" fill="#f5df4d"/>
</g>
</g>
<g transform="translate(180)">
<g fill="#f5df4d">
<path d="m9.8 12-9.8-9.8v-1.4l10 10 10-10v1.4l-9.8 9.8zm-4 0-5.8-5.8v-1.4l7.2 7.2zm8.4 0 5.8-5.8v-1.4l-7.2 7.2zm-4.4-12 0.2 0.2 0.2-0.2zm-4 0 4.2 4.2 4.2-4.2h-1.4l-2.8 2.8-2.8-2.8z" fill="#f5df4d"/>
</g>
</g>
<g transform="translate(160)">
<g fill="#f5df4d">
<path d="m9.8 12-9.8-9.8v-1.4l10 10 10-10v1.4l-9.8 9.8zm-4 0-5.8-5.8v-1.4l7.2 7.2zm8.4 0 5.8-5.8v-1.4l-7.2 7.2zm-4.4-12 0.2 0.2 0.2-0.2zm-4 0 4.2 4.2 4.2-4.2h-1.4l-2.8 2.8-2.8-2.8z" fill="#f5df4d"/>
</g>
</g>
<g transform="translate(140)">
<g fill="#f5df4d">
<path d="m9.8 12-9.8-9.8v-1.4l10 10 10-10v1.4l-9.8 9.8zm-4 0-5.8-5.8v-1.4l7.2 7.2zm8.4 0 5.8-5.8v-1.4l-7.2 7.2zm-4.4-12 0.2 0.2 0.2-0.2zm-4 0 4.2 4.2 4.2-4.2h-1.4l-2.8 2.8-2.8-2.8z" fill="#f5df4d"/>
</g>
</g>
<g transform="translate(120)">
<g fill="#f5df4d">
<path d="m9.8 12-9.8-9.8v-1.4l10 10 10-10v1.4l-9.8 9.8zm-4 0-5.8-5.8v-1.4l7.2 7.2zm8.4 0 5.8-5.8v-1.4l-7.2 7.2zm-4.4-12 0.2 0.2 0.2-0.2zm-4 0 4.2 4.2 4.2-4.2h-1.4l-2.8 2.8-2.8-2.8z" fill="#f5df4d"/>
</g>
</g>
<g transform="translate(100)">
<g fill="#f5df4d">
<path d="m9.8 12-9.8-9.8v-1.4l10 10 10-10v1.4l-9.8 9.8zm-4 0-5.8-5.8v-1.4l7.2 7.2zm8.4 0 5.8-5.8v-1.4l-7.2 7.2zm-4.4-12 0.2 0.2 0.2-0.2zm-4 0 4.2 4.2 4.2-4.2h-1.4l-2.8 2.8-2.8-2.8z" fill="#f5df4d"/>
</g>
</g>
<g transform="translate(80)">
<g fill="#f5df4d">
<path d="m9.8 12-9.8-9.8v-1.4l10 10 10-10v1.4l-9.8 9.8zm-4 0-5.8-5.8v-1.4l7.2 7.2zm8.4 0 5.8-5.8v-1.4l-7.2 7.2zm-4.4-12 0.2 0.2 0.2-0.2zm-4 0 4.2 4.2 4.2-4.2h-1.4l-2.8 2.8-2.8-2.8z" fill="#f5df4d"/>
</g>
</g>
<g transform="translate(60)">
<g fill="#f5df4d">
<path d="m9.8 12-9.8-9.8v-1.4l10 10 10-10v1.4l-9.8 9.8zm-4 0-5.8-5.8v-1.4l7.2 7.2zm8.4 0 5.8-5.8v-1.4l-7.2 7.2zm-4.4-12 0.2 0.2 0.2-0.2zm-4 0 4.2 4.2 4.2-4.2h-1.4l-2.8 2.8-2.8-2.8z" fill="#f5df4d"/>
</g>
</g>
<g transform="translate(40)">
<g fill="#f5df4d">
<path d="m9.8 12-9.8-9.8v-1.4l10 10 10-10v1.4l-9.8 9.8zm-4 0-5.8-5.8v-1.4l7.2 7.2zm8.4 0 5.8-5.8v-1.4l-7.2 7.2zm-4.4-12 0.2 0.2 0.2-0.2zm-4 0 4.2 4.2 4.2-4.2h-1.4l-2.8 2.8-2.8-2.8z" fill="#f5df4d"/>
</g>
</g>
<g transform="translate(20)">
<g fill="#f5df4d">
<path d="m9.8 12-9.8-9.8v-1.4l10 10 10-10v1.4l-9.8 9.8zm-4 0-5.8-5.8v-1.4l7.2 7.2zm8.4 0 5.8-5.8v-1.4l-7.2 7.2zm-4.4-12 0.2 0.2 0.2-0.2zm-4 0 4.2 4.2 4.2-4.2h-1.4l-2.8 2.8-2.8-2.8z" fill="#f5df4d"/>
</g>
</g>
</g>
<g transform="translate(0,-24)">
<g fill="#f5df4d">
<path d="m9.8 12-9.8-9.8v-1.4l10 10 10-10v1.4l-9.8 9.8zm-4 0-5.8-5.8v-1.4l7.2 7.2zm8.4 0 5.8-5.8v-1.4l-7.2 7.2zm-4.4-12 0.2 0.2 0.2-0.2zm-4 0 4.2 4.2 4.2-4.2h-1.4l-2.8 2.8-2.8-2.8z" fill="#f5df4d"/>
</g>
<g transform="translate(-40)">
<g fill="#f5df4d">
<path d="m9.8 12-9.8-9.8v-1.4l10 10 10-10v1.4l-9.8 9.8zm-4 0-5.8-5.8v-1.4l7.2 7.2zm8.4 0 5.8-5.8v-1.4l-7.2 7.2zm-4.4-12 0.2 0.2 0.2-0.2zm-4 0 4.2 4.2 4.2-4.2h-1.4l-2.8 2.8-2.8-2.8z" fill="#f5df4d"/>
</g>
</g>
<g transform="translate(-20)">
<g fill="#f5df4d">
<path d="m9.8 12-9.8-9.8v-1.4l10 10 10-10v1.4l-9.8 9.8zm-4 0-5.8-5.8v-1.4l7.2 7.2zm8.4 0 5.8-5.8v-1.4l-7.2 7.2zm-4.4-12 0.2 0.2 0.2-0.2zm-4 0 4.2 4.2 4.2-4.2h-1.4l-2.8 2.8-2.8-2.8z" fill="#f5df4d"/>
</g>
</g>
<g transform="translate(180)">
<g fill="#f5df4d">
<path d="m9.8 12-9.8-9.8v-1.4l10 10 10-10v1.4l-9.8 9.8zm-4 0-5.8-5.8v-1.4l7.2 7.2zm8.4 0 5.8-5.8v-1.4l-7.2 7.2zm-4.4-12 0.2 0.2 0.2-0.2zm-4 0 4.2 4.2 4.2-4.2h-1.4l-2.8 2.8-2.8-2.8z" fill="#f5df4d"/>
</g>
</g>
<g transform="translate(160)">
<g fill="#f5df4d">
<path d="m9.8 12-9.8-9.8v-1.4l10 10 10-10v1.4l-9.8 9.8zm-4 0-5.8-5.8v-1.4l7.2 7.2zm8.4 0 5.8-5.8v-1.4l-7.2 7.2zm-4.4-12 0.2 0.2 0.2-0.2zm-4 0 4.2 4.2 4.2-4.2h-1.4l-2.8 2.8-2.8-2.8z" fill="#f5df4d"/>
</g>
</g>
<g transform="translate(140)">
<g fill="#f5df4d">
<path d="m9.8 12-9.8-9.8v-1.4l10 10 10-10v1.4l-9.8 9.8zm-4 0-5.8-5.8v-1.4l7.2 7.2zm8.4 0 5.8-5.8v-1.4l-7.2 7.2zm-4.4-12 0.2 0.2 0.2-0.2zm-4 0 4.2 4.2 4.2-4.2h-1.4l-2.8 2.8-2.8-2.8z" fill="#f5df4d"/>
</g>
</g>
<g transform="translate(120)">
<g fill="#f5df4d">
<path d="m9.8 12-9.8-9.8v-1.4l10 10 10-10v1.4l-9.8 9.8zm-4 0-5.8-5.8v-1.4l7.2 7.2zm8.4 0 5.8-5.8v-1.4l-7.2 7.2zm-4.4-12 0.2 0.2 0.2-0.2zm-4 0 4.2 4.2 4.2-4.2h-1.4l-2.8 2.8-2.8-2.8z" fill="#f5df4d"/>
</g>
</g>
<g transform="translate(100)">
<g fill="#f5df4d">
<path d="m9.8 12-9.8-9.8v-1.4l10 10 10-10v1.4l-9.8 9.8zm-4 0-5.8-5.8v-1.4l7.2 7.2zm8.4 0 5.8-5.8v-1.4l-7.2 7.2zm-4.4-12 0.2 0.2 0.2-0.2zm-4 0 4.2 4.2 4.2-4.2h-1.4l-2.8 2.8-2.8-2.8z" fill="#f5df4d"/>
</g>
</g>
<g transform="translate(80)">
<g fill="#f5df4d">
<path d="m9.8 12-9.8-9.8v-1.4l10 10 10-10v1.4l-9.8 9.8zm-4 0-5.8-5.8v-1.4l7.2 7.2zm8.4 0 5.8-5.8v-1.4l-7.2 7.2zm-4.4-12 0.2 0.2 0.2-0.2zm-4 0 4.2 4.2 4.2-4.2h-1.4l-2.8 2.8-2.8-2.8z" fill="#f5df4d"/>
</g>
</g>
<g transform="translate(60)">
<g fill="#f5df4d">
<path d="m9.8 12-9.8-9.8v-1.4l10 10 10-10v1.4l-9.8 9.8zm-4 0-5.8-5.8v-1.4l7.2 7.2zm8.4 0 5.8-5.8v-1.4l-7.2 7.2zm-4.4-12 0.2 0.2 0.2-0.2zm-4 0 4.2 4.2 4.2-4.2h-1.4l-2.8 2.8-2.8-2.8z" fill="#f5df4d"/>
</g>
</g>
<g transform="translate(40)">
<g fill="#f5df4d">
<path d="m9.8 12-9.8-9.8v-1.4l10 10 10-10v1.4l-9.8 9.8zm-4 0-5.8-5.8v-1.4l7.2 7.2zm8.4 0 5.8-5.8v-1.4l-7.2 7.2zm-4.4-12 0.2 0.2 0.2-0.2zm-4 0 4.2 4.2 4.2-4.2h-1.4l-2.8 2.8-2.8-2.8z" fill="#f5df4d"/>
</g>
</g>
<g transform="translate(20)">
<g fill="#f5df4d">
<path d="m9.8 12-9.8-9.8v-1.4l10 10 10-10v1.4l-9.8 9.8zm-4 0-5.8-5.8v-1.4l7.2 7.2zm8.4 0 5.8-5.8v-1.4l-7.2 7.2zm-4.4-12 0.2 0.2 0.2-0.2zm-4 0 4.2 4.2 4.2-4.2h-1.4l-2.8 2.8-2.8-2.8z" fill="#f5df4d"/>
</g>
</g>
</g>
<g transform="translate(0,-12)">
<g fill="#f5df4d">
<path d="m9.8 12-9.8-9.8v-1.4l10 10 10-10v1.4l-9.8 9.8zm-4 0-5.8-5.8v-1.4l7.2 7.2zm8.4 0 5.8-5.8v-1.4l-7.2 7.2zm-4.4-12 0.2 0.2 0.2-0.2zm-4 0 4.2 4.2 4.2-4.2h-1.4l-2.8 2.8-2.8-2.8z" fill="#f5df4d"/>
</g>
<g transform="translate(-40)">
<g fill="#f5df4d">
<path d="m9.8 12-9.8-9.8v-1.4l10 10 10-10v1.4l-9.8 9.8zm-4 0-5.8-5.8v-1.4l7.2 7.2zm8.4 0 5.8-5.8v-1.4l-7.2 7.2zm-4.4-12 0.2 0.2 0.2-0.2zm-4 0 4.2 4.2 4.2-4.2h-1.4l-2.8 2.8-2.8-2.8z" fill="#f5df4d"/>
</g>
</g>
<g transform="translate(-20)">
<g fill="#f5df4d">
<path d="m9.8 12-9.8-9.8v-1.4l10 10 10-10v1.4l-9.8 9.8zm-4 0-5.8-5.8v-1.4l7.2 7.2zm8.4 0 5.8-5.8v-1.4l-7.2 7.2zm-4.4-12 0.2 0.2 0.2-0.2zm-4 0 4.2 4.2 4.2-4.2h-1.4l-2.8 2.8-2.8-2.8z" fill="#f5df4d"/>
</g>
</g>
<g transform="translate(180)">
<g fill="#f5df4d">
<path d="m9.8 12-9.8-9.8v-1.4l10 10 10-10v1.4l-9.8 9.8zm-4 0-5.8-5.8v-1.4l7.2 7.2zm8.4 0 5.8-5.8v-1.4l-7.2 7.2zm-4.4-12 0.2 0.2 0.2-0.2zm-4 0 4.2 4.2 4.2-4.2h-1.4l-2.8 2.8-2.8-2.8z" fill="#f5df4d"/>
</g>
</g>
<g transform="translate(160)">
<g fill="#f5df4d">
<path d="m9.8 12-9.8-9.8v-1.4l10 10 10-10v1.4l-9.8 9.8zm-4 0-5.8-5.8v-1.4l7.2 7.2zm8.4 0 5.8-5.8v-1.4l-7.2 7.2zm-4.4-12 0.2 0.2 0.2-0.2zm-4 0 4.2 4.2 4.2-4.2h-1.4l-2.8 2.8-2.8-2.8z" fill="#f5df4d"/>
</g>
</g>
<g transform="translate(140)">
<g fill="#f5df4d">
<path d="m9.8 12-9.8-9.8v-1.4l10 10 10-10v1.4l-9.8 9.8zm-4 0-5.8-5.8v-1.4l7.2 7.2zm8.4 0 5.8-5.8v-1.4l-7.2 7.2zm-4.4-12 0.2 0.2 0.2-0.2zm-4 0 4.2 4.2 4.2-4.2h-1.4l-2.8 2.8-2.8-2.8z" fill="#f5df4d"/>
</g>
</g>
<g transform="translate(120)">
<g fill="#f5df4d">
<path d="m9.8 12-9.8-9.8v-1.4l10 10 10-10v1.4l-9.8 9.8zm-4 0-5.8-5.8v-1.4l7.2 7.2zm8.4 0 5.8-5.8v-1.4l-7.2 7.2zm-4.4-12 0.2 0.2 0.2-0.2zm-4 0 4.2 4.2 4.2-4.2h-1.4l-2.8 2.8-2.8-2.8z" fill="#f5df4d"/>
</g>
</g>
<g transform="translate(100)">
<g fill="#f5df4d">
<path d="m9.8 12-9.8-9.8v-1.4l10 10 10-10v1.4l-9.8 9.8zm-4 0-5.8-5.8v-1.4l7.2 7.2zm8.4 0 5.8-5.8v-1.4l-7.2 7.2zm-4.4-12 0.2 0.2 0.2-0.2zm-4 0 4.2 4.2 4.2-4.2h-1.4l-2.8 2.8-2.8-2.8z" fill="#f5df4d"/>
</g>
</g>
<g transform="translate(80)">
<g fill="#f5df4d">
<path d="m9.8 12-9.8-9.8v-1.4l10 10 10-10v1.4l-9.8 9.8zm-4 0-5.8-5.8v-1.4l7.2 7.2zm8.4 0 5.8-5.8v-1.4l-7.2 7.2zm-4.4-12 0.2 0.2 0.2-0.2zm-4 0 4.2 4.2 4.2-4.2h-1.4l-2.8 2.8-2.8-2.8z" fill="#f5df4d"/>
</g>
</g>
<g transform="translate(60)">
<g fill="#f5df4d">
<path d="m9.8 12-9.8-9.8v-1.4l10 10 10-10v1.4l-9.8 9.8zm-4 0-5.8-5.8v-1.4l7.2 7.2zm8.4 0 5.8-5.8v-1.4l-7.2 7.2zm-4.4-12 0.2 0.2 0.2-0.2zm-4 0 4.2 4.2 4.2-4.2h-1.4l-2.8 2.8-2.8-2.8z" fill="#f5df4d"/>
</g>
</g>
<g transform="translate(40)">
<g fill="#f5df4d">
<path d="m9.8 12-9.8-9.8v-1.4l10 10 10-10v1.4l-9.8 9.8zm-4 0-5.8-5.8v-1.4l7.2 7.2zm8.4 0 5.8-5.8v-1.4l-7.2 7.2zm-4.4-12 0.2 0.2 0.2-0.2zm-4 0 4.2 4.2 4.2-4.2h-1.4l-2.8 2.8-2.8-2.8z" fill="#f5df4d"/>
</g>
</g>
<g transform="translate(20)">
<g fill="#f5df4d">
<path d="m9.8 12-9.8-9.8v-1.4l10 10 10-10v1.4l-9.8 9.8zm-4 0-5.8-5.8v-1.4l7.2 7.2zm8.4 0 5.8-5.8v-1.4l-7.2 7.2zm-4.4-12 0.2 0.2 0.2-0.2zm-4 0 4.2 4.2 4.2-4.2h-1.4l-2.8 2.8-2.8-2.8z" fill="#f5df4d"/>
</g>
</g>
</g>
<g transform="translate(0,132)">
<g fill="#f5df4d">
<path d="m9.8 12-9.8-9.8v-1.4l10 10 10-10v1.4l-9.8 9.8zm-4 0-5.8-5.8v-1.4l7.2 7.2zm8.4 0 5.8-5.8v-1.4l-7.2 7.2zm-4.4-12 0.2 0.2 0.2-0.2zm-4 0 4.2 4.2 4.2-4.2h-1.4l-2.8 2.8-2.8-2.8z" fill="#f5df4d"/>
</g>
<g transform="translate(-40)">
<g fill="#f5df4d">
<path d="m9.8 12-9.8-9.8v-1.4l10 10 10-10v1.4l-9.8 9.8zm-4 0-5.8-5.8v-1.4l7.2 7.2zm8.4 0 5.8-5.8v-1.4l-7.2 7.2zm-4.4-12 0.2 0.2 0.2-0.2zm-4 0 4.2 4.2 4.2-4.2h-1.4l-2.8 2.8-2.8-2.8z" fill="#f5df4d"/>
</g>
</g>
<g transform="translate(-20)">
<g fill="#f5df4d">
<path d="m9.8 12-9.8-9.8v-1.4l10 10 10-10v1.4l-9.8 9.8zm-4 0-5.8-5.8v-1.4l7.2 7.2zm8.4 0 5.8-5.8v-1.4l-7.2 7.2zm-4.4-12 0.2 0.2 0.2-0.2zm-4 0 4.2 4.2 4.2-4.2h-1.4l-2.8 2.8-2.8-2.8z" fill="#f5df4d"/>
</g>
</g>
<g transform="translate(180)">
<g fill="#f5df4d">
<path d="m9.8 12-9.8-9.8v-1.4l10 10 10-10v1.4l-9.8 9.8zm-4 0-5.8-5.8v-1.4l7.2 7.2zm8.4 0 5.8-5.8v-1.4l-7.2 7.2zm-4.4-12 0.2 0.2 0.2-0.2zm-4 0 4.2 4.2 4.2-4.2h-1.4l-2.8 2.8-2.8-2.8z" fill="#f5df4d"/>
</g>
</g>
<g transform="translate(160)">
<g fill="#f5df4d">
<path d="m9.8 12-9.8-9.8v-1.4l10 10 10-10v1.4l-9.8 9.8zm-4 0-5.8-5.8v-1.4l7.2 7.2zm8.4 0 5.8-5.8v-1.4l-7.2 7.2zm-4.4-12 0.2 0.2 0.2-0.2zm-4 0 4.2 4.2 4.2-4.2h-1.4l-2.8 2.8-2.8-2.8z" fill="#f5df4d"/>
</g>
</g>
<g transform="translate(140)">
<g fill="#f5df4d">
<path d="m9.8 12-9.8-9.8v-1.4l10 10 10-10v1.4l-9.8 9.8zm-4 0-5.8-5.8v-1.4l7.2 7.2zm8.4 0 5.8-5.8v-1.4l-7.2 7.2zm-4.4-12 0.2 0.2 0.2-0.2zm-4 0 4.2 4.2 4.2-4.2h-1.4l-2.8 2.8-2.8-2.8z" fill="#f5df4d"/>
</g>
</g>
<g transform="translate(120)">
<g fill="#f5df4d">
<path d="m9.8 12-9.8-9.8v-1.4l10 10 10-10v1.4l-9.8 9.8zm-4 0-5.8-5.8v-1.4l7.2 7.2zm8.4 0 5.8-5.8v-1.4l-7.2 7.2zm-4.4-12 0.2 0.2 0.2-0.2zm-4 0 4.2 4.2 4.2-4.2h-1.4l-2.8 2.8-2.8-2.8z" fill="#f5df4d"/>
</g>
</g>
<g transform="translate(100)">
<g fill="#f5df4d">
<path d="m9.8 12-9.8-9.8v-1.4l10 10 10-10v1.4l-9.8 9.8zm-4 0-5.8-5.8v-1.4l7.2 7.2zm8.4 0 5.8-5.8v-1.4l-7.2 7.2zm-4.4-12 0.2 0.2 0.2-0.2zm-4 0 4.2 4.2 4.2-4.2h-1.4l-2.8 2.8-2.8-2.8z" fill="#f5df4d"/>
</g>
</g>
<g transform="translate(80)">
<g fill="#f5df4d">
<path d="m9.8 12-9.8-9.8v-1.4l10 10 10-10v1.4l-9.8 9.8zm-4 0-5.8-5.8v-1.4l7.2 7.2zm8.4 0 5.8-5.8v-1.4l-7.2 7.2zm-4.4-12 0.2 0.2 0.2-0.2zm-4 0 4.2 4.2 4.2-4.2h-1.4l-2.8 2.8-2.8-2.8z" fill="#f5df4d"/>
</g>
</g>
<g transform="translate(60)">
<g fill="#f5df4d">
<path d="m9.8 12-9.8-9.8v-1.4l10 10 10-10v1.4l-9.8 9.8zm-4 0-5.8-5.8v-1.4l7.2 7.2zm8.4 0 5.8-5.8v-1.4l-7.2 7.2zm-4.4-12 0.2 0.2 0.2-0.2zm-4 0 4.2 4.2 4.2-4.2h-1.4l-2.8 2.8-2.8-2.8z" fill="#f5df4d"/>
</g>
</g>
<g transform="translate(40)">
<g fill="#f5df4d">
<path d="m9.8 12-9.8-9.8v-1.4l10 10 10-10v1.4l-9.8 9.8zm-4 0-5.8-5.8v-1.4l7.2 7.2zm8.4 0 5.8-5.8v-1.4l-7.2 7.2zm-4.4-12 0.2 0.2 0.2-0.2zm-4 0 4.2 4.2 4.2-4.2h-1.4l-2.8 2.8-2.8-2.8z" fill="#f5df4d"/>
</g>
</g>
<g transform="translate(20)">
<g fill="#f5df4d">
<path d="m9.8 12-9.8-9.8v-1.4l10 10 10-10v1.4l-9.8 9.8zm-4 0-5.8-5.8v-1.4l7.2 7.2zm8.4 0 5.8-5.8v-1.4l-7.2 7.2zm-4.4-12 0.2 0.2 0.2-0.2zm-4 0 4.2 4.2 4.2-4.2h-1.4l-2.8 2.8-2.8-2.8z" fill="#f5df4d"/>
</g>
</g>
</g>
<g transform="translate(0,120)">
<g fill="#f5df4d">
<path d="m9.8 12-9.8-9.8v-1.4l10 10 10-10v1.4l-9.8 9.8zm-4 0-5.8-5.8v-1.4l7.2 7.2zm8.4 0 5.8-5.8v-1.4l-7.2 7.2zm-4.4-12 0.2 0.2 0.2-0.2zm-4 0 4.2 4.2 4.2-4.2h-1.4l-2.8 2.8-2.8-2.8z" fill="#f5df4d"/>
</g>
<g transform="translate(-40)">
<g fill="#f5df4d">
<path d="m9.8 12-9.8-9.8v-1.4l10 10 10-10v1.4l-9.8 9.8zm-4 0-5.8-5.8v-1.4l7.2 7.2zm8.4 0 5.8-5.8v-1.4l-7.2 7.2zm-4.4-12 0.2 0.2 0.2-0.2zm-4 0 4.2 4.2 4.2-4.2h-1.4l-2.8 2.8-2.8-2.8z" fill="#f5df4d"/>
</g>
</g>
<g transform="translate(-20)">
<g fill="#f5df4d">
<path d="m9.8 12-9.8-9.8v-1.4l10 10 10-10v1.4l-9.8 9.8zm-4 0-5.8-5.8v-1.4l7.2 7.2zm8.4 0 5.8-5.8v-1.4l-7.2 7.2zm-4.4-12 0.2 0.2 0.2-0.2zm-4 0 4.2 4.2 4.2-4.2h-1.4l-2.8 2.8-2.8-2.8z" fill="#f5df4d"/>
</g>
</g>
<g transform="translate(180)">
<g fill="#f5df4d">
<path d="m9.8 12-9.8-9.8v-1.4l10 10 10-10v1.4l-9.8 9.8zm-4 0-5.8-5.8v-1.4l7.2 7.2zm8.4 0 5.8-5.8v-1.4l-7.2 7.2zm-4.4-12 0.2 0.2 0.2-0.2zm-4 0 4.2 4.2 4.2-4.2h-1.4l-2.8 2.8-2.8-2.8z" fill="#f5df4d"/>
</g>
</g>
<g transform="translate(160)">
<g fill="#f5df4d">
<path d="m9.8 12-9.8-9.8v-1.4l10 10 10-10v1.4l-9.8 9.8zm-4 0-5.8-5.8v-1.4l7.2 7.2zm8.4 0 5.8-5.8v-1.4l-7.2 7.2zm-4.4-12 0.2 0.2 0.2-0.2zm-4 0 4.2 4.2 4.2-4.2h-1.4l-2.8 2.8-2.8-2.8z" fill="#f5df4d"/>
</g>
</g>
<g transform="translate(140)">
<g fill="#f5df4d">
<path d="m9.8 12-9.8-9.8v-1.4l10 10 10-10v1.4l-9.8 9.8zm-4 0-5.8-5.8v-1.4l7.2 7.2zm8.4 0 5.8-5.8v-1.4l-7.2 7.2zm-4.4-12 0.2 0.2 0.2-0.2zm-4 0 4.2 4.2 4.2-4.2h-1.4l-2.8 2.8-2.8-2.8z" fill="#f5df4d"/>
</g>
</g>
<g transform="translate(120)">
<g fill="#f5df4d">
<path d="m9.8 12-9.8-9.8v-1.4l10 10 10-10v1.4l-9.8 9.8zm-4 0-5.8-5.8v-1.4l7.2 7.2zm8.4 0 5.8-5.8v-1.4l-7.2 7.2zm-4.4-12 0.2 0.2 0.2-0.2zm-4 0 4.2 4.2 4.2-4.2h-1.4l-2.8 2.8-2.8-2.8z" fill="#f5df4d"/>
</g>
</g>
<g transform="translate(100)">
<g fill="#f5df4d">
<path d="m9.8 12-9.8-9.8v-1.4l10 10 10-10v1.4l-9.8 9.8zm-4 0-5.8-5.8v-1.4l7.2 7.2zm8.4 0 5.8-5.8v-1.4l-7.2 7.2zm-4.4-12 0.2 0.2 0.2-0.2zm-4 0 4.2 4.2 4.2-4.2h-1.4l-2.8 2.8-2.8-2.8z" fill="#f5df4d"/>
</g>
</g>
<g transform="translate(80)">
<g fill="#f5df4d">
<path d="m9.8 12-9.8-9.8v-1.4l10 10 10-10v1.4l-9.8 9.8zm-4 0-5.8-5.8v-1.4l7.2 7.2zm8.4 0 5.8-5.8v-1.4l-7.2 7.2zm-4.4-12 0.2 0.2 0.2-0.2zm-4 0 4.2 4.2 4.2-4.2h-1.4l-2.8 2.8-2.8-2.8z" fill="#f5df4d"/>
</g>
</g>
<g transform="translate(60)">
<g fill="#f5df4d">
<path d="m9.8 12-9.8-9.8v-1.4l10 10 10-10v1.4l-9.8 9.8zm-4 0-5.8-5.8v-1.4l7.2 7.2zm8.4 0 5.8-5.8v-1.4l-7.2 7.2zm-4.4-12 0.2 0.2 0.2-0.2zm-4 0 4.2 4.2 4.2-4.2h-1.4l-2.8 2.8-2.8-2.8z" fill="#f5df4d"/>
</g>
</g>
<g transform="translate(40)">
<g fill="#f5df4d">
<path d="m9.8 12-9.8-9.8v-1.4l10 10 10-10v1.4l-9.8 9.8zm-4 0-5.8-5.8v-1.4l7.2 7.2zm8.4 0 5.8-5.8v-1.4l-7.2 7.2zm-4.4-12 0.2 0.2 0.2-0.2zm-4 0 4.2 4.2 4.2-4.2h-1.4l-2.8 2.8-2.8-2.8z" fill="#f5df4d"/>
</g>
</g>
<g transform="translate(20)">
<g fill="#f5df4d">
<path d="m9.8 12-9.8-9.8v-1.4l10 10 10-10v1.4l-9.8 9.8zm-4 0-5.8-5.8v-1.4l7.2 7.2zm8.4 0 5.8-5.8v-1.4l-7.2 7.2zm-4.4-12 0.2 0.2 0.2-0.2zm-4 0 4.2 4.2 4.2-4.2h-1.4l-2.8 2.8-2.8-2.8z" fill="#f5df4d"/>
</g>
</g>
</g>
<g transform="translate(0,108)">
<g fill="#f5df4d">
<path d="m9.8 12-9.8-9.8v-1.4l10 10 10-10v1.4l-9.8 9.8zm-4 0-5.8-5.8v-1.4l7.2 7.2zm8.4 0 5.8-5.8v-1.4l-7.2 7.2zm-4.4-12 0.2 0.2 0.2-0.2zm-4 0 4.2 4.2 4.2-4.2h-1.4l-2.8 2.8-2.8-2.8z" fill="#f5df4d"/>
</g>
<g transform="translate(-40)">
<g fill="#f5df4d">
<path d="m9.8 12-9.8-9.8v-1.4l10 10 10-10v1.4l-9.8 9.8zm-4 0-5.8-5.8v-1.4l7.2 7.2zm8.4 0 5.8-5.8v-1.4l-7.2 7.2zm-4.4-12 0.2 0.2 0.2-0.2zm-4 0 4.2 4.2 4.2-4.2h-1.4l-2.8 2.8-2.8-2.8z" fill="#f5df4d"/>
</g>
</g>
<g transform="translate(-20)">
<g fill="#f5df4d">
<path d="m9.8 12-9.8-9.8v-1.4l10 10 10-10v1.4l-9.8 9.8zm-4 0-5.8-5.8v-1.4l7.2 7.2zm8.4 0 5.8-5.8v-1.4l-7.2 7.2zm-4.4-12 0.2 0.2 0.2-0.2zm-4 0 4.2 4.2 4.2-4.2h-1.4l-2.8 2.8-2.8-2.8z" fill="#f5df4d"/>
</g>
</g>
<g transform="translate(180)">
<g fill="#f5df4d">
<path d="m9.8 12-9.8-9.8v-1.4l10 10 10-10v1.4l-9.8 9.8zm-4 0-5.8-5.8v-1.4l7.2 7.2zm8.4 0 5.8-5.8v-1.4l-7.2 7.2zm-4.4-12 0.2 0.2 0.2-0.2zm-4 0 4.2 4.2 4.2-4.2h-1.4l-2.8 2.8-2.8-2.8z" fill="#f5df4d"/>
</g>
</g>
<g transform="translate(160)">
<g fill="#f5df4d">
<path d="m9.8 12-9.8-9.8v-1.4l10 10 10-10v1.4l-9.8 9.8zm-4 0-5.8-5.8v-1.4l7.2 7.2zm8.4 0 5.8-5.8v-1.4l-7.2 7.2zm-4.4-12 0.2 0.2 0.2-0.2zm-4 0 4.2 4.2 4.2-4.2h-1.4l-2.8 2.8-2.8-2.8z" fill="#f5df4d"/>
</g>
</g>
<g transform="translate(140)">
<g fill="#f5df4d">
<path d="m9.8 12-9.8-9.8v-1.4l10 10 10-10v1.4l-9.8 9.8zm-4 0-5.8-5.8v-1.4l7.2 7.2zm8.4 0 5.8-5.8v-1.4l-7.2 7.2zm-4.4-12 0.2 0.2 0.2-0.2zm-4 0 4.2 4.2 4.2-4.2h-1.4l-2.8 2.8-2.8-2.8z" fill="#f5df4d"/>
</g>
</g>
<g transform="translate(120)">
<g fill="#f5df4d">
<path d="m9.8 12-9.8-9.8v-1.4l10 10 10-10v1.4l-9.8 9.8zm-4 0-5.8-5.8v-1.4l7.2 7.2zm8.4 0 5.8-5.8v-1.4l-7.2 7.2zm-4.4-12 0.2 0.2 0.2-0.2zm-4 0 4.2 4.2 4.2-4.2h-1.4l-2.8 2.8-2.8-2.8z" fill="#f5df4d"/>
</g>
</g>
<g transform="translate(100)">
<g fill="#f5df4d">
<path d="m9.8 12-9.8-9.8v-1.4l10 10 10-10v1.4l-9.8 9.8zm-4 0-5.8-5.8v-1.4l7.2 7.2zm8.4 0 5.8-5.8v-1.4l-7.2 7.2zm-4.4-12 0.2 0.2 0.2-0.2zm-4 0 4.2 4.2 4.2-4.2h-1.4l-2.8 2.8-2.8-2.8z" fill="#f5df4d"/>
</g>
</g>
<g transform="translate(80)">
<g fill="#f5df4d">
<path d="m9.8 12-9.8-9.8v-1.4l10 10 10-10v1.4l-9.8 9.8zm-4 0-5.8-5.8v-1.4l7.2 7.2zm8.4 0 5.8-5.8v-1.4l-7.2 7.2zm-4.4-12 0.2 0.2 0.2-0.2zm-4 0 4.2 4.2 4.2-4.2h-1.4l-2.8 2.8-2.8-2.8z" fill="#f5df4d"/>
</g>
</g>
<g transform="translate(60)">
<g fill="#f5df4d">
<path d="m9.8 12-9.8-9.8v-1.4l10 10 10-10v1.4l-9.8 9.8zm-4 0-5.8-5.8v-1.4l7.2 7.2zm8.4 0 5.8-5.8v-1.4l-7.2 7.2zm-4.4-12 0.2 0.2 0.2-0.2zm-4 0 4.2 4.2 4.2-4.2h-1.4l-2.8 2.8-2.8-2.8z" fill="#f5df4d"/>
</g>
</g>
<g transform="translate(40)">
<g fill="#f5df4d">
<path d="m9.8 12-9.8-9.8v-1.4l10 10 10-10v1.4l-9.8 9.8zm-4 0-5.8-5.8v-1.4l7.2 7.2zm8.4 0 5.8-5.8v-1.4l-7.2 7.2zm-4.4-12 0.2 0.2 0.2-0.2zm-4 0 4.2 4.2 4.2-4.2h-1.4l-2.8 2.8-2.8-2.8z" fill="#f5df4d"/>
</g>
</g>
<g transform="translate(20)">
<g fill="#f5df4d">
<path d="m9.8 12-9.8-9.8v-1.4l10 10 10-10v1.4l-9.8 9.8zm-4 0-5.8-5.8v-1.4l7.2 7.2zm8.4 0 5.8-5.8v-1.4l-7.2 7.2zm-4.4-12 0.2 0.2 0.2-0.2zm-4 0 4.2 4.2 4.2-4.2h-1.4l-2.8 2.8-2.8-2.8z" fill="#f5df4d"/>
</g>
</g>
</g>
<g transform="translate(0,96)">
<g fill="#f5df4d">
<path d="m9.8 12-9.8-9.8v-1.4l10 10 10-10v1.4l-9.8 9.8zm-4 0-5.8-5.8v-1.4l7.2 7.2zm8.4 0 5.8-5.8v-1.4l-7.2 7.2zm-4.4-12 0.2 0.2 0.2-0.2zm-4 0 4.2 4.2 4.2-4.2h-1.4l-2.8 2.8-2.8-2.8z" fill="#f5df4d"/>
</g>
<g transform="translate(-40)">
<g fill="#f5df4d">
<path d="m9.8 12-9.8-9.8v-1.4l10 10 10-10v1.4l-9.8 9.8zm-4 0-5.8-5.8v-1.4l7.2 7.2zm8.4 0 5.8-5.8v-1.4l-7.2 7.2zm-4.4-12 0.2 0.2 0.2-0.2zm-4 0 4.2 4.2 4.2-4.2h-1.4l-2.8 2.8-2.8-2.8z" fill="#f5df4d"/>
</g>
</g>
<g transform="translate(-20)">
<g fill="#f5df4d">
<path d="m9.8 12-9.8-9.8v-1.4l10 10 10-10v1.4l-9.8 9.8zm-4 0-5.8-5.8v-1.4l7.2 7.2zm8.4 0 5.8-5.8v-1.4l-7.2 7.2zm-4.4-12 0.2 0.2 0.2-0.2zm-4 0 4.2 4.2 4.2-4.2h-1.4l-2.8 2.8-2.8-2.8z" fill="#f5df4d"/>
</g>
</g>
<g transform="translate(180)">
<g fill="#f5df4d">
<path d="m9.8 12-9.8-9.8v-1.4l10 10 10-10v1.4l-9.8 9.8zm-4 0-5.8-5.8v-1.4l7.2 7.2zm8.4 0 5.8-5.8v-1.4l-7.2 7.2zm-4.4-12 0.2 0.2 0.2-0.2zm-4 0 4.2 4.2 4.2-4.2h-1.4l-2.8 2.8-2.8-2.8z" fill="#f5df4d"/>
</g>
</g>
<g transform="translate(160)">
<g fill="#f5df4d">
<path d="m9.8 12-9.8-9.8v-1.4l10 10 10-10v1.4l-9.8 9.8zm-4 0-5.8-5.8v-1.4l7.2 7.2zm8.4 0 5.8-5.8v-1.4l-7.2 7.2zm-4.4-12 0.2 0.2 0.2-0.2zm-4 0 4.2 4.2 4.2-4.2h-1.4l-2.8 2.8-2.8-2.8z" fill="#f5df4d"/>
</g>
</g>
<g transform="translate(140)">
<g fill="#f5df4d">
<path d="m9.8 12-9.8-9.8v-1.4l10 10 10-10v1.4l-9.8 9.8zm-4 0-5.8-5.8v-1.4l7.2 7.2zm8.4 0 5.8-5.8v-1.4l-7.2 7.2zm-4.4-12 0.2 0.2 0.2-0.2zm-4 0 4.2 4.2 4.2-4.2h-1.4l-2.8 2.8-2.8-2.8z" fill="#f5df4d"/>
</g>
</g>
<g transform="translate(120)">
<g fill="#f5df4d">
<path d="m9.8 12-9.8-9.8v-1.4l10 10 10-10v1.4l-9.8 9.8zm-4 0-5.8-5.8v-1.4l7.2 7.2zm8.4 0 5.8-5.8v-1.4l-7.2 7.2zm-4.4-12 0.2 0.2 0.2-0.2zm-4 0 4.2 4.2 4.2-4.2h-1.4l-2.8 2.8-2.8-2.8z" fill="#f5df4d"/>
</g>
</g>
<g transform="translate(100)">
<g fill="#f5df4d">
<path d="m9.8 12-9.8-9.8v-1.4l10 10 10-10v1.4l-9.8 9.8zm-4 0-5.8-5.8v-1.4l7.2 7.2zm8.4 0 5.8-5.8v-1.4l-7.2 7.2zm-4.4-12 0.2 0.2 0.2-0.2zm-4 0 4.2 4.2 4.2-4.2h-1.4l-2.8 2.8-2.8-2.8z" fill="#f5df4d"/>
</g>
</g>
<g transform="translate(80)">
<g fill="#f5df4d">
<path d="m9.8 12-9.8-9.8v-1.4l10 10 10-10v1.4l-9.8 9.8zm-4 0-5.8-5.8v-1.4l7.2 7.2zm8.4 0 5.8-5.8v-1.4l-7.2 7.2zm-4.4-12 0.2 0.2 0.2-0.2zm-4 0 4.2 4.2 4.2-4.2h-1.4l-2.8 2.8-2.8-2.8z" fill="#f5df4d"/>
</g>
</g>
<g transform="translate(60)">
<g fill="#f5df4d">
<path d="m9.8 12-9.8-9.8v-1.4l10 10 10-10v1.4l-9.8 9.8zm-4 0-5.8-5.8v-1.4l7.2 7.2zm8.4 0 5.8-5.8v-1.4l-7.2 7.2zm-4.4-12 0.2 0.2 0.2-0.2zm-4 0 4.2 4.2 4.2-4.2h-1.4l-2.8 2.8-2.8-2.8z" fill="#f5df4d"/>
</g>
</g>
<g transform="translate(40)">
<g fill="#f5df4d">
<path d="m9.8 12-9.8-9.8v-1.4l10 10 10-10v1.4l-9.8 9.8zm-4 0-5.8-5.8v-1.4l7.2 7.2zm8.4 0 5.8-5.8v-1.4l-7.2 7.2zm-4.4-12 0.2 0.2 0.2-0.2zm-4 0 4.2 4.2 4.2-4.2h-1.4l-2.8 2.8-2.8-2.8z" fill="#f5df4d"/>
</g>
</g>
<g transform="translate(20)">
<g fill="#f5df4d">
<path d="m9.8 12-9.8-9.8v-1.4l10 10 10-10v1.4l-9.8 9.8zm-4 0-5.8-5.8v-1.4l7.2 7.2zm8.4 0 5.8-5.8v-1.4l-7.2 7.2zm-4.4-12 0.2 0.2 0.2-0.2zm-4 0 4.2 4.2 4.2-4.2h-1.4l-2.8 2.8-2.8-2.8z" fill="#f5df4d"/>
</g>
</g>
</g>
<g transform="translate(0,84)">
<g fill="#f5df4d">
<path d="m9.8 12-9.8-9.8v-1.4l10 10 10-10v1.4l-9.8 9.8zm-4 0-5.8-5.8v-1.4l7.2 7.2zm8.4 0 5.8-5.8v-1.4l-7.2 7.2zm-4.4-12 0.2 0.2 0.2-0.2zm-4 0 4.2 4.2 4.2-4.2h-1.4l-2.8 2.8-2.8-2.8z" fill="#f5df4d"/>
</g>
<g transform="translate(-40)">
<g fill="#f5df4d">
<path d="m9.8 12-9.8-9.8v-1.4l10 10 10-10v1.4l-9.8 9.8zm-4 0-5.8-5.8v-1.4l7.2 7.2zm8.4 0 5.8-5.8v-1.4l-7.2 7.2zm-4.4-12 0.2 0.2 0.2-0.2zm-4 0 4.2 4.2 4.2-4.2h-1.4l-2.8 2.8-2.8-2.8z" fill="#f5df4d"/>
</g>
</g>
<g transform="translate(-20)">
<g fill="#f5df4d">
<path d="m9.8 12-9.8-9.8v-1.4l10 10 10-10v1.4l-9.8 9.8zm-4 0-5.8-5.8v-1.4l7.2 7.2zm8.4 0 5.8-5.8v-1.4l-7.2 7.2zm-4.4-12 0.2 0.2 0.2-0.2zm-4 0 4.2 4.2 4.2-4.2h-1.4l-2.8 2.8-2.8-2.8z" fill="#f5df4d"/>
</g>
</g>
<g transform="translate(180)">
<g fill="#f5df4d">
<path d="m9.8 12-9.8-9.8v-1.4l10 10 10-10v1.4l-9.8 9.8zm-4 0-5.8-5.8v-1.4l7.2 7.2zm8.4 0 5.8-5.8v-1.4l-7.2 7.2zm-4.4-12 0.2 0.2 0.2-0.2zm-4 0 4.2 4.2 4.2-4.2h-1.4l-2.8 2.8-2.8-2.8z" fill="#f5df4d"/>
</g>
</g>
<g transform="translate(160)">
<g fill="#f5df4d">
<path d="m9.8 12-9.8-9.8v-1.4l10 10 10-10v1.4l-9.8 9.8zm-4 0-5.8-5.8v-1.4l7.2 7.2zm8.4 0 5.8-5.8v-1.4l-7.2 7.2zm-4.4-12 0.2 0.2 0.2-0.2zm-4 0 4.2 4.2 4.2-4.2h-1.4l-2.8 2.8-2.8-2.8z" fill="#f5df4d"/>
</g>
</g>
<g transform="translate(140)">
<g fill="#f5df4d">
<path d="m9.8 12-9.8-9.8v-1.4l10 10 10-10v1.4l-9.8 9.8zm-4 0-5.8-5.8v-1.4l7.2 7.2zm8.4 0 5.8-5.8v-1.4l-7.2 7.2zm-4.4-12 0.2 0.2 0.2-0.2zm-4 0 4.2 4.2 4.2-4.2h-1.4l-2.8 2.8-2.8-2.8z" fill="#f5df4d"/>
</g>
</g>
<g transform="translate(120)">
<g fill="#f5df4d">
<path d="m9.8 12-9.8-9.8v-1.4l10 10 10-10v1.4l-9.8 9.8zm-4 0-5.8-5.8v-1.4l7.2 7.2zm8.4 0 5.8-5.8v-1.4l-7.2 7.2zm-4.4-12 0.2 0.2 0.2-0.2zm-4 0 4.2 4.2 4.2-4.2h-1.4l-2.8 2.8-2.8-2.8z" fill="#f5df4d"/>
</g>
</g>
<g transform="translate(100)">
<g fill="#f5df4d">
<path d="m9.8 12-9.8-9.8v-1.4l10 10 10-10v1.4l-9.8 9.8zm-4 0-5.8-5.8v-1.4l7.2 7.2zm8.4 0 5.8-5.8v-1.4l-7.2 7.2zm-4.4-12 0.2 0.2 0.2-0.2zm-4 0 4.2 4.2 4.2-4.2h-1.4l-2.8 2.8-2.8-2.8z" fill="#f5df4d"/>
</g>
</g>
<g transform="translate(80)">
<g fill="#f5df4d">
<path d="m9.8 12-9.8-9.8v-1.4l10 10 10-10v1.4l-9.8 9.8zm-4 0-5.8-5.8v-1.4l7.2 7.2zm8.4 0 5.8-5.8v-1.4l-7.2 7.2zm-4.4-12 0.2 0.2 0.2-0.2zm-4 0 4.2 4.2 4.2-4.2h-1.4l-2.8 2.8-2.8-2.8z" fill="#f5df4d"/>
</g>
</g>
<g transform="translate(60)">
<g fill="#f5df4d">
<path d="m9.8 12-9.8-9.8v-1.4l10 10 10-10v1.4l-9.8 9.8zm-4 0-5.8-5.8v-1.4l7.2 7.2zm8.4 0 5.8-5.8v-1.4l-7.2 7.2zm-4.4-12 0.2 0.2 0.2-0.2zm-4 0 4.2 4.2 4.2-4.2h-1.4l-2.8 2.8-2.8-2.8z" fill="#f5df4d"/>
</g>
</g>
<g transform="translate(40)">
<g fill="#f5df4d">
<path d="m9.8 12-9.8-9.8v-1.4l10 10 10-10v1.4l-9.8 9.8zm-4 0-5.8-5.8v-1.4l7.2 7.2zm8.4 0 5.8-5.8v-1.4l-7.2 7.2zm-4.4-12 0.2 0.2 0.2-0.2zm-4 0 4.2 4.2 4.2-4.2h-1.4l-2.8 2.8-2.8-2.8z" fill="#f5df4d"/>
</g>
</g>
<g transform="translate(20)">
<g fill="#f5df4d">
<path d="m9.8 12-9.8-9.8v-1.4l10 10 10-10v1.4l-9.8 9.8zm-4 0-5.8-5.8v-1.4l7.2 7.2zm8.4 0 5.8-5.8v-1.4l-7.2 7.2zm-4.4-12 0.2 0.2 0.2-0.2zm-4 0 4.2 4.2 4.2-4.2h-1.4l-2.8 2.8-2.8-2.8z" fill="#f5df4d"/>
</g>
</g>
</g>
<g transform="translate(0,72)">
<g fill="#f5df4d">
<path d="m9.8 12-9.8-9.8v-1.4l10 10 10-10v1.4l-9.8 9.8zm-4 0-5.8-5.8v-1.4l7.2 7.2zm8.4 0 5.8-5.8v-1.4l-7.2 7.2zm-4.4-12 0.2 0.2 0.2-0.2zm-4 0 4.2 4.2 4.2-4.2h-1.4l-2.8 2.8-2.8-2.8z" fill="#f5df4d"/>
</g>
<g transform="translate(-40)">
<g fill="#f5df4d">
<path d="m9.8 12-9.8-9.8v-1.4l10 10 10-10v1.4l-9.8 9.8zm-4 0-5.8-5.8v-1.4l7.2 7.2zm8.4 0 5.8-5.8v-1.4l-7.2 7.2zm-4.4-12 0.2 0.2 0.2-0.2zm-4 0 4.2 4.2 4.2-4.2h-1.4l-2.8 2.8-2.8-2.8z" fill="#f5df4d"/>
</g>
</g>
<g transform="translate(-20)">
<g fill="#f5df4d">
<path d="m9.8 12-9.8-9.8v-1.4l10 10 10-10v1.4l-9.8 9.8zm-4 0-5.8-5.8v-1.4l7.2 7.2zm8.4 0 5.8-5.8v-1.4l-7.2 7.2zm-4.4-12 0.2 0.2 0.2-0.2zm-4 0 4.2 4.2 4.2-4.2h-1.4l-2.8 2.8-2.8-2.8z" fill="#f5df4d"/>
</g>
</g>
<g transform="translate(180)">
<g fill="#f5df4d">
<path d="m9.8 12-9.8-9.8v-1.4l10 10 10-10v1.4l-9.8 9.8zm-4 0-5.8-5.8v-1.4l7.2 7.2zm8.4 0 5.8-5.8v-1.4l-7.2 7.2zm-4.4-12 0.2 0.2 0.2-0.2zm-4 0 4.2 4.2 4.2-4.2h-1.4l-2.8 2.8-2.8-2.8z" fill="#f5df4d"/>
</g>
</g>
<g transform="translate(160)">
<g fill="#f5df4d">
<path d="m9.8 12-9.8-9.8v-1.4l10 10 10-10v1.4l-9.8 9.8zm-4 0-5.8-5.8v-1.4l7.2 7.2zm8.4 0 5.8-5.8v-1.4l-7.2 7.2zm-4.4-12 0.2 0.2 0.2-0.2zm-4 0 4.2 4.2 4.2-4.2h-1.4l-2.8 2.8-2.8-2.8z" fill="#f5df4d"/>
</g>
</g>
<g transform="translate(140)">
<g fill="#f5df4d">
<path d="m9.8 12-9.8-9.8v-1.4l10 10 10-10v1.4l-9.8 9.8zm-4 0-5.8-5.8v-1.4l7.2 7.2zm8.4 0 5.8-5.8v-1.4l-7.2 7.2zm-4.4-12 0.2 0.2 0.2-0.2zm-4 0 4.2 4.2 4.2-4.2h-1.4l-2.8 2.8-2.8-2.8z" fill="#f5df4d"/>
</g>
</g>
<g transform="translate(120)">
<g fill="#f5df4d">
<path d="m9.8 12-9.8-9.8v-1.4l10 10 10-10v1.4l-9.8 9.8zm-4 0-5.8-5.8v-1.4l7.2 7.2zm8.4 0 5.8-5.8v-1.4l-7.2 7.2zm-4.4-12 0.2 0.2 0.2-0.2zm-4 0 4.2 4.2 4.2-4.2h-1.4l-2.8 2.8-2.8-2.8z" fill="#f5df4d"/>
</g>
</g>
<g transform="translate(100)">
<g fill="#f5df4d">
<path d="m9.8 12-9.8-9.8v-1.4l10 10 10-10v1.4l-9.8 9.8zm-4 0-5.8-5.8v-1.4l7.2 7.2zm8.4 0 5.8-5.8v-1.4l-7.2 7.2zm-4.4-12 0.2 0.2 0.2-0.2zm-4 0 4.2 4.2 4.2-4.2h-1.4l-2.8 2.8-2.8-2.8z" fill="#f5df4d"/>
</g>
</g>
<g transform="translate(80)">
<g fill="#f5df4d">
<path d="m9.8 12-9.8-9.8v-1.4l10 10 10-10v1.4l-9.8 9.8zm-4 0-5.8-5.8v-1.4l7.2 7.2zm8.4 0 5.8-5.8v-1.4l-7.2 7.2zm-4.4-12 0.2 0.2 0.2-0.2zm-4 0 4.2 4.2 4.2-4.2h-1.4l-2.8 2.8-2.8-2.8z" fill="#f5df4d"/>
</g>
</g>
<g transform="translate(60)">
<g fill="#f5df4d">
<path d="m9.8 12-9.8-9.8v-1.4l10 10 10-10v1.4l-9.8 9.8zm-4 0-5.8-5.8v-1.4l7.2 7.2zm8.4 0 5.8-5.8v-1.4l-7.2 7.2zm-4.4-12 0.2 0.2 0.2-0.2zm-4 0 4.2 4.2 4.2-4.2h-1.4l-2.8 2.8-2.8-2.8z" fill="#f5df4d"/>
</g>
</g>
<g transform="translate(40)">
<g fill="#f5df4d">
<path d="m9.8 12-9.8-9.8v-1.4l10 10 10-10v1.4l-9.8 9.8zm-4 0-5.8-5.8v-1.4l7.2 7.2zm8.4 0 5.8-5.8v-1.4l-7.2 7.2zm-4.4-12 0.2 0.2 0.2-0.2zm-4 0 4.2 4.2 4.2-4.2h-1.4l-2.8 2.8-2.8-2.8z" fill="#f5df4d"/>
</g>
</g>
<g transform="translate(20)">
<g fill="#f5df4d">
<path d="m9.8 12-9.8-9.8v-1.4l10 10 10-10v1.4l-9.8 9.8zm-4 0-5.8-5.8v-1.4l7.2 7.2zm8.4 0 5.8-5.8v-1.4l-7.2 7.2zm-4.4-12 0.2 0.2 0.2-0.2zm-4 0 4.2 4.2 4.2-4.2h-1.4l-2.8 2.8-2.8-2.8z" fill="#f5df4d"/>
</g>
</g>
</g>
<g transform="translate(0,60)">
<g fill="#f5df4d">
<path d="m9.8 12-9.8-9.8v-1.4l10 10 10-10v1.4l-9.8 9.8zm-4 0-5.8-5.8v-1.4l7.2 7.2zm8.4 0 5.8-5.8v-1.4l-7.2 7.2zm-4.4-12 0.2 0.2 0.2-0.2zm-4 0 4.2 4.2 4.2-4.2h-1.4l-2.8 2.8-2.8-2.8z" fill="#f5df4d"/>
</g>
<g transform="translate(-40)">
<g fill="#f5df4d">
<path d="m9.8 12-9.8-9.8v-1.4l10 10 10-10v1.4l-9.8 9.8zm-4 0-5.8-5.8v-1.4l7.2 7.2zm8.4 0 5.8-5.8v-1.4l-7.2 7.2zm-4.4-12 0.2 0.2 0.2-0.2zm-4 0 4.2 4.2 4.2-4.2h-1.4l-2.8 2.8-2.8-2.8z" fill="#f5df4d"/>
</g>
</g>
<g transform="translate(-20)">
<g fill="#f5df4d">
<path d="m9.8 12-9.8-9.8v-1.4l10 10 10-10v1.4l-9.8 9.8zm-4 0-5.8-5.8v-1.4l7.2 7.2zm8.4 0 5.8-5.8v-1.4l-7.2 7.2zm-4.4-12 0.2 0.2 0.2-0.2zm-4 0 4.2 4.2 4.2-4.2h-1.4l-2.8 2.8-2.8-2.8z" fill="#f5df4d"/>
</g>
</g>
<g transform="translate(180)">
<g fill="#f5df4d">
<path d="m9.8 12-9.8-9.8v-1.4l10 10 10-10v1.4l-9.8 9.8zm-4 0-5.8-5.8v-1.4l7.2 7.2zm8.4 0 5.8-5.8v-1.4l-7.2 7.2zm-4.4-12 0.2 0.2 0.2-0.2zm-4 0 4.2 4.2 4.2-4.2h-1.4l-2.8 2.8-2.8-2.8z" fill="#f5df4d"/>
</g>
</g>
<g transform="translate(160)">
<g fill="#f5df4d">
<path d="m9.8 12-9.8-9.8v-1.4l10 10 10-10v1.4l-9.8 9.8zm-4 0-5.8-5.8v-1.4l7.2 7.2zm8.4 0 5.8-5.8v-1.4l-7.2 7.2zm-4.4-12 0.2 0.2 0.2-0.2zm-4 0 4.2 4.2 4.2-4.2h-1.4l-2.8 2.8-2.8-2.8z" fill="#f5df4d"/>
</g>
</g>
<g transform="translate(140)">
<g fill="#f5df4d">
<path d="m9.8 12-9.8-9.8v-1.4l10 10 10-10v1.4l-9.8 9.8zm-4 0-5.8-5.8v-1.4l7.2 7.2zm8.4 0 5.8-5.8v-1.4l-7.2 7.2zm-4.4-12 0.2 0.2 0.2-0.2zm-4 0 4.2 4.2 4.2-4.2h-1.4l-2.8 2.8-2.8-2.8z" fill="#f5df4d"/>
</g>
</g>
<g transform="translate(120)">
<g fill="#f5df4d">
<path d="m9.8 12-9.8-9.8v-1.4l10 10 10-10v1.4l-9.8 9.8zm-4 0-5.8-5.8v-1.4l7.2 7.2zm8.4 0 5.8-5.8v-1.4l-7.2 7.2zm-4.4-12 0.2 0.2 0.2-0.2zm-4 0 4.2 4.2 4.2-4.2h-1.4l-2.8 2.8-2.8-2.8z" fill="#f5df4d"/>
</g>
</g>
<g transform="translate(100)">
<g fill="#f5df4d">
<path d="m9.8 12-9.8-9.8v-1.4l10 10 10-10v1.4l-9.8 9.8zm-4 0-5.8-5.8v-1.4l7.2 7.2zm8.4 0 5.8-5.8v-1.4l-7.2 7.2zm-4.4-12 0.2 0.2 0.2-0.2zm-4 0 4.2 4.2 4.2-4.2h-1.4l-2.8 2.8-2.8-2.8z" fill="#f5df4d"/>
</g>
</g>
<g transform="translate(80)">
<g fill="#f5df4d">
<path d="m9.8 12-9.8-9.8v-1.4l10 10 10-10v1.4l-9.8 9.8zm-4 0-5.8-5.8v-1.4l7.2 7.2zm8.4 0 5.8-5.8v-1.4l-7.2 7.2zm-4.4-12 0.2 0.2 0.2-0.2zm-4 0 4.2 4.2 4.2-4.2h-1.4l-2.8 2.8-2.8-2.8z" fill="#f5df4d"/>
</g>
</g>
<g transform="translate(60)">
<g fill="#f5df4d">
<path d="m9.8 12-9.8-9.8v-1.4l10 10 10-10v1.4l-9.8 9.8zm-4 0-5.8-5.8v-1.4l7.2 7.2zm8.4 0 5.8-5.8v-1.4l-7.2 7.2zm-4.4-12 0.2 0.2 0.2-0.2zm-4 0 4.2 4.2 4.2-4.2h-1.4l-2.8 2.8-2.8-2.8z" fill="#f5df4d"/>
</g>
</g>
<g transform="translate(40)">
<g fill="#f5df4d">
<path d="m9.8 12-9.8-9.8v-1.4l10 10 10-10v1.4l-9.8 9.8zm-4 0-5.8-5.8v-1.4l7.2 7.2zm8.4 0 5.8-5.8v-1.4l-7.2 7.2zm-4.4-12 0.2 0.2 0.2-0.2zm-4 0 4.2 4.2 4.2-4.2h-1.4l-2.8 2.8-2.8-2.8z" fill="#f5df4d"/>
</g>
</g>
<g transform="translate(20)">
<g fill="#f5df4d">
<path d="m9.8 12-9.8-9.8v-1.4l10 10 10-10v1.4l-9.8 9.8zm-4 0-5.8-5.8v-1.4l7.2 7.2zm8.4 0 5.8-5.8v-1.4l-7.2 7.2zm-4.4-12 0.2 0.2 0.2-0.2zm-4 0 4.2 4.2 4.2-4.2h-1.4l-2.8 2.8-2.8-2.8z" fill="#f5df4d"/>
</g>
</g>
</g>
<g transform="translate(0,48)">
<g fill="#f5df4d">
<path d="m9.8 12-9.8-9.8v-1.4l10 10 10-10v1.4l-9.8 9.8zm-4 0-5.8-5.8v-1.4l7.2 7.2zm8.4 0 5.8-5.8v-1.4l-7.2 7.2zm-4.4-12 0.2 0.2 0.2-0.2zm-4 0 4.2 4.2 4.2-4.2h-1.4l-2.8 2.8-2.8-2.8z" fill="#f5df4d"/>
</g>
<g transform="translate(-40)">
<g fill="#f5df4d">
<path d="m9.8 12-9.8-9.8v-1.4l10 10 10-10v1.4l-9.8 9.8zm-4 0-5.8-5.8v-1.4l7.2 7.2zm8.4 0 5.8-5.8v-1.4l-7.2 7.2zm-4.4-12 0.2 0.2 0.2-0.2zm-4 0 4.2 4.2 4.2-4.2h-1.4l-2.8 2.8-2.8-2.8z" fill="#f5df4d"/>
</g>
</g>
<g transform="translate(-20)">
<g fill="#f5df4d">
<path d="m9.8 12-9.8-9.8v-1.4l10 10 10-10v1.4l-9.8 9.8zm-4 0-5.8-5.8v-1.4l7.2 7.2zm8.4 0 5.8-5.8v-1.4l-7.2 7.2zm-4.4-12 0.2 0.2 0.2-0.2zm-4 0 4.2 4.2 4.2-4.2h-1.4l-2.8 2.8-2.8-2.8z" fill="#f5df4d"/>
</g>
</g>
<g transform="translate(180)">
<g fill="#f5df4d">
<path d="m9.8 12-9.8-9.8v-1.4l10 10 10-10v1.4l-9.8 9.8zm-4 0-5.8-5.8v-1.4l7.2 7.2zm8.4 0 5.8-5.8v-1.4l-7.2 7.2zm-4.4-12 0.2 0.2 0.2-0.2zm-4 0 4.2 4.2 4.2-4.2h-1.4l-2.8 2.8-2.8-2.8z" fill="#f5df4d"/>
</g>
</g>
<g transform="translate(160)">
<g fill="#f5df4d">
<path d="m9.8 12-9.8-9.8v-1.4l10 10 10-10v1.4l-9.8 9.8zm-4 0-5.8-5.8v-1.4l7.2 7.2zm8.4 0 5.8-5.8v-1.4l-7.2 7.2zm-4.4-12 0.2 0.2 0.2-0.2zm-4 0 4.2 4.2 4.2-4.2h-1.4l-2.8 2.8-2.8-2.8z" fill="#f5df4d"/>
</g>
</g>
<g transform="translate(140)">
<g fill="#f5df4d">
<path d="m9.8 12-9.8-9.8v-1.4l10 10 10-10v1.4l-9.8 9.8zm-4 0-5.8-5.8v-1.4l7.2 7.2zm8.4 0 5.8-5.8v-1.4l-7.2 7.2zm-4.4-12 0.2 0.2 0.2-0.2zm-4 0 4.2 4.2 4.2-4.2h-1.4l-2.8 2.8-2.8-2.8z" fill="#f5df4d"/>
</g>
</g>
<g transform="translate(120)">
<g fill="#f5df4d">
<path d="m9.8 12-9.8-9.8v-1.4l10 10 10-10v1.4l-9.8 9.8zm-4 0-5.8-5.8v-1.4l7.2 7.2zm8.4 0 5.8-5.8v-1.4l-7.2 7.2zm-4.4-12 0.2 0.2 0.2-0.2zm-4 0 4.2 4.2 4.2-4.2h-1.4l-2.8 2.8-2.8-2.8z" fill="#f5df4d"/>
</g>
</g>
<g transform="translate(100)">
<g fill="#f5df4d">
<path d="m9.8 12-9.8-9.8v-1.4l10 10 10-10v1.4l-9.8 9.8zm-4 0-5.8-5.8v-1.4l7.2 7.2zm8.4 0 5.8-5.8v-1.4l-7.2 7.2zm-4.4-12 0.2 0.2 0.2-0.2zm-4 0 4.2 4.2 4.2-4.2h-1.4l-2.8 2.8-2.8-2.8z" fill="#f5df4d"/>
</g>
</g>
<g transform="translate(80)">
<g fill="#f5df4d">
<path d="m9.8 12-9.8-9.8v-1.4l10 10 10-10v1.4l-9.8 9.8zm-4 0-5.8-5.8v-1.4l7.2 7.2zm8.4 0 5.8-5.8v-1.4l-7.2 7.2zm-4.4-12 0.2 0.2 0.2-0.2zm-4 0 4.2 4.2 4.2-4.2h-1.4l-2.8 2.8-2.8-2.8z" fill="#f5df4d"/>
</g>
</g>
<g transform="translate(60)">
<g fill="#f5df4d">
<path d="m9.8 12-9.8-9.8v-1.4l10 10 10-10v1.4l-9.8 9.8zm-4 0-5.8-5.8v-1.4l7.2 7.2zm8.4 0 5.8-5.8v-1.4l-7.2 7.2zm-4.4-12 0.2 0.2 0.2-0.2zm-4 0 4.2 4.2 4.2-4.2h-1.4l-2.8 2.8-2.8-2.8z" fill="#f5df4d"/>
</g>
</g>
<g transform="translate(40)">
<g fill="#f5df4d">
<path d="m9.8 12-9.8-9.8v-1.4l10 10 10-10v1.4l-9.8 9.8zm-4 0-5.8-5.8v-1.4l7.2 7.2zm8.4 0 5.8-5.8v-1.4l-7.2 7.2zm-4.4-12 0.2 0.2 0.2-0.2zm-4 0 4.2 4.2 4.2-4.2h-1.4l-2.8 2.8-2.8-2.8z" fill="#f5df4d"/>
</g>
</g>
<g transform="translate(20)">
<g fill="#f5df4d">
<path d="m9.8 12-9.8-9.8v-1.4l10 10 10-10v1.4l-9.8 9.8zm-4 0-5.8-5.8v-1.4l7.2 7.2zm8.4 0 5.8-5.8v-1.4l-7.2 7.2zm-4.4-12 0.2 0.2 0.2-0.2zm-4 0 4.2 4.2 4.2-4.2h-1.4l-2.8 2.8-2.8-2.8z" fill="#f5df4d"/>
</g>
</g>
</g>
<g transform="translate(0,36)">
<g fill="#f5df4d">
<path d="m9.8 12-9.8-9.8v-1.4l10 10 10-10v1.4l-9.8 9.8zm-4 0-5.8-5.8v-1.4l7.2 7.2zm8.4 0 5.8-5.8v-1.4l-7.2 7.2zm-4.4-12 0.2 0.2 0.2-0.2zm-4 0 4.2 4.2 4.2-4.2h-1.4l-2.8 2.8-2.8-2.8z" fill="#f5df4d"/>
</g>
<g transform="translate(-40)">
<g fill="#f5df4d">
<path d="m9.8 12-9.8-9.8v-1.4l10 10 10-10v1.4l-9.8 9.8zm-4 0-5.8-5.8v-1.4l7.2 7.2zm8.4 0 5.8-5.8v-1.4l-7.2 7.2zm-4.4-12 0.2 0.2 0.2-0.2zm-4 0 4.2 4.2 4.2-4.2h-1.4l-2.8 2.8-2.8-2.8z" fill="#f5df4d"/>
</g>
</g>
<g transform="translate(-20)">
<g fill="#f5df4d">
<path d="m9.8 12-9.8-9.8v-1.4l10 10 10-10v1.4l-9.8 9.8zm-4 0-5.8-5.8v-1.4l7.2 7.2zm8.4 0 5.8-5.8v-1.4l-7.2 7.2zm-4.4-12 0.2 0.2 0.2-0.2zm-4 0 4.2 4.2 4.2-4.2h-1.4l-2.8 2.8-2.8-2.8z" fill="#f5df4d"/>
</g>
</g>
<g transform="translate(180)">
<g fill="#f5df4d">
<path d="m9.8 12-9.8-9.8v-1.4l10 10 10-10v1.4l-9.8 9.8zm-4 0-5.8-5.8v-1.4l7.2 7.2zm8.4 0 5.8-5.8v-1.4l-7.2 7.2zm-4.4-12 0.2 0.2 0.2-0.2zm-4 0 4.2 4.2 4.2-4.2h-1.4l-2.8 2.8-2.8-2.8z" fill="#f5df4d"/>
</g>
</g>
<g transform="translate(160)">
<g fill="#f5df4d">
<path d="m9.8 12-9.8-9.8v-1.4l10 10 10-10v1.4l-9.8 9.8zm-4 0-5.8-5.8v-1.4l7.2 7.2zm8.4 0 5.8-5.8v-1.4l-7.2 7.2zm-4.4-12 0.2 0.2 0.2-0.2zm-4 0 4.2 4.2 4.2-4.2h-1.4l-2.8 2.8-2.8-2.8z" fill="#f5df4d"/>
</g>
</g>
<g transform="translate(140)">
<g fill="#f5df4d">
<path d="m9.8 12-9.8-9.8v-1.4l10 10 10-10v1.4l-9.8 9.8zm-4 0-5.8-5.8v-1.4l7.2 7.2zm8.4 0 5.8-5.8v-1.4l-7.2 7.2zm-4.4-12 0.2 0.2 0.2-0.2zm-4 0 4.2 4.2 4.2-4.2h-1.4l-2.8 2.8-2.8-2.8z" fill="#f5df4d"/>
</g>
</g>
<g transform="translate(120)">
<g fill="#f5df4d">
<path d="m9.8 12-9.8-9.8v-1.4l10 10 10-10v1.4l-9.8 9.8zm-4 0-5.8-5.8v-1.4l7.2 7.2zm8.4 0 5.8-5.8v-1.4l-7.2 7.2zm-4.4-12 0.2 0.2 0.2-0.2zm-4 0 4.2 4.2 4.2-4.2h-1.4l-2.8 2.8-2.8-2.8z" fill="#f5df4d"/>
</g>
</g>
<g transform="translate(100)">
<g fill="#f5df4d">
<path d="m9.8 12-9.8-9.8v-1.4l10 10 10-10v1.4l-9.8 9.8zm-4 0-5.8-5.8v-1.4l7.2 7.2zm8.4 0 5.8-5.8v-1.4l-7.2 7.2zm-4.4-12 0.2 0.2 0.2-0.2zm-4 0 4.2 4.2 4.2-4.2h-1.4l-2.8 2.8-2.8-2.8z" fill="#f5df4d"/>
</g>
</g>
<g transform="translate(80)">
<g fill="#f5df4d">
<path d="m9.8 12-9.8-9.8v-1.4l10 10 10-10v1.4l-9.8 9.8zm-4 0-5.8-5.8v-1.4l7.2 7.2zm8.4 0 5.8-5.8v-1.4l-7.2 7.2zm-4.4-12 0.2 0.2 0.2-0.2zm-4 0 4.2 4.2 4.2-4.2h-1.4l-2.8 2.8-2.8-2.8z" fill="#f5df4d"/>
</g>
</g>
<g transform="translate(60)">
<g fill="#f5df4d">
<path d="m9.8 12-9.8-9.8v-1.4l10 10 10-10v1.4l-9.8 9.8zm-4 0-5.8-5.8v-1.4l7.2 7.2zm8.4 0 5.8-5.8v-1.4l-7.2 7.2zm-4.4-12 0.2 0.2 0.2-0.2zm-4 0 4.2 4.2 4.2-4.2h-1.4l-2.8 2.8-2.8-2.8z" fill="#f5df4d"/>
</g>
</g>
<g transform="translate(40)">
<g fill="#f5df4d">
<path d="m9.8 12-9.8-9.8v-1.4l10 10 10-10v1.4l-9.8 9.8zm-4 0-5.8-5.8v-1.4l7.2 7.2zm8.4 0 5.8-5.8v-1.4l-7.2 7.2zm-4.4-12 0.2 0.2 0.2-0.2zm-4 0 4.2 4.2 4.2-4.2h-1.4l-2.8 2.8-2.8-2.8z" fill="#f5df4d"/>
</g>
</g>
<g transform="translate(20)">
<g fill="#f5df4d">
<path d="m9.8 12-9.8-9.8v-1.4l10 10 10-10v1.4l-9.8 9.8zm-4 0-5.8-5.8v-1.4l7.2 7.2zm8.4 0 5.8-5.8v-1.4l-7.2 7.2zm-4.4-12 0.2 0.2 0.2-0.2zm-4 0 4.2 4.2 4.2-4.2h-1.4l-2.8 2.8-2.8-2.8z" fill="#f5df4d"/>
</g>
</g>
</g>
<g transform="translate(0,24)">
<g fill="#f5df4d">
<path d="m9.8 12-9.8-9.8v-1.4l10 10 10-10v1.4l-9.8 9.8zm-4 0-5.8-5.8v-1.4l7.2 7.2zm8.4 0 5.8-5.8v-1.4l-7.2 7.2zm-4.4-12 0.2 0.2 0.2-0.2zm-4 0 4.2 4.2 4.2-4.2h-1.4l-2.8 2.8-2.8-2.8z" fill="#f5df4d"/>
</g>
<g transform="translate(-40)">
<g fill="#f5df4d">
<path d="m9.8 12-9.8-9.8v-1.4l10 10 10-10v1.4l-9.8 9.8zm-4 0-5.8-5.8v-1.4l7.2 7.2zm8.4 0 5.8-5.8v-1.4l-7.2 7.2zm-4.4-12 0.2 0.2 0.2-0.2zm-4 0 4.2 4.2 4.2-4.2h-1.4l-2.8 2.8-2.8-2.8z" fill="#f5df4d"/>
</g>
</g>
<g transform="translate(-20)">
<g fill="#f5df4d">
<path d="m9.8 12-9.8-9.8v-1.4l10 10 10-10v1.4l-9.8 9.8zm-4 0-5.8-5.8v-1.4l7.2 7.2zm8.4 0 5.8-5.8v-1.4l-7.2 7.2zm-4.4-12 0.2 0.2 0.2-0.2zm-4 0 4.2 4.2 4.2-4.2h-1.4l-2.8 2.8-2.8-2.8z" fill="#f5df4d"/>
</g>
</g>
<g transform="translate(180)">
<g fill="#f5df4d">
<path d="m9.8 12-9.8-9.8v-1.4l10 10 10-10v1.4l-9.8 9.8zm-4 0-5.8-5.8v-1.4l7.2 7.2zm8.4 0 5.8-5.8v-1.4l-7.2 7.2zm-4.4-12 0.2 0.2 0.2-0.2zm-4 0 4.2 4.2 4.2-4.2h-1.4l-2.8 2.8-2.8-2.8z" fill="#f5df4d"/>
</g>
</g>
<g transform="translate(160)">
<g fill="#f5df4d">
<path d="m9.8 12-9.8-9.8v-1.4l10 10 10-10v1.4l-9.8 9.8zm-4 0-5.8-5.8v-1.4l7.2 7.2zm8.4 0 5.8-5.8v-1.4l-7.2 7.2zm-4.4-12 0.2 0.2 0.2-0.2zm-4 0 4.2 4.2 4.2-4.2h-1.4l-2.8 2.8-2.8-2.8z" fill="#f5df4d"/>
</g>
</g>
<g transform="translate(140)">
<g fill="#f5df4d">
<path d="m9.8 12-9.8-9.8v-1.4l10 10 10-10v1.4l-9.8 9.8zm-4 0-5.8-5.8v-1.4l7.2 7.2zm8.4 0 5.8-5.8v-1.4l-7.2 7.2zm-4.4-12 0.2 0.2 0.2-0.2zm-4 0 4.2 4.2 4.2-4.2h-1.4l-2.8 2.8-2.8-2.8z" fill="#f5df4d"/>
</g>
</g>
<g transform="translate(120)">
<g fill="#f5df4d">
<path d="m9.8 12-9.8-9.8v-1.4l10 10 10-10v1.4l-9.8 9.8zm-4 0-5.8-5.8v-1.4l7.2 7.2zm8.4 0 5.8-5.8v-1.4l-7.2 7.2zm-4.4-12 0.2 0.2 0.2-0.2zm-4 0 4.2 4.2 4.2-4.2h-1.4l-2.8 2.8-2.8-2.8z" fill="#f5df4d"/>
</g>
</g>
<g transform="translate(100)">
<g fill="#f5df4d">
<path d="m9.8 12-9.8-9.8v-1.4l10 10 10-10v1.4l-9.8 9.8zm-4 0-5.8-5.8v-1.4l7.2 7.2zm8.4 0 5.8-5.8v-1.4l-7.2 7.2zm-4.4-12 0.2 0.2 0.2-0.2zm-4 0 4.2 4.2 4.2-4.2h-1.4l-2.8 2.8-2.8-2.8z" fill="#f5df4d"/>
</g>
</g>
<g transform="translate(80)">
<g fill="#f5df4d">
<path d="m9.8 12-9.8-9.8v-1.4l10 10 10-10v1.4l-9.8 9.8zm-4 0-5.8-5.8v-1.4l7.2 7.2zm8.4 0 5.8-5.8v-1.4l-7.2 7.2zm-4.4-12 0.2 0.2 0.2-0.2zm-4 0 4.2 4.2 4.2-4.2h-1.4l-2.8 2.8-2.8-2.8z" fill="#f5df4d"/>
</g>
</g>
<g transform="translate(60)">
<g fill="#f5df4d">
<path d="m9.8 12-9.8-9.8v-1.4l10 10 10-10v1.4l-9.8 9.8zm-4 0-5.8-5.8v-1.4l7.2 7.2zm8.4 0 5.8-5.8v-1.4l-7.2 7.2zm-4.4-12 0.2 0.2 0.2-0.2zm-4 0 4.2 4.2 4.2-4.2h-1.4l-2.8 2.8-2.8-2.8z" fill="#f5df4d"/>
</g>
</g>
<g transform="translate(40)">
<g fill="#f5df4d">
<path d="m9.8 12-9.8-9.8v-1.4l10 10 10-10v1.4l-9.8 9.8zm-4 0-5.8-5.8v-1.4l7.2 7.2zm8.4 0 5.8-5.8v-1.4l-7.2 7.2zm-4.4-12 0.2 0.2 0.2-0.2zm-4 0 4.2 4.2 4.2-4.2h-1.4l-2.8 2.8-2.8-2.8z" fill="#f5df4d"/>
</g>
</g>
<g transform="translate(20)">
<g fill="#f5df4d">
<path d="m9.8 12-9.8-9.8v-1.4l10 10 10-10v1.4l-9.8 9.8zm-4 0-5.8-5.8v-1.4l7.2 7.2zm8.4 0 5.8-5.8v-1.4l-7.2 7.2zm-4.4-12 0.2 0.2 0.2-0.2zm-4 0 4.2 4.2 4.2-4.2h-1.4l-2.8 2.8-2.8-2.8z" fill="#f5df4d"/>
</g>
</g>
</g>
<g transform="translate(0,12)">
<g fill="#f5df4d">
<path d="m9.8 12-9.8-9.8v-1.4l10 10 10-10v1.4l-9.8 9.8zm-4 0-5.8-5.8v-1.4l7.2 7.2zm8.4 0 5.8-5.8v-1.4l-7.2 7.2zm-4.4-12 0.2 0.2 0.2-0.2zm-4 0 4.2 4.2 4.2-4.2h-1.4l-2.8 2.8-2.8-2.8z" fill="#f5df4d"/>
</g>
<g transform="translate(-40)">
<g fill="#f5df4d">
<path d="m9.8 12-9.8-9.8v-1.4l10 10 10-10v1.4l-9.8 9.8zm-4 0-5.8-5.8v-1.4l7.2 7.2zm8.4 0 5.8-5.8v-1.4l-7.2 7.2zm-4.4-12 0.2 0.2 0.2-0.2zm-4 0 4.2 4.2 4.2-4.2h-1.4l-2.8 2.8-2.8-2.8z" fill="#f5df4d"/>
</g>
</g>
<g transform="translate(-20)">
<g fill="#f5df4d">
<path d="m9.8 12-9.8-9.8v-1.4l10 10 10-10v1.4l-9.8 9.8zm-4 0-5.8-5.8v-1.4l7.2 7.2zm8.4 0 5.8-5.8v-1.4l-7.2 7.2zm-4.4-12 0.2 0.2 0.2-0.2zm-4 0 4.2 4.2 4.2-4.2h-1.4l-2.8 2.8-2.8-2.8z" fill="#f5df4d"/>
</g>
</g>
<g transform="translate(180)">
<g fill="#f5df4d">
<path d="m9.8 12-9.8-9.8v-1.4l10 10 10-10v1.4l-9.8 9.8zm-4 0-5.8-5.8v-1.4l7.2 7.2zm8.4 0 5.8-5.8v-1.4l-7.2 7.2zm-4.4-12 0.2 0.2 0.2-0.2zm-4 0 4.2 4.2 4.2-4.2h-1.4l-2.8 2.8-2.8-2.8z" fill="#f5df4d"/>
</g>
</g>
<g transform="translate(160)">
<g fill="#f5df4d">
<path d="m9.8 12-9.8-9.8v-1.4l10 10 10-10v1.4l-9.8 9.8zm-4 0-5.8-5.8v-1.4l7.2 7.2zm8.4 0 5.8-5.8v-1.4l-7.2 7.2zm-4.4-12 0.2 0.2 0.2-0.2zm-4 0 4.2 4.2 4.2-4.2h-1.4l-2.8 2.8-2.8-2.8z" fill="#f5df4d"/>
</g>
</g>
<g transform="translate(140)">
<g fill="#f5df4d">
<path d="m9.8 12-9.8-9.8v-1.4l10 10 10-10v1.4l-9.8 9.8zm-4 0-5.8-5.8v-1.4l7.2 7.2zm8.4 0 5.8-5.8v-1.4l-7.2 7.2zm-4.4-12 0.2 0.2 0.2-0.2zm-4 0 4.2 4.2 4.2-4.2h-1.4l-2.8 2.8-2.8-2.8z" fill="#f5df4d"/>
</g>
</g>
<g transform="translate(120)">
<g fill="#f5df4d">
<path d="m9.8 12-9.8-9.8v-1.4l10 10 10-10v1.4l-9.8 9.8zm-4 0-5.8-5.8v-1.4l7.2 7.2zm8.4 0 5.8-5.8v-1.4l-7.2 7.2zm-4.4-12 0.2 0.2 0.2-0.2zm-4 0 4.2 4.2 4.2-4.2h-1.4l-2.8 2.8-2.8-2.8z" fill="#f5df4d"/>
</g>
</g>
<g transform="translate(100)">
<g fill="#f5df4d">
<path d="m9.8 12-9.8-9.8v-1.4l10 10 10-10v1.4l-9.8 9.8zm-4 0-5.8-5.8v-1.4l7.2 7.2zm8.4 0 5.8-5.8v-1.4l-7.2 7.2zm-4.4-12 0.2 0.2 0.2-0.2zm-4 0 4.2 4.2 4.2-4.2h-1.4l-2.8 2.8-2.8-2.8z" fill="#f5df4d"/>
</g>
</g>
<g transform="translate(80)">
<g fill="#f5df4d">
<path d="m9.8 12-9.8-9.8v-1.4l10 10 10-10v1.4l-9.8 9.8zm-4 0-5.8-5.8v-1.4l7.2 7.2zm8.4 0 5.8-5.8v-1.4l-7.2 7.2zm-4.4-12 0.2 0.2 0.2-0.2zm-4 0 4.2 4.2 4.2-4.2h-1.4l-2.8 2.8-2.8-2.8z" fill="#f5df4d"/>
</g>
</g>
<g transform="translate(60)">
<g fill="#f5df4d">
<path d="m9.8 12-9.8-9.8v-1.4l10 10 10-10v1.4l-9.8 9.8zm-4 0-5.8-5.8v-1.4l7.2 7.2zm8.4 0 5.8-5.8v-1.4l-7.2 7.2zm-4.4-12 0.2 0.2 0.2-0.2zm-4 0 4.2 4.2 4.2-4.2h-1.4l-2.8 2.8-2.8-2.8z"/>
<path d="m9.8 12-9.8-9.8v-1.4l10 10 10-10v1.4l-9.8 9.8zm-4 0-5.8-5.8v-1.4l7.2 7.2zm8.4 0 5.8-5.8v-1.4l-7.2 7.2zm-4.4-12 0.2 0.2 0.2-0.2zm-4 0 4.2 4.2 4.2-4.2h-1.4l-2.8 2.8-2.8-2.8z"/>
</g>
</g>
<g transform="translate(40)">
<g fill="#f5df4d">
<path d="m9.8 12-9.8-9.8v-1.4l10 10 10-10v1.4l-9.8 9.8zm-4 0-5.8-5.8v-1.4l7.2 7.2zm8.4 0 5.8-5.8v-1.4l-7.2 7.2zm-4.4-12 0.2 0.2 0.2-0.2zm-4 0 4.2 4.2 4.2-4.2h-1.4l-2.8 2.8-2.8-2.8z" fill="#f5df4d"/>
</g>
</g>
<g transform="translate(20)">
<g fill="#f5df4d">
<path d="m9.8 12-9.8-9.8v-1.4l10 10 10-10v1.4l-9.8 9.8zm-4 0-5.8-5.8v-1.4l7.2 7.2zm8.4 0 5.8-5.8v-1.4l-7.2 7.2zm-4.4-12 0.2 0.2 0.2-0.2zm-4 0 4.2 4.2 4.2-4.2h-1.4l-2.8 2.8-2.8-2.8z" fill="#f5df4d"/>
</g>
</g>
</g>
<g transform="translate(0,156)">
<g fill="#f5df4d">
<path d="m9.8 12-9.8-9.8v-1.4l10 10 10-10v1.4l-9.8 9.8zm-4 0-5.8-5.8v-1.4l7.2 7.2zm8.4 0 5.8-5.8v-1.4l-7.2 7.2zm-4.4-12 0.2 0.2 0.2-0.2zm-4 0 4.2 4.2 4.2-4.2h-1.4l-2.8 2.8-2.8-2.8z" fill="#f5df4d"/>
</g>
<g transform="translate(-40)">
<g fill="#f5df4d">
<path d="m9.8 12-9.8-9.8v-1.4l10 10 10-10v1.4l-9.8 9.8zm-4 0-5.8-5.8v-1.4l7.2 7.2zm8.4 0 5.8-5.8v-1.4l-7.2 7.2zm-4.4-12 0.2 0.2 0.2-0.2zm-4 0 4.2 4.2 4.2-4.2h-1.4l-2.8 2.8-2.8-2.8z" fill="#f5df4d"/>
</g>
</g>
<g transform="translate(-20)">
<g fill="#f5df4d">
<path d="m9.8 12-9.8-9.8v-1.4l10 10 10-10v1.4l-9.8 9.8zm-4 0-5.8-5.8v-1.4l7.2 7.2zm8.4 0 5.8-5.8v-1.4l-7.2 7.2zm-4.4-12 0.2 0.2 0.2-0.2zm-4 0 4.2 4.2 4.2-4.2h-1.4l-2.8 2.8-2.8-2.8z" fill="#f5df4d"/>
</g>
</g>
<g transform="translate(180)">
<g fill="#f5df4d">
<path d="m9.8 12-9.8-9.8v-1.4l10 10 10-10v1.4l-9.8 9.8zm-4 0-5.8-5.8v-1.4l7.2 7.2zm8.4 0 5.8-5.8v-1.4l-7.2 7.2zm-4.4-12 0.2 0.2 0.2-0.2zm-4 0 4.2 4.2 4.2-4.2h-1.4l-2.8 2.8-2.8-2.8z" fill="#f5df4d"/>
</g>
</g>
<g transform="translate(160)">
<g fill="#f5df4d">
<path d="m9.8 12-9.8-9.8v-1.4l10 10 10-10v1.4l-9.8 9.8zm-4 0-5.8-5.8v-1.4l7.2 7.2zm8.4 0 5.8-5.8v-1.4l-7.2 7.2zm-4.4-12 0.2 0.2 0.2-0.2zm-4 0 4.2 4.2 4.2-4.2h-1.4l-2.8 2.8-2.8-2.8z" fill="#f5df4d"/>
</g>
</g>
<g transform="translate(140)">
<g fill="#f5df4d">
<path d="m9.8 12-9.8-9.8v-1.4l10 10 10-10v1.4l-9.8 9.8zm-4 0-5.8-5.8v-1.4l7.2 7.2zm8.4 0 5.8-5.8v-1.4l-7.2 7.2zm-4.4-12 0.2 0.2 0.2-0.2zm-4 0 4.2 4.2 4.2-4.2h-1.4l-2.8 2.8-2.8-2.8z" fill="#f5df4d"/>
</g>
</g>
<g transform="translate(120)">
<g fill="#f5df4d">
<path d="m9.8 12-9.8-9.8v-1.4l10 10 10-10v1.4l-9.8 9.8zm-4 0-5.8-5.8v-1.4l7.2 7.2zm8.4 0 5.8-5.8v-1.4l-7.2 7.2zm-4.4-12 0.2 0.2 0.2-0.2zm-4 0 4.2 4.2 4.2-4.2h-1.4l-2.8 2.8-2.8-2.8z" fill="#f5df4d"/>
</g>
</g>
<g transform="translate(100)">
<g fill="#f5df4d">
<path d="m9.8 12-9.8-9.8v-1.4l10 10 10-10v1.4l-9.8 9.8zm-4 0-5.8-5.8v-1.4l7.2 7.2zm8.4 0 5.8-5.8v-1.4l-7.2 7.2zm-4.4-12 0.2 0.2 0.2-0.2zm-4 0 4.2 4.2 4.2-4.2h-1.4l-2.8 2.8-2.8-2.8z" fill="#f5df4d"/>
</g>
</g>
<g transform="translate(80)">
<g fill="#f5df4d">
<path d="m9.8 12-9.8-9.8v-1.4l10 10 10-10v1.4l-9.8 9.8zm-4 0-5.8-5.8v-1.4l7.2 7.2zm8.4 0 5.8-5.8v-1.4l-7.2 7.2zm-4.4-12 0.2 0.2 0.2-0.2zm-4 0 4.2 4.2 4.2-4.2h-1.4l-2.8 2.8-2.8-2.8z" fill="#f5df4d"/>
</g>
</g>
<g transform="translate(60)">
<g fill="#f5df4d">
<path d="m9.8 12-9.8-9.8v-1.4l10 10 10-10v1.4l-9.8 9.8zm-4 0-5.8-5.8v-1.4l7.2 7.2zm8.4 0 5.8-5.8v-1.4l-7.2 7.2zm-4.4-12 0.2 0.2 0.2-0.2zm-4 0 4.2 4.2 4.2-4.2h-1.4l-2.8 2.8-2.8-2.8z" fill="#f5df4d"/>
</g>
</g>
<g transform="translate(40)">
<g fill="#f5df4d">
<path d="m9.8 12-9.8-9.8v-1.4l10 10 10-10v1.4l-9.8 9.8zm-4 0-5.8-5.8v-1.4l7.2 7.2zm8.4 0 5.8-5.8v-1.4l-7.2 7.2zm-4.4-12 0.2 0.2 0.2-0.2zm-4 0 4.2 4.2 4.2-4.2h-1.4l-2.8 2.8-2.8-2.8z" fill="#f5df4d"/>
</g>
</g>
<g transform="translate(20)">
<g fill="#f5df4d">
<path d="m9.8 12-9.8-9.8v-1.4l10 10 10-10v1.4l-9.8 9.8zm-4 0-5.8-5.8v-1.4l7.2 7.2zm8.4 0 5.8-5.8v-1.4l-7.2 7.2zm-4.4-12 0.2 0.2 0.2-0.2zm-4 0 4.2 4.2 4.2-4.2h-1.4l-2.8 2.8-2.8-2.8z" fill="#f5df4d"/>
</g>
</g>
</g>
<g transform="translate(0,144)">
<g fill="#f5df4d">
<path d="m9.8 12-9.8-9.8v-1.4l10 10 10-10v1.4l-9.8 9.8zm-4 0-5.8-5.8v-1.4l7.2 7.2zm8.4 0 5.8-5.8v-1.4l-7.2 7.2zm-4.4-12 0.2 0.2 0.2-0.2zm-4 0 4.2 4.2 4.2-4.2h-1.4l-2.8 2.8-2.8-2.8z" fill="#f5df4d"/>
</g>
<g transform="translate(-40)">
<g fill="#f5df4d">
<path d="m9.8 12-9.8-9.8v-1.4l10 10 10-10v1.4l-9.8 9.8zm-4 0-5.8-5.8v-1.4l7.2 7.2zm8.4 0 5.8-5.8v-1.4l-7.2 7.2zm-4.4-12 0.2 0.2 0.2-0.2zm-4 0 4.2 4.2 4.2-4.2h-1.4l-2.8 2.8-2.8-2.8z" fill="#f5df4d"/>
</g>
</g>
<g transform="translate(-20)">
<g fill="#f5df4d">
<path d="m9.8 12-9.8-9.8v-1.4l10 10 10-10v1.4l-9.8 9.8zm-4 0-5.8-5.8v-1.4l7.2 7.2zm8.4 0 5.8-5.8v-1.4l-7.2 7.2zm-4.4-12 0.2 0.2 0.2-0.2zm-4 0 4.2 4.2 4.2-4.2h-1.4l-2.8 2.8-2.8-2.8z" fill="#f5df4d"/>
</g>
</g>
<g transform="translate(180)">
<g fill="#f5df4d">
<path d="m9.8 12-9.8-9.8v-1.4l10 10 10-10v1.4l-9.8 9.8zm-4 0-5.8-5.8v-1.4l7.2 7.2zm8.4 0 5.8-5.8v-1.4l-7.2 7.2zm-4.4-12 0.2 0.2 0.2-0.2zm-4 0 4.2 4.2 4.2-4.2h-1.4l-2.8 2.8-2.8-2.8z" fill="#f5df4d"/>
</g>
</g>
<g transform="translate(160)">
<g fill="#f5df4d">
<path d="m9.8 12-9.8-9.8v-1.4l10 10 10-10v1.4l-9.8 9.8zm-4 0-5.8-5.8v-1.4l7.2 7.2zm8.4 0 5.8-5.8v-1.4l-7.2 7.2zm-4.4-12 0.2 0.2 0.2-0.2zm-4 0 4.2 4.2 4.2-4.2h-1.4l-2.8 2.8-2.8-2.8z" fill="#f5df4d"/>
</g>
</g>
<g transform="translate(140)">
<g fill="#f5df4d">
<path d="m9.8 12-9.8-9.8v-1.4l10 10 10-10v1.4l-9.8 9.8zm-4 0-5.8-5.8v-1.4l7.2 7.2zm8.4 0 5.8-5.8v-1.4l-7.2 7.2zm-4.4-12 0.2 0.2 0.2-0.2zm-4 0 4.2 4.2 4.2-4.2h-1.4l-2.8 2.8-2.8-2.8z" fill="#f5df4d"/>
</g>
</g>
<g transform="translate(120)">
<g fill="#f5df4d">
<path d="m9.8 12-9.8-9.8v-1.4l10 10 10-10v1.4l-9.8 9.8zm-4 0-5.8-5.8v-1.4l7.2 7.2zm8.4 0 5.8-5.8v-1.4l-7.2 7.2zm-4.4-12 0.2 0.2 0.2-0.2zm-4 0 4.2 4.2 4.2-4.2h-1.4l-2.8 2.8-2.8-2.8z" fill="#f5df4d"/>
</g>
</g>
<g transform="translate(100)">
<g fill="#f5df4d">
<path d="m9.8 12-9.8-9.8v-1.4l10 10 10-10v1.4l-9.8 9.8zm-4 0-5.8-5.8v-1.4l7.2 7.2zm8.4 0 5.8-5.8v-1.4l-7.2 7.2zm-4.4-12 0.2 0.2 0.2-0.2zm-4 0 4.2 4.2 4.2-4.2h-1.4l-2.8 2.8-2.8-2.8z" fill="#f5df4d"/>
</g>
</g>
<g transform="translate(80)">
<g fill="#f5df4d">
<path d="m9.8 12-9.8-9.8v-1.4l10 10 10-10v1.4l-9.8 9.8zm-4 0-5.8-5.8v-1.4l7.2 7.2zm8.4 0 5.8-5.8v-1.4l-7.2 7.2zm-4.4-12 0.2 0.2 0.2-0.2zm-4 0 4.2 4.2 4.2-4.2h-1.4l-2.8 2.8-2.8-2.8z" fill="#f5df4d"/>
</g>
</g>
<g transform="translate(60)">
<g fill="#f5df4d">
<path d="m9.8 12-9.8-9.8v-1.4l10 10 10-10v1.4l-9.8 9.8zm-4 0-5.8-5.8v-1.4l7.2 7.2zm8.4 0 5.8-5.8v-1.4l-7.2 7.2zm-4.4-12 0.2 0.2 0.2-0.2zm-4 0 4.2 4.2 4.2-4.2h-1.4l-2.8 2.8-2.8-2.8z" fill="#f5df4d"/>
</g>
</g>
<g transform="translate(40)">
<g fill="#f5df4d">
<path d="m9.8 12-9.8-9.8v-1.4l10 10 10-10v1.4l-9.8 9.8zm-4 0-5.8-5.8v-1.4l7.2 7.2zm8.4 0 5.8-5.8v-1.4l-7.2 7.2zm-4.4-12 0.2 0.2 0.2-0.2zm-4 0 4.2 4.2 4.2-4.2h-1.4l-2.8 2.8-2.8-2.8z" fill="#f5df4d"/>
</g>
</g>
<g transform="translate(20)">
<g fill="#f5df4d">
<path d="m9.8 12-9.8-9.8v-1.4l10 10 10-10v1.4l-9.8 9.8zm-4 0-5.8-5.8v-1.4l7.2 7.2zm8.4 0 5.8-5.8v-1.4l-7.2 7.2zm-4.4-12 0.2 0.2 0.2-0.2zm-4 0 4.2 4.2 4.2-4.2h-1.4l-2.8 2.8-2.8-2.8z" fill="#f5df4d"/>
</g>
</g>
</g>
</g>
</svg>
