<?xml version="1.0" encoding="UTF-8" standalone="no"?>
<svg
   xmlns:dc="http://purl.org/dc/elements/1.1/"
   xmlns:cc="http://creativecommons.org/ns#"
   xmlns:rdf="http://www.w3.org/1999/02/22-rdf-syntax-ns#"
   xmlns:svg="http://www.w3.org/2000/svg"
   xmlns="http://www.w3.org/2000/svg"
   xmlns:sodipodi="http://sodipodi.sourceforge.net/DTD/sodipodi-0.dtd"
   xmlns:inkscape="http://www.inkscape.org/namespaces/inkscape"
   width="210mm"
   height="297mm"
   viewBox="0 0 210 297"
   version="1.1"
   id="svg8"
   inkscape:version="1.0.1 (3bc2e81, 2020-09-07)"
   sodipodi:docname="alan.svg">
  <defs
     id="defs2" />
  <sodipodi:namedview
     id="base"
     pagecolor="#ffffff"
     bordercolor="#666666"
     borderopacity="1.0"
     inkscape:pageopacity="0.0"
     inkscape:pageshadow="2"
     inkscape:zoom="0.65639731"
     inkscape:cx="-193.10123"
     inkscape:cy="761.27593"
     inkscape:document-units="px"
     inkscape:current-layer="layer1"
     inkscape:document-rotation="0"
     showgrid="false"
     showborder="false"
     inkscape:snap-global="false"
     inkscape:object-paths="true"
     inkscape:snap-intersection-paths="true"
     inkscape:snap-smooth-nodes="true"
     showguides="true"
     inkscape:guide-bbox="true"
     inkscape:window-width="1600"
     inkscape:window-height="829"
     inkscape:window-x="0"
     inkscape:window-y="34"
     inkscape:window-maximized="1" />
  <metadata
     id="metadata5">
    <rdf:RDF>
      <cc:Work
         rdf:about="">
        <dc:format>image/svg+xml</dc:format>
        <dc:type
           rdf:resource="http://purl.org/dc/dcmitype/StillImage" />
        <dc:title></dc:title>
      </cc:Work>
    </rdf:RDF>
  </metadata>
  <g
     inkscape:label="Layer 1"
     inkscape:groupmode="layer"
     id="layer1">
    <g
       id="g959"
       style="fill:#000000;stroke-width:0;stroke-miterlimit:4;stroke-dasharray:none">
      <path
         id="path922"
         style="color:#000000;font-style:normal;font-variant:normal;font-weight:normal;font-stretch:normal;font-size:medium;line-height:normal;font-family:sans-serif;font-variant-ligatures:normal;font-variant-position:normal;font-variant-caps:normal;font-variant-numeric:normal;font-variant-alternates:normal;font-variant-east-asian:normal;font-feature-settings:normal;font-variation-settings:normal;text-indent:0;text-align:start;text-decoration:none;text-decoration-line:none;text-decoration-style:solid;text-decoration-color:#000000;letter-spacing:normal;word-spacing:normal;text-transform:none;writing-mode:lr-tb;direction:ltr;text-orientation:mixed;dominant-baseline:auto;baseline-shift:baseline;text-anchor:start;white-space:normal;shape-padding:0;shape-margin:0;inline-size:0;clip-rule:nonzero;display:inline;overflow:visible;visibility:visible;isolation:auto;mix-blend-mode:normal;color-interpolation:sRGB;color-interpolation-filters:linearRGB;solid-color:#000000;solid-opacity:1;vector-effect:none;fill:#000000;fill-opacity:1;fill-rule:evenodd;stroke:none;stroke-width:0;stroke-linecap:butt;stroke-linejoin:miter;stroke-miterlimit:4;stroke-dasharray:none;stroke-dashoffset:0;stroke-opacity:1;color-rendering:auto;image-rendering:auto;shape-rendering:auto;text-rendering:auto;enable-background:accumulate;stop-color:#000000"
         d="M -141.86276,120.83668 C -162.98373,120.81362 -183.24606,129.19392 -198.18077,144.1288 C -229.23508,175.18317 -229.23508,225.53631 -198.18077,256.59067 L -198.07638,256.69557 L -193.18985,251.80905 L -193.29476,251.70466 C -221.65286,223.34648 -221.65286,177.37299 -193.29476,149.01481 C -164.93657,120.65671 -118.96308,120.65671 -90.604903,149.01481 L -90.500517,149.11971 L -85.613993,144.23319 L -85.718897,144.1288 C -100.61084,129.23667 -120.80224,120.85989 -141.86276,120.83668 Z" />
      <path
         id="rect913"
         style="vector-effect:none;fill:#000000;fill-opacity:1;fill-rule:evenodd;stroke:none;stroke-width:0;stroke-linecap:butt;stroke-linejoin:miter;stroke-miterlimit:4;stroke-dasharray:none;stroke-dashoffset:0;stroke-opacity:1"
         d="M -216.17472,197.47881 H -139.08831 C -138.45437,197.47881 -137.94401,197.98917 -137.94401,198.62311 V 202.9491 C -137.94401,203.58304 -138.45437,204.0934 -139.08831,204.0934 H -216.17472 C -216.80866,204.0934 -217.31901,203.58304 -217.31901,202.9491 V 198.62311 C -217.31901,197.98917 -216.80866,197.47881 -216.17472,197.47881 Z" />
      <path
         id="rect915"
         style="vector-effect:none;fill:#000000;fill-opacity:1;fill-rule:evenodd;stroke:none;stroke-width:0;stroke-linecap:butt;stroke-linejoin:miter;stroke-miterlimit:4;stroke-dasharray:none;stroke-dashoffset:0;stroke-opacity:1"
         inkscape:transform-center-x="-0.1395003"
         inkscape:transform-center-y="65.452469"
         d="M -141.0502,253.907 V 123.76438 C -141.0502,123.23067 -140.53984,122.801 -139.90591,122.801 H -135.57991 C -134.94597,122.801 -134.43562,123.23067 -134.43562,123.76438 V 253.907 C -134.43562,254.44071 -134.94597,254.87037 -135.57991,254.87037 H -139.90591 C -140.53984,254.87037 -141.0502,254.44071 -141.0502,253.907 Z" />
      <path
         id="circle943"
         style="fill:#000000;fill-rule:evenodd;stroke-width:0;stroke-miterlimit:4;stroke-dasharray:none"
         d="M -134.48348,254.55118 A 3.3072917,3.3072917 0 0 1 -137.79077,257.85847 A 3.3072917,3.3072917 0 0 1 -141.09806,254.55118 A 3.3072917,3.3072917 0 0 1 -137.79077,251.24389 A 3.3072917,3.3072917 0 0 1 -134.48348,254.55118 Z" />
      <path
         id="circle945"
         style="fill:#000000;fill-rule:evenodd;stroke-width:0;stroke-miterlimit:4;stroke-dasharray:none"
         d="M -192.08381,254.29478 A 3.4033146,3.4033146 0 0 1 -195.48712,257.6981 A 3.4033146,3.4033146 0 0 1 -198.89044,254.29478 A 3.4033146,3.4033146 0 0 1 -195.48712,250.89147 A 3.4033146,3.4033146 0 0 1 -192.08381,254.29478 Z" />
      <path
         id="circle947"
         style="fill:#000000;fill-rule:evenodd;stroke-width:0;stroke-miterlimit:4;stroke-dasharray:none"
         d="M -84.579742,146.77794 A 3.4395833,3.4395833 0 0 1 -88.019325,150.21752 A 3.4395833,3.4395833 0 0 1 -91.458909,146.77794 A 3.4395833,3.4395833 0 0 1 -88.019325,143.33836 A 3.4395833,3.4395833 0 0 1 -84.579742,146.77794 Z" />
    </g>
  </g>
</svg>
