<?xml version="1.0" encoding="UTF-8"?>
<svg version="1.1" viewBox="0 0 300.52 300.52" xmlns="http://www.w3.org/2000/svg" xmlns:cc="http://creativecommons.org/ns#" xmlns:dc="http://purl.org/dc/elements/1.1/" xmlns:rdf="http://www.w3.org/1999/02/22-rdf-syntax-ns#">
<metadata>
<rdf:RDF>
<cc:Work rdf:about="">
<dc:format>image/svg+xml</dc:format>
<dc:type rdf:resource="http://purl.org/dc/dcmitype/StillImage"/>
<dc:title/>
</cc:Work>
</rdf:RDF>
</metadata>
<g transform="translate(.26042 -91.74)" fill="#f5df4d" stroke="#f5df4d">
<g transform="translate(0,100)" fill="#f5df4d" stroke="#f5df4d">
<path d="m200 99.812v1.0417a5.7292 5.7292 0 0 0-5.7292 5.7292c0 1.0104 0.60417 2.474 1.3177 3.1823l1.2292 1.2292a3.6094 3.6094 0 0 1 0.63541 3.9375l-0.22395 0.4375a4.2083 4.2083 0 0 1-3.4688 2.151h-18.24v18.24a3.1771 3.1771 0 0 0 1.5781 2.5364l0.4375 0.22396c0.82291 0.41146 2.0833 0.20834 2.7292-0.44271l1.2292-1.2292a6.2708 6.2708 0 0 1 3.9115-1.6198 6.7708 6.7708 0 1 1 0.01042 13.542 6.25 6.25 0 0 1-3.9219-1.6198l-1.2292-1.2292a2.5677 2.5677 0 0 0-2.7292-0.4427l-0.4375 0.22395a3.1771 3.1771 0 0 0-1.5781 2.5365v18.24h18.24a4.2083 4.2083 0 0 1 3.4688 2.151l0.22395 0.4375a3.599 3.599 0 0 1-0.63541 3.9375l-1.2292 1.2292a5.2396 5.2396 0 0 0-1.3177 3.1823 5.7292 5.7292 0 0 0 5.7292 5.7292v1.0417a6.7708 6.7708 0 0 1-6.7708-6.7708 6.25 6.25 0 0 1 1.6198-3.9219l1.2292-1.2292a2.5677 2.5677 0 0 0 0.44271-2.7292l-0.22396-0.4375a3.1771 3.1771 0 0 0-2.5364-1.5781h-18.24v18.24a4.2083 4.2083 0 0 1-2.151 3.4688l-0.4375 0.22395a3.599 3.599 0 0 1-3.9375-0.63541l-1.2292-1.2292a5.2396 5.2396 0 0 0-3.1823-1.3177 5.7292 5.7292 0 0 0-5.7292 5.7292h-1.0417a6.7708 6.7708 0 0 1 6.7708-6.7708c1.2865 0 3.0156 0.71354 3.9219 1.6198l1.2292 1.2292a2.5729 2.5729 0 0 0 2.7292 0.44271l0.4375-0.22396a3.1771 3.1771 0 0 0 1.5781-2.5364v-18.24h-18.24a4.2083 4.2083 0 0 1-3.4688-2.151l-0.22396-0.4375a3.599 3.599 0 0 1 0.63542-3.9375l1.2292-1.2292a5.2396 5.2396 0 0 0 1.3177-3.1823 5.7292 5.7292 0 0 0-11.458 0c0 1.0104 0.60417 2.474 1.3177 3.1823l1.2292 1.2292a3.6094 3.6094 0 0 1 0.63541 3.9375l-0.22395 0.4375a4.2083 4.2083 0 0 1-3.4688 2.151h-18.24v18.24a3.1771 3.1771 0 0 0 1.5781 2.5364l0.4375 0.22396c0.82291 0.41146 2.0833 0.20834 2.7292-0.44271l1.2292-1.2292a6.2708 6.2708 0 0 1 3.9115-1.6198 6.7708 6.7708 0 0 1 6.7812 6.7708h-1.0417a5.7292 5.7292 0 0 0-5.7292-5.7292c-1.0104 0-2.474 0.60417-3.1823 1.3177l-1.2292 1.2292a3.6094 3.6094 0 0 1-3.9375 0.63541l-0.4375-0.22395a4.2083 4.2083 0 0 1-2.151-3.4688v-18.24h-18.24a3.1771 3.1771 0 0 0-2.5365 1.5781l-0.22395 0.4375c-0.41146 0.82291-0.20834 2.0833 0.4427 2.7292l1.2292 1.2292a6.2708 6.2708 0 0 1 1.6198 3.9115 6.7708 6.7708 0 0 1-6.7708 6.7812v-1.0417a5.7292 5.7292 0 0 0 5.7292-5.7292c0-1.0104-0.60417-2.474-1.3177-3.1823l-1.2292-1.2292a3.6094 3.6094 0 0 1-0.63542-3.9375l0.22396-0.4375a4.2083 4.2083 0 0 1 3.4688-2.151h18.24v-18.24a3.1771 3.1771 0 0 0-1.5781-2.5365l-0.4375-0.22395c-0.82813-0.41667-2.0833-0.20834-2.7292 0.4427l-1.2292 1.2292a6.25 6.25 0 0 1-3.9219 1.6198 6.7708 6.7708 0 1 1 0-13.542c1.2865 0 3.0156 0.71354 3.9219 1.6198l1.2292 1.2292a2.5729 2.5729 0 0 0 2.7292 0.44271l0.4375-0.22396a3.1771 3.1771 0 0 0 1.5781-2.5364v-18.24h-18.24a4.2083 4.2083 0 0 1-3.4688-2.151l-0.22396-0.4375a3.599 3.599 0 0 1 0.63542-3.9375l1.2292-1.2292a5.2396 5.2396 0 0 0 1.3177-3.1823 5.7292 5.7292 0 0 0-5.7292-5.7292v-1.0417a6.7708 6.7708 0 0 1 6.7708 6.7708c0 1.2865-0.71354 3.0156-1.6198 3.9219l-1.2292 1.2292a2.5729 2.5729 0 0 0-0.4427 2.7292l0.22395 0.4375a3.1771 3.1771 0 0 0 2.5365 1.5781h18.24v-18.24a4.2083 4.2083 0 0 1 2.151-3.4688l0.4375-0.22396a3.599 3.599 0 0 1 3.9375 0.63542l1.2292 1.2292a5.2396 5.2396 0 0 0 3.1823 1.3177 5.7292 5.7292 0 0 0 5.7292-5.7292h1.0417a6.7708 6.7708 0 0 1-6.7708 6.7708 6.25 6.25 0 0 1-3.9219-1.6198l-1.2292-1.2292a2.5677 2.5677 0 0 0-2.7292-0.44271l-0.4375 0.22396a3.1771 3.1771 0 0 0-1.5781 2.5365v18.24h18.24a4.2083 4.2083 0 0 1 3.4688 2.151l0.22395 0.4375a3.599 3.599 0 0 1-0.63541 3.9375l-1.2292 1.2292a5.2396 5.2396 0 0 0-1.3177 3.1823 5.7292 5.7292 0 0 0 11.458 0c0-1.0104-0.60417-2.474-1.3177-3.1823l-1.2292-1.2292a3.6094 3.6094 0 0 1-0.63542-3.9375l0.22396-0.4375a4.2083 4.2083 0 0 1 3.4688-2.151h18.24v-18.24a3.1771 3.1771 0 0 0-1.5781-2.5365l-0.4375-0.22396c-0.82812-0.41666-2.0833-0.20833-2.7292 0.44271l-1.2292 1.2292a6.25 6.25 0 0 1-3.9219 1.6198 6.7708 6.7708 0 0 1-6.7708-6.7708h1.0417a5.7292 5.7292 0 0 0 5.7292 5.7292c1.0104 0 2.474-0.60416 3.1823-1.3177l1.2292-1.2292a3.6094 3.6094 0 0 1 3.9375-0.63542l0.4375 0.22396a4.2083 4.2083 0 0 1 2.151 3.4688v18.24h18.24a3.1771 3.1771 0 0 0 2.5364-1.5781l0.22396-0.4375c0.41667-0.82812 0.20834-2.0833-0.44271-2.7292l-1.2292-1.2292a6.25 6.25 0 0 1-1.6198-3.9219 6.7708 6.7708 0 0 1 6.7708-6.7708zm-56.24 66.667a3.1771 3.1771 0 0 0 2.5364-1.5781l0.22396-0.4375c0.41667-0.82812 0.20834-2.0833-0.44271-2.7292l-1.2292-1.2292a6.25 6.25 0 0 1-1.6198-3.9219 6.7708 6.7708 0 1 1 13.542 0c0 1.2865-0.71354 3.0156-1.6198 3.9219l-1.2292 1.2292a2.5729 2.5729 0 0 0-0.4427 2.7292l0.22395 0.4375a3.1771 3.1771 0 0 0 2.5365 1.5781h18.24v-18.24a4.2083 4.2083 0 0 1 2.151-3.4688l0.4375-0.22396a3.599 3.599 0 0 1 3.9375 0.63542l1.2292 1.2292a5.2396 5.2396 0 0 0 3.1823 1.3177 5.7292 5.7292 0 0 0 0-11.458c-1.0104 0-2.474 0.60417-3.1823 1.3177l-1.2292 1.2292a3.6094 3.6094 0 0 1-3.9375 0.63541l-0.4375-0.22395a4.2083 4.2083 0 0 1-2.151-3.4688v-18.24h-18.24a3.1771 3.1771 0 0 0-2.5365 1.5781l-0.22395 0.4375c-0.41146 0.82292-0.20834 2.0833 0.4427 2.7292l1.2292 1.2292a6.2708 6.2708 0 0 1 1.6198 3.9115 6.7708 6.7708 0 1 1-13.542 0.01042 6.25 6.25 0 0 1 1.6198-3.9219l1.2292-1.2292a2.5677 2.5677 0 0 0 0.44271-2.7292l-0.22396-0.4375a3.1771 3.1771 0 0 0-2.5364-1.5781h-18.24v18.24a4.2083 4.2083 0 0 1-2.151 3.4688l-0.4375 0.22395a3.599 3.599 0 0 1-3.9375-0.63541l-1.2292-1.2292a5.2396 5.2396 0 0 0-3.1823-1.3177 5.7292 5.7292 0 0 0 0 11.458c1.0104 0 2.474-0.60417 3.1823-1.3177l1.2292-1.2292a3.6094 3.6094 0 0 1 3.9375-0.63542l0.4375 0.22396a4.2083 4.2083 0 0 1 2.151 3.4688v18.24zm156.24-66.667v1.0417a5.7292 5.7292 0 0 0-5.7292 5.7292c0 1.0104 0.60417 2.474 1.3177 3.1823l1.2292 1.2292a3.6094 3.6094 0 0 1 0.63541 3.9375l-0.22395 0.4375a4.2083 4.2083 0 0 1-3.4688 2.151h-18.24v18.24a3.1771 3.1771 0 0 0 1.5781 2.5364l0.4375 0.22396c0.82291 0.41146 2.0833 0.20834 2.7292-0.44271l1.2292-1.2292a6.2708 6.2708 0 0 1 3.9115-1.6198 6.7708 6.7708 0 1 1 0.01042 13.542 6.25 6.25 0 0 1-3.9219-1.6198l-1.2292-1.2292a2.5677 2.5677 0 0 0-2.7292-0.4427l-0.4375 0.22395a3.1771 3.1771 0 0 0-1.5781 2.5365v18.24h18.24a4.2083 4.2083 0 0 1 3.4688 2.151l0.22395 0.4375a3.599 3.599 0 0 1-0.63541 3.9375l-1.2292 1.2292a5.2396 5.2396 0 0 0-1.3177 3.1823 5.7292 5.7292 0 0 0 5.7292 5.7292v1.0417a6.7708 6.7708 0 0 1-6.7708-6.7708 6.25 6.25 0 0 1 1.6198-3.9219l1.2292-1.2292a2.5677 2.5677 0 0 0 0.44271-2.7292l-0.22396-0.4375a3.1771 3.1771 0 0 0-2.5364-1.5781h-18.24v18.24a4.2083 4.2083 0 0 1-2.151 3.4688l-0.4375 0.22395a3.599 3.599 0 0 1-3.9375-0.63541l-1.2292-1.2292a5.2396 5.2396 0 0 0-3.1823-1.3177 5.7292 5.7292 0 0 0-5.7292 5.7292h-1.0417a6.7708 6.7708 0 0 1 6.7708-6.7708c1.2865 0 3.0156 0.71354 3.9219 1.6198l1.2292 1.2292a2.5729 2.5729 0 0 0 2.7292 0.44271l0.4375-0.22396a3.1771 3.1771 0 0 0 1.5781-2.5364v-18.24h-18.24a4.2083 4.2083 0 0 1-3.4688-2.151l-0.22396-0.4375a3.599 3.599 0 0 1 0.63542-3.9375l1.2292-1.2292a5.2396 5.2396 0 0 0 1.3177-3.1823 5.7292 5.7292 0 0 0-11.458 0c0 1.0104 0.60417 2.474 1.3177 3.1823l1.2292 1.2292a3.6094 3.6094 0 0 1 0.63541 3.9375l-0.22395 0.4375a4.2083 4.2083 0 0 1-3.4688 2.151h-18.24v18.24a3.1771 3.1771 0 0 0 1.5781 2.5364l0.4375 0.22396c0.82291 0.41146 2.0833 0.20834 2.7292-0.44271l1.2292-1.2292a6.2708 6.2708 0 0 1 3.9115-1.6198 6.7708 6.7708 0 0 1 6.7812 6.7708h-1.0417a5.7292 5.7292 0 0 0-5.7292-5.7292c-1.0104 0-2.474 0.60417-3.1823 1.3177l-1.2292 1.2292a3.6094 3.6094 0 0 1-3.9375 0.63541l-0.4375-0.22395a4.2083 4.2083 0 0 1-2.151-3.4688v-18.24h-18.24a3.1771 3.1771 0 0 0-2.5365 1.5781l-0.22395 0.4375c-0.41146 0.82291-0.20834 2.0833 0.4427 2.7292l1.2292 1.2292a6.2708 6.2708 0 0 1 1.6198 3.9115 6.7708 6.7708 0 0 1-6.7708 6.7812v-1.0417a5.7292 5.7292 0 0 0 5.7292-5.7292c0-1.0104-0.60417-2.474-1.3177-3.1823l-1.2292-1.2292a3.6094 3.6094 0 0 1-0.63542-3.9375l0.22396-0.4375a4.2083 4.2083 0 0 1 3.4688-2.151h18.24v-18.24a3.1771 3.1771 0 0 0-1.5781-2.5365l-0.4375-0.22395c-0.82813-0.41667-2.0833-0.20834-2.7292 0.4427l-1.2292 1.2292a6.25 6.25 0 0 1-3.9219 1.6198 6.7708 6.7708 0 1 1 0-13.542c1.2865 0 3.0156 0.71354 3.9219 1.6198l1.2292 1.2292a2.5729 2.5729 0 0 0 2.7292 0.44271l0.4375-0.22396a3.1771 3.1771 0 0 0 1.5781-2.5364v-18.24h-18.24a4.2083 4.2083 0 0 1-3.4688-2.151l-0.22396-0.4375a3.599 3.599 0 0 1 0.63542-3.9375l1.2292-1.2292a5.2396 5.2396 0 0 0 1.3177-3.1823 5.7292 5.7292 0 0 0-5.7292-5.7292v-1.0417a6.7708 6.7708 0 0 1 6.7708 6.7708c0 1.2865-0.71354 3.0156-1.6198 3.9219l-1.2292 1.2292a2.5729 2.5729 0 0 0-0.4427 2.7292l0.22395 0.4375a3.1771 3.1771 0 0 0 2.5365 1.5781h18.24v-18.24a4.2083 4.2083 0 0 1 2.151-3.4688l0.4375-0.22396a3.599 3.599 0 0 1 3.9375 0.63542l1.2292 1.2292a5.2396 5.2396 0 0 0 3.1823 1.3177 5.7292 5.7292 0 0 0 5.7292-5.7292h1.0417a6.7708 6.7708 0 0 1-6.7708 6.7708 6.25 6.25 0 0 1-3.9219-1.6198l-1.2292-1.2292a2.5677 2.5677 0 0 0-2.7292-0.44271l-0.4375 0.22396a3.1771 3.1771 0 0 0-1.5781 2.5365v18.24h18.24a4.2083 4.2083 0 0 1 3.4688 2.151l0.22395 0.4375a3.599 3.599 0 0 1-0.63541 3.9375l-1.2292 1.2292a5.2396 5.2396 0 0 0-1.3177 3.1823 5.7292 5.7292 0 0 0 11.458 0c0-1.0104-0.60417-2.474-1.3177-3.1823l-1.2292-1.2292a3.6094 3.6094 0 0 1-0.63542-3.9375l0.22396-0.4375a4.2083 4.2083 0 0 1 3.4688-2.151h18.24v-18.24a3.1771 3.1771 0 0 0-1.5781-2.5365l-0.4375-0.22396c-0.82812-0.41666-2.0833-0.20833-2.7292 0.44271l-1.2292 1.2292a6.25 6.25 0 0 1-3.9219 1.6198 6.7708 6.7708 0 0 1-6.7708-6.7708h1.0417a5.7292 5.7292 0 0 0 5.7292 5.7292c1.0104 0 2.474-0.60416 3.1823-1.3177l1.2292-1.2292a3.6094 3.6094 0 0 1 3.9375-0.63542l0.4375 0.22396a4.2083 4.2083 0 0 1 2.151 3.4688v18.24h18.24a3.1771 3.1771 0 0 0 2.5364-1.5781l0.22396-0.4375c0.41667-0.82812 0.20834-2.0833-0.44271-2.7292l-1.2292-1.2292a6.25 6.25 0 0 1-1.6198-3.9219 6.7708 6.7708 0 0 1 6.7708-6.7708zm-56.24 66.667a3.1771 3.1771 0 0 0 2.5364-1.5781l0.22396-0.4375c0.41667-0.82812 0.20834-2.0833-0.44271-2.7292l-1.2292-1.2292a6.25 6.25 0 0 1-1.6198-3.9219 6.7708 6.7708 0 1 1 13.542 0c0 1.2865-0.71354 3.0156-1.6198 3.9219l-1.2292 1.2292a2.5729 2.5729 0 0 0-0.4427 2.7292l0.22395 0.4375a3.1771 3.1771 0 0 0 2.5365 1.5781h18.24v-18.24a4.2083 4.2083 0 0 1 2.151-3.4688l0.4375-0.22396a3.599 3.599 0 0 1 3.9375 0.63542l1.2292 1.2292a5.2396 5.2396 0 0 0 3.1823 1.3177 5.7292 5.7292 0 0 0 0-11.458c-1.0104 0-2.474 0.60417-3.1823 1.3177l-1.2292 1.2292a3.6094 3.6094 0 0 1-3.9375 0.63541l-0.4375-0.22395a4.2083 4.2083 0 0 1-2.151-3.4688v-18.24h-18.24a3.1771 3.1771 0 0 0-2.5365 1.5781l-0.22395 0.4375c-0.41146 0.82292-0.20834 2.0833 0.4427 2.7292l1.2292 1.2292a6.2708 6.2708 0 0 1 1.6198 3.9115 6.7708 6.7708 0 1 1-13.542 0.01042 6.25 6.25 0 0 1 1.6198-3.9219l1.2292-1.2292a2.5677 2.5677 0 0 0 0.44271-2.7292l-0.22396-0.4375a3.1771 3.1771 0 0 0-2.5364-1.5781h-18.24v18.24a4.2083 4.2083 0 0 1-2.151 3.4688l-0.4375 0.22395a3.599 3.599 0 0 1-3.9375-0.63541l-1.2292-1.2292a5.2396 5.2396 0 0 0-3.1823-1.3177 5.7292 5.7292 0 0 0 0 11.458c1.0104 0 2.474-0.60417 3.1823-1.3177l1.2292-1.2292a3.6094 3.6094 0 0 1 3.9375-0.63542l0.4375 0.22396a4.2083 4.2083 0 0 1 2.151 3.4688v18.24zm-143.76-66.667v1.0417a5.7292 5.7292 0 0 0-5.7292 5.7292c0 1.0104 0.60417 2.474 1.3177 3.1823l1.2292 1.2292a3.6094 3.6094 0 0 1 0.63541 3.9375l-0.22395 0.4375a4.2083 4.2083 0 0 1-3.4688 2.151h-18.24v18.24a3.1771 3.1771 0 0 0 1.5781 2.5364l0.4375 0.22396c0.82291 0.41146 2.0833 0.20834 2.7292-0.44271l1.2292-1.2292a6.2708 6.2708 0 0 1 3.9115-1.6198 6.7708 6.7708 0 1 1 0.01042 13.542 6.25 6.25 0 0 1-3.9219-1.6198l-1.2292-1.2292a2.5677 2.5677 0 0 0-2.7292-0.4427l-0.4375 0.22395a3.1771 3.1771 0 0 0-1.5781 2.5365v18.24h18.24a4.2083 4.2083 0 0 1 3.4688 2.151l0.22395 0.4375a3.599 3.599 0 0 1-0.63541 3.9375l-1.2292 1.2292a5.2396 5.2396 0 0 0-1.3177 3.1823 5.7292 5.7292 0 0 0 5.7292 5.7292v1.0417a6.7708 6.7708 0 0 1-6.7708-6.7708 6.25 6.25 0 0 1 1.6198-3.9219l1.2292-1.2292a2.5677 2.5677 0 0 0 0.44271-2.7292l-0.22396-0.4375a3.1771 3.1771 0 0 0-2.5364-1.5781h-18.24v18.24a4.2083 4.2083 0 0 1-2.151 3.4688l-0.4375 0.22395a3.599 3.599 0 0 1-3.9375-0.63541l-1.2292-1.2292a5.2396 5.2396 0 0 0-3.1823-1.3177 5.7292 5.7292 0 0 0-5.7292 5.7292h-1.0417a6.7708 6.7708 0 0 1 6.7708-6.7708c1.2865 0 3.0156 0.71354 3.9219 1.6198l1.2292 1.2292a2.5729 2.5729 0 0 0 2.7292 0.44271l0.4375-0.22396a3.1771 3.1771 0 0 0 1.5781-2.5364v-18.24h-18.24a4.2083 4.2083 0 0 1-3.4688-2.151l-0.22396-0.4375a3.599 3.599 0 0 1 0.63542-3.9375l1.2292-1.2292a5.2396 5.2396 0 0 0 1.3177-3.1823 5.7292 5.7292 0 0 0-11.458 0c0 1.0104 0.60417 2.474 1.3177 3.1823l1.2292 1.2292a3.6094 3.6094 0 0 1 0.63541 3.9375l-0.22395 0.4375a4.2083 4.2083 0 0 1-3.4688 2.151h-18.24v18.24a3.1771 3.1771 0 0 0 1.5781 2.5364l0.4375 0.22396c0.82291 0.41146 2.0833 0.20834 2.7292-0.44271l1.2292-1.2292a6.2708 6.2708 0 0 1 3.9115-1.6198 6.7708 6.7708 0 0 1 6.7812 6.7708h-1.0417a5.7292 5.7292 0 0 0-5.7292-5.7292c-1.0104 0-2.474 0.60417-3.1823 1.3177l-1.2292 1.2292a3.6094 3.6094 0 0 1-3.9375 0.63541l-0.4375-0.22395a4.2083 4.2083 0 0 1-2.151-3.4688v-18.24h-18.24a3.1771 3.1771 0 0 0-2.5365 1.5781l-0.22395 0.4375c-0.41146 0.82291-0.20834 2.0833 0.4427 2.7292l1.2292 1.2292a6.2708 6.2708 0 0 1 1.6198 3.9115 6.7708 6.7708 0 0 1-6.7708 6.7812v-1.0417a5.7292 5.7292 0 0 0 5.7292-5.7292c0-1.0104-0.60417-2.474-1.3177-3.1823l-1.2292-1.2292a3.6094 3.6094 0 0 1-0.63542-3.9375l0.22396-0.4375a4.2083 4.2083 0 0 1 3.4688-2.151h18.24v-18.24a3.1771 3.1771 0 0 0-1.5781-2.5365l-0.4375-0.22395c-0.82813-0.41667-2.0833-0.20834-2.7292 0.4427l-1.2292 1.2292a6.25 6.25 0 0 1-3.9219 1.6198 6.7708 6.7708 0 1 1 0-13.542c1.2865 0 3.0156 0.71354 3.9219 1.6198l1.2292 1.2292a2.5729 2.5729 0 0 0 2.7292 0.44271l0.4375-0.22396a3.1771 3.1771 0 0 0 1.5781-2.5364v-18.24h-18.24a4.2083 4.2083 0 0 1-3.4688-2.151l-0.22396-0.4375a3.599 3.599 0 0 1 0.63542-3.9375l1.2292-1.2292a5.2396 5.2396 0 0 0 1.3177-3.1823 5.7292 5.7292 0 0 0-5.7292-5.7292v-1.0417a6.7708 6.7708 0 0 1 6.7708 6.7708c0 1.2865-0.71354 3.0156-1.6198 3.9219l-1.2292 1.2292a2.5729 2.5729 0 0 0-0.4427 2.7292l0.22395 0.4375a3.1771 3.1771 0 0 0 2.5365 1.5781h18.24v-18.24a4.2083 4.2083 0 0 1 2.151-3.4688l0.4375-0.22396a3.599 3.599 0 0 1 3.9375 0.63542l1.2292 1.2292a5.2396 5.2396 0 0 0 3.1823 1.3177 5.7292 5.7292 0 0 0 5.7292-5.7292h1.0417a6.7708 6.7708 0 0 1-6.7708 6.7708 6.25 6.25 0 0 1-3.9219-1.6198l-1.2292-1.2292a2.5677 2.5677 0 0 0-2.7292-0.44271l-0.4375 0.22396a3.1771 3.1771 0 0 0-1.5781 2.5365v18.24h18.24a4.2083 4.2083 0 0 1 3.4688 2.151l0.22395 0.4375a3.599 3.599 0 0 1-0.63541 3.9375l-1.2292 1.2292a5.2396 5.2396 0 0 0-1.3177 3.1823 5.7292 5.7292 0 0 0 11.458 0c0-1.0104-0.60417-2.474-1.3177-3.1823l-1.2292-1.2292a3.6094 3.6094 0 0 1-0.63542-3.9375l0.22396-0.4375a4.2083 4.2083 0 0 1 3.4688-2.151h18.24v-18.24a3.1771 3.1771 0 0 0-1.5781-2.5365l-0.4375-0.22396c-0.82812-0.41666-2.0833-0.20833-2.7292 0.44271l-1.2292 1.2292a6.25 6.25 0 0 1-3.9219 1.6198 6.7708 6.7708 0 0 1-6.7708-6.7708h1.0417a5.7292 5.7292 0 0 0 5.7292 5.7292c1.0104 0 2.474-0.60416 3.1823-1.3177l1.2292-1.2292a3.6094 3.6094 0 0 1 3.9375-0.63542l0.4375 0.22396a4.2083 4.2083 0 0 1 2.151 3.4688v18.24h18.24a3.1771 3.1771 0 0 0 2.5364-1.5781l0.22396-0.4375c0.41667-0.82812 0.20834-2.0833-0.44271-2.7292l-1.2292-1.2292a6.25 6.25 0 0 1-1.6198-3.9219 6.7708 6.7708 0 0 1 6.7708-6.7708zm-56.24 66.667a3.1771 3.1771 0 0 0 2.5364-1.5781l0.22396-0.4375c0.41667-0.82812 0.20834-2.0833-0.44271-2.7292l-1.2292-1.2292a6.25 6.25 0 0 1-1.6198-3.9219 6.7708 6.7708 0 1 1 13.542 0c0 1.2865-0.71354 3.0156-1.6198 3.9219l-1.2292 1.2292a2.5729 2.5729 0 0 0-0.4427 2.7292l0.22395 0.4375a3.1771 3.1771 0 0 0 2.5365 1.5781h18.24v-18.24a4.2083 4.2083 0 0 1 2.151-3.4688l0.4375-0.22396a3.599 3.599 0 0 1 3.9375 0.63542l1.2292 1.2292a5.2396 5.2396 0 0 0 3.1823 1.3177 5.7292 5.7292 0 0 0 0-11.458c-1.0104 0-2.474 0.60417-3.1823 1.3177l-1.2292 1.2292a3.6094 3.6094 0 0 1-3.9375 0.63541l-0.4375-0.22395a4.2083 4.2083 0 0 1-2.151-3.4688v-18.24h-18.24a3.1771 3.1771 0 0 0-2.5365 1.5781l-0.22395 0.4375c-0.41146 0.82292-0.20834 2.0833 0.4427 2.7292l1.2292 1.2292a6.2708 6.2708 0 0 1 1.6198 3.9115 6.7708 6.7708 0 1 1-13.542 0.01042 6.25 6.25 0 0 1 1.6198-3.9219l1.2292-1.2292a2.5677 2.5677 0 0 0 0.44271-2.7292l-0.22396-0.4375a3.1771 3.1771 0 0 0-2.5364-1.5781h-18.24v18.24a4.2083 4.2083 0 0 1-2.151 3.4688l-0.4375 0.22395a3.599 3.599 0 0 1-3.9375-0.63541l-1.2292-1.2292a5.2396 5.2396 0 0 0-3.1823-1.3177 5.7292 5.7292 0 0 0 0 11.458c1.0104 0 2.474-0.60417 3.1823-1.3177l1.2292-1.2292a3.6094 3.6094 0 0 1 3.9375-0.63542l0.4375 0.22396a4.2083 4.2083 0 0 1 2.151 3.4688v18.24zm156.24 33.333v1.0417a5.7292 5.7292 0 0 0-5.7292 5.7292c0 1.0104 0.60417 2.474 1.3177 3.1823l1.2292 1.2292a3.6094 3.6094 0 0 1 0.63541 3.9375l-0.22395 0.4375a4.2083 4.2083 0 0 1-3.4688 2.151h-18.24v18.24a3.1771 3.1771 0 0 0 1.5781 2.5364l0.4375 0.22396c0.82291 0.41146 2.0833 0.20834 2.7292-0.44271l1.2292-1.2292a6.2708 6.2708 0 0 1 3.9115-1.6198 6.7708 6.7708 0 1 1 0.01042 13.542 6.25 6.25 0 0 1-3.9219-1.6198l-1.2292-1.2292a2.5677 2.5677 0 0 0-2.7292-0.4427l-0.4375 0.22395a3.1771 3.1771 0 0 0-1.5781 2.5365v18.24h18.24a4.2083 4.2083 0 0 1 3.4688 2.151l0.22395 0.4375a3.599 3.599 0 0 1-0.63541 3.9375l-1.2292 1.2292a5.2396 5.2396 0 0 0-1.3177 3.1823 5.7292 5.7292 0 0 0 5.7292 5.7292v1.0417a6.7708 6.7708 0 0 1-6.7708-6.7708 6.25 6.25 0 0 1 1.6198-3.9219l1.2292-1.2292a2.5677 2.5677 0 0 0 0.44271-2.7292l-0.22396-0.4375a3.1771 3.1771 0 0 0-2.5364-1.5781h-18.24v18.24a4.2083 4.2083 0 0 1-2.151 3.4688l-0.4375 0.22395a3.599 3.599 0 0 1-3.9375-0.63541l-1.2292-1.2292a5.2396 5.2396 0 0 0-3.1823-1.3177 5.7292 5.7292 0 0 0-5.7292 5.7292h-1.0417a6.7708 6.7708 0 0 1 6.7708-6.7708c1.2865 0 3.0156 0.71354 3.9219 1.6198l1.2292 1.2292a2.5729 2.5729 0 0 0 2.7292 0.44271l0.4375-0.22396a3.1771 3.1771 0 0 0 1.5781-2.5364v-18.24h-18.24a4.2083 4.2083 0 0 1-3.4688-2.151l-0.22396-0.4375a3.599 3.599 0 0 1 0.63542-3.9375l1.2292-1.2292a5.2396 5.2396 0 0 0 1.3177-3.1823 5.7292 5.7292 0 0 0-11.458 0c0 1.0104 0.60417 2.474 1.3177 3.1823l1.2292 1.2292a3.6094 3.6094 0 0 1 0.63541 3.9375l-0.22395 0.4375a4.2083 4.2083 0 0 1-3.4688 2.151h-18.24v18.24a3.1771 3.1771 0 0 0 1.5781 2.5364l0.4375 0.22396c0.82291 0.41146 2.0833 0.20834 2.7292-0.44271l1.2292-1.2292a6.2708 6.2708 0 0 1 3.9115-1.6198 6.7708 6.7708 0 0 1 6.7812 6.7708h-1.0417a5.7292 5.7292 0 0 0-5.7292-5.7292c-1.0104 0-2.474 0.60417-3.1823 1.3177l-1.2292 1.2292a3.6094 3.6094 0 0 1-3.9375 0.63541l-0.4375-0.22395a4.2083 4.2083 0 0 1-2.151-3.4688v-18.24h-18.24a3.1771 3.1771 0 0 0-2.5365 1.5781l-0.22395 0.4375c-0.41146 0.82291-0.20834 2.0833 0.4427 2.7292l1.2292 1.2292a6.2708 6.2708 0 0 1 1.6198 3.9115 6.7708 6.7708 0 0 1-6.7708 6.7812v-1.0417a5.7292 5.7292 0 0 0 5.7292-5.7292c0-1.0104-0.60417-2.474-1.3177-3.1823l-1.2292-1.2292a3.6094 3.6094 0 0 1-0.63542-3.9375l0.22396-0.4375a4.2083 4.2083 0 0 1 3.4688-2.151h18.24v-18.24a3.1771 3.1771 0 0 0-1.5781-2.5365l-0.4375-0.22395c-0.82813-0.41667-2.0833-0.20834-2.7292 0.4427l-1.2292 1.2292a6.25 6.25 0 0 1-3.9219 1.6198 6.7708 6.7708 0 1 1 0-13.542c1.2865 0 3.0156 0.71354 3.9219 1.6198l1.2292 1.2292a2.5729 2.5729 0 0 0 2.7292 0.44271l0.4375-0.22396a3.1771 3.1771 0 0 0 1.5781-2.5364v-18.24h-18.24a4.2083 4.2083 0 0 1-3.4688-2.151l-0.22396-0.4375a3.599 3.599 0 0 1 0.63542-3.9375l1.2292-1.2292a5.2396 5.2396 0 0 0 1.3177-3.1823 5.7292 5.7292 0 0 0-5.7292-5.7292v-1.0417a6.7708 6.7708 0 0 1 6.7708 6.7708c0 1.2865-0.71354 3.0156-1.6198 3.9219l-1.2292 1.2292a2.5729 2.5729 0 0 0-0.4427 2.7292l0.22395 0.4375a3.1771 3.1771 0 0 0 2.5365 1.5781h18.24v-18.24a4.2083 4.2083 0 0 1 2.151-3.4688l0.4375-0.22396a3.599 3.599 0 0 1 3.9375 0.63542l1.2292 1.2292a5.2396 5.2396 0 0 0 3.1823 1.3177 5.7292 5.7292 0 0 0 5.7292-5.7292h1.0417a6.7708 6.7708 0 0 1-6.7708 6.7708 6.25 6.25 0 0 1-3.9219-1.6198l-1.2292-1.2292a2.5677 2.5677 0 0 0-2.7292-0.44271l-0.4375 0.22396a3.1771 3.1771 0 0 0-1.5781 2.5365v18.24h18.24a4.2083 4.2083 0 0 1 3.4688 2.151l0.22395 0.4375a3.599 3.599 0 0 1-0.63541 3.9375l-1.2292 1.2292a5.2396 5.2396 0 0 0-1.3177 3.1823 5.7292 5.7292 0 0 0 11.458 0c0-1.0104-0.60417-2.474-1.3177-3.1823l-1.2292-1.2292a3.6094 3.6094 0 0 1-0.63542-3.9375l0.22396-0.4375a4.2083 4.2083 0 0 1 3.4688-2.151h18.24v-18.24a3.1771 3.1771 0 0 0-1.5781-2.5365l-0.4375-0.22396c-0.82812-0.41666-2.0833-0.20833-2.7292 0.44271l-1.2292 1.2292a6.25 6.25 0 0 1-3.9219 1.6198 6.7708 6.7708 0 0 1-6.7708-6.7708h1.0417a5.7292 5.7292 0 0 0 5.7292 5.7292c1.0104 0 2.474-0.60416 3.1823-1.3177l1.2292-1.2292a3.6094 3.6094 0 0 1 3.9375-0.63542l0.4375 0.22396a4.2083 4.2083 0 0 1 2.151 3.4688v18.24h18.24a3.1771 3.1771 0 0 0 2.5364-1.5781l0.22396-0.4375c0.41667-0.82812 0.20834-2.0833-0.44271-2.7292l-1.2292-1.2292a6.25 6.25 0 0 1-1.6198-3.9219 6.7708 6.7708 0 0 1 6.7708-6.7708zm-56.24 66.667a3.1771 3.1771 0 0 0 2.5364-1.5781l0.22396-0.4375c0.41667-0.82812 0.20834-2.0833-0.44271-2.7292l-1.2292-1.2292a6.25 6.25 0 0 1-1.6198-3.9219 6.7708 6.7708 0 1 1 13.542 0c0 1.2865-0.71354 3.0156-1.6198 3.9219l-1.2292 1.2292a2.5729 2.5729 0 0 0-0.4427 2.7292l0.22395 0.4375a3.1771 3.1771 0 0 0 2.5365 1.5781h18.24v-18.24a4.2083 4.2083 0 0 1 2.151-3.4688l0.4375-0.22396a3.599 3.599 0 0 1 3.9375 0.63542l1.2292 1.2292a5.2396 5.2396 0 0 0 3.1823 1.3177 5.7292 5.7292 0 0 0 0-11.458c-1.0104 0-2.474 0.60417-3.1823 1.3177l-1.2292 1.2292a3.6094 3.6094 0 0 1-3.9375 0.63541l-0.4375-0.22395a4.2083 4.2083 0 0 1-2.151-3.4688v-18.24h-18.24a3.1771 3.1771 0 0 0-2.5365 1.5781l-0.22395 0.4375c-0.41146 0.82292-0.20834 2.0833 0.4427 2.7292l1.2292 1.2292a6.2708 6.2708 0 0 1 1.6198 3.9115 6.7708 6.7708 0 1 1-13.542 0.01042 6.25 6.25 0 0 1 1.6198-3.9219l1.2292-1.2292a2.5677 2.5677 0 0 0 0.44271-2.7292l-0.22396-0.4375a3.1771 3.1771 0 0 0-2.5364-1.5781h-18.24v18.24a4.2083 4.2083 0 0 1-2.151 3.4688l-0.4375 0.22395a3.599 3.599 0 0 1-3.9375-0.63541l-1.2292-1.2292a5.2396 5.2396 0 0 0-3.1823-1.3177 5.7292 5.7292 0 0 0 0 11.458c1.0104 0 2.474-0.60417 3.1823-1.3177l1.2292-1.2292a3.6094 3.6094 0 0 1 3.9375-0.63542l0.4375 0.22396a4.2083 4.2083 0 0 1 2.151 3.4688v18.24zm156.24-66.667v1.0417a5.7292 5.7292 0 0 0-5.7292 5.7292c0 1.0104 0.60417 2.474 1.3177 3.1823l1.2292 1.2292a3.6094 3.6094 0 0 1 0.63541 3.9375l-0.22395 0.4375a4.2083 4.2083 0 0 1-3.4688 2.151h-18.24v18.24a3.1771 3.1771 0 0 0 1.5781 2.5364l0.4375 0.22396c0.82291 0.41146 2.0833 0.20834 2.7292-0.44271l1.2292-1.2292a6.2708 6.2708 0 0 1 3.9115-1.6198 6.7708 6.7708 0 1 1 0.01042 13.542 6.25 6.25 0 0 1-3.9219-1.6198l-1.2292-1.2292a2.5677 2.5677 0 0 0-2.7292-0.4427l-0.4375 0.22395a3.1771 3.1771 0 0 0-1.5781 2.5365v18.24h18.24a4.2083 4.2083 0 0 1 3.4688 2.151l0.22395 0.4375a3.599 3.599 0 0 1-0.63541 3.9375l-1.2292 1.2292a5.2396 5.2396 0 0 0-1.3177 3.1823 5.7292 5.7292 0 0 0 5.7292 5.7292v1.0417a6.7708 6.7708 0 0 1-6.7708-6.7708 6.25 6.25 0 0 1 1.6198-3.9219l1.2292-1.2292a2.5677 2.5677 0 0 0 0.44271-2.7292l-0.22396-0.4375a3.1771 3.1771 0 0 0-2.5364-1.5781h-18.24v18.24a4.2083 4.2083 0 0 1-2.151 3.4688l-0.4375 0.22395a3.599 3.599 0 0 1-3.9375-0.63541l-1.2292-1.2292a5.2396 5.2396 0 0 0-3.1823-1.3177 5.7292 5.7292 0 0 0-5.7292 5.7292h-1.0417a6.7708 6.7708 0 0 1 6.7708-6.7708c1.2865 0 3.0156 0.71354 3.9219 1.6198l1.2292 1.2292a2.5729 2.5729 0 0 0 2.7292 0.44271l0.4375-0.22396a3.1771 3.1771 0 0 0 1.5781-2.5364v-18.24h-18.24a4.2083 4.2083 0 0 1-3.4688-2.151l-0.22396-0.4375a3.599 3.599 0 0 1 0.63542-3.9375l1.2292-1.2292a5.2396 5.2396 0 0 0 1.3177-3.1823 5.7292 5.7292 0 0 0-11.458 0c0 1.0104 0.60417 2.474 1.3177 3.1823l1.2292 1.2292a3.6094 3.6094 0 0 1 0.63541 3.9375l-0.22395 0.4375a4.2083 4.2083 0 0 1-3.4688 2.151h-18.24v18.24a3.1771 3.1771 0 0 0 1.5781 2.5364l0.4375 0.22396c0.82291 0.41146 2.0833 0.20834 2.7292-0.44271l1.2292-1.2292a6.2708 6.2708 0 0 1 3.9115-1.6198 6.7708 6.7708 0 0 1 6.7812 6.7708h-1.0417a5.7292 5.7292 0 0 0-5.7292-5.7292c-1.0104 0-2.474 0.60417-3.1823 1.3177l-1.2292 1.2292a3.6094 3.6094 0 0 1-3.9375 0.63541l-0.4375-0.22395a4.2083 4.2083 0 0 1-2.151-3.4688v-18.24h-18.24a3.1771 3.1771 0 0 0-2.5365 1.5781l-0.22395 0.4375c-0.41146 0.82291-0.20834 2.0833 0.4427 2.7292l1.2292 1.2292a6.2708 6.2708 0 0 1 1.6198 3.9115 6.7708 6.7708 0 0 1-6.7708 6.7812v-1.0417a5.7292 5.7292 0 0 0 5.7292-5.7292c0-1.0104-0.60417-2.474-1.3177-3.1823l-1.2292-1.2292a3.6094 3.6094 0 0 1-0.63542-3.9375l0.22396-0.4375a4.2083 4.2083 0 0 1 3.4688-2.151h18.24v-18.24a3.1771 3.1771 0 0 0-1.5781-2.5365l-0.4375-0.22395c-0.82813-0.41667-2.0833-0.20834-2.7292 0.4427l-1.2292 1.2292a6.25 6.25 0 0 1-3.9219 1.6198 6.7708 6.7708 0 1 1 0-13.542c1.2865 0 3.0156 0.71354 3.9219 1.6198l1.2292 1.2292a2.5729 2.5729 0 0 0 2.7292 0.44271l0.4375-0.22396a3.1771 3.1771 0 0 0 1.5781-2.5364v-18.24h-18.24a4.2083 4.2083 0 0 1-3.4688-2.151l-0.22396-0.4375a3.599 3.599 0 0 1 0.63542-3.9375l1.2292-1.2292a5.2396 5.2396 0 0 0 1.3177-3.1823 5.7292 5.7292 0 0 0-5.7292-5.7292v-1.0417a6.7708 6.7708 0 0 1 6.7708 6.7708c0 1.2865-0.71354 3.0156-1.6198 3.9219l-1.2292 1.2292a2.5729 2.5729 0 0 0-0.4427 2.7292l0.22395 0.4375a3.1771 3.1771 0 0 0 2.5365 1.5781h18.24v-18.24a4.2083 4.2083 0 0 1 2.151-3.4688l0.4375-0.22396a3.599 3.599 0 0 1 3.9375 0.63542l1.2292 1.2292a5.2396 5.2396 0 0 0 3.1823 1.3177 5.7292 5.7292 0 0 0 5.7292-5.7292h1.0417a6.7708 6.7708 0 0 1-6.7708 6.7708 6.25 6.25 0 0 1-3.9219-1.6198l-1.2292-1.2292a2.5677 2.5677 0 0 0-2.7292-0.44271l-0.4375 0.22396a3.1771 3.1771 0 0 0-1.5781 2.5365v18.24h18.24a4.2083 4.2083 0 0 1 3.4688 2.151l0.22395 0.4375a3.599 3.599 0 0 1-0.63541 3.9375l-1.2292 1.2292a5.2396 5.2396 0 0 0-1.3177 3.1823 5.7292 5.7292 0 0 0 11.458 0c0-1.0104-0.60417-2.474-1.3177-3.1823l-1.2292-1.2292a3.6094 3.6094 0 0 1-0.63542-3.9375l0.22396-0.4375a4.2083 4.2083 0 0 1 3.4688-2.151h18.24v-18.24a3.1771 3.1771 0 0 0-1.5781-2.5365l-0.4375-0.22396c-0.82812-0.41666-2.0833-0.20833-2.7292 0.44271l-1.2292 1.2292a6.25 6.25 0 0 1-3.9219 1.6198 6.7708 6.7708 0 0 1-6.7708-6.7708h1.0417a5.7292 5.7292 0 0 0 5.7292 5.7292c1.0104 0 2.474-0.60416 3.1823-1.3177l1.2292-1.2292a3.6094 3.6094 0 0 1 3.9375-0.63542l0.4375 0.22396a4.2083 4.2083 0 0 1 2.151 3.4688v18.24h18.24a3.1771 3.1771 0 0 0 2.5364-1.5781l0.22396-0.4375c0.41667-0.82812 0.20834-2.0833-0.44271-2.7292l-1.2292-1.2292a6.25 6.25 0 0 1-1.6198-3.9219 6.7708 6.7708 0 0 1 6.7708-6.7708zm-56.24 66.667a3.1771 3.1771 0 0 0 2.5364-1.5781l0.22396-0.4375c0.41667-0.82812 0.20834-2.0833-0.44271-2.7292l-1.2292-1.2292a6.25 6.25 0 0 1-1.6198-3.9219 6.7708 6.7708 0 1 1 13.542 0c0 1.2865-0.71354 3.0156-1.6198 3.9219l-1.2292 1.2292a2.5729 2.5729 0 0 0-0.4427 2.7292l0.22395 0.4375a3.1771 3.1771 0 0 0 2.5365 1.5781h18.24v-18.24a4.2083 4.2083 0 0 1 2.151-3.4688l0.4375-0.22396a3.599 3.599 0 0 1 3.9375 0.63542l1.2292 1.2292a5.2396 5.2396 0 0 0 3.1823 1.3177 5.7292 5.7292 0 0 0 0-11.458c-1.0104 0-2.474 0.60417-3.1823 1.3177l-1.2292 1.2292a3.6094 3.6094 0 0 1-3.9375 0.63541l-0.4375-0.22395a4.2083 4.2083 0 0 1-2.151-3.4688v-18.24h-18.24a3.1771 3.1771 0 0 0-2.5365 1.5781l-0.22395 0.4375c-0.41146 0.82292-0.20834 2.0833 0.4427 2.7292l1.2292 1.2292a6.2708 6.2708 0 0 1 1.6198 3.9115 6.7708 6.7708 0 1 1-13.542 0.01042 6.25 6.25 0 0 1 1.6198-3.9219l1.2292-1.2292a2.5677 2.5677 0 0 0 0.44271-2.7292l-0.22396-0.4375a3.1771 3.1771 0 0 0-2.5364-1.5781h-18.24v18.24a4.2083 4.2083 0 0 1-2.151 3.4688l-0.4375 0.22395a3.599 3.599 0 0 1-3.9375-0.63541l-1.2292-1.2292a5.2396 5.2396 0 0 0-3.1823-1.3177 5.7292 5.7292 0 0 0 0 11.458c1.0104 0 2.474-0.60417 3.1823-1.3177l1.2292-1.2292a3.6094 3.6094 0 0 1 3.9375-0.63542l0.4375 0.22396a4.2083 4.2083 0 0 1 2.151 3.4688v18.24zm-143.76-66.667v1.0417a5.7292 5.7292 0 0 0-5.7292 5.7292c0 1.0104 0.60417 2.474 1.3177 3.1823l1.2292 1.2292a3.6094 3.6094 0 0 1 0.63541 3.9375l-0.22395 0.4375a4.2083 4.2083 0 0 1-3.4688 2.151h-18.24v18.24a3.1771 3.1771 0 0 0 1.5781 2.5364l0.4375 0.22396c0.82291 0.41146 2.0833 0.20834 2.7292-0.44271l1.2292-1.2292a6.2708 6.2708 0 0 1 3.9115-1.6198 6.7708 6.7708 0 1 1 0.01042 13.542 6.25 6.25 0 0 1-3.9219-1.6198l-1.2292-1.2292a2.5677 2.5677 0 0 0-2.7292-0.4427l-0.4375 0.22395a3.1771 3.1771 0 0 0-1.5781 2.5365v18.24h18.24a4.2083 4.2083 0 0 1 3.4688 2.151l0.22395 0.4375a3.599 3.599 0 0 1-0.63541 3.9375l-1.2292 1.2292a5.2396 5.2396 0 0 0-1.3177 3.1823 5.7292 5.7292 0 0 0 5.7292 5.7292v1.0417a6.7708 6.7708 0 0 1-6.7708-6.7708 6.25 6.25 0 0 1 1.6198-3.9219l1.2292-1.2292a2.5677 2.5677 0 0 0 0.44271-2.7292l-0.22396-0.4375a3.1771 3.1771 0 0 0-2.5364-1.5781h-18.24v18.24a4.2083 4.2083 0 0 1-2.151 3.4688l-0.4375 0.22395a3.599 3.599 0 0 1-3.9375-0.63541l-1.2292-1.2292a5.2396 5.2396 0 0 0-3.1823-1.3177 5.7292 5.7292 0 0 0-5.7292 5.7292h-1.0417a6.7708 6.7708 0 0 1 6.7708-6.7708c1.2865 0 3.0156 0.71354 3.9219 1.6198l1.2292 1.2292a2.5729 2.5729 0 0 0 2.7292 0.44271l0.4375-0.22396a3.1771 3.1771 0 0 0 1.5781-2.5364v-18.24h-18.24a4.2083 4.2083 0 0 1-3.4688-2.151l-0.22396-0.4375a3.599 3.599 0 0 1 0.63542-3.9375l1.2292-1.2292a5.2396 5.2396 0 0 0 1.3177-3.1823 5.7292 5.7292 0 0 0-11.458 0c0 1.0104 0.60417 2.474 1.3177 3.1823l1.2292 1.2292a3.6094 3.6094 0 0 1 0.63541 3.9375l-0.22395 0.4375a4.2083 4.2083 0 0 1-3.4688 2.151h-18.24v18.24a3.1771 3.1771 0 0 0 1.5781 2.5364l0.4375 0.22396c0.82291 0.41146 2.0833 0.20834 2.7292-0.44271l1.2292-1.2292a6.2708 6.2708 0 0 1 3.9115-1.6198 6.7708 6.7708 0 0 1 6.7812 6.7708h-1.0417a5.7292 5.7292 0 0 0-5.7292-5.7292c-1.0104 0-2.474 0.60417-3.1823 1.3177l-1.2292 1.2292a3.6094 3.6094 0 0 1-3.9375 0.63541l-0.4375-0.22395a4.2083 4.2083 0 0 1-2.151-3.4688v-18.24h-18.24a3.1771 3.1771 0 0 0-2.5365 1.5781l-0.22395 0.4375c-0.41146 0.82291-0.20834 2.0833 0.4427 2.7292l1.2292 1.2292a6.2708 6.2708 0 0 1 1.6198 3.9115 6.7708 6.7708 0 0 1-6.7708 6.7812v-1.0417a5.7292 5.7292 0 0 0 5.7292-5.7292c0-1.0104-0.60417-2.474-1.3177-3.1823l-1.2292-1.2292a3.6094 3.6094 0 0 1-0.63542-3.9375l0.22396-0.4375a4.2083 4.2083 0 0 1 3.4688-2.151h18.24v-18.24a3.1771 3.1771 0 0 0-1.5781-2.5365l-0.4375-0.22395c-0.82813-0.41667-2.0833-0.20834-2.7292 0.4427l-1.2292 1.2292a6.25 6.25 0 0 1-3.9219 1.6198 6.7708 6.7708 0 1 1 0-13.542c1.2865 0 3.0156 0.71354 3.9219 1.6198l1.2292 1.2292a2.5729 2.5729 0 0 0 2.7292 0.44271l0.4375-0.22396a3.1771 3.1771 0 0 0 1.5781-2.5364v-18.24h-18.24a4.2083 4.2083 0 0 1-3.4688-2.151l-0.22396-0.4375a3.599 3.599 0 0 1 0.63542-3.9375l1.2292-1.2292a5.2396 5.2396 0 0 0 1.3177-3.1823 5.7292 5.7292 0 0 0-5.7292-5.7292v-1.0417a6.7708 6.7708 0 0 1 6.7708 6.7708c0 1.2865-0.71354 3.0156-1.6198 3.9219l-1.2292 1.2292a2.5729 2.5729 0 0 0-0.4427 2.7292l0.22395 0.4375a3.1771 3.1771 0 0 0 2.5365 1.5781h18.24v-18.24a4.2083 4.2083 0 0 1 2.151-3.4688l0.4375-0.22396a3.599 3.599 0 0 1 3.9375 0.63542l1.2292 1.2292a5.2396 5.2396 0 0 0 3.1823 1.3177 5.7292 5.7292 0 0 0 5.7292-5.7292h1.0417a6.7708 6.7708 0 0 1-6.7708 6.7708 6.25 6.25 0 0 1-3.9219-1.6198l-1.2292-1.2292a2.5677 2.5677 0 0 0-2.7292-0.44271l-0.4375 0.22396a3.1771 3.1771 0 0 0-1.5781 2.5365v18.24h18.24a4.2083 4.2083 0 0 1 3.4688 2.151l0.22395 0.4375a3.599 3.599 0 0 1-0.63541 3.9375l-1.2292 1.2292a5.2396 5.2396 0 0 0-1.3177 3.1823 5.7292 5.7292 0 0 0 11.458 0c0-1.0104-0.60417-2.474-1.3177-3.1823l-1.2292-1.2292a3.6094 3.6094 0 0 1-0.63542-3.9375l0.22396-0.4375a4.2083 4.2083 0 0 1 3.4688-2.151h18.24v-18.24a3.1771 3.1771 0 0 0-1.5781-2.5365l-0.4375-0.22396c-0.82812-0.41666-2.0833-0.20833-2.7292 0.44271l-1.2292 1.2292a6.25 6.25 0 0 1-3.9219 1.6198 6.7708 6.7708 0 0 1-6.7708-6.7708h1.0417a5.7292 5.7292 0 0 0 5.7292 5.7292c1.0104 0 2.474-0.60416 3.1823-1.3177l1.2292-1.2292a3.6094 3.6094 0 0 1 3.9375-0.63542l0.4375 0.22396a4.2083 4.2083 0 0 1 2.151 3.4688v18.24h18.24a3.1771 3.1771 0 0 0 2.5364-1.5781l0.22396-0.4375c0.41667-0.82812 0.20834-2.0833-0.44271-2.7292l-1.2292-1.2292a6.25 6.25 0 0 1-1.6198-3.9219 6.7708 6.7708 0 0 1 6.7708-6.7708zm-56.24 66.667a3.1771 3.1771 0 0 0 2.5364-1.5781l0.22396-0.4375c0.41667-0.82812 0.20834-2.0833-0.44271-2.7292l-1.2292-1.2292a6.25 6.25 0 0 1-1.6198-3.9219 6.7708 6.7708 0 1 1 13.542 0c0 1.2865-0.71354 3.0156-1.6198 3.9219l-1.2292 1.2292a2.5729 2.5729 0 0 0-0.4427 2.7292l0.22395 0.4375a3.1771 3.1771 0 0 0 2.5365 1.5781h18.24v-18.24a4.2083 4.2083 0 0 1 2.151-3.4688l0.4375-0.22396a3.599 3.599 0 0 1 3.9375 0.63542l1.2292 1.2292a5.2396 5.2396 0 0 0 3.1823 1.3177 5.7292 5.7292 0 0 0 0-11.458c-1.0104 0-2.474 0.60417-3.1823 1.3177l-1.2292 1.2292a3.6094 3.6094 0 0 1-3.9375 0.63541l-0.4375-0.22395a4.2083 4.2083 0 0 1-2.151-3.4688v-18.24h-18.24a3.1771 3.1771 0 0 0-2.5365 1.5781l-0.22395 0.4375c-0.41146 0.82292-0.20834 2.0833 0.4427 2.7292l1.2292 1.2292a6.2708 6.2708 0 0 1 1.6198 3.9115 6.7708 6.7708 0 1 1-13.542 0.01042 6.25 6.25 0 0 1 1.6198-3.9219l1.2292-1.2292a2.5677 2.5677 0 0 0 0.44271-2.7292l-0.22396-0.4375a3.1771 3.1771 0 0 0-2.5364-1.5781h-18.24v18.24a4.2083 4.2083 0 0 1-2.151 3.4688l-0.4375 0.22395a3.599 3.599 0 0 1-3.9375-0.63541l-1.2292-1.2292a5.2396 5.2396 0 0 0-3.1823-1.3177 5.7292 5.7292 0 0 0 0 11.458c1.0104 0 2.474-0.60417 3.1823-1.3177l1.2292-1.2292a3.6094 3.6094 0 0 1 3.9375-0.63542l0.4375 0.22396a4.2083 4.2083 0 0 1 2.151 3.4688v18.24zm156.24-266.67v1.0417a5.7292 5.7292 0 0 0-5.7292 5.7292c0 1.0104 0.60417 2.474 1.3177 3.1823l1.2292 1.2292a3.6094 3.6094 0 0 1 0.63541 3.9375l-0.22395 0.4375a4.2083 4.2083 0 0 1-3.4688 2.151h-18.24v18.24a3.1771 3.1771 0 0 0 1.5781 2.5364l0.4375 0.22396c0.82291 0.41146 2.0833 0.20834 2.7292-0.44271l1.2292-1.2292a6.2708 6.2708 0 0 1 3.9115-1.6198 6.7708 6.7708 0 1 1 0.01042 13.542 6.25 6.25 0 0 1-3.9219-1.6198l-1.2292-1.2292a2.5677 2.5677 0 0 0-2.7292-0.4427l-0.4375 0.22395a3.1771 3.1771 0 0 0-1.5781 2.5365v18.24h18.24a4.2083 4.2083 0 0 1 3.4688 2.151l0.22395 0.4375a3.599 3.599 0 0 1-0.63541 3.9375l-1.2292 1.2292a5.2396 5.2396 0 0 0-1.3177 3.1823 5.7292 5.7292 0 0 0 5.7292 5.7292v1.0417a6.7708 6.7708 0 0 1-6.7708-6.7708 6.25 6.25 0 0 1 1.6198-3.9219l1.2292-1.2292a2.5677 2.5677 0 0 0 0.44271-2.7292l-0.22396-0.4375a3.1771 3.1771 0 0 0-2.5364-1.5781h-18.24v18.24a4.2083 4.2083 0 0 1-2.151 3.4688l-0.4375 0.22395a3.599 3.599 0 0 1-3.9375-0.63541l-1.2292-1.2292a5.2396 5.2396 0 0 0-3.1823-1.3177 5.7292 5.7292 0 0 0-5.7292 5.7292h-1.0417a6.7708 6.7708 0 0 1 6.7708-6.7708c1.2865 0 3.0156 0.71354 3.9219 1.6198l1.2292 1.2292a2.5729 2.5729 0 0 0 2.7292 0.44271l0.4375-0.22396a3.1771 3.1771 0 0 0 1.5781-2.5364v-18.24h-18.24a4.2083 4.2083 0 0 1-3.4688-2.151l-0.22396-0.4375a3.599 3.599 0 0 1 0.63542-3.9375l1.2292-1.2292a5.2396 5.2396 0 0 0 1.3177-3.1823 5.7292 5.7292 0 0 0-11.458 0c0 1.0104 0.60417 2.474 1.3177 3.1823l1.2292 1.2292a3.6094 3.6094 0 0 1 0.63541 3.9375l-0.22395 0.4375a4.2083 4.2083 0 0 1-3.4688 2.151h-18.24v18.24a3.1771 3.1771 0 0 0 1.5781 2.5364l0.4375 0.22396c0.82291 0.41146 2.0833 0.20834 2.7292-0.44271l1.2292-1.2292a6.2708 6.2708 0 0 1 3.9115-1.6198 6.7708 6.7708 0 0 1 6.7812 6.7708h-1.0417a5.7292 5.7292 0 0 0-5.7292-5.7292c-1.0104 0-2.474 0.60417-3.1823 1.3177l-1.2292 1.2292a3.6094 3.6094 0 0 1-3.9375 0.63541l-0.4375-0.22395a4.2083 4.2083 0 0 1-2.151-3.4688v-18.24h-18.24a3.1771 3.1771 0 0 0-2.5365 1.5781l-0.22395 0.4375c-0.41146 0.82291-0.20834 2.0833 0.4427 2.7292l1.2292 1.2292a6.2708 6.2708 0 0 1 1.6198 3.9115 6.7708 6.7708 0 0 1-6.7708 6.7812v-1.0417a5.7292 5.7292 0 0 0 5.7292-5.7292c0-1.0104-0.60417-2.474-1.3177-3.1823l-1.2292-1.2292a3.6094 3.6094 0 0 1-0.63542-3.9375l0.22396-0.4375a4.2083 4.2083 0 0 1 3.4688-2.151h18.24v-18.24a3.1771 3.1771 0 0 0-1.5781-2.5365l-0.4375-0.22395c-0.82813-0.41667-2.0833-0.20834-2.7292 0.4427l-1.2292 1.2292a6.25 6.25 0 0 1-3.9219 1.6198 6.7708 6.7708 0 1 1 0-13.542c1.2865 0 3.0156 0.71354 3.9219 1.6198l1.2292 1.2292a2.5729 2.5729 0 0 0 2.7292 0.44271l0.4375-0.22396a3.1771 3.1771 0 0 0 1.5781-2.5364v-18.24h-18.24a4.2083 4.2083 0 0 1-3.4688-2.151l-0.22396-0.4375a3.599 3.599 0 0 1 0.63542-3.9375l1.2292-1.2292a5.2396 5.2396 0 0 0 1.3177-3.1823 5.7292 5.7292 0 0 0-5.7292-5.7292v-1.0417a6.7708 6.7708 0 0 1 6.7708 6.7708c0 1.2865-0.71354 3.0156-1.6198 3.9219l-1.2292 1.2292a2.5729 2.5729 0 0 0-0.4427 2.7292l0.22395 0.4375a3.1771 3.1771 0 0 0 2.5365 1.5781h18.24v-18.24a4.2083 4.2083 0 0 1 2.151-3.4688l0.4375-0.22396a3.599 3.599 0 0 1 3.9375 0.63542l1.2292 1.2292a5.2396 5.2396 0 0 0 3.1823 1.3177 5.7292 5.7292 0 0 0 5.7292-5.7292h1.0417a6.7708 6.7708 0 0 1-6.7708 6.7708 6.25 6.25 0 0 1-3.9219-1.6198l-1.2292-1.2292a2.5677 2.5677 0 0 0-2.7292-0.44271l-0.4375 0.22396a3.1771 3.1771 0 0 0-1.5781 2.5365v18.24h18.24a4.2083 4.2083 0 0 1 3.4688 2.151l0.22395 0.4375a3.599 3.599 0 0 1-0.63541 3.9375l-1.2292 1.2292a5.2396 5.2396 0 0 0-1.3177 3.1823 5.7292 5.7292 0 0 0 11.458 0c0-1.0104-0.60417-2.474-1.3177-3.1823l-1.2292-1.2292a3.6094 3.6094 0 0 1-0.63542-3.9375l0.22396-0.4375a4.2083 4.2083 0 0 1 3.4688-2.151h18.24v-18.24a3.1771 3.1771 0 0 0-1.5781-2.5365l-0.4375-0.22396c-0.82812-0.41666-2.0833-0.20833-2.7292 0.44271l-1.2292 1.2292a6.25 6.25 0 0 1-3.9219 1.6198 6.7708 6.7708 0 0 1-6.7708-6.7708h1.0417a5.7292 5.7292 0 0 0 5.7292 5.7292c1.0104 0 2.474-0.60416 3.1823-1.3177l1.2292-1.2292a3.6094 3.6094 0 0 1 3.9375-0.63542l0.4375 0.22396a4.2083 4.2083 0 0 1 2.151 3.4688v18.24h18.24a3.1771 3.1771 0 0 0 2.5364-1.5781l0.22396-0.4375c0.41667-0.82812 0.20834-2.0833-0.44271-2.7292l-1.2292-1.2292a6.25 6.25 0 0 1-1.6198-3.9219 6.7708 6.7708 0 0 1 6.7708-6.7708zm-56.24 66.667a3.1771 3.1771 0 0 0 2.5364-1.5781l0.22396-0.4375c0.41667-0.82812 0.20834-2.0833-0.44271-2.7292l-1.2292-1.2292a6.25 6.25 0 0 1-1.6198-3.9219 6.7708 6.7708 0 1 1 13.542 0c0 1.2865-0.71354 3.0156-1.6198 3.9219l-1.2292 1.2292a2.5729 2.5729 0 0 0-0.4427 2.7292l0.22395 0.4375a3.1771 3.1771 0 0 0 2.5365 1.5781h18.24v-18.24a4.2083 4.2083 0 0 1 2.151-3.4688l0.4375-0.22396a3.599 3.599 0 0 1 3.9375 0.63542l1.2292 1.2292a5.2396 5.2396 0 0 0 3.1823 1.3177 5.7292 5.7292 0 0 0 0-11.458c-1.0104 0-2.474 0.60417-3.1823 1.3177l-1.2292 1.2292a3.6094 3.6094 0 0 1-3.9375 0.63541l-0.4375-0.22395a4.2083 4.2083 0 0 1-2.151-3.4688v-18.24h-18.24a3.1771 3.1771 0 0 0-2.5365 1.5781l-0.22395 0.4375c-0.41146 0.82292-0.20834 2.0833 0.4427 2.7292l1.2292 1.2292a6.2708 6.2708 0 0 1 1.6198 3.9115 6.7708 6.7708 0 1 1-13.542 0.01042 6.25 6.25 0 0 1 1.6198-3.9219l1.2292-1.2292a2.5677 2.5677 0 0 0 0.44271-2.7292l-0.22396-0.4375a3.1771 3.1771 0 0 0-2.5364-1.5781h-18.24v18.24a4.2083 4.2083 0 0 1-2.151 3.4688l-0.4375 0.22395a3.599 3.599 0 0 1-3.9375-0.63541l-1.2292-1.2292a5.2396 5.2396 0 0 0-3.1823-1.3177 5.7292 5.7292 0 0 0 0 11.458c1.0104 0 2.474-0.60417 3.1823-1.3177l1.2292-1.2292a3.6094 3.6094 0 0 1 3.9375-0.63542l0.4375 0.22396a4.2083 4.2083 0 0 1 2.151 3.4688v18.24zm156.24-66.667v1.0417a5.7292 5.7292 0 0 0-5.7292 5.7292c0 1.0104 0.60417 2.474 1.3177 3.1823l1.2292 1.2292a3.6094 3.6094 0 0 1 0.63541 3.9375l-0.22395 0.4375a4.2083 4.2083 0 0 1-3.4688 2.151h-18.24v18.24a3.1771 3.1771 0 0 0 1.5781 2.5364l0.4375 0.22396c0.82291 0.41146 2.0833 0.20834 2.7292-0.44271l1.2292-1.2292a6.2708 6.2708 0 0 1 3.9115-1.6198 6.7708 6.7708 0 1 1 0.01042 13.542 6.25 6.25 0 0 1-3.9219-1.6198l-1.2292-1.2292a2.5677 2.5677 0 0 0-2.7292-0.4427l-0.4375 0.22395a3.1771 3.1771 0 0 0-1.5781 2.5365v18.24h18.24a4.2083 4.2083 0 0 1 3.4688 2.151l0.22395 0.4375a3.599 3.599 0 0 1-0.63541 3.9375l-1.2292 1.2292a5.2396 5.2396 0 0 0-1.3177 3.1823 5.7292 5.7292 0 0 0 5.7292 5.7292v1.0417a6.7708 6.7708 0 0 1-6.7708-6.7708 6.25 6.25 0 0 1 1.6198-3.9219l1.2292-1.2292a2.5677 2.5677 0 0 0 0.44271-2.7292l-0.22396-0.4375a3.1771 3.1771 0 0 0-2.5364-1.5781h-18.24v18.24a4.2083 4.2083 0 0 1-2.151 3.4688l-0.4375 0.22395a3.599 3.599 0 0 1-3.9375-0.63541l-1.2292-1.2292a5.2396 5.2396 0 0 0-3.1823-1.3177 5.7292 5.7292 0 0 0-5.7292 5.7292h-1.0417a6.7708 6.7708 0 0 1 6.7708-6.7708c1.2865 0 3.0156 0.71354 3.9219 1.6198l1.2292 1.2292a2.5729 2.5729 0 0 0 2.7292 0.44271l0.4375-0.22396a3.1771 3.1771 0 0 0 1.5781-2.5364v-18.24h-18.24a4.2083 4.2083 0 0 1-3.4688-2.151l-0.22396-0.4375a3.599 3.599 0 0 1 0.63542-3.9375l1.2292-1.2292a5.2396 5.2396 0 0 0 1.3177-3.1823 5.7292 5.7292 0 0 0-11.458 0c0 1.0104 0.60417 2.474 1.3177 3.1823l1.2292 1.2292a3.6094 3.6094 0 0 1 0.63541 3.9375l-0.22395 0.4375a4.2083 4.2083 0 0 1-3.4688 2.151h-18.24v18.24a3.1771 3.1771 0 0 0 1.5781 2.5364l0.4375 0.22396c0.82291 0.41146 2.0833 0.20834 2.7292-0.44271l1.2292-1.2292a6.2708 6.2708 0 0 1 3.9115-1.6198 6.7708 6.7708 0 0 1 6.7812 6.7708h-1.0417a5.7292 5.7292 0 0 0-5.7292-5.7292c-1.0104 0-2.474 0.60417-3.1823 1.3177l-1.2292 1.2292a3.6094 3.6094 0 0 1-3.9375 0.63541l-0.4375-0.22395a4.2083 4.2083 0 0 1-2.151-3.4688v-18.24h-18.24a3.1771 3.1771 0 0 0-2.5365 1.5781l-0.22395 0.4375c-0.41146 0.82291-0.20834 2.0833 0.4427 2.7292l1.2292 1.2292a6.2708 6.2708 0 0 1 1.6198 3.9115 6.7708 6.7708 0 0 1-6.7708 6.7812v-1.0417a5.7292 5.7292 0 0 0 5.7292-5.7292c0-1.0104-0.60417-2.474-1.3177-3.1823l-1.2292-1.2292a3.6094 3.6094 0 0 1-0.63542-3.9375l0.22396-0.4375a4.2083 4.2083 0 0 1 3.4688-2.151h18.24v-18.24a3.1771 3.1771 0 0 0-1.5781-2.5365l-0.4375-0.22395c-0.82813-0.41667-2.0833-0.20834-2.7292 0.4427l-1.2292 1.2292a6.25 6.25 0 0 1-3.9219 1.6198 6.7708 6.7708 0 1 1 0-13.542c1.2865 0 3.0156 0.71354 3.9219 1.6198l1.2292 1.2292a2.5729 2.5729 0 0 0 2.7292 0.44271l0.4375-0.22396a3.1771 3.1771 0 0 0 1.5781-2.5364v-18.24h-18.24a4.2083 4.2083 0 0 1-3.4688-2.151l-0.22396-0.4375a3.599 3.599 0 0 1 0.63542-3.9375l1.2292-1.2292a5.2396 5.2396 0 0 0 1.3177-3.1823 5.7292 5.7292 0 0 0-5.7292-5.7292v-1.0417a6.7708 6.7708 0 0 1 6.7708 6.7708c0 1.2865-0.71354 3.0156-1.6198 3.9219l-1.2292 1.2292a2.5729 2.5729 0 0 0-0.4427 2.7292l0.22395 0.4375a3.1771 3.1771 0 0 0 2.5365 1.5781h18.24v-18.24a4.2083 4.2083 0 0 1 2.151-3.4688l0.4375-0.22396a3.599 3.599 0 0 1 3.9375 0.63542l1.2292 1.2292a5.2396 5.2396 0 0 0 3.1823 1.3177 5.7292 5.7292 0 0 0 5.7292-5.7292h1.0417a6.7708 6.7708 0 0 1-6.7708 6.7708 6.25 6.25 0 0 1-3.9219-1.6198l-1.2292-1.2292a2.5677 2.5677 0 0 0-2.7292-0.44271l-0.4375 0.22396a3.1771 3.1771 0 0 0-1.5781 2.5365v18.24h18.24a4.2083 4.2083 0 0 1 3.4688 2.151l0.22395 0.4375a3.599 3.599 0 0 1-0.63541 3.9375l-1.2292 1.2292a5.2396 5.2396 0 0 0-1.3177 3.1823 5.7292 5.7292 0 0 0 11.458 0c0-1.0104-0.60417-2.474-1.3177-3.1823l-1.2292-1.2292a3.6094 3.6094 0 0 1-0.63542-3.9375l0.22396-0.4375a4.2083 4.2083 0 0 1 3.4688-2.151h18.24v-18.24a3.1771 3.1771 0 0 0-1.5781-2.5365l-0.4375-0.22396c-0.82812-0.41666-2.0833-0.20833-2.7292 0.44271l-1.2292 1.2292a6.25 6.25 0 0 1-3.9219 1.6198 6.7708 6.7708 0 0 1-6.7708-6.7708h1.0417a5.7292 5.7292 0 0 0 5.7292 5.7292c1.0104 0 2.474-0.60416 3.1823-1.3177l1.2292-1.2292a3.6094 3.6094 0 0 1 3.9375-0.63542l0.4375 0.22396a4.2083 4.2083 0 0 1 2.151 3.4688v18.24h18.24a3.1771 3.1771 0 0 0 2.5364-1.5781l0.22396-0.4375c0.41667-0.82812 0.20834-2.0833-0.44271-2.7292l-1.2292-1.2292a6.25 6.25 0 0 1-1.6198-3.9219 6.7708 6.7708 0 0 1 6.7708-6.7708zm-56.24 66.667a3.1771 3.1771 0 0 0 2.5364-1.5781l0.22396-0.4375c0.41667-0.82812 0.20834-2.0833-0.44271-2.7292l-1.2292-1.2292a6.25 6.25 0 0 1-1.6198-3.9219 6.7708 6.7708 0 1 1 13.542 0c0 1.2865-0.71354 3.0156-1.6198 3.9219l-1.2292 1.2292a2.5729 2.5729 0 0 0-0.4427 2.7292l0.22395 0.4375a3.1771 3.1771 0 0 0 2.5365 1.5781h18.24v-18.24a4.2083 4.2083 0 0 1 2.151-3.4688l0.4375-0.22396a3.599 3.599 0 0 1 3.9375 0.63542l1.2292 1.2292a5.2396 5.2396 0 0 0 3.1823 1.3177 5.7292 5.7292 0 0 0 0-11.458c-1.0104 0-2.474 0.60417-3.1823 1.3177l-1.2292 1.2292a3.6094 3.6094 0 0 1-3.9375 0.63541l-0.4375-0.22395a4.2083 4.2083 0 0 1-2.151-3.4688v-18.24h-18.24a3.1771 3.1771 0 0 0-2.5365 1.5781l-0.22395 0.4375c-0.41146 0.82292-0.20834 2.0833 0.4427 2.7292l1.2292 1.2292a6.2708 6.2708 0 0 1 1.6198 3.9115 6.7708 6.7708 0 1 1-13.542 0.01042 6.25 6.25 0 0 1 1.6198-3.9219l1.2292-1.2292a2.5677 2.5677 0 0 0 0.44271-2.7292l-0.22396-0.4375a3.1771 3.1771 0 0 0-2.5364-1.5781h-18.24v18.24a4.2083 4.2083 0 0 1-2.151 3.4688l-0.4375 0.22395a3.599 3.599 0 0 1-3.9375-0.63541l-1.2292-1.2292a5.2396 5.2396 0 0 0-3.1823-1.3177 5.7292 5.7292 0 0 0 0 11.458c1.0104 0 2.474-0.60417 3.1823-1.3177l1.2292-1.2292a3.6094 3.6094 0 0 1 3.9375-0.63542l0.4375 0.22396a4.2083 4.2083 0 0 1 2.151 3.4688v18.24zm-143.76-66.667v1.0417a5.7292 5.7292 0 0 0-5.7292 5.7292c0 1.0104 0.60417 2.474 1.3177 3.1823l1.2292 1.2292a3.6094 3.6094 0 0 1 0.63541 3.9375l-0.22395 0.4375a4.2083 4.2083 0 0 1-3.4688 2.151h-18.24v18.24a3.1771 3.1771 0 0 0 1.5781 2.5364l0.4375 0.22396c0.82291 0.41146 2.0833 0.20834 2.7292-0.44271l1.2292-1.2292a6.2708 6.2708 0 0 1 3.9115-1.6198 6.7708 6.7708 0 1 1 0.01042 13.542 6.25 6.25 0 0 1-3.9219-1.6198l-1.2292-1.2292a2.5677 2.5677 0 0 0-2.7292-0.4427l-0.4375 0.22395a3.1771 3.1771 0 0 0-1.5781 2.5365v18.24h18.24a4.2083 4.2083 0 0 1 3.4688 2.151l0.22395 0.4375a3.599 3.599 0 0 1-0.63541 3.9375l-1.2292 1.2292a5.2396 5.2396 0 0 0-1.3177 3.1823 5.7292 5.7292 0 0 0 5.7292 5.7292v1.0417a6.7708 6.7708 0 0 1-6.7708-6.7708 6.25 6.25 0 0 1 1.6198-3.9219l1.2292-1.2292a2.5677 2.5677 0 0 0 0.44271-2.7292l-0.22396-0.4375a3.1771 3.1771 0 0 0-2.5364-1.5781h-18.24v18.24a4.2083 4.2083 0 0 1-2.151 3.4688l-0.4375 0.22395a3.599 3.599 0 0 1-3.9375-0.63541l-1.2292-1.2292a5.2396 5.2396 0 0 0-3.1823-1.3177 5.7292 5.7292 0 0 0-5.7292 5.7292h-1.0417a6.7708 6.7708 0 0 1 6.7708-6.7708c1.2865 0 3.0156 0.71354 3.9219 1.6198l1.2292 1.2292a2.5729 2.5729 0 0 0 2.7292 0.44271l0.4375-0.22396a3.1771 3.1771 0 0 0 1.5781-2.5364v-18.24h-18.24a4.2083 4.2083 0 0 1-3.4688-2.151l-0.22396-0.4375a3.599 3.599 0 0 1 0.63542-3.9375l1.2292-1.2292a5.2396 5.2396 0 0 0 1.3177-3.1823 5.7292 5.7292 0 0 0-11.458 0c0 1.0104 0.60417 2.474 1.3177 3.1823l1.2292 1.2292a3.6094 3.6094 0 0 1 0.63541 3.9375l-0.22395 0.4375a4.2083 4.2083 0 0 1-3.4688 2.151h-18.24v18.24a3.1771 3.1771 0 0 0 1.5781 2.5364l0.4375 0.22396c0.82291 0.41146 2.0833 0.20834 2.7292-0.44271l1.2292-1.2292a6.2708 6.2708 0 0 1 3.9115-1.6198 6.7708 6.7708 0 0 1 6.7812 6.7708h-1.0417a5.7292 5.7292 0 0 0-5.7292-5.7292c-1.0104 0-2.474 0.60417-3.1823 1.3177l-1.2292 1.2292a3.6094 3.6094 0 0 1-3.9375 0.63541l-0.4375-0.22395a4.2083 4.2083 0 0 1-2.151-3.4688v-18.24h-18.24a3.1771 3.1771 0 0 0-2.5365 1.5781l-0.22395 0.4375c-0.41146 0.82291-0.20834 2.0833 0.4427 2.7292l1.2292 1.2292a6.2708 6.2708 0 0 1 1.6198 3.9115 6.7708 6.7708 0 0 1-6.7708 6.7812v-1.0417a5.7292 5.7292 0 0 0 5.7292-5.7292c0-1.0104-0.60417-2.474-1.3177-3.1823l-1.2292-1.2292a3.6094 3.6094 0 0 1-0.63542-3.9375l0.22396-0.4375a4.2083 4.2083 0 0 1 3.4688-2.151h18.24v-18.24a3.1771 3.1771 0 0 0-1.5781-2.5365l-0.4375-0.22395c-0.82813-0.41667-2.0833-0.20834-2.7292 0.4427l-1.2292 1.2292a6.25 6.25 0 0 1-3.9219 1.6198 6.7708 6.7708 0 1 1 0-13.542c1.2865 0 3.0156 0.71354 3.9219 1.6198l1.2292 1.2292a2.5729 2.5729 0 0 0 2.7292 0.44271l0.4375-0.22396a3.1771 3.1771 0 0 0 1.5781-2.5364v-18.24h-18.24a4.2083 4.2083 0 0 1-3.4688-2.151l-0.22396-0.4375a3.599 3.599 0 0 1 0.63542-3.9375l1.2292-1.2292a5.2396 5.2396 0 0 0 1.3177-3.1823 5.7292 5.7292 0 0 0-5.7292-5.7292v-1.0417a6.7708 6.7708 0 0 1 6.7708 6.7708c0 1.2865-0.71354 3.0156-1.6198 3.9219l-1.2292 1.2292a2.5729 2.5729 0 0 0-0.4427 2.7292l0.22395 0.4375a3.1771 3.1771 0 0 0 2.5365 1.5781h18.24v-18.24a4.2083 4.2083 0 0 1 2.151-3.4688l0.4375-0.22396a3.599 3.599 0 0 1 3.9375 0.63542l1.2292 1.2292a5.2396 5.2396 0 0 0 3.1823 1.3177 5.7292 5.7292 0 0 0 5.7292-5.7292h1.0417a6.7708 6.7708 0 0 1-6.7708 6.7708 6.25 6.25 0 0 1-3.9219-1.6198l-1.2292-1.2292a2.5677 2.5677 0 0 0-2.7292-0.44271l-0.4375 0.22396a3.1771 3.1771 0 0 0-1.5781 2.5365v18.24h18.24a4.2083 4.2083 0 0 1 3.4688 2.151l0.22395 0.4375a3.599 3.599 0 0 1-0.63541 3.9375l-1.2292 1.2292a5.2396 5.2396 0 0 0-1.3177 3.1823 5.7292 5.7292 0 0 0 11.458 0c0-1.0104-0.60417-2.474-1.3177-3.1823l-1.2292-1.2292a3.6094 3.6094 0 0 1-0.63542-3.9375l0.22396-0.4375a4.2083 4.2083 0 0 1 3.4688-2.151h18.24v-18.24a3.1771 3.1771 0 0 0-1.5781-2.5365l-0.4375-0.22396c-0.82812-0.41666-2.0833-0.20833-2.7292 0.44271l-1.2292 1.2292a6.25 6.25 0 0 1-3.9219 1.6198 6.7708 6.7708 0 0 1-6.7708-6.7708h1.0417a5.7292 5.7292 0 0 0 5.7292 5.7292c1.0104 0 2.474-0.60416 3.1823-1.3177l1.2292-1.2292a3.6094 3.6094 0 0 1 3.9375-0.63542l0.4375 0.22396a4.2083 4.2083 0 0 1 2.151 3.4688v18.24h18.24a3.1771 3.1771 0 0 0 2.5364-1.5781l0.22396-0.4375c0.41667-0.82812 0.20834-2.0833-0.44271-2.7292l-1.2292-1.2292a6.25 6.25 0 0 1-1.6198-3.9219 6.7708 6.7708 0 0 1 6.7708-6.7708zm-56.24 66.667a3.1771 3.1771 0 0 0 2.5364-1.5781l0.22396-0.4375c0.41667-0.82812 0.20834-2.0833-0.44271-2.7292l-1.2292-1.2292a6.25 6.25 0 0 1-1.6198-3.9219 6.7708 6.7708 0 1 1 13.542 0c0 1.2865-0.71354 3.0156-1.6198 3.9219l-1.2292 1.2292a2.5729 2.5729 0 0 0-0.4427 2.7292l0.22395 0.4375a3.1771 3.1771 0 0 0 2.5365 1.5781h18.24v-18.24a4.2083 4.2083 0 0 1 2.151-3.4688l0.4375-0.22396a3.599 3.599 0 0 1 3.9375 0.63542l1.2292 1.2292a5.2396 5.2396 0 0 0 3.1823 1.3177 5.7292 5.7292 0 0 0 0-11.458c-1.0104 0-2.474 0.60417-3.1823 1.3177l-1.2292 1.2292a3.6094 3.6094 0 0 1-3.9375 0.63541l-0.4375-0.22395a4.2083 4.2083 0 0 1-2.151-3.4688v-18.24h-18.24a3.1771 3.1771 0 0 0-2.5365 1.5781l-0.22395 0.4375c-0.41146 0.82292-0.20834 2.0833 0.4427 2.7292l1.2292 1.2292a6.2708 6.2708 0 0 1 1.6198 3.9115 6.7708 6.7708 0 1 1-13.542 0.01042 6.25 6.25 0 0 1 1.6198-3.9219l1.2292-1.2292a2.5677 2.5677 0 0 0 0.44271-2.7292l-0.22396-0.4375a3.1771 3.1771 0 0 0-2.5364-1.5781h-18.24v18.24a4.2083 4.2083 0 0 1-2.151 3.4688l-0.4375 0.22395a3.599 3.599 0 0 1-3.9375-0.63541l-1.2292-1.2292a5.2396 5.2396 0 0 0-3.1823-1.3177 5.7292 5.7292 0 0 0 0 11.458c1.0104 0 2.474-0.60417 3.1823-1.3177l1.2292-1.2292a3.6094 3.6094 0 0 1 3.9375-0.63542l0.4375 0.22396a4.2083 4.2083 0 0 1 2.151 3.4688v18.24z" fill="#f5df4d" stroke="#f5df4d" stroke-width=".52083"/>
</g>
</g>
</svg>
