<svg
   xmlns="http://www.w3.org/2000/svg"
   viewBox="0 0 26.458333 28.283534"
   height="106.89839"
   width="100">

  <g
     transform="translate(248.33036,-104.45347)"
     id="layer1">
    <g
       transform="matrix(0.17349695,0,0,0.17349695,-164.11227,32.489466)"
       id="g2173">
      <path
         style="opacity:1;fill:none;stroke:#e68f00;stroke-width:4.07122946;stroke-linecap:round;stroke-linejoin:miter;stroke-miterlimit:4;stroke-dasharray:none;stroke-opacity:1"
         d="m -434.3689,433.92138 c 9.1279,-4.43479 19.37698,-6.92227 30.20706,-6.92227 14.32572,0 27.63489,4.35247 38.67725,11.80718"
         id="path1364" />
      <path
         style="opacity:1;fill:none;stroke:#e68f00;stroke-width:4.07122946;stroke-linecap:round;stroke-linejoin:miter;stroke-miterlimit:4;stroke-dasharray:none;stroke-opacity:1"
         d="m -446.13146,441.17172 c 1.27165,-0.97116 2.57791,-1.89923 3.91665,-2.78208"
         id="path1360" />
      <path
         style="opacity:1;fill:none;stroke:#e68f00;stroke-width:4.07122946;stroke-linecap:round;stroke-linejoin:miter;stroke-miterlimit:4;stroke-dasharray:none;stroke-opacity:1"
         d="m -473.36713,495.31496 c 0.23772,-18.75685 7.93682,-35.71556 20.26573,-48.04446 0.48757,-0.48757 0.98235,-0.96785 1.48416,-1.44073"
         id="path1217" />
      <path
         style="opacity:1;fill:none;stroke:#e68f00;stroke-width:4.07122946;stroke-linecap:round;stroke-linejoin:miter;stroke-miterlimit:4;stroke-dasharray:none;stroke-opacity:1"
         d="m -472.87133,504.58389 c -0.1635,-1.3556 -0.2878,-2.72325 -0.37175,-4.10181"
         id="path1211" />
      <path
         style="opacity:1;fill:none;stroke:#e68f00;stroke-width:4.07122946;stroke-linecap:round;stroke-linejoin:miter;stroke-miterlimit:4;stroke-dasharray:none;stroke-opacity:1"
         d="m -398.9319,565.22632 c -1.72645,0.12897 -3.47052,0.19464 -5.22994,0.19464 -19.1121,0 -36.41483,-7.74669 -48.93956,-20.27142 -9.09733,-9.09737 -15.67383,-20.71552 -18.59192,-33.71683"
         id="path1422" />
      <path
         style="opacity:1;fill:none;stroke:#e68f00;stroke-width:4.07122946;stroke-linecap:round;stroke-linejoin:miter;stroke-miterlimit:4;stroke-dasharray:none;stroke-opacity:1"
         d="m -385.36245,562.8372 c -1.5331,0.43171 -3.08774,0.81192 -4.66197,1.13864"
         id="path1418" />
      <path
         style="opacity:1;fill:none;stroke:#e68f00;stroke-width:4.07122946;stroke-linecap:round;stroke-linejoin:miter;stroke-miterlimit:4;stroke-dasharray:none;stroke-opacity:1"
         d="m -365.48459,553.61375 c -4.06854,2.74665 -8.44483,5.07222 -13.06629,6.91408"
         id="path1078" />
      <path
         style="opacity:1;fill:none;stroke:#e68f00;stroke-width:4.07122946;stroke-linecap:round;stroke-linejoin:miter;stroke-miterlimit:4;stroke-dasharray:none;stroke-opacity:1"
         d="m -386.80285,439.77076 c 7.9674,2.44759 15.21655,6.536 21.35319,11.87086"
         id="path1379" />
      <path
         style="opacity:1;fill:none;stroke:#e68f00;stroke-width:4.07122946;stroke-linecap:round;stroke-linejoin:miter;stroke-miterlimit:4;stroke-dasharray:none;stroke-opacity:1"
         d="m -400.31758,437.30034 c 1.60846,0.10341 3.19937,0.27119 4.77022,0.50089"
         id="path1375" />
      <path
         style="opacity:1;fill:none;stroke:#e68f00;stroke-width:4.07122946;stroke-linecap:round;stroke-linejoin:miter;stroke-miterlimit:4;stroke-dasharray:none;stroke-opacity:1"
         d="m -463.19471,496.21002 v 0 c 0,-16.30149 6.60748,-31.0597 17.29027,-41.74252 9.93127,-9.93124 23.38461,-16.34041 38.32561,-17.19309"
         id="path1260" />
      <path
         style="opacity:1;fill:none;stroke:#e68f00;stroke-width:4.07122946;stroke-linecap:round;stroke-linejoin:miter;stroke-miterlimit:4;stroke-dasharray:none;stroke-opacity:1"
         d="m -458.12917,520.17132 c -3.25608,-7.32255 -5.06554,-15.43065 -5.06554,-23.9613"
         id="path1258" />
      <path
         style="opacity:1;fill:none;stroke:#e68f00;stroke-width:4.07122946;stroke-linecap:round;stroke-linejoin:miter;stroke-miterlimit:4;stroke-dasharray:none;stroke-opacity:1"
         d="m -452.16754,530.57372 c -0.93195,-1.29958 -1.81239,-2.63856 -2.63844,-4.01399"
         id="path1254" />
      <path
         style="opacity:1;fill:none;stroke:#e68f00;stroke-width:4.07122946;stroke-linecap:round;stroke-linejoin:miter;stroke-miterlimit:4;stroke-dasharray:none;stroke-opacity:1"
         d="m -365.44966,540.77842 c -10.36401,9.00988 -23.90113,14.46443 -38.71226,14.46443 -16.30141,0 -31.05966,-6.60744 -41.74252,-17.29031 -0.1519,-0.15194 -0.30303,-0.30469 -0.4533,-0.45826"
         id="path1074" />
      <path
         style="opacity:1;fill:none;stroke:#e68f00;stroke-width:4.07122946;stroke-linecap:round;stroke-linejoin:miter;stroke-miterlimit:4;stroke-dasharray:none;stroke-opacity:1"
         d="m -421.45435,450.50472 c 5.37561,-2.03488 11.20394,-3.14864 17.29243,-3.14864 13.49091,0 25.7046,5.46827 34.54556,14.30923 1.48942,1.48942 2.88312,3.07455 4.1711,4.74538"
         id="path1388" />
      <path
         style="opacity:1;fill:none;stroke:#e68f00;stroke-width:4.07122946;stroke-linecap:round;stroke-linejoin:miter;stroke-miterlimit:4;stroke-dasharray:none;stroke-opacity:1"
         d="m -432.10831,456.1334 c 1.30849,-0.91411 2.66381,-1.76577 4.06166,-2.5507"
         id="path1384" />
      <path
         style="opacity:1;fill:none;stroke:#e68f00;stroke-width:4.07122946;stroke-linecap:round;stroke-linejoin:miter;stroke-miterlimit:4;stroke-dasharray:none;stroke-opacity:1"
         d="m -453.01668,496.21002 c 2.4e-4,-13.36341 5.36588,-25.4736 14.0602,-34.29384"
         id="path1271" />
      <path
         style="opacity:1;fill:none;stroke:#e68f00;stroke-width:4.07122946;stroke-linecap:round;stroke-linejoin:miter;stroke-miterlimit:4;stroke-dasharray:none;stroke-opacity:1"
         d="m -435.08935,534.03097 c -1.26004,-1.03161 -2.46761,-2.12494 -3.61806,-3.27539 -8.841,-8.841 -14.30927,-21.05469 -14.30927,-34.54556 v 0"
         id="path1269" />
      <path
         style="opacity:1;fill:none;stroke:#e68f00;stroke-width:4.07122946;stroke-linecap:round;stroke-linejoin:miter;stroke-miterlimit:4;stroke-dasharray:none;stroke-opacity:1"
         d="m -429.20719,538.16534 c -2.06436,-1.23496 -4.02999,-2.618 -5.88216,-4.13437"
         id="path1267" />
      <path
         style="opacity:1;fill:none;stroke:#e68f00;stroke-width:4.07122946;stroke-linecap:round;stroke-linejoin:miter;stroke-miterlimit:4;stroke-dasharray:none;stroke-opacity:1"
         d="m -424.94808,540.43501 c -1.46075,-0.68775 -2.88194,-1.44577 -4.25911,-2.26967"
         id="path1265" />
      <path
         style="opacity:1;fill:none;stroke:#e68f00;stroke-width:4.07122946;stroke-linecap:round;stroke-linejoin:miter;stroke-miterlimit:4;stroke-dasharray:none;stroke-opacity:1"
         d="m -416.28474,543.54893 c -3.00929,-0.76832 -5.90683,-1.81605 -8.66334,-3.11392"
         id="path1263" />
      <path
         style="opacity:1;fill:none;stroke:#e68f00;stroke-width:4.07122946;stroke-linecap:round;stroke-linejoin:miter;stroke-miterlimit:4;stroke-dasharray:none;stroke-opacity:1"
         d="m -404.53412,545.06343 c -1.62051,-0.0121 -3.22229,-0.10308 -4.80164,-0.26935"
         id="path1276" />
      <path
         style="opacity:1;fill:none;stroke:#e68f00;stroke-width:4.07122946;stroke-linecap:round;stroke-linejoin:miter;stroke-miterlimit:4;stroke-dasharray:none;stroke-opacity:1"
         d="m -365.44522,526.01004 c -1.28798,1.67087 -2.68168,3.25604 -4.17114,4.7455 -6.92964,6.92968 -15.93137,11.78727 -25.9961,13.56371"
         id="path1070" />
      <path
         style="opacity:1;fill:none;stroke:#e68f00;stroke-width:4.07122946;stroke-linecap:round;stroke-linejoin:miter;stroke-miterlimit:4;stroke-dasharray:none;stroke-opacity:1"
         d="m -383.70798,463.37905 c 2.50454,1.5636 4.81716,3.40583 6.89458,5.48326 6.99898,6.99893 11.328,16.66777 11.3282,27.34771"
         id="path1289" />
      <path
         style="opacity:1;fill:none;stroke:#e68f00;stroke-width:4.07122946;stroke-linecap:round;stroke-linejoin:miter;stroke-miterlimit:4;stroke-dasharray:none;stroke-opacity:1"
         d="m -396.53305,458.28635 c 1.58245,0.31658 3.13004,0.72973 4.63636,1.23301"
         id="path1285" />
      <path
         style="opacity:1;fill:none;stroke:#e68f00;stroke-width:4.07122946;stroke-linecap:round;stroke-linejoin:miter;stroke-miterlimit:4;stroke-dasharray:none;stroke-opacity:1"
         d="m -440.83344,483.88624 c 1.92272,-5.72337 5.14778,-10.84872 9.32295,-15.02393 6.99914,-6.9991 16.66835,-11.32816 27.34857,-11.32816 h 0.38774"
         id="path1413" />
      <path
         style="opacity:1;fill:none;stroke:#e68f00;stroke-width:4.07122946;stroke-linecap:round;stroke-linejoin:miter;stroke-miterlimit:4;stroke-dasharray:none;stroke-opacity:1"
         d="m -442.83702,495.86404 c 0.0143,-1.6256 0.12882,-3.22726 0.33779,-4.79908"
         id="path1409" />
      <path
         style="opacity:1;fill:none;stroke:#e68f00;stroke-width:4.07122946;stroke-linecap:round;stroke-linejoin:miter;stroke-miterlimit:4;stroke-dasharray:none;stroke-opacity:1"
         d="m -442.83856,496.21002 c 0,-0.11546 5.2e-4,-0.23076 0.002,-0.34598"
         id="path1407" />
      <path
         style="opacity:1;fill:none;stroke:#e68f00;stroke-width:4.07122946;stroke-linecap:round;stroke-linejoin:miter;stroke-miterlimit:4;stroke-dasharray:none;stroke-opacity:1"
         d="m -365.4852,496.21002 v 0 0 c 0,10.68026 -4.32906,20.34947 -11.3282,27.34856 -6.99905,6.9991 -16.66822,11.32812 -27.34852,11.32812 -10.68022,0 -20.34943,-4.32902 -27.34857,-11.32812 -5.06758,-5.06762 -8.73547,-11.53501 -10.3739,-18.77244"
         id="path1066" />
      <path
         style="opacity:1;fill:none;stroke:#e68f00;stroke-width:4.07122946;stroke-linecap:round;stroke-linejoin:miter;stroke-miterlimit:4;stroke-dasharray:none;stroke-opacity:1"
         d="m -365.4852,491.71831 v -7.18824"
         id="path1457" />
      <path
         style="opacity:1;fill:none;stroke:#e68f00;stroke-width:4.07122946;stroke-linecap:round;stroke-linejoin:miter;stroke-miterlimit:4;stroke-dasharray:none;stroke-opacity:1"
         d="m -365.4852,496.51153 v -4.79322"
         id="path1455" />
      <path
         style="opacity:1;fill:none;stroke:#e68f00;stroke-width:4.07122946;stroke-linecap:round;stroke-linejoin:miter;stroke-miterlimit:4;stroke-dasharray:none;stroke-opacity:1"
         d="m -365.4852,505.41177 v -8.90024"
         id="path1453" />
      <path
         id="path910"
         style="opacity:1;fill:none;stroke:#e68f00;stroke-width:4.07122946;stroke-linecap:round;stroke-linejoin:miter;stroke-miterlimit:4;stroke-dasharray:none;stroke-opacity:1"
         d="m -365.4852,575.67212 v -70.26035 m 0,-20.8817 v -67.68004" />
      <path
         style="opacity:1;fill:none;stroke:#e68f00;stroke-width:4.07122946;stroke-linecap:round;stroke-linejoin:miter;stroke-miterlimit:4;stroke-dasharray:none;stroke-opacity:1"
         d="m -355.30717,426.80463 v -9.9546"
         id="path1346" />
      <path
         style="opacity:1;fill:none;stroke:#e68f00;stroke-width:4.07122946;stroke-linecap:round;stroke-linejoin:miter;stroke-miterlimit:4;stroke-dasharray:none;stroke-opacity:1"
         d="m -355.30717,436.04677 v -4.10779"
         id="path1342" />
      <path
         style="opacity:1;fill:none;stroke:#e68f00;stroke-width:4.07122946;stroke-linecap:round;stroke-linejoin:miter;stroke-miterlimit:4;stroke-dasharray:none;stroke-opacity:1"
         d="M -355.30717,549.42791 V 442.89311"
         id="path1328" />
      <path
         style="opacity:1;fill:none;stroke:#e68f00;stroke-width:4.07122946;stroke-linecap:round;stroke-linejoin:miter;stroke-miterlimit:4;stroke-dasharray:none;stroke-opacity:1"
         d="m -355.30717,563.12056 v -4.79241"
         id="path1324" />
      <path
         style="opacity:1;fill:none;stroke:#e68f00;stroke-width:4.07122946;stroke-linecap:round;stroke-linejoin:miter;stroke-miterlimit:4;stroke-dasharray:none;stroke-opacity:1"
         d="M -355.30717,575.67212 V 570.3088"
         id="path892" />
      <path
         style="opacity:1;fill:none;stroke:#e68f00;stroke-width:4.07122946;stroke-linecap:round;stroke-linejoin:miter;stroke-miterlimit:4;stroke-dasharray:none;stroke-opacity:1"
         d="M -345.12905,447.83982 V 416.85003"
         id="path1450" />
      <path
         style="opacity:1;fill:none;stroke:#e68f00;stroke-width:4.07122946;stroke-linecap:round;stroke-linejoin:miter;stroke-miterlimit:4;stroke-dasharray:none;stroke-opacity:1"
         d="m -345.12905,459.82051 -4e-5,-4.79245"
         id="path1446" />
      <path
         style="opacity:1;fill:none;stroke:#e68f00;stroke-width:4.07122946;stroke-linecap:round;stroke-linejoin:miter;stroke-miterlimit:4;stroke-dasharray:none;stroke-opacity:1"
         d="M -345.12909,492.82841 V 468.72075"
         id="path1337" />
      <path
         style="opacity:1;fill:none;stroke:#e68f00;stroke-width:4.07122946;stroke-linecap:round;stroke-linejoin:miter;stroke-miterlimit:4;stroke-dasharray:none;stroke-opacity:1"
         d="m -345.12905,506.52102 -4e-5,-4.79241"
         id="path1333" />
      <path
         style="opacity:1;fill:none;stroke:#e68f00;stroke-width:4.07122946;stroke-linecap:round;stroke-linejoin:miter;stroke-miterlimit:4;stroke-dasharray:none;stroke-opacity:1"
         d="M -345.12905,575.67212 V 513.70926"
         id="path895" />
      <path
         style="opacity:1;fill:none;stroke:#e68f00;stroke-width:4.07122946;stroke-linecap:round;stroke-linejoin:miter;stroke-miterlimit:4;stroke-dasharray:none;stroke-opacity:1"
         d="m -334.95094,473.64425 -4e-5,-56.79422"
         id="path1468" />
      <path
         style="opacity:1;fill:none;stroke:#e68f00;stroke-width:4.07122946;stroke-linecap:round;stroke-linejoin:miter;stroke-miterlimit:4;stroke-dasharray:none;stroke-opacity:1"
         d="m -334.95094,487.33848 v -4.79322"
         id="path1464" />
      <path
         style="opacity:1;fill:none;stroke:#e68f00;stroke-width:4.07122946;stroke-linecap:round;stroke-linejoin:miter;stroke-miterlimit:4;stroke-dasharray:none;stroke-opacity:1"
         d="m -334.95098,530.70498 4e-5,-36.17821"
         id="path1319" />
      <path
         style="opacity:1;fill:none;stroke:#e68f00;stroke-width:4.07122946;stroke-linecap:round;stroke-linejoin:miter;stroke-miterlimit:4;stroke-dasharray:none;stroke-opacity:1"
         d="m -334.95098,542.68567 v -4.79245"
         id="path1315" />
      <path
         style="opacity:1;fill:none;stroke:#e68f00;stroke-width:4.07122946;stroke-linecap:round;stroke-linejoin:miter;stroke-miterlimit:4;stroke-dasharray:none;stroke-opacity:1"
         d="M -334.95098,575.67212 V 551.58591"
         id="path898" />
      <path
         style="opacity:1;fill:none;fill-opacity:1;stroke:#e68f00;stroke-width:4.07122946;stroke-linecap:round;stroke-linejoin:round;stroke-miterlimit:4;stroke-dasharray:none;stroke-dashoffset:0;stroke-opacity:1;paint-order:stroke fill markers"
         d="m -470.75047,453.41891 a 79.388975,79.388975 0 0 1 66.75966,-36.42672 79.388975,79.388975 0 0 1 38.51811,9.97024"
         id="path2110" />
      <path
         style="opacity:1;fill:none;fill-opacity:1;stroke:#e68f00;stroke-width:4.07122946;stroke-linecap:round;stroke-linejoin:round;stroke-miterlimit:4;stroke-dasharray:none;stroke-dashoffset:0;stroke-opacity:1;paint-order:stroke fill markers"
         d="m -476.52327,464.10654 a 79.388975,79.388975 0 0 1 2.09432,-4.34608"
         id="path2106" />
      <path
         style="opacity:1;fill:none;fill-opacity:1;stroke:#e68f00;stroke-width:4.07122946;stroke-linecap:round;stroke-linejoin:round;stroke-miterlimit:4;stroke-dasharray:none;stroke-dashoffset:0;stroke-opacity:1;paint-order:stroke fill markers"
         d="m -452.95276,558.87386 a 79.388975,79.388975 0 0 1 -30.42703,-62.49273 79.388975,79.388975 0 0 1 3.69656,-23.9429"
         id="path2119" />
      <path
         style="opacity:1;fill:none;fill-opacity:1;stroke:#e68f00;stroke-width:4.07122946;stroke-linecap:round;stroke-linejoin:round;stroke-miterlimit:4;stroke-dasharray:none;stroke-dashoffset:0;stroke-opacity:1;paint-order:stroke fill markers"
         d="m -441.47238,566.36504 a 79.388975,79.388975 0 0 1 -4.15884,-2.39185"
         id="path2115" />
      <path
         style="opacity:1;fill:none;fill-opacity:1;stroke:#e68f00;stroke-width:4.07122946;stroke-linecap:round;stroke-linejoin:round;stroke-miterlimit:4;stroke-dasharray:none;stroke-dashoffset:0;stroke-opacity:1;paint-order:stroke fill markers"
         d="m -365.43973,565.78163 a 79.388975,79.388975 0 0 1 -38.55108,9.98852 79.388975,79.388975 0 0 1 -30.95942,-6.28549"
         id="path2080" />
    </g>
  </g>
</svg>