<?xml version="1.0" encoding="UTF-8" standalone="no"?>
<svg
   xmlns:dc="http://purl.org/dc/elements/1.1/"
   xmlns:cc="http://creativecommons.org/ns#"
   xmlns:rdf="http://www.w3.org/1999/02/22-rdf-syntax-ns#"
   xmlns:svg="http://www.w3.org/2000/svg"
   xmlns="http://www.w3.org/2000/svg"
   xmlns:sodipodi="http://sodipodi.sourceforge.net/DTD/sodipodi-0.dtd"
   xmlns:inkscape="http://www.inkscape.org/namespaces/inkscape"
   width="210mm"
   height="297mm"
   viewBox="0 0 210 297"
   version="1.1"
   id="svg8"
   inkscape:version="1.0.1 (3bc2e81, 2020-09-07)"
   sodipodi:docname="arched-text.svg">
  <defs
     id="defs2">
    <inkscape:path-effect
       effect="perspective-envelope"
       up_left_point="100.27605,79.36391"
       up_right_point="116.44325,79.36391"
       down_left_point="100.27605,111.64848"
       down_right_point="116.44325,111.64848"
       id="path-effect1061"
       is_visible="true"
       lpeversion="1"
       deform_type="perspective"
       horizontal_mirror="false"
       vertical_mirror="false"
       overflow_perspective="false" />
    <inkscape:path-effect
       effect="perspective-envelope"
       up_left_point="181.59547,79.822342"
       up_right_point="193.79349,79.822342"
       down_left_point="181.59547,128.80526"
       down_right_point="193.66621,134.43619"
       id="path-effect1059"
       is_visible="true"
       lpeversion="1"
       deform_type="envelope_deformation"
       horizontal_mirror="false"
       vertical_mirror="false"
       overflow_perspective="false" />
    <inkscape:path-effect
       effect="perspective-envelope"
       up_left_point="166.33598,79.549408"
       up_right_point="181.05262,79.549408"
       down_left_point="166.14903,110.68265"
       down_right_point="181.05262,115.84716"
       id="path-effect1057"
       is_visible="true"
       lpeversion="1"
       deform_type="envelope_deformation"
       horizontal_mirror="false"
       vertical_mirror="false"
       overflow_perspective="false" />
    <inkscape:path-effect
       effect="perspective-envelope"
       up_left_point="148.3346,79.750138"
       up_right_point="165.68653,79.750138"
       down_left_point="148.46484,107.51178"
       down_right_point="165.68653,110.56534"
       id="path-effect1055"
       is_visible="true"
       lpeversion="1"
       deform_type="envelope_deformation"
       horizontal_mirror="false"
       vertical_mirror="false"
       overflow_perspective="false" />
    <inkscape:path-effect
       effect="perspective-envelope"
       up_left_point="132.97359,79.668433"
       up_right_point="147.19638,79.668433"
       down_left_point="132.97359,106.89054"
       down_right_point="147.19638,106.89054"
       id="path-effect1053"
       is_visible="true"
       lpeversion="1"
       deform_type="envelope_deformation"
       horizontal_mirror="false"
       vertical_mirror="false"
       overflow_perspective="false" />
    <inkscape:path-effect
       effect="perspective-envelope"
       up_left_point="117.25369,79.798671"
       up_right_point="132.41479,79.798671"
       down_left_point="117.25369,107.02742"
       down_right_point="132.41479,107.02742"
       id="path-effect1051"
       is_visible="true"
       lpeversion="1"
       deform_type="envelope_deformation"
       horizontal_mirror="false"
       vertical_mirror="false"
       overflow_perspective="false" />
    <inkscape:path-effect
       effect="perspective-envelope"
       up_left_point="100.27605,79.700561"
       up_right_point="116.43674,77.564114"
       down_left_point="100.27605,111.64848"
       down_right_point="116.54741,108.14223"
       id="path-effect1049"
       is_visible="true"
       lpeversion="1"
       deform_type="envelope_deformation"
       horizontal_mirror="false"
       vertical_mirror="false"
       overflow_perspective="false" />
    <inkscape:path-effect
       effect="perspective-envelope"
       up_left_point="83.129798,79.647306"
       up_right_point="98.738676,79.700561"
       down_left_point="83.129798,117.90381"
       down_right_point="98.738676,112.10013"
       id="path-effect1047"
       is_visible="true"
       lpeversion="1"
       deform_type="envelope_deformation"
       horizontal_mirror="false"
       vertical_mirror="false"
       overflow_perspective="false" />
    <inkscape:path-effect
       effect="perspective-envelope"
       up_left_point="76.32919,79.700561"
       up_right_point="81.611038,79.700561"
       down_left_point="76.32919,134.43619"
       down_right_point="81.636888,131.6894"
       id="path-effect1043"
       is_visible="true"
       lpeversion="1"
       deform_type="envelope_deformation"
       horizontal_mirror="false"
       vertical_mirror="false"
       overflow_perspective="false" />
  </defs>
  <sodipodi:namedview
     id="base"
     pagecolor="#ffffff"
     bordercolor="#666666"
     borderopacity="1.0"
     inkscape:pageopacity="0.0"
     inkscape:pageshadow="2"
     inkscape:zoom="1.4142136"
     inkscape:cx="548.46187"
     inkscape:cy="409.58862"
     inkscape:document-units="px"
     inkscape:current-layer="layer1"
     inkscape:document-rotation="0"
     showgrid="false"
     showborder="false"
     inkscape:object-nodes="true"
     inkscape:snap-nodes="true"
     inkscape:window-width="1600"
     inkscape:window-height="829"
     inkscape:window-x="0"
     inkscape:window-y="34"
     inkscape:window-maximized="1" />
  <metadata
     id="metadata5">
    <rdf:RDF>
      <cc:Work
         rdf:about="">
        <dc:format>image/svg+xml</dc:format>
        <dc:type
           rdf:resource="http://purl.org/dc/dcmitype/StillImage" />
        <dc:title></dc:title>
      </cc:Work>
    </rdf:RDF>
  </metadata>
  <g
     inkscape:label="Layer 1"
     inkscape:groupmode="layer"
     id="layer1">
    <g
       id="g1093"
       transform="scale(0.26458333)"
       style="opacity:1;fill:#ffff00;stroke:#ff0000;stroke-width:15.00000023;stroke-miterlimit:4;stroke-dasharray:none">
      <g
         id="g1095"
         style="opacity:1;fill:#ffff00">
        <path
           style="color:#000000;font-style:normal;font-variant:normal;font-weight:normal;font-stretch:normal;font-size:medium;line-height:normal;font-family:sans-serif;font-variant-ligatures:normal;font-variant-position:normal;font-variant-caps:normal;font-variant-numeric:normal;font-variant-alternates:normal;font-variant-east-asian:normal;font-feature-settings:normal;font-variation-settings:normal;text-indent:0;text-align:start;text-decoration:none;text-decoration-line:none;text-decoration-style:solid;text-decoration-color:#000000;letter-spacing:normal;word-spacing:normal;text-transform:none;writing-mode:lr-tb;direction:ltr;text-orientation:mixed;dominant-baseline:auto;baseline-shift:baseline;text-anchor:start;white-space:normal;shape-padding:0;shape-margin:0;inline-size:0;clip-rule:nonzero;display:inline;overflow:visible;visibility:visible;isolation:auto;mix-blend-mode:normal;color-interpolation:sRGB;color-interpolation-filters:linearRGB;solid-color:#000000;solid-opacity:1;vector-effect:none;fill:#ffff00;fill-opacity:1;fill-rule:evenodd;stroke:none;stroke-width:15;stroke-linecap:square;stroke-linejoin:miter;stroke-miterlimit:4;stroke-dasharray:none;stroke-dashoffset:0;stroke-opacity:1;color-rendering:auto;image-rendering:auto;shape-rendering:auto;text-rendering:auto;enable-background:accumulate;stop-color:#000000;stop-opacity:1"
           d="M 288.48828,301.23047 V 508.10547 C 293.24666,505.52891 298.06396,503.03742 302.93555,500.62891 L 308.45117,497.77539 V 301.23047 Z M 314.19141,301.23047 V 445.62109 L 325.10547,441.13086 L 325.19727,441.0918 C 327.55643,440.08285 329.92632,439.09323 332.30664,438.12305 L 332.73242,360.64062 L 333.85547,360.46094 L 335.54102,366.51172 L 351.96094,430.63867 C 358.96324,428.15487 366.04067,425.83633 373.18555,423.68555 V 301.23047 H 354.64453 V 374.58789 L 353.52148,374.82422 L 351.83594,369.14258 L 331.67188,301.23047 Z M 378.99609,301.23047 V 421.97852 C 385.76279,420.03849 392.58465,418.24885 399.45508,416.61133 L 399.24414,375.49609 L 403.91602,364.9375 L 405.03711,362.31641 L 405.59961,362.2168 L 406.16602,364.53516 L 420.08008,412.17969 C 426.70934,410.90883 433.37274,409.77829 440.06445,408.78906 L 418.8418,334.62109 L 439.32031,301.23047 H 417.53906 L 400.88477,337.97656 L 399.95117,340.06836 L 399.20312,340.18945 L 398.73242,301.23047 Z M 526.26758,301.23047 C 521.06779,301.5923 516.89462,302.81716 513.77734,304.5332 C 510.04434,306.5882 507.61735,309.32835 505.9375,312.06836 C 503.91083,315.17869 502.79783,318.8255 502.58984,322.74023 V 382.37109 C 502.798,386.41712 503.91103,390.06184 505.9375,393.17188 C 507.61735,395.91187 510.04434,398.51535 513.77734,400.57031 C 517.02912,402.47975 521.41573,403.66065 526.93359,403.93359 L 527.23438,403.94531 C 527.95756,403.97659 528.69352,403.99609 529.45508,403.99609 C 536.17451,403.99609 541.21426,402.76233 544.94727,400.57031 C 548.6803,398.51535 551.29277,395.91187 552.97266,393.17188 C 554.99912,390.06184 556.11216,386.41712 556.32031,382.37109 V 368.375 H 537.48047 V 382.21289 C 537.48047,383.7199 537.2943,384.95317 536.73438,385.91211 C 535.8011,387.96715 534.1211,389.61133 529.82812,389.61133 C 528.14829,389.61133 526.84148,389.20063 525.9082,388.51562 C 524.04172,387.00866 522.923,385.08987 522.73633,382.21289 V 322.89258 C 522.923,321.52257 523.10799,320.28937 523.66797,319.19336 C 524.60121,317.41237 526.28177,315.49414 529.82812,315.49414 C 531.88132,315.49414 533.5609,315.90486 534.49414,316.58984 C 536.54729,318.23385 537.48047,320.15257 537.48047,322.89258 V 336.72852 H 556.32031 V 322.74023 C 556.11232,318.8255 554.99933,315.17869 552.97266,312.06836 C 551.29277,309.32835 548.6803,306.5882 544.94727,304.5332 C 541.8298,302.81706 537.78427,301.59222 532.62695,301.23047 Z M 628.66797,301.23047 L 627.96484,418.32812 C 634.56366,420.00927 641.11445,421.83143 647.61133,423.79297 L 648.55859,375.50586 C 657.39804,377.353 666.24202,376.70654 673.01758,371.91211 C 679.78531,366.89954 684.29297,357.40135 684.29297,341.72266 C 684.29297,326.044 679.80809,315.42099 673.08594,309 C 668.28248,304.56237 662.42528,302.21242 656.26953,301.23047 Z M 581.19922,301.41797 L 561.12695,406.34375 C 567.63639,407.03664 574.12644,407.86238 580.5918,408.82031 L 584.04492,388.17383 L 603.19727,390.87305 L 606.75,413.44531 C 613.27841,414.78937 619.7692,416.26961 626.2168,417.88477 L 605.65234,301.41797 Z M 472.28125,301.60547 C 462.76206,301.74251 456.22852,304.8944 451.93555,309.2793 C 447.64257,313.80124 445.96289,319.6927 445.96289,325.17383 C 445.96289,327.91438 446.52267,330.65428 447.64258,333.25781 C 449.69573,338.6019 453.05555,343.80887 457.53516,348.87891 C 462.01477,353.94896 466.30884,358.60791 470.22852,362.71875 C 472.09504,364.77417 473.77523,366.82969 475.45508,368.74805 C 478.44147,372.72189 480.67969,376.559 480.67969,379.84766 C 480.67969,386.28801 478.43962,390.94727 472.4668,390.94727 C 468.17386,390.94727 465.93545,388.75548 464.62891,385.4668 C 463.13569,382.31516 462.94922,378.06619 462.94922,373.81836 L 443.16406,375.18945 C 443.16406,382.72599 444.09683,389.9876 448.20312,395.46875 C 452.30947,400.9499 459.58791,404.51367 472.4668,404.51367 C 483.47921,404.51367 490.38675,401.49879 494.67969,396.83984 C 498.97266,392.18086 500.46484,385.87648 500.46484,379.16211 C 500.46484,373.68097 498.03856,368.47431 494.49219,363.4043 C 490.94582,358.33427 486.27956,353.1267 481.61328,348.05664 C 477.69365,343.80878 473.77354,339.83483 470.78711,335.99805 C 467.80072,332.16126 465.74805,328.59954 465.74805,325.17383 C 465.74805,319.28163 467.42808,315.30694 472.6543,315.16992 C 475.82736,315.16992 477.88096,317.0895 479.1875,319.83008 C 480.49408,322.70765 480.67969,326.40665 480.67969,329.69531 L 500.46484,328.32617 C 500.46484,322.708 499.34545,315.99283 495.42578,310.51172 C 491.50611,305.16761 484.41353,301.46845 472.28125,301.60547 Z M 686.82617,301.69141 V 486.86914 C 702.3519,493.13989 717.42667,500.23179 731.9668,508.10547 V 476.90234 L 706.32422,466.76367 L 706.38281,413.32812 L 724.93555,418.27344 L 725,385.67578 L 706.41602,382.11133 L 706.4707,331.05469 L 731.9668,332.83398 V 301.69141 Z M 648.76172,319.32812 C 654.93293,319.65162 658.85657,321.254 661.09375,324.54102 C 663.33233,327.86649 663.88354,333.03856 663.86914,340.29297 C 663.85474,347.54738 663.28294,352.24679 661.02539,354.74414 C 658.76622,357.38179 654.82167,357.80937 648.62695,356.83594 Z M 592.94531,334.52148 L 594.05469,334.58008 L 594.61523,337.47656 L 600.4043,373.12695 L 586.76172,371.58008 L 592.39648,337.34961 Z"
           id="path1097" />
        <path
           style="color:#000000;font-style:normal;font-variant:normal;font-weight:normal;font-stretch:normal;font-size:medium;line-height:normal;font-family:sans-serif;font-variant-ligatures:normal;font-variant-position:normal;font-variant-caps:normal;font-variant-numeric:normal;font-variant-alternates:normal;font-variant-east-asian:normal;font-feature-settings:normal;font-variation-settings:normal;text-indent:0;text-align:start;text-decoration:none;text-decoration-line:none;text-decoration-style:solid;text-decoration-color:#000000;letter-spacing:normal;word-spacing:normal;text-transform:none;writing-mode:lr-tb;direction:ltr;text-orientation:mixed;dominant-baseline:auto;baseline-shift:baseline;text-anchor:start;white-space:normal;shape-padding:0;shape-margin:0;inline-size:0;clip-rule:nonzero;display:inline;overflow:visible;visibility:visible;isolation:auto;mix-blend-mode:normal;color-interpolation:sRGB;color-interpolation-filters:linearRGB;solid-color:#000000;solid-opacity:1;vector-effect:none;fill:#ffff00;fill-opacity:1;fill-rule:evenodd;stroke:none;stroke-width:15;stroke-linecap:square;stroke-linejoin:miter;stroke-miterlimit:4;stroke-dasharray:none;stroke-dashoffset:0;stroke-opacity:1;color-rendering:auto;image-rendering:auto;shape-rendering:auto;text-rendering:auto;enable-background:accumulate;stop-color:#000000;stop-opacity:1"
           d="M 280.98828 293.73047 L 280.98828 301.23047 L 280.98828 520.69531 L 292.05859 514.70117 C 296.73339 512.16987 301.46937 509.71993 306.25977 507.35156 L 306.32031 507.32227 L 315.95117 502.33984 L 315.95117 453.00586 L 328 448.04883 L 328.14062 447.99023 L 328.14648 447.98828 C 330.46624 446.99618 332.79592 446.02243 335.13672 445.06836 L 339.7793 443.17578 L 339.93945 413.92578 L 346.73242 440.45117 L 354.46875 437.70703 C 361.35633 435.26392 368.31833 432.98318 375.34766 430.86719 L 378.17383 430.01562 L 381.0625 429.1875 C 387.72011 427.27875 394.43259 425.51763 401.19336 423.90625 L 406.98633 422.52734 L 406.83789 393.58789 L 414.79297 420.83008 L 421.49219 419.54492 C 428.01651 418.29418 434.57564 417.18266 441.16211 416.20898 L 449.63086 414.95703 L 446.62695 404.45703 C 452.6344 409.28496 461.31367 412.01367 472.4668 412.01367 C 484.84806 412.01367 494.27823 408.34344 500.19531 401.92188 C 500.80477 401.26046 501.19392 400.50536 501.71875 399.80664 C 503.85668 402.48862 506.46151 405.07659 510.05859 407.07617 C 514.67088 409.76401 520.20875 411.10954 526.5625 411.42383 L 526.60156 411.42578 L 526.91016 411.4375 C 527.71837 411.47246 528.56549 411.49609 529.45508 411.49609 C 537.06096 411.49609 543.47225 410.10618 548.67578 407.07031 C 550.70169 405.9444 552.48323 404.63737 554.08594 403.23047 L 552.22852 412.93945 L 560.33398 413.80078 C 566.74153 414.48283 573.12852 415.29737 579.49219 416.24023 L 586.77539 417.31836 L 590.23633 396.62109 L 596.65234 397.52539 L 600.14844 419.74414 L 605.23828 420.79102 C 611.66312 422.11375 618.05009 423.57084 624.39453 425.16016 L 624.9082 425.28906 L 626.11328 425.5957 C 632.60644 427.24993 639.05158 429.04285 645.44336 430.97266 L 654.91602 433.83203 L 655.89648 383.85156 C 663.37392 384.09379 670.89995 382.59898 677.34961 378.03516 L 677.41602 377.98828 L 677.48242 377.93945 C 678.13302 377.45758 678.71611 376.88393 679.32617 376.3457 L 679.32617 491.92773 L 684.01758 493.82422 C 699.28573 499.99094 714.10489 506.96314 728.39453 514.70117 L 739.4668 520.69531 L 739.4668 471.80273 L 713.83008 461.66602 L 713.87305 423.08594 L 732.41602 428.0293 L 732.51172 379.48047 L 713.92188 375.91406 L 713.96289 339.0957 L 739.4668 340.875 L 739.4668 294.19141 L 679.32617 294.19141 L 679.32617 301.69141 L 679.32617 304.72266 C 678.96684 304.34815 678.63848 303.93232 678.26562 303.57617 L 678.2207 303.5332 L 678.17578 303.49023 C 672.10956 297.88602 664.71423 294.9828 657.45117 293.82422 L 656.86328 293.73047 L 621.21289 293.73047 L 621.16797 301.18555 L 620.90625 344.68164 L 611.94336 293.91797 L 574.99805 293.91797 L 573.83203 300.00781 L 562.1875 360.875 L 530.23633 360.875 L 530.23633 344.22852 L 563.82031 344.22852 L 563.82031 322.54102 L 563.81055 322.3418 C 563.54277 317.3018 562.07833 312.36888 559.32031 308.08984 C 556.9932 304.31673 553.44387 300.64897 548.56445 297.96289 C 544.36634 295.65187 539.21534 294.17332 533.15234 293.74805 L 532.89062 293.73047 L 526.00781 293.73047 L 525.74609 293.74805 C 519.65423 294.17195 514.43389 295.61023 510.16016 297.96289 C 506.20439 300.14052 503.47403 303.01645 501.31836 305.89453 C 495.79234 298.51405 485.77052 293.95217 472.19727 294.10547 L 472.18555 294.10547 L 472.17383 294.10547 C 461.049 294.26562 452.27342 298.21395 446.57617 304.0332 L 446.53516 304.07422 L 446.49609 304.11523 C 446.19717 304.4301 446.01627 304.79382 445.73633 305.11719 L 452.71875 293.73047 L 412.70312 293.73047 L 406.3125 307.83008 L 406.14258 293.73047 L 380.68555 293.73047 L 371.49609 293.73047 L 347.14453 293.73047 L 347.14453 326.99023 L 337.26953 293.73047 L 315.95117 293.73047 L 306.69141 293.73047 L 280.98828 293.73047 z M 499.6543 307.97461 C 499.63139 308.00977 499.61648 308.04874 499.59375 308.08398 C 499.58056 308.10537 499.55607 308.12707 499.54297 308.14844 L 499.6543 307.97461 z M 295.98828 308.73047 L 300.95117 308.73047 L 300.95117 493.21094 L 299.49023 493.9668 L 299.61133 493.90625 C 298.39006 494.51004 297.20302 495.16704 295.98828 495.78125 L 295.98828 308.73047 z M 321.69141 308.73047 L 326.07422 308.73047 L 338.9375 352.05273 L 325.26758 354.24023 L 324.83398 433.11523 C 323.9731 433.47719 323.10618 433.82831 322.24805 434.19531 L 322.26172 434.19141 L 322.21094 434.21289 L 321.69141 434.42578 L 321.69141 308.73047 z M 362.14453 308.73047 L 365.68555 308.73047 L 365.68555 418.25195 C 362.85615 419.1407 360.04778 420.07879 357.24023 421.01953 L 343.60742 367.7793 L 344.64648 371.27734 L 348.29883 383.58789 L 362.14453 380.67383 L 362.14453 308.73047 z M 386.49609 308.73047 L 391.32227 308.73047 L 391.80859 348.98438 L 405.14844 346.82422 L 407.72461 341.05273 L 410.88477 334.08008 L 430.54883 402.79883 C 428.83383 403.08339 427.11915 403.36701 425.4082 403.66992 L 413.41211 362.59375 L 411.2168 353.60547 L 399.73633 355.63867 L 397.03906 361.94531 L 391.73633 373.92969 L 391.92578 410.83594 C 390.10984 411.29296 388.305 411.78174 386.49609 412.25977 L 386.49609 308.73047 z M 422.375 308.73047 L 425.92188 308.73047 L 412.33203 330.88867 L 422.375 308.73047 z M 636.12305 308.73047 L 655.41406 308.73047 C 660.28752 309.55812 664.49291 311.3018 667.94141 314.4668 C 672.86319 319.19112 676.79297 327.51027 676.79297 341.72266 C 676.79297 355.89976 672.99063 362.54878 668.60938 365.82812 C 664.0888 368.98774 657.5698 369.72671 650.0918 368.16406 L 641.23828 366.31445 L 640.30273 413.97656 C 638.70234 413.52949 637.10626 413.07117 635.5 412.64062 L 636.12305 308.73047 z M 587.40234 308.91797 L 599.36133 308.91797 L 616.86523 408.06055 C 615.69891 407.79794 614.53795 407.51765 613.36914 407.26367 L 609.74219 384.2207 L 577.85352 379.72656 L 574.38477 400.4707 C 572.92259 400.2767 571.45851 400.09479 569.99414 399.91406 L 587.40234 308.91797 z M 524.9375 309.01172 C 521.09975 310.53223 518.19087 313.48869 517.02539 315.71289 L 517.00586 315.74609 L 516.98828 315.78125 C 515.69571 318.3111 515.49956 320.45063 515.30469 321.88086 L 515.23633 322.38477 L 515.23633 382.45508 L 515.25195 382.69922 C 515.55003 387.29323 518.04937 391.81001 521.19727 394.35156 L 521.33203 394.45898 L 521.4707 394.5625 C 522.40832 395.25069 523.46552 395.64854 524.51758 396.04492 C 521.48231 395.61776 519.00778 394.9453 517.57422 394.10352 L 517.48438 394.05078 L 517.39453 394 C 514.80286 392.57333 513.43593 391.05251 512.33203 389.25195 L 512.27734 389.16406 L 512.2207 389.07812 C 510.98099 387.17553 510.24708 384.92053 510.08984 382.04492 L 510.08984 323.08203 C 510.24353 320.36329 510.98155 318.06384 512.2207 316.16211 L 512.27734 316.07617 L 512.33203 315.98828 C 513.49401 314.09297 514.92589 312.46249 517.39453 311.10352 C 519.02994 310.20323 521.67156 309.44406 524.9375 309.01172 z M 694.32617 309.19141 L 724.4668 309.19141 L 724.4668 324.79102 L 698.97852 323.01367 L 698.91016 388.30859 L 717.48828 391.87109 L 717.45508 408.51758 L 698.89258 403.57031 L 698.81836 471.86133 L 724.4668 482.00195 L 724.4668 495.91406 C 714.62061 490.93153 704.59203 486.24339 694.32617 481.96289 L 694.32617 309.19141 z M 478.97656 309.50586 C 484.7764 310.36426 487.57507 312.51114 489.34961 314.91602 C 490.67402 316.78102 491.57051 319.02261 492.14648 321.38281 L 487.54688 321.70117 C 487.22775 320.09141 486.79249 318.43947 486.01562 316.72852 L 485.98828 316.66602 L 485.95703 316.60352 C 484.68689 313.93929 482.14811 311.24805 478.97656 309.50586 z M 537.26562 309.55273 C 538.89547 309.9835 540.25903 310.51391 541.33008 311.10352 C 543.89068 312.51311 545.54466 314.30263 546.57812 315.98828 L 546.63281 316.07617 L 546.68945 316.16211 C 547.9286 318.06383 548.66663 320.36328 548.82031 323.08203 L 548.82031 329.22852 L 544.98047 329.22852 L 544.98047 322.89258 C 544.98047 318.44969 542.59174 313.46688 539.18164 310.73633 L 539.05859 310.63672 L 538.93164 310.54297 C 538.35934 310.12291 537.81475 309.84631 537.26562 309.55273 z M 464.875 310.21094 C 463.24643 311.27111 461.79497 312.552 460.85156 314.08789 C 458.58738 317.77402 458.24805 321.51491 458.24805 325.17383 C 458.24805 331.59552 461.52405 336.30784 464.86914 340.60547 C 468.26775 344.97179 472.29111 349.01303 476.10156 353.14258 C 480.71969 358.16049 485.18941 363.19076 488.3457 367.70312 C 491.43066 372.11348 492.96484 375.89427 492.96484 379.16211 C 492.96484 384.7653 491.75919 388.94143 489.16406 391.75781 C 487.37683 393.69743 484.65802 395.32751 480.26758 396.23828 C 482.20304 395.12635 483.91271 393.6924 485.0625 391.95898 C 487.61687 388.10802 488.17969 383.93738 488.17969 379.84766 C 488.17969 373.15606 484.74935 368.63091 481.45117 364.24219 L 481.2832 364.01758 L 481.09766 363.80664 C 479.5342 362.0212 477.81485 359.91519 475.78125 357.67578 L 475.71875 357.60938 L 475.65625 357.54297 C 471.80174 353.50048 467.5707 348.90841 463.15625 343.91211 C 459.13164 339.35704 456.30023 334.87793 454.64453 330.56836 L 454.58984 330.42969 L 454.53125 330.29492 C 453.8076 328.6126 453.46289 326.89309 453.46289 325.17383 C 453.46289 321.24235 454.6433 317.35219 457.34375 314.48438 C 459.11684 312.68564 461.54078 311.18463 464.875 310.21094 z M 641.29102 311.42578 L 641.26172 319.30078 L 641.10352 363.24609 L 647.46289 364.24414 C 650.96777 364.79489 654.15672 365.0636 657.44531 364.55664 C 660.7 364.05491 664.2372 362.45281 666.63867 359.70117 C 671.54774 354.21543 671.35404 347.91828 671.36914 340.30859 C 671.38431 332.6672 671.24622 326.19425 667.31445 320.35352 L 667.30469 320.33789 L 667.29297 320.32031 C 663.39868 314.59856 656.45248 312.22047 649.1543 311.83789 L 641.29102 311.42578 z M 440.91797 312.97266 C 439.26407 317.01533 438.46289 321.21862 438.46289 325.17383 C 438.46289 328.91201 439.23507 332.64683 440.73242 336.15234 C 443.18726 342.45182 447.03326 348.32159 451.91406 353.8457 C 455.93518 358.39682 459.71713 362.46767 463.31641 366.27539 L 436.23828 368.15234 L 426.96094 335.73047 L 440.91797 312.97266 z M 529.80664 322.44336 C 530.29796 322.83677 530.19251 322.59172 530.08203 322.6543 C 530.06113 322.63908 530.07851 322.65277 530.05664 322.63672 L 529.80664 322.44336 z M 586.82617 326.6875 L 585.58203 333.0918 L 585.01367 336.02539 L 578.08008 378.14453 L 609.39453 381.69336 L 602 336.16211 L 600.30469 327.40039 L 586.82617 326.6875 z M 394.76562 333.31055 L 394.04492 334.90039 L 394.75391 333.3125 L 394.76562 333.31055 z M 495.08984 336.21484 L 495.08984 352.01953 C 492.50382 348.92997 489.82021 345.90058 487.13086 342.97852 L 487.12891 342.97461 L 487.125 342.9707 C 485.09342 340.769 483.66267 339.08072 481.87109 337.13086 L 495.08984 336.21484 z M 656.19531 337.69141 C 656.23789 338.64009 656.37133 339.17361 656.36914 340.27734 C 656.36708 341.3158 656.23014 341.67518 656.17773 342.54102 L 656.19531 337.69141 z M 398.91992 366.47656 L 400.17969 370.79297 L 399.98242 370.82812 L 398.91992 366.47656 z M 410.79297 367.92969 L 410.33789 368.99414 L 410.32031 368.99805 L 410.79297 367.92969 z M 470.51367 374.97656 C 472.22193 377.67753 473.17969 379.94088 473.17969 379.84766 C 473.17969 382.012 472.73614 383.22976 472.61523 383.49805 C 472.54244 383.48231 472.65241 383.44727 472.4668 383.44727 C 471.59672 383.44727 471.8401 383.37321 471.9707 383.47266 C 472.10131 383.5721 471.92135 383.50711 471.59961 382.69727 L 471.50977 382.47266 L 471.40625 382.25586 C 470.97831 381.35263 470.6009 378.42846 470.51367 374.97656 z M 544.98047 375.875 L 548.82031 375.875 L 548.82031 382.04492 C 548.66309 384.92051 547.92917 387.17552 546.68945 389.07812 L 546.63281 389.16406 L 546.57812 389.25195 C 545.60274 390.84285 544.01371 392.52271 541.33008 394 L 541.24023 394.05078 L 541.15039 394.10352 C 539.96303 394.80073 538.31254 395.39659 536.23828 395.83398 C 537.00059 395.53656 537.80434 395.33575 538.50391 394.90039 C 540.88908 393.41605 542.41897 391.23136 543.31641 389.41016 C 544.76837 386.76683 544.98047 384.26194 544.98047 382.21289 L 544.98047 375.875 z M 455.875 381.82617 C 456.1858 383.97278 456.72805 386.1795 457.76172 388.43164 C 458.75192 390.85541 460.30397 393.44314 462.88477 395.4082 C 463.54156 395.9083 464.36716 396.15972 465.11523 396.53711 C 458.94675 395.61743 456.07398 393.46727 454.20508 390.97266 C 452.63097 388.87151 451.80584 385.72185 451.28516 382.14453 L 455.875 381.82617 z M 530.29688 382.43555 C 530.34911 382.46845 530.2888 382.42698 530.3457 382.46875 L 530.61914 382.67969 C 530.34545 382.45871 530.27827 382.49768 530.25391 382.47461 C 530.27031 382.45529 530.27874 382.45609 530.29688 382.43555 z M 499.54297 397.0918 C 499.55565 397.11248 499.57904 397.13166 499.5918 397.15234 C 499.61527 397.18875 499.63064 397.22932 499.6543 397.26562 L 499.54297 397.0918 z M 559.36719 397.0918 L 559.25586 397.26562 C 559.28031 397.22809 559.29606 397.18608 559.32031 397.14844 C 559.33272 397.12833 559.35485 397.11192 559.36719 397.0918 z "
           id="path1099" />
      </g>
      <g
         id="g1101"
         style="opacity:1;fill:#ffff00">
        <path
           style="color:#000000;font-style:normal;font-variant:normal;font-weight:normal;font-stretch:normal;font-size:medium;line-height:normal;font-family:sans-serif;font-variant-ligatures:normal;font-variant-position:normal;font-variant-caps:normal;font-variant-numeric:normal;font-variant-alternates:normal;font-variant-east-asian:normal;font-feature-settings:normal;font-variation-settings:normal;text-indent:0;text-align:start;text-decoration:none;text-decoration-line:none;text-decoration-style:solid;text-decoration-color:#000000;letter-spacing:normal;word-spacing:normal;text-transform:none;writing-mode:lr-tb;direction:ltr;text-orientation:mixed;dominant-baseline:auto;baseline-shift:baseline;text-anchor:start;white-space:normal;shape-padding:0;shape-margin:0;inline-size:0;clip-rule:nonzero;display:inline;overflow:visible;visibility:visible;isolation:auto;mix-blend-mode:normal;color-interpolation:sRGB;color-interpolation-filters:linearRGB;solid-color:#000000;solid-opacity:1;vector-effect:none;fill:#ffff00;fill-opacity:1;fill-rule:evenodd;stroke:none;stroke-width:15;stroke-linecap:square;stroke-linejoin:miter;stroke-miterlimit:4;stroke-dasharray:none;stroke-dashoffset:0;stroke-opacity:1;color-rendering:auto;image-rendering:auto;shape-rendering:auto;text-rendering:auto;enable-background:accumulate;stop-color:#000000;stop-opacity:1"
           d="M 278.48828,291.23047 V 301.23047 V 524.89258 L 293.25,516.89844 C 297.89694,514.38222 302.60386,511.94874 307.36719,509.59375 L 307.44922,509.55273 L 318.45117,503.86133 V 454.68164 L 328.96484,450.35547 L 329.12109,450.28906 L 329.12891,450.28711 C 331.43555,449.30062 333.75247,448.33151 336.08008,447.38281 L 342.26953,444.86133 L 342.33203,433.35156 L 344.98828,443.72266 L 355.30469,440.0625 C 362.15404,437.63296 369.07755,435.36612 376.06836,433.26172 L 378.90039,432.4082 L 381.75195,431.5918 C 388.37321,429.69347 395.04922,427.94056 401.77344,426.33789 L 409.49609,424.49805 L 409.42969,411.37891 L 413.03125,423.71289 L 421.96289,422 C 428.45224,420.75596 434.97596,419.65013 441.52734,418.68164 L 452.81836,417.01172 L 450.8125,410 C 456.70567,412.91297 463.99262,414.51367 472.4668,414.51367 C 485.15378,414.51367 495.30251,410.68843 501.77344,403.83398 C 503.75489,405.83918 506.06558,407.71354 508.83789,409.25586 C 513.89705,412.19393 519.81392,413.59414 526.43945,413.92188 L 526.49219,413.92383 L 526.8457,413.9375 C 527.67021,413.9727 528.53793,413.99609 529.45508,413.99609 C 537.35032,413.99609 544.21356,412.55512 549.90234,409.24609 C 550.09768,409.13741 550.26508,409.00611 550.45703,408.89453 L 549.26367,415.13672 L 560.06836,416.28711 C 566.44193,416.96553 572.79717,417.77505 579.12695,418.71289 L 588.83594,420.15039 L 592.30078,399.43555 L 594.4707,399.74219 L 597.94922,421.84375 L 604.73438,423.24023 C 611.12468,424.55586 617.47704,426.00523 623.78711,427.58594 L 624.23828,427.69922 L 625.49609,428.01953 C 631.95403,429.66479 638.36395,431.446 644.7207,433.36523 L 657.35156,437.17969 L 658.34961,386.26367 C 664.71107,386.12828 671.06794,384.77601 676.82617,381.2793 V 493.61523 L 683.08203,496.14062 C 698.26433,502.27266 712.99894,509.20562 727.20508,516.89844 L 741.9668,524.89258 V 470.10352 L 716.33203,459.9668 L 716.36914,426.33789 L 734.91016,431.28125 L 735.01562,377.41406 L 716.42578,373.84961 L 716.45898,341.77734 L 741.9668,343.55664 V 291.69141 H 676.82617 V 299.28906 C 670.97784,294.90679 664.34,292.39142 657.8457,291.35547 L 657.0625,291.23047 H 618.72852 L 618.66797,301.16992 L 618.57227,317.08203 L 614.04102,291.41797 H 572.93164 L 571.37695,299.53906 L 566.32031,325.97266 V 322.47461 L 566.30664,322.20898 C 566.01813,316.77869 564.43314,311.40148 561.41602,306.72461 C 558.87299,302.62099 555.01532,298.6612 549.76953,295.77344 C 545.21121,293.26412 539.69106,291.70231 533.32617,291.25586 L 532.97656,291.23047 H 525.91992 L 525.57422,291.25391 C 519.18499,291.6985 513.6143,293.20857 508.95508,295.77344 C 505.78475,297.51869 503.34068,299.70126 501.25391,301.97461 C 494.92037,295.35809 484.78241,291.463 472.16797,291.60547 H 472.15234 L 472.13672,291.60742 C 465.42299,291.70407 459.53217,293.25399 454.46875,295.6582 L 457.18359,291.23047 H 411.0918 L 408.67773,296.55664 L 408.61328,291.23047 H 383.18555 H 368.99609 H 344.64453 V 309.78906 L 339.13477,291.23047 H 318.45117 H 304.19141 Z M 497.55859,306.60938 C 497.5254,306.66032 497.50356,306.71646 497.4707,306.76758 C 497.45559,306.79207 497.42711,306.81733 497.41211,306.8418 Z M 324.19141,311.23047 H 324.20898 L 335.73047,350.0332 L 324.19141,351.87891 Z M 638.60742,311.23047 H 638.79102 L 638.76172,319.29297 L 638.5957,365.38281 L 638.75391,365.4082 L 638.07422,400.0625 Z M 589.46875,311.41797 H 597.26367 L 599.63672,324.86133 L 587.02344,324.19531 Z M 696.82617,311.69141 H 721.9668 V 322.11133 L 696.82617,320.35742 Z M 512.73633,322.33398 V 382.53711 L 512.75781,382.86133 C 512.81197,383.69607 513.03412,384.52866 513.2168,385.36328 C 512.88831,384.37409 512.66475,383.26185 512.58984,381.93945 V 323.19141 C 512.60837,322.87619 512.70009,322.63199 512.73633,322.33398 Z M 388.99609,323.17773 L 389.34375,351.91602 L 406.88086,349.07617 L 410.00391,342.07812 L 410.35352,341.30664 L 413.05273,350.74023 L 397.96875,353.41211 L 394.74609,360.94727 L 389.23242,373.40625 L 389.41602,408.91016 C 389.27582,408.94605 389.13625,408.98351 388.99609,409.01953 Z M 436.02148,325.73828 C 436.09505,329.6121 436.87944,333.47389 438.42188,337.09766 C 441.00927,343.72089 445.02006,349.81727 450.04102,355.5 C 452.83548,358.66279 455.35379,361.32117 457.96484,364.14062 L 438.08398,365.51758 L 429.66602,336.09961 Z M 393.04297,331.05664 L 391.76562,333.875 L 393.02148,331.06055 Z M 673.60547,332.38867 C 673.66113,332.73989 673.66165,333.18783 673.71094,333.55078 C 673.68962,333.1584 673.63532,332.77727 673.60547,332.38867 Z M 673.8125,334.97656 C 674.04572,337.09974 674.29297,339.20054 674.29297,341.72266 C 674.29297,355.38604 670.73543,361.09608 667.14258,363.80078 C 665.2543,365.1113 662.87639,365.95896 660.08594,366.29102 C 663.12563,365.42153 666.24043,363.94088 668.50195,361.36133 C 674.29935,354.88321 673.85378,348.04941 673.86914,340.3125 C 673.87277,338.48622 673.86868,336.71567 673.8125,334.97656 Z M 492.58984,338.89453 V 345.32812 C 491.37838,343.98 490.17415,342.59274 488.9707,341.28516 L 488.9668,341.2793 L 488.96289,341.27539 C 488.24957,340.50234 487.84836,340.01112 487.1582,339.27148 Z M 532.73633,346.72852 H 562.34961 L 560.12109,358.375 H 532.73633 Z M 413.30078,351.60742 L 427.37891,400.80078 C 427.31446,400.81186 427.24999,400.82288 427.18555,400.83398 L 415.82812,361.94531 Z M 360.48438,363.13867 H 360.48633 L 361.42188,366.29688 Z M 396.50391,367.125 L 398.4082,373.64648 L 398.11133,373.69922 Z M 413.08594,368.92773 L 412.10547,371.2207 L 412.06836,371.22656 Z M 363.18555,383.00977 V 416.44141 C 361.78558,416.88717 360.39466,417.35403 359,417.8125 L 350.75781,385.625 Z M 455.33594,389.1582 C 455.36678,389.23582 455.43088,389.32028 455.46289,389.39844 C 455.51723,389.51769 455.53506,389.6283 455.5918,389.74805 Z M 545.83984,390.04688 L 545.36914,390.95508 C 545.44827,390.81956 545.44033,390.70486 545.51367,390.57031 C 545.59615,390.40495 545.76801,390.20505 545.83984,390.04688 Z M 696.82617,390.45312 L 714.98438,393.9375 L 714.96094,405.26562 L 696.82617,400.43164 Z M 497.41211,398.39844 C 497.42702,398.42275 497.45374,398.44639 497.46875,398.4707 C 497.50201,398.52248 497.52498,398.57927 497.55859,398.63086 Z M 561.49805,398.39844 L 561.35156,398.63086 C 561.37653,398.59254 561.39319,398.55014 561.41797,398.51172 C 561.44196,398.47302 561.47428,398.4372 561.49805,398.39844 Z M 696.82617,473.76172 L 721.9668,483.70117 V 491.85156 C 713.72657,487.77476 705.35343,483.92228 696.82617,480.33008 Z"
           id="path1103" />
        <path
           style="color:#000000;font-style:normal;font-variant:normal;font-weight:normal;font-stretch:normal;font-size:medium;line-height:normal;font-family:sans-serif;font-variant-ligatures:normal;font-variant-position:normal;font-variant-caps:normal;font-variant-numeric:normal;font-variant-alternates:normal;font-variant-east-asian:normal;font-feature-settings:normal;font-variation-settings:normal;text-indent:0;text-align:start;text-decoration:none;text-decoration-line:none;text-decoration-style:solid;text-decoration-color:#000000;letter-spacing:normal;word-spacing:normal;text-transform:none;writing-mode:lr-tb;direction:ltr;text-orientation:mixed;dominant-baseline:auto;baseline-shift:baseline;text-anchor:start;white-space:normal;shape-padding:0;shape-margin:0;inline-size:0;clip-rule:nonzero;display:inline;overflow:visible;visibility:visible;isolation:auto;mix-blend-mode:normal;color-interpolation:sRGB;color-interpolation-filters:linearRGB;solid-color:#000000;solid-opacity:1;vector-effect:none;fill:#ffff00;fill-opacity:1;fill-rule:evenodd;stroke:none;stroke-width:15;stroke-linecap:square;stroke-linejoin:miter;stroke-miterlimit:4;stroke-dasharray:none;stroke-dashoffset:0;stroke-opacity:1;color-rendering:auto;image-rendering:auto;shape-rendering:auto;text-rendering:auto;enable-background:accumulate;stop-color:#000000;stop-opacity:1"
           d="M 270.98828 283.73047 L 270.98828 291.23047 L 270.98828 301.23047 L 270.98828 537.48242 L 296.82031 523.49414 C 301.38295 521.02357 306.00851 518.63163 310.69141 516.31641 L 310.70703 516.30859 L 310.84961 516.23828 L 325.95117 508.42578 L 325.95117 459.70508 L 331.85938 457.27539 L 331.50977 457.42383 L 331.52539 457.41992 L 332.07812 457.18359 C 334.34807 456.2128 336.6248 455.2596 338.91016 454.32812 L 348.26172 450.51953 L 357.8125 447.13086 C 364.54635 444.74229 371.35439 442.51322 378.23047 440.44336 L 381.01562 439.60352 L 383.81836 438.80078 C 390.33155 436.93344 396.89819 435.2091 403.51172 433.63281 L 413.38086 431.28125 L 423.375 429.36523 C 429.75866 428.14146 436.17811 427.05461 442.625 426.10156 L 462.38281 423.17773 L 461.78711 421.09766 C 465.19569 421.6543 468.72888 422.01367 472.4668 422.01367 C 483.84822 422.01367 494.0102 419.17134 501.83594 413.58594 C 502.89519 414.33844 503.93612 415.10258 505.13281 415.77148 C 511.4786 419.44106 518.63303 421.04431 526.06836 421.41211 L 526.11523 421.41406 L 526.20898 421.41797 L 526.55664 421.43164 C 527.45554 421.4697 528.42155 421.49609 529.45508 421.49609 C 533.30354 421.49609 537.02298 421.11746 540.61719 420.42383 L 540.36719 421.73242 L 559.27539 423.74414 C 565.54633 424.41164 571.79856 425.20994 578.02734 426.13281 L 591.3418 428.10352 L 591.34766 428.14258 L 603.22266 430.58594 C 609.50889 431.88014 615.75743 433.30633 621.96484 434.86133 L 622.40039 434.9707 L 623.64453 435.28711 C 629.99807 436.90577 636.30231 438.65779 642.55273 440.54492 L 664.65625 447.2207 L 665.7168 393.04297 C 666.91984 392.84706 668.12273 392.65424 669.32617 392.35742 L 669.32617 498.67578 L 680.27344 503.0957 C 695.198 509.12364 709.67701 515.93688 723.63281 523.49414 L 749.4668 537.48242 L 749.4668 465.00391 L 723.83789 454.86914 L 723.85938 436.0957 L 742.39062 441.03711 L 742.52734 371.21875 L 723.93164 367.65234 L 723.95117 349.81836 L 749.4668 351.59766 L 749.4668 284.19141 L 669.32617 284.19141 L 669.32617 286.75391 C 665.91268 285.45227 662.45093 284.49534 659.02734 283.94922 L 657.6582 283.73047 L 611.27344 283.73047 L 611.27148 283.91797 L 566.73047 283.91797 L 564.0625 297.84961 C 561.21116 294.58593 557.70033 291.57773 553.38672 289.20312 C 547.74386 286.09677 541.14288 284.28781 533.86914 283.77539 L 533.24805 283.73047 L 525.66602 283.73047 L 525.06055 283.77148 L 525.05273 283.77148 C 517.79146 284.27675 511.12012 286.02004 505.33789 289.20312 C 503.74131 290.08203 502.40009 291.0933 501.08008 292.10547 C 493.36574 286.76037 483.34183 283.97832 472.08398 284.10547 L 471.68555 284.10547 L 471.23047 284.16211 C 470.90516 284.17184 470.59587 284.21484 470.27344 284.23047 L 470.58008 283.73047 L 416.02344 283.73047 L 406.25586 283.73047 L 383.18555 283.73047 L 368.99609 283.73047 L 344.73242 283.73047 L 337.14453 283.73047 L 318.45117 283.73047 L 304.19141 283.73047 L 270.98828 283.73047 z M 401.17773 296.64648 L 415.50977 299.65234 L 415.92773 298.73047 L 443.78711 298.73047 L 443.0332 299.96289 L 439.70703 305.38477 L 429.62891 321.81641 L 421.54688 334.99023 L 432.54492 373.41992 L 474.11328 370.54102 L 463.4668 359.04492 C 460.81915 356.18595 458.35692 353.58321 455.66211 350.5332 C 451.09122 345.35986 447.60731 339.99844 445.4082 334.36914 L 445.36719 334.26367 L 445.32227 334.16016 C 444.17298 331.46005 443.57568 328.55226 443.51953 325.5957 L 443.21094 309.30664 L 457.68555 302.43359 C 461.84114 300.46044 466.62121 299.18837 472.24414 299.10742 L 472.27344 299.10742 C 483.28692 298.9879 491.25338 302.37285 495.83594 307.16016 L 501.36914 312.94141 L 503.46484 310.6582 L 503.75781 310.83984 L 503.80664 310.76172 C 503.76947 310.82235 503.84291 310.70375 503.80859 310.75977 C 503.61821 311.07051 503.92139 310.57902 503.81836 310.74805 C 503.79619 310.78072 503.89332 310.62827 503.83008 310.72461 L 503.9043 310.60742 L 503.65625 310.44922 L 506.7793 307.04688 C 508.5104 305.16099 510.28953 303.60038 512.57227 302.34375 C 516.10847 300.39709 520.57851 299.12024 526.0957 298.73633 L 526.17383 298.73047 L 532.70508 298.73047 L 532.79297 298.73633 L 532.80078 298.73828 C 538.24971 299.12048 542.68322 300.43402 546.15234 302.34375 C 550.22151 304.58379 553.14896 307.62262 555.04102 310.67578 L 555.07617 310.73242 L 555.11328 310.79102 C 557.35942 314.27278 558.59119 318.36843 558.81641 322.60742 L 558.82031 322.66797 L 558.82031 325.97266 L 573.6875 327.38086 L 578.74414 300.94922 L 579.13281 298.91797 L 607.75 298.91797 L 611.18555 318.38672 L 626.07227 317.12695 L 626.16797 301.21484 L 626.18359 298.73047 L 656.4668 298.73047 L 656.66406 298.76172 C 662.07846 299.62541 667.55701 301.71593 672.32812 305.29102 L 684.32617 314.28125 L 684.32617 299.19141 L 734.4668 299.19141 L 734.4668 335.51562 L 708.9668 333.73633 L 708.91992 380.04688 L 727.50391 383.60938 L 727.42969 421.52539 L 708.88086 416.58008 L 708.82617 465.06445 L 734.4668 475.20312 L 734.4668 512.30078 L 730.77734 510.30273 C 716.32087 502.47435 701.33067 495.42169 685.89062 489.18555 L 684.32617 488.55469 L 684.32617 367.95117 L 672.93359 374.86914 C 668.53528 377.54003 663.59504 378.65058 658.18945 378.76562 L 650.99219 378.91797 L 650.04688 427.13867 L 646.88867 426.18555 C 640.4256 424.23422 633.91 422.42381 627.34766 420.75195 L 626.07617 420.42773 L 625.61133 420.31055 L 625.60938 420.31055 C 619.19665 418.70412 612.74046 417.23159 606.24609 415.89453 L 604.55078 415.54492 L 601.01562 393.0918 L 586.10938 390.98633 L 582.65234 411.65234 L 580.22656 411.29297 L 580.22461 411.29297 C 573.7951 410.34038 567.33819 409.51931 560.86328 408.83008 L 560.86133 408.83008 L 558.16016 408.54297 L 560.18555 397.95117 L 567.63477 402.72461 C 568.0122 402.14539 567.78623 402.48667 567.69141 402.62695 L 567.69727 402.63086 L 567.84375 402.39844 L 567.83789 402.39453 C 567.83992 402.3968 567.60854 402.77834 567.89062 402.31836 L 560.25781 397.57227 L 560.91406 394.14062 L 557.72266 395.99609 L 555.15234 394.39844 L 555.08398 394.50586 L 555.00586 394.63086 L 557.41406 396.17383 L 546.6875 402.41016 C 545.92341 402.85432 545.79933 402.9454 546.25586 402.69141 L 546.19336 402.72656 L 546.13086 402.76367 C 541.89033 405.23029 536.43776 406.49609 529.45508 406.49609 C 528.66544 406.49609 527.90795 406.47503 527.16602 406.44336 L 527.15039 406.44336 L 526.80469 406.43164 C 521.01484 406.14454 516.36012 404.95115 512.60352 402.76953 L 512.54492 402.73633 L 512.48438 402.70117 C 510.42079 401.55313 508.68226 400.15622 507.10742 398.5625 L 503.48828 394.89844 L 503.9043 394.63281 L 503.83008 394.51562 C 503.88315 394.59649 503.7984 394.4616 503.82031 394.49414 C 503.89107 394.61077 503.63385 394.19708 503.80859 394.48242 C 503.88283 394.60364 503.71162 394.32481 503.80469 394.47656 L 503.75781 394.40039 L 503.28516 394.69336 L 501.65039 393.03906 L 496.32031 398.68555 C 495.84025 399.19407 495.18236 399.5986 494.63672 400.07031 L 491.01953 402.32031 C 491.79808 403.58969 491.51868 403.1197 491.07422 402.39258 L 491.06641 402.39648 L 491.18555 402.58594 C 486.51386 405.30994 480.33994 407.01367 472.4668 407.01367 C 464.93707 407.01367 458.80665 405.58567 454.13672 403.27734 L 438.93945 395.76562 L 443.25391 410.84375 L 440.42969 411.26172 C 433.77381 412.24566 427.14582 413.37046 420.55078 414.63477 L 418.31836 415.0625 L 416.62891 409.27734 L 401.92969 411.41602 L 401.9668 418.58203 L 400.03516 419.04297 C 393.20024 420.67202 386.41488 422.4535 379.68555 424.38281 L 379.6875 424.38086 L 376.78516 425.21289 L 373.9043 426.08008 C 366.79936 428.21886 359.76115 430.52384 352.79688 432.99414 L 350.2168 433.91016 L 349.59766 431.49023 L 334.83203 433.31055 L 334.79688 439.80664 L 333.25 440.4375 C 331.07647 441.3234 328.91681 442.22986 326.76562 443.14648 L 326.73242 443.1543 L 326.07031 443.43555 L 310.95117 449.6582 L 310.95117 499.29688 L 304.04883 502.86719 L 304.04297 502.87109 C 299.1992 505.26585 294.41093 507.74087 289.67969 510.30273 L 289.67773 510.30273 L 285.98828 512.30078 L 285.98828 301.23047 L 285.98828 298.73047 L 304.19141 298.73047 L 318.45117 298.73047 L 333.53711 298.73047 L 337.45508 311.92383 L 352.14453 309.78906 L 352.14453 298.73047 L 368.99609 298.73047 L 383.18555 298.73047 L 401.20312 298.73047 L 401.17773 296.64648 z M 472.65625 299.10156 L 472.61914 299.10547 L 472.38086 299.10547 L 472.65625 299.10156 z M 567.71875 302.6582 L 567.79102 302.77344 C 567.77949 302.75484 567.76352 302.73734 567.75195 302.71875 C 567.73937 302.69917 567.73137 302.67777 567.71875 302.6582 z M 316.69141 303.73047 L 316.69141 311.23047 L 316.69141 360.67383 L 345.35156 356.08984 L 329.80664 303.73047 L 316.69141 303.73047 z M 631.15234 303.73047 L 631.10742 311.18555 L 630.57422 400.01758 L 645.57227 400.20898 L 645.57422 400.10742 L 646.38086 359.03711 L 646.11914 358.99414 L 646.26172 319.32031 L 646.31836 303.73047 L 631.15234 303.73047 z M 583.26758 303.91797 L 582.10156 310.00781 L 578.04102 331.23242 L 608.66211 332.84766 L 603.55664 303.91797 L 583.26758 303.91797 z M 689.32617 304.19141 L 689.32617 311.69141 L 689.32617 327.35156 L 729.4668 330.15234 L 729.4668 304.19141 L 689.32617 304.19141 z M 411.94922 319.61719 L 403.16406 339.00195 L 401.68359 342.32031 L 396.73828 343.12109 L 396.67578 338.01758 L 396.49609 338.05078 L 396.49609 336.02539 L 396.6543 336.0957 L 396.65234 336.04883 L 398.61523 336.93164 L 405.7832 321.11523 L 394.89062 323.09766 L 381.49609 323.17773 L 381.49609 323.26758 L 381.49609 418.69141 L 390.86328 416.2832 C 391.05503 416.23393 391.19133 416.1973 391.27539 416.17578 L 396.94531 414.72461 L 396.77344 381.55469 L 407.95117 379.56836 L 407.92383 379.47461 L 412.9043 378.6875 L 421.86328 409.36133 L 428.45898 408.22461 C 428.5171 408.2146 428.58123 408.2033 428.65039 408.19141 L 436.89062 406.77539 L 420.51172 349.54297 L 411.94922 319.61719 z M 505.29102 321.42773 C 505.37857 320.70778 505.19381 321.21591 505.10352 322.75195 L 505.08984 322.9707 L 505.08984 382.15234 L 505.10156 382.36328 C 505.1196 382.68174 505.23465 382.9379 505.26562 383.25 L 505.27344 383.34766 C 505.39253 385.18315 505.75673 386.35508 505.89062 386.9668 L 505.95508 386.94922 C 506.02497 387.19195 506.02168 387.4919 506.09961 387.72656 L 520.54297 383.75977 C 520.3115 382.70224 520.23142 382.20899 520.24219 382.375 L 520.24219 382.37109 L 520.23633 382.28906 L 520.23633 322.33398 L 505.29102 321.42773 z M 500.08984 330.85547 L 492.07031 331.41211 L 470.93555 332.87891 L 481.67383 344.38867 C 482.22165 344.97577 482.61515 345.45339 483.44727 346.35547 C 483.44945 346.35784 483.44898 346.35895 483.45117 346.36133 L 483.45312 346.36328 L 483.46094 346.37305 C 483.48378 346.39787 483.51224 346.43011 483.53516 346.45508 L 483.55273 346.47266 C 484.62857 347.64561 485.77729 348.96812 487.01172 350.3418 L 500.08984 364.89453 L 500.08984 330.85547 z M 681.01367 331.21484 L 666.12695 332.96289 C 666.18132 333.67064 666.22449 333.99081 666.22266 333.95703 L 666.23047 333.95703 C 666.22964 334.05933 666.18312 333.85231 666.2793 334.56055 L 681.19922 333.14453 C 681.15474 332.32599 681.08932 331.88391 681.08398 331.81445 L 681.07227 331.81641 C 681.05382 331.57735 681.1084 331.81261 681.01367 331.21484 z M 681.26758 334.1582 L 666.31641 335.21875 C 666.36766 336.80542 666.37273 338.49143 666.36914 340.29688 C 666.35319 348.3305 666.83618 351.97672 662.91406 356.35938 L 662.88672 356.38867 L 662.86328 356.41797 C 661.9143 357.5004 660.2011 358.45717 658.02344 359.08008 L 660.97266 373.73828 C 661.37549 373.69034 661.74431 373.53584 662.14258 373.4707 L 662.14844 373.50195 C 662.20767 373.48501 662.27447 373.44314 662.33398 373.42578 C 665.60199 372.86669 668.73147 371.8274 671.41797 369.96289 L 671.53711 369.87891 L 671.65234 369.79297 C 677.39682 365.46852 681.79297 356.68789 681.79297 341.72266 C 681.79297 338.94681 681.52731 336.72961 681.30859 334.75195 C 681.30804 334.74699 681.30914 334.73933 681.30859 334.73438 L 681.30664 334.73438 C 681.28858 334.57107 681.28502 334.317 681.26758 334.1582 z M 525.23633 339.22852 L 525.23633 346.72852 L 525.23633 365.875 L 566.32227 365.875 L 571.41992 339.22852 L 525.23633 339.22852 z M 431.43555 339.82617 C 431.45534 339.87685 431.48202 339.924 431.50195 339.97461 C 431.51033 339.99437 431.51308 340.0154 431.52148 340.03516 L 431.43555 339.82617 z M 350.43555 355.63867 L 353.29492 365.27344 L 354.23047 368.42773 L 364.38086 365.41602 L 364.37695 365.42188 L 368.61328 364.16602 L 368.61133 364.16211 L 366.08594 355.63867 L 350.43555 355.63867 z M 407.4707 359.3457 L 408.58203 363.88867 L 408.66406 364.17188 L 409.07617 364.10547 L 410.06445 367.5625 L 409.5957 367.35742 L 409.62891 367.47461 L 406.18945 365.97852 L 404.85938 368.98438 L 403.75391 365.19531 L 403.78906 365.34375 L 400.62695 366.19141 L 400.79883 365.80273 L 396.69922 366.90039 L 397.0957 366.26172 L 400.89453 365.58789 L 401.62305 363.93945 L 403.26953 360.08984 L 407.4707 359.3457 z M 403.70312 365.02344 L 402.98828 365.21484 L 403.7207 365.08398 L 403.70312 365.02344 z M 674.14062 366.30469 L 674.08984 366.36328 C 674.10118 366.35061 674.10784 366.33689 674.11914 366.32422 C 674.12579 366.31666 674.13398 366.31227 674.14062 366.30469 z M 370.68555 373.76758 L 361.64062 375.66992 L 341.54883 379.89844 L 353.72461 427.44141 L 361.3418 424.9375 C 362.76602 424.46931 364.13507 424.01006 365.46094 423.58789 L 370.68555 421.92383 L 370.68555 373.76758 z M 689.32617 381.37695 L 689.32617 390.45312 L 689.32617 406.19336 L 722.44141 415.02148 L 722.49805 387.74219 L 689.32617 381.37695 z M 539.5332 385.76953 C 539.48794 385.84476 539.23386 386.35831 538.80273 387.22266 L 538.92773 386.98047 C 538.79652 387.2212 538.83815 387.22107 538.74609 387.43555 L 538.71094 387.50391 L 538.7168 387.50781 C 538.47526 388.0911 538.21146 388.77415 538.20898 388.7832 C 538.20624 388.79323 538.45821 388.12978 538.74414 387.52148 L 551.8457 394.73633 C 551.94372 394.56845 551.91308 394.54845 551.99219 394.38672 L 552.02734 394.40625 L 552.49805 393.49805 L 552.47266 393.48633 C 552.58594 393.29974 552.25031 394.06813 552.66797 393.14844 L 552.53711 393.08594 C 552.51963 393.14839 552.43719 393.31125 552.39062 393.44531 L 552.38477 393.44336 C 552.41949 393.33733 552.51596 393.15048 552.53516 393.08398 L 539.18164 386.5957 L 539.07812 386.79492 C 539.37688 386.13609 539.57268 385.70392 539.5332 385.76953 z M 462.2168 386.17383 L 448.36523 391.92773 C 448.80462 393.0336 448.5695 392.41407 448.46875 392.13672 L 448.45508 392.14258 L 448.71094 392.73242 L 448.72461 392.72656 C 448.74366 392.79142 448.52544 392.34901 448.81445 392.95898 L 462.47266 386.76367 L 462.35156 386.48633 C 462.398 386.58215 462.32199 386.41172 462.33789 386.44141 C 462.37201 386.53039 462.24696 386.22608 462.32031 386.41211 L 462.2168 386.17383 z M 553.67383 415.72852 L 553.54883 415.80078 C 553.65693 415.74064 553.5473 415.79627 553.63477 415.74609 C 553.64718 415.73889 553.66142 415.73573 553.67383 415.72852 z M 689.32617 462.73242 L 689.32617 473.76172 L 689.32617 485.30859 L 693.91406 487.24219 C 702.29208 490.77152 710.52713 494.56012 718.64062 498.57422 L 729.4668 503.92969 L 729.4668 478.60156 L 689.32617 462.73242 z "
           id="path1105" />
      </g>
    </g>
    <g
       id="g1083"
       transform="scale(0.26458333)"
       style="opacity:1;fill:#1a1a1a">
      <path
         style="color:#000000;font-style:normal;font-variant:normal;font-weight:normal;font-stretch:normal;font-size:medium;line-height:normal;font-family:sans-serif;font-variant-ligatures:normal;font-variant-position:normal;font-variant-caps:normal;font-variant-numeric:normal;font-variant-alternates:normal;font-variant-east-asian:normal;font-feature-settings:normal;font-variation-settings:normal;text-indent:0;text-align:start;text-decoration:none;text-decoration-line:none;text-decoration-style:solid;text-decoration-color:#000000;letter-spacing:normal;word-spacing:normal;text-transform:none;writing-mode:lr-tb;direction:ltr;text-orientation:mixed;dominant-baseline:auto;baseline-shift:baseline;text-anchor:start;white-space:normal;shape-padding:0;shape-margin:0;inline-size:0;clip-rule:nonzero;display:inline;overflow:visible;visibility:visible;isolation:auto;mix-blend-mode:normal;color-interpolation:sRGB;color-interpolation-filters:linearRGB;solid-color:#000000;solid-opacity:1;vector-effect:none;fill:#1a1a1a;fill-opacity:1;fill-rule:evenodd;stroke:none;stroke-width:20;stroke-linecap:square;stroke-linejoin:miter;stroke-miterlimit:4;stroke-dasharray:none;stroke-dashoffset:0;stroke-opacity:1;color-rendering:auto;image-rendering:auto;shape-rendering:auto;text-rendering:auto;enable-background:accumulate;stop-color:#000000;stop-opacity:1"
         d="M 288.48828,301.23047 V 508.10547 C 293.24666,505.52891 298.06396,503.03742 302.93555,500.62891 L 308.45117,497.77539 V 301.23047 Z M 314.19141,301.23047 V 445.62109 L 325.10547,441.13086 C 325.10547,441.13086 325.19727,441.0918 325.19727,441.0918 C 327.55643,440.08285 329.92632,439.09323 332.30664,438.12305 L 332.73242,360.64062 L 333.85547,360.46094 L 335.54102,366.51172 L 351.96094,430.63867 C 358.96324,428.15487 366.04067,425.83633 373.18555,423.68555 V 301.23047 H 354.64453 V 374.58789 L 353.52148,374.82422 L 351.83594,369.14258 L 331.67188,301.23047 Z M 378.99609,301.23047 V 421.97852 C 385.76279,420.03849 392.58465,418.24885 399.45508,416.61133 L 399.24414,375.49609 L 403.91602,364.9375 L 405.03711,362.31641 L 405.59961,362.2168 L 406.16602,364.53516 L 420.08008,412.17969 C 426.70934,410.90883 433.37274,409.77829 440.06445,408.78906 L 418.8418,334.62109 L 439.32031,301.23047 H 417.53906 L 400.88477,337.97656 L 399.95117,340.06836 L 399.20312,340.18945 L 398.73242,301.23047 Z M 526.26758,301.23047 C 521.06779,301.5923 516.89462,302.81716 513.77734,304.5332 C 510.04434,306.5882 507.61735,309.32835 505.9375,312.06836 C 503.91083,315.17869 502.79783,318.8255 502.58984,322.74023 V 382.37109 C 502.798,386.41712 503.91103,390.06184 505.9375,393.17188 C 507.61735,395.91187 510.04434,398.51535 513.77734,400.57031 C 517.02912,402.47975 521.41573,403.66065 526.93359,403.93359 C 526.93359,403.93359 527.23438,403.94531 527.23438,403.94531 C 527.95756,403.97659 528.69352,403.99609 529.45508,403.99609 C 536.17451,403.99609 541.21426,402.76233 544.94727,400.57031 C 548.6803,398.51535 551.29277,395.91187 552.97266,393.17188 C 554.99912,390.06184 556.11216,386.41712 556.32031,382.37109 V 368.375 H 537.48047 V 382.21289 C 537.48047,383.7199 537.2943,384.95317 536.73438,385.91211 C 535.8011,387.96715 534.1211,389.61133 529.82812,389.61133 C 528.14829,389.61133 526.84148,389.20063 525.9082,388.51562 C 524.04172,387.00866 522.923,385.08987 522.73633,382.21289 V 322.89258 C 522.923,321.52257 523.10799,320.28937 523.66797,319.19336 C 524.60121,317.41237 526.28177,315.49414 529.82812,315.49414 C 531.88132,315.49414 533.5609,315.90486 534.49414,316.58984 C 536.54729,318.23385 537.48047,320.15257 537.48047,322.89258 V 336.72852 H 556.32031 V 322.74023 C 556.11232,318.8255 554.99933,315.17869 552.97266,312.06836 C 551.29277,309.32835 548.6803,306.5882 544.94727,304.5332 C 541.8298,302.81706 537.78427,301.59222 532.62695,301.23047 Z M 628.66797,301.23047 L 627.96484,418.32812 C 634.56366,420.00927 641.11445,421.83143 647.61133,423.79297 L 648.55859,375.50586 C 657.39804,377.353 666.24202,376.70654 673.01758,371.91211 C 679.78531,366.89954 684.29297,357.40135 684.29297,341.72266 C 684.29297,326.044 679.80809,315.42099 673.08594,309 C 668.28248,304.56237 662.42528,302.21242 656.26953,301.23047 Z M 581.19922,301.41797 L 561.12695,406.34375 C 567.63639,407.03664 574.12644,407.86238 580.5918,408.82031 L 584.04492,388.17383 L 603.19727,390.87305 L 606.75,413.44531 C 613.27841,414.78937 619.7692,416.26961 626.2168,417.88477 L 605.65234,301.41797 Z M 472.28125,301.60547 C 462.76206,301.74251 456.22852,304.8944 451.93555,309.2793 C 447.64257,313.80124 445.96289,319.6927 445.96289,325.17383 C 445.96289,327.91438 446.52267,330.65428 447.64258,333.25781 C 449.69573,338.6019 453.05555,343.80887 457.53516,348.87891 C 462.01477,353.94896 466.30884,358.60791 470.22852,362.71875 C 472.09504,364.77417 473.77523,366.82969 475.45508,368.74805 C 478.44147,372.72189 480.67969,376.559 480.67969,379.84766 C 480.67969,386.28801 478.43962,390.94727 472.4668,390.94727 C 468.17386,390.94727 465.93545,388.75548 464.62891,385.4668 C 463.13569,382.31516 462.94922,378.06619 462.94922,373.81836 L 443.16406,375.18945 C 443.16406,382.72599 444.09683,389.9876 448.20312,395.46875 C 452.30947,400.9499 459.58791,404.51367 472.4668,404.51367 C 483.47921,404.51367 490.38675,401.49879 494.67969,396.83984 C 498.97266,392.18086 500.46484,385.87648 500.46484,379.16211 C 500.46484,373.68097 498.03856,368.47431 494.49219,363.4043 C 490.94582,358.33427 486.27956,353.1267 481.61328,348.05664 C 477.69365,343.80878 473.77354,339.83483 470.78711,335.99805 C 467.80072,332.16126 465.74805,328.59954 465.74805,325.17383 C 465.74805,319.28163 467.42808,315.30694 472.6543,315.16992 C 475.82736,315.16992 477.88096,317.0895 479.1875,319.83008 C 480.49408,322.70765 480.67969,326.40665 480.67969,329.69531 L 500.46484,328.32617 C 500.46484,322.708 499.34545,315.99283 495.42578,310.51172 C 491.50611,305.16761 484.41353,301.46845 472.28125,301.60547 Z M 686.82617,301.69141 V 486.86914 C 702.3519,493.13989 717.42667,500.23179 731.9668,508.10547 V 476.90234 L 706.32422,466.76367 L 706.38281,413.32812 L 724.93555,418.27344 L 725,385.67578 L 706.41602,382.11133 L 706.4707,331.05469 L 731.9668,332.83398 V 301.69141 Z M 648.76172,319.32812 C 654.93293,319.65162 658.85657,321.254 661.09375,324.54102 C 663.33233,327.86649 663.88354,333.03856 663.86914,340.29297 C 663.85474,347.54738 663.28294,352.24679 661.02539,354.74414 C 658.76622,357.38179 654.82167,357.80937 648.62695,356.83594 Z M 592.94531,334.52148 L 594.05469,334.58008 L 594.61523,337.47656 L 600.4043,373.12695 L 586.76172,371.58008 L 592.39648,337.34961 Z"
         id="path1085" />
      <path
         style="color:#000000;font-style:normal;font-variant:normal;font-weight:normal;font-stretch:normal;font-size:medium;line-height:normal;font-family:sans-serif;font-variant-ligatures:normal;font-variant-position:normal;font-variant-caps:normal;font-variant-numeric:normal;font-variant-alternates:normal;font-variant-east-asian:normal;font-feature-settings:normal;font-variation-settings:normal;text-indent:0;text-align:start;text-decoration:none;text-decoration-line:none;text-decoration-style:solid;text-decoration-color:#000000;letter-spacing:normal;word-spacing:normal;text-transform:none;writing-mode:lr-tb;direction:ltr;text-orientation:mixed;dominant-baseline:auto;baseline-shift:baseline;text-anchor:start;white-space:normal;shape-padding:0;shape-margin:0;inline-size:0;clip-rule:nonzero;display:inline;overflow:visible;visibility:visible;isolation:auto;mix-blend-mode:normal;color-interpolation:sRGB;color-interpolation-filters:linearRGB;solid-color:#000000;solid-opacity:1;vector-effect:none;fill:#1a1a1a;fill-opacity:1;fill-rule:evenodd;stroke:none;stroke-width:20;stroke-linecap:square;stroke-linejoin:miter;stroke-miterlimit:4;stroke-dasharray:none;stroke-dashoffset:0;stroke-opacity:1;color-rendering:auto;image-rendering:auto;shape-rendering:auto;text-rendering:auto;enable-background:accumulate;stop-color:#000000;stop-opacity:1"
         d="M 278.48828 291.23047 L 278.48828 301.23047 L 278.48828 524.89258 L 293.25 516.89844 C 297.89694 514.38222 302.60386 511.94874 307.36719 509.59375 L 307.44922 509.55273 L 318.45117 503.86133 L 318.45117 454.68164 L 328.96484 450.35547 L 329.12109 450.28906 L 329.12891 450.28711 C 331.43555 449.30062 333.75247 448.33151 336.08008 447.38281 L 342.26953 444.86133 L 342.33203 433.35156 L 344.98828 443.72266 L 355.30469 440.0625 C 362.15404 437.63296 369.07755 435.36612 376.06836 433.26172 L 378.90039 432.4082 L 381.75195 431.5918 C 388.37321 429.69347 395.04922 427.94056 401.77344 426.33789 L 409.49609 424.49805 L 409.42969 411.37891 L 413.03125 423.71289 L 421.96289 422 C 428.45224 420.75596 434.97596 419.65013 441.52734 418.68164 L 452.81836 417.01172 L 450.8125 410 C 456.70567 412.91297 463.99262 414.51367 472.4668 414.51367 C 485.15378 414.51367 495.30251 410.68843 501.77344 403.83398 C 503.75489 405.83918 506.06558 407.71354 508.83789 409.25586 C 513.89705 412.19393 519.81392 413.59414 526.43945 413.92188 L 526.49219 413.92383 L 526.8457 413.9375 C 527.67021 413.9727 528.53793 413.99609 529.45508 413.99609 C 537.35032 413.99609 544.21356 412.55512 549.90234 409.24609 C 550.09768 409.13741 550.26508 409.00611 550.45703 408.89453 L 549.26367 415.13672 L 560.06836 416.28711 C 566.44193 416.96553 572.79717 417.77505 579.12695 418.71289 L 588.83594 420.15039 L 592.30078 399.43555 L 594.4707 399.74219 L 597.94922 421.84375 L 604.73438 423.24023 C 611.12468 424.55586 617.47704 426.00523 623.78711 427.58594 L 624.23828 427.69922 L 625.49609 428.01953 C 631.95403 429.66479 638.36395 431.446 644.7207 433.36523 L 657.35156 437.17969 L 658.34961 386.26367 C 664.71107 386.12828 671.06794 384.77601 676.82617 381.2793 L 676.82617 493.61523 L 683.08203 496.14062 C 698.26433 502.27266 712.99894 509.20562 727.20508 516.89844 L 741.9668 524.89258 L 741.9668 470.10352 L 716.33203 459.9668 L 716.36914 426.33789 L 734.91016 431.28125 L 735.01562 377.41406 L 716.42578 373.84961 L 716.45898 341.77734 L 741.9668 343.55664 L 741.9668 291.69141 L 676.82617 291.69141 L 676.82617 299.28906 C 670.97784 294.90679 664.34 292.39142 657.8457 291.35547 L 657.0625 291.23047 L 618.72852 291.23047 L 618.66797 301.16992 L 618.57227 317.08203 L 614.04102 291.41797 L 572.93164 291.41797 L 571.37695 299.53906 L 566.32031 325.97266 L 566.32031 322.47461 L 566.30664 322.20898 C 566.01813 316.77869 564.43314 311.40148 561.41602 306.72461 C 558.87299 302.62099 555.01532 298.6612 549.76953 295.77344 C 545.21121 293.26412 539.69106 291.70231 533.32617 291.25586 L 532.97656 291.23047 L 525.91992 291.23047 L 525.57422 291.25391 C 519.18499 291.6985 513.6143 293.20857 508.95508 295.77344 C 505.78475 297.51869 503.34068 299.70126 501.25391 301.97461 C 494.92037 295.35809 484.78241 291.463 472.16797 291.60547 L 472.15234 291.60547 L 472.13672 291.60742 C 465.42299 291.70407 459.53217 293.25399 454.46875 295.6582 L 457.18359 291.23047 L 411.0918 291.23047 L 408.67773 296.55664 L 408.61328 291.23047 L 383.18555 291.23047 L 368.99609 291.23047 L 344.64453 291.23047 L 344.64453 309.78906 L 339.13477 291.23047 L 318.45117 291.23047 L 304.19141 291.23047 L 278.48828 291.23047 z M 497.55859 306.60938 C 497.5254 306.66032 497.50356 306.71646 497.4707 306.76758 C 497.45559 306.79207 497.42711 306.81733 497.41211 306.8418 L 497.55859 306.60938 z M 324.19141 311.23047 L 324.20898 311.23047 L 335.73047 350.0332 L 324.19141 351.87891 L 324.19141 311.23047 z M 638.60742 311.23047 L 638.79102 311.23047 L 638.76172 319.29297 L 638.5957 365.38281 L 638.75391 365.4082 L 638.07422 400.0625 L 638.60742 311.23047 z M 589.46875 311.41797 L 597.26367 311.41797 L 599.63672 324.86133 L 587.02344 324.19531 L 589.46875 311.41797 z M 696.82617 311.69141 L 721.9668 311.69141 L 721.9668 322.11133 L 696.82617 320.35742 L 696.82617 311.69141 z M 512.73633 322.33398 L 512.73633 382.53711 L 512.75781 382.86133 C 512.81197 383.69607 513.03412 384.52866 513.2168 385.36328 C 512.88831 384.37409 512.66475 383.26185 512.58984 381.93945 L 512.58984 323.19141 C 512.60837 322.87619 512.70009 322.63199 512.73633 322.33398 z M 388.99609 323.17773 L 389.34375 351.91602 L 406.88086 349.07617 L 410.00391 342.07812 L 410.35352 341.30664 L 413.05273 350.74023 L 397.96875 353.41211 L 394.74609 360.94727 L 389.23242 373.40625 L 389.41602 408.91016 C 389.27582 408.94605 389.13625 408.98351 388.99609 409.01953 L 388.99609 323.17773 z M 436.02148 325.73828 C 436.09505 329.6121 436.87944 333.47389 438.42188 337.09766 C 441.00927 343.72089 445.02006 349.81727 450.04102 355.5 C 452.83548 358.66279 455.35379 361.32117 457.96484 364.14062 L 438.08398 365.51758 L 429.66602 336.09961 L 436.02148 325.73828 z M 393.04297 331.05664 L 391.76562 333.875 L 393.02148 331.06055 L 393.04297 331.05664 z M 673.60547 332.38867 C 673.66113 332.73989 673.66165 333.18783 673.71094 333.55078 C 673.68962 333.1584 673.63532 332.77727 673.60547 332.38867 z M 673.8125 334.97656 C 674.04572 337.09974 674.29297 339.20054 674.29297 341.72266 C 674.29297 355.38604 670.73543 361.09608 667.14258 363.80078 C 665.2543 365.1113 662.87639 365.95896 660.08594 366.29102 C 663.12563 365.42153 666.24043 363.94088 668.50195 361.36133 C 674.29935 354.88321 673.85378 348.04941 673.86914 340.3125 C 673.87277 338.48622 673.86868 336.71567 673.8125 334.97656 z M 492.58984 338.89453 L 492.58984 345.32812 C 491.37838 343.98 490.17415 342.59274 488.9707 341.28516 L 488.9668 341.2793 L 488.96289 341.27539 C 488.24957 340.50234 487.84836 340.01112 487.1582 339.27148 L 492.58984 338.89453 z M 532.73633 346.72852 L 562.34961 346.72852 L 560.12109 358.375 L 532.73633 358.375 L 532.73633 346.72852 z M 413.30078 351.60742 L 427.37891 400.80078 C 427.31446 400.81186 427.24999 400.82288 427.18555 400.83398 L 415.82812 361.94531 L 413.30078 351.60742 z M 360.48438 363.13867 L 360.48633 363.13867 L 361.42188 366.29688 L 360.48438 363.13867 z M 396.50391 367.125 L 398.4082 373.64648 L 398.11133 373.69922 L 396.50391 367.125 z M 413.08594 368.92773 L 412.10547 371.2207 L 412.06836 371.22656 L 413.08594 368.92773 z M 363.18555 383.00977 L 363.18555 416.44141 C 361.78558 416.88717 360.39466 417.35403 359 417.8125 L 350.75781 385.625 L 363.18555 383.00977 z M 455.33594 389.1582 C 455.36678 389.23582 455.43088 389.32028 455.46289 389.39844 C 455.51723 389.51769 455.53506 389.6283 455.5918 389.74805 L 455.33594 389.1582 z M 545.83984 390.04688 L 545.36914 390.95508 C 545.44827 390.81956 545.44033 390.70486 545.51367 390.57031 C 545.59615 390.40495 545.76801 390.20505 545.83984 390.04688 z M 696.82617 390.45312 L 714.98438 393.9375 L 714.96094 405.26562 L 696.82617 400.43164 L 696.82617 390.45312 z M 497.41211 398.39844 C 497.42702 398.42275 497.45374 398.44639 497.46875 398.4707 C 497.50201 398.52248 497.52498 398.57927 497.55859 398.63086 L 497.41211 398.39844 z M 561.49805 398.39844 L 561.35156 398.63086 C 561.37653 398.59254 561.39319 398.55014 561.41797 398.51172 C 561.44196 398.47302 561.47428 398.4372 561.49805 398.39844 z M 696.82617 473.76172 L 721.9668 483.70117 L 721.9668 491.85156 C 713.72657 487.77476 705.35343 483.92228 696.82617 480.33008 L 696.82617 473.76172 z "
         id="path1087" />
    </g>
    <path
       id="path1033"
       style="opacity:1;vector-effect:none;fill:#ffffff;fill-opacity:1;fill-rule:evenodd;stroke:none;stroke-width:1.77800003;stroke-linecap:butt;stroke-linejoin:miter;stroke-miterlimit:4;stroke-dasharray:none;stroke-dashoffset:0;stroke-opacity:1"
       d="M 288.48828 301.23047 L 288.48828 508.10547 C 293.24666 505.52891 298.06396 503.03742 302.93555 500.62891 L 308.45117 497.77539 L 308.45117 301.23047 L 288.48828 301.23047 z M 314.19141 301.23047 L 314.19141 445.62109 L 325.10547 441.13086 A 421.24642 368.46593 0 0 1 325.19727 441.0918 A 421.24642 368.46593 0 0 1 332.30664 438.12305 L 332.73242 360.64062 L 333.85547 360.46094 L 335.54102 366.51172 L 351.96094 430.63867 A 421.24642 368.46593 0 0 1 373.18555 423.68555 L 373.18555 301.23047 L 354.64453 301.23047 L 354.64453 374.58789 L 353.52148 374.82422 L 351.83594 369.14258 L 331.67188 301.23047 L 314.19141 301.23047 z M 378.99609 301.23047 L 378.99609 421.97852 A 421.24642 368.46593 0 0 1 399.45508 416.61133 L 399.24414 375.49609 L 403.91602 364.9375 L 405.03711 362.31641 L 405.59961 362.2168 L 406.16602 364.53516 L 420.08008 412.17969 A 421.24642 368.46593 0 0 1 440.06445 408.78906 L 418.8418 334.62109 L 439.32031 301.23047 L 417.53906 301.23047 L 400.88477 337.97656 L 399.95117 340.06836 L 399.20312 340.18945 L 398.73242 301.23047 L 378.99609 301.23047 z M 526.26758 301.23047 C 521.06779 301.5923 516.89462 302.81716 513.77734 304.5332 C 510.04434 306.5882 507.61735 309.32835 505.9375 312.06836 C 503.91083 315.17869 502.79783 318.8255 502.58984 322.74023 L 502.58984 382.37109 C 502.798 386.41712 503.91103 390.06184 505.9375 393.17188 C 507.61735 395.91187 510.04434 398.51535 513.77734 400.57031 C 517.02912 402.47975 521.41573 403.66065 526.93359 403.93359 A 421.24642 368.46593 0 0 1 527.23438 403.94531 C 527.95756 403.97659 528.69352 403.99609 529.45508 403.99609 C 536.17451 403.99609 541.21426 402.76233 544.94727 400.57031 C 548.6803 398.51535 551.29277 395.91187 552.97266 393.17188 C 554.99912 390.06184 556.11216 386.41712 556.32031 382.37109 L 556.32031 368.375 L 537.48047 368.375 L 537.48047 382.21289 C 537.48047 383.7199 537.2943 384.95317 536.73438 385.91211 C 535.8011 387.96715 534.1211 389.61133 529.82812 389.61133 C 528.14829 389.61133 526.84148 389.20063 525.9082 388.51562 C 524.04172 387.00866 522.923 385.08987 522.73633 382.21289 L 522.73633 322.89258 C 522.923 321.52257 523.10799 320.28937 523.66797 319.19336 C 524.60121 317.41237 526.28177 315.49414 529.82812 315.49414 C 531.88132 315.49414 533.5609 315.90486 534.49414 316.58984 C 536.54729 318.23385 537.48047 320.15257 537.48047 322.89258 L 537.48047 336.72852 L 556.32031 336.72852 L 556.32031 322.74023 C 556.11232 318.8255 554.99933 315.17869 552.97266 312.06836 C 551.29277 309.32835 548.6803 306.5882 544.94727 304.5332 C 541.8298 302.81706 537.78427 301.59222 532.62695 301.23047 L 526.26758 301.23047 z M 628.66797 301.23047 L 627.96484 418.32812 A 421.24642 368.46593 0 0 1 647.61133 423.79297 L 648.55859 375.50586 C 657.39804 377.353 666.24202 376.70654 673.01758 371.91211 C 679.78531 366.89954 684.29297 357.40135 684.29297 341.72266 C 684.29297 326.044 679.80809 315.42099 673.08594 309 C 668.28248 304.56237 662.42528 302.21242 656.26953 301.23047 L 628.66797 301.23047 z M 581.19922 301.41797 L 561.12695 406.34375 A 421.24642 368.46593 0 0 1 580.5918 408.82031 L 584.04492 388.17383 L 603.19727 390.87305 L 606.75 413.44531 A 421.24642 368.46593 0 0 1 626.2168 417.88477 L 605.65234 301.41797 L 581.19922 301.41797 z M 472.28125 301.60547 C 462.76206 301.74251 456.22852 304.8944 451.93555 309.2793 C 447.64257 313.80124 445.96289 319.6927 445.96289 325.17383 C 445.96289 327.91438 446.52267 330.65428 447.64258 333.25781 C 449.69573 338.6019 453.05555 343.80887 457.53516 348.87891 C 462.01477 353.94896 466.30884 358.60791 470.22852 362.71875 C 472.09504 364.77417 473.77523 366.82969 475.45508 368.74805 C 478.44147 372.72189 480.67969 376.559 480.67969 379.84766 C 480.67969 386.28801 478.43962 390.94727 472.4668 390.94727 C 468.17386 390.94727 465.93545 388.75548 464.62891 385.4668 C 463.13569 382.31516 462.94922 378.06619 462.94922 373.81836 L 443.16406 375.18945 C 443.16406 382.72599 444.09683 389.9876 448.20312 395.46875 C 452.30947 400.9499 459.58791 404.51367 472.4668 404.51367 C 483.47921 404.51367 490.38675 401.49879 494.67969 396.83984 C 498.97266 392.18086 500.46484 385.87648 500.46484 379.16211 C 500.46484 373.68097 498.03856 368.47431 494.49219 363.4043 C 490.94582 358.33427 486.27956 353.1267 481.61328 348.05664 C 477.69365 343.80878 473.77354 339.83483 470.78711 335.99805 C 467.80072 332.16126 465.74805 328.59954 465.74805 325.17383 C 465.74805 319.28163 467.42808 315.30694 472.6543 315.16992 C 475.82736 315.16992 477.88096 317.0895 479.1875 319.83008 C 480.49408 322.70765 480.67969 326.40665 480.67969 329.69531 L 500.46484 328.32617 C 500.46484 322.708 499.34545 315.99283 495.42578 310.51172 C 491.50611 305.16761 484.41353 301.46845 472.28125 301.60547 z M 686.82617 301.69141 L 686.82617 486.86914 C 702.3519 493.13989 717.42667 500.23179 731.9668 508.10547 L 731.9668 476.90234 L 706.32422 466.76367 L 706.38281 413.32812 L 724.93555 418.27344 L 725 385.67578 L 706.41602 382.11133 L 706.4707 331.05469 L 731.9668 332.83398 L 731.9668 301.69141 L 686.82617 301.69141 z M 648.76172 319.32812 C 654.93293 319.65162 658.85657 321.254 661.09375 324.54102 C 663.33233 327.86649 663.88354 333.03856 663.86914 340.29297 C 663.85474 347.54738 663.28294 352.24679 661.02539 354.74414 C 658.76622 357.38179 654.82167 357.80937 648.62695 356.83594 L 648.76172 319.32812 z M 592.94531 334.52148 L 594.05469 334.58008 L 594.61523 337.47656 L 600.4043 373.12695 L 586.76172 371.58008 L 592.39648 337.34961 L 592.94531 334.52148 z "
       transform="scale(0.26458333)" />
    <path
       id="path1107"
       style="opacity:1;vector-effect:none;fill:#b3b3b3;fill-opacity:1;fill-rule:evenodd;stroke:none;stroke-width:1.77800003;stroke-linecap:butt;stroke-linejoin:miter;stroke-miterlimit:4;stroke-dasharray:none;stroke-dashoffset:0;stroke-opacity:1"
       d="M 509.58984 361.49023 A 338.15834 125.73084 0 0 0 502.58984 361.52344 L 502.58984 382.37109 C 502.798 386.41712 503.91103 390.06184 505.9375 393.17188 C 507.61735 395.91186 510.04434 398.51535 513.77734 400.57031 C 517.02912 402.47975 521.41573 403.66065 526.93359 403.93359 A 421.24641 368.46592 0 0 1 527.23438 403.94531 C 527.95755 403.97659 528.69352 403.99609 529.45508 403.99609 C 536.17451 403.99609 541.21426 402.76233 544.94727 400.57031 C 548.6803 398.51535 551.29277 395.91186 552.97266 393.17188 C 554.99912 390.06184 556.11216 386.41712 556.32031 382.37109 L 556.32031 368.375 L 537.48047 368.375 L 537.48047 382.21289 C 537.48047 383.7199 537.29429 384.95317 536.73438 385.91211 C 535.8011 387.96715 534.1211 389.61133 529.82812 389.61133 C 528.1483 389.61133 526.84148 389.20063 525.9082 388.51562 C 524.04172 387.00867 522.923 385.08987 522.73633 382.21289 L 522.73633 361.57617 A 338.15834 125.73084 0 0 0 510.22656 361.49023 A 338.15834 125.73084 0 0 0 509.58984 361.49023 z M 493.2207 361.65039 A 338.15834 125.73084 0 0 0 469.91797 362.38672 C 470.01763 362.49144 470.12933 362.61473 470.22852 362.71875 C 472.09504 364.77417 473.77523 366.82969 475.45508 368.74805 C 478.44147 372.72189 480.67969 376.559 480.67969 379.84766 C 480.67969 386.28801 478.43962 390.94727 472.4668 390.94727 C 468.17386 390.94727 465.93545 388.75548 464.62891 385.4668 C 463.13569 382.31516 462.94922 378.06619 462.94922 373.81836 L 443.16406 375.18945 C 443.16406 382.72599 444.09684 389.9876 448.20312 395.46875 C 452.30947 400.9499 459.58791 404.51367 472.4668 404.51367 C 483.47921 404.51367 490.38675 401.49879 494.67969 396.83984 C 498.97266 392.18086 500.46484 385.87648 500.46484 379.16211 C 500.46484 373.68097 498.03856 368.47431 494.49219 363.4043 C 494.08421 362.82104 493.65662 362.23687 493.2207 361.65039 z M 569.33789 363.42578 L 561.12695 406.34375 A 421.24641 368.46592 0 0 1 580.5918 408.82031 L 584.04492 388.17383 L 603.19727 390.87305 L 606.75 413.44531 A 421.24641 368.46592 0 0 1 626.2168 417.88477 L 617.4043 367.97266 A 338.15834 125.73084 0 0 0 599.23438 365.92578 L 600.4043 373.12695 L 586.76172 371.58008 L 587.86914 364.84961 A 338.15834 125.73084 0 0 0 569.33789 363.42578 z M 427.62109 365.30078 A 338.15834 125.73084 0 0 0 407.0293 367.48828 L 420.08008 412.17969 A 421.24641 368.46592 0 0 1 440.06445 408.78906 L 427.62109 365.30078 z M 402.54492 368.03516 A 338.15834 125.73084 0 0 0 378.99609 371.34375 L 378.99609 421.97852 A 421.24641 368.46592 0 0 1 399.45508 416.61133 L 399.24414 375.49609 L 402.54492 368.03516 z M 628.25781 369.39844 L 627.96484 418.32812 A 421.24641 368.46592 0 0 1 647.61133 423.79297 L 648.55859 375.50586 C 654.30892 376.70748 660.05675 376.84286 665.24023 375.47852 A 338.15834 125.73084 0 0 0 628.25781 369.39844 z M 373.18555 372.27734 A 338.15834 125.73084 0 0 0 338.70508 378.86523 L 351.96094 430.63867 A 421.24641 368.46592 0 0 1 373.18555 423.68555 L 373.18555 372.27734 z M 686.82617 379.99805 L 686.82617 486.86914 C 702.3519 493.13989 717.42667 500.23179 731.9668 508.10547 L 731.9668 476.90234 L 706.32422 466.76367 L 706.38281 413.32812 L 724.93555 418.27344 L 724.99219 390.10352 A 338.15834 125.73084 0 0 0 686.82617 379.99805 z M 332.625 380.22656 A 338.15834 125.73084 0 0 0 314.19141 384.77344 L 314.19141 445.62109 L 325.10547 441.13086 A 421.24641 368.46592 0 0 1 325.19727 441.0918 A 421.24641 368.46592 0 0 1 332.30664 438.12305 L 332.625 380.22656 z M 308.45117 386.32617 A 338.15834 125.73084 0 0 0 288.48828 392.29492 L 288.48828 508.10547 C 293.24666 505.52891 298.06396 503.03742 302.93555 500.62891 L 308.45117 497.77539 L 308.45117 386.32617 z "
       transform="scale(0.26458333)" />
  </g>
</svg>
