<?xml version="1.0" encoding="UTF-8" standalone="no"?>
<svg
   xmlns:dc="http://purl.org/dc/elements/1.1/"
   xmlns:cc="http://creativecommons.org/ns#"
   xmlns:rdf="http://www.w3.org/1999/02/22-rdf-syntax-ns#"
   xmlns:svg="http://www.w3.org/2000/svg"
   xmlns="http://www.w3.org/2000/svg"
   xmlns:xlink="http://www.w3.org/1999/xlink"
   xmlns:sodipodi="http://sodipodi.sourceforge.net/DTD/sodipodi-0.dtd"
   xmlns:inkscape="http://www.inkscape.org/namespaces/inkscape"
   width="210mm"
   height="297mm"
   viewBox="0 0 210 297"
   version="1.1"
   id="svg8"
   inkscape:version="1.0.1 (3bc2e81, 2020-09-07)"
   sodipodi:docname="dice.svg">
  <defs
     id="defs2">
    <linearGradient
       inkscape:collect="always"
       id="linearGradient1142">
      <stop
         style="stop-color:#8080ff;stop-opacity:1;"
         offset="0"
         id="stop1138" />
      <stop
         style="stop-color:#8080ff;stop-opacity:0;"
         offset="1"
         id="stop1140" />
    </linearGradient>
    <linearGradient
       inkscape:collect="always"
       id="linearGradient1118">
      <stop
         style="stop-color:#00002b;stop-opacity:1;"
         offset="0"
         id="stop1114" />
      <stop
         style="stop-color:#00002b;stop-opacity:0;"
         offset="1"
         id="stop1116" />
    </linearGradient>
    <linearGradient
       inkscape:collect="always"
       id="linearGradient1110">
      <stop
         style="stop-color:#000080;stop-opacity:1;"
         offset="0"
         id="stop1106" />
      <stop
         style="stop-color:#5555ff;stop-opacity:1"
         offset="1"
         id="stop1108" />
    </linearGradient>
    <inkscape:path-effect
       effect="fillet_chamfer"
       id="path-effect1060"
       is_visible="true"
       lpeversion="1"
       satellites_param="F,0,0,1,0,10.213901,0,1 @ F,0,0,1,0,10.213901,0,1 @ F,0,0,1,0,10.213901,0,1 @ F,0,0,1,0,10.213901,0,1 @ F,0,0,1,0,10.213901,0,1 @ F,0,0,1,0,10.213901,0,1"
       unit="px"
       method="auto"
       mode="F"
       radius="0"
       chamfer_steps="1"
       flexible="false"
       use_knot_distance="true"
       apply_no_radius="true"
       apply_with_radius="true"
       only_selected="false"
       hide_knots="false" />
    <inkscape:path-effect
       effect="perspective-envelope"
       up_left_point="-242.81523,172.30477"
       up_right_point="-171.52036,131.14243"
       down_left_point="-242.81523,254.62894"
       down_right_point="-171.52036,213.4666"
       id="path-effect1039"
       is_visible="true"
       lpeversion="1"
       deform_type="perspective"
       horizontal_mirror="false"
       vertical_mirror="false"
       overflow_perspective="false" />
    <inkscape:path-effect
       effect="perspective-envelope"
       up_left_point="-314.11062,131.14243"
       up_right_point="-242.81523,172.30477"
       down_left_point="-314.11062,213.4666"
       down_right_point="-242.81523,254.62894"
       id="path-effect1037"
       is_visible="true"
       lpeversion="1"
       deform_type="perspective"
       horizontal_mirror="false"
       vertical_mirror="false"
       overflow_perspective="false" />
    <inkscape:path-effect
       effect="perspective-envelope"
       up_left_point="-314.11062,131.14243"
       up_right_point="-242.81523,89.98008"
       down_left_point="-242.81523,172.30477"
       down_right_point="-171.52036,131.14243"
       id="path-effect1035"
       is_visible="true"
       lpeversion="1"
       deform_type="perspective"
       horizontal_mirror="false"
       vertical_mirror="false"
       overflow_perspective="false" />
    <linearGradient
       inkscape:collect="always"
       xlink:href="#linearGradient1110"
       id="linearGradient1112"
       x1="-625.67688"
       y1="319.98102"
       x2="-625.67688"
       y2="160.67563"
       gradientUnits="userSpaceOnUse" />
    <linearGradient
       inkscape:collect="always"
       xlink:href="#linearGradient1118"
       id="linearGradient1120"
       x1="-691.87781"
       y1="207.79803"
       x2="-628.2066"
       y2="316.21228"
       gradientUnits="userSpaceOnUse" />
    <linearGradient
       inkscape:collect="always"
       xlink:href="#linearGradient1110"
       id="linearGradient1128"
       x1="-621.72064"
       y1="236.45828"
       x2="-556.4035"
       y2="278.66327"
       gradientUnits="userSpaceOnUse" />
    <linearGradient
       inkscape:collect="always"
       xlink:href="#linearGradient1142"
       id="linearGradient1144"
       x1="-626.08698"
       y1="232.77034"
       x2="-626.4585"
       y2="159.63129"
       gradientUnits="userSpaceOnUse" />
  </defs>
  <sodipodi:namedview
     id="base"
     pagecolor="#ffffff"
     bordercolor="#666666"
     borderopacity="1.0"
     inkscape:pageopacity="0.0"
     inkscape:pageshadow="2"
     inkscape:zoom="0.32877049"
     inkscape:cx="-2463.7961"
     inkscape:cy="1110.4173"
     inkscape:document-units="px"
     inkscape:current-layer="layer1"
     inkscape:document-rotation="0"
     showgrid="false"
     showborder="false"
     inkscape:snap-smooth-nodes="true"
     inkscape:snap-others="false"
     inkscape:snap-global="false"
     inkscape:window-width="1600"
     inkscape:window-height="829"
     inkscape:window-x="0"
     inkscape:window-y="34"
     inkscape:window-maximized="1" />
  <metadata
     id="metadata5">
    <rdf:RDF>
      <cc:Work
         rdf:about="">
        <dc:format>image/svg+xml</dc:format>
        <dc:type
           rdf:resource="http://purl.org/dc/dcmitype/StillImage" />
        <dc:title></dc:title>
      </cc:Work>
    </rdf:RDF>
  </metadata>
  <g
     inkscape:label="Layer 1"
     inkscape:groupmode="layer"
     id="layer1">
    <g
       id="g1321"
       transform="matrix(0.99128234,-0.04281343,0.13175478,0.08233268,-112.17975,280.18919)"
       style="opacity:0.466213;fill:#00112b">
      <path
         id="path1295"
         style="opacity:1;fill:#00112b;fill-opacity:1;fill-rule:evenodd;stroke-width:0.219468;stroke-miterlimit:4;stroke-dasharray:none"
         d="M -634.29104,161.60438 L -688.81778,193.08536 A 17.69098,17.69098 120.00002 0 0 -697.66328,208.4062 V 271.3676 A 17.69098,17.69098 59.999979 0 0 -688.81778,286.68844 L -634.29104,318.16942 A 17.690963,17.690963 179.99991 0 0 -616.60005,318.16939 L -562.0738,286.68847 A 17.691043,17.691043 119.99993 0 0 -553.22831,271.3676 V 208.4062 A 17.691043,17.691043 60.000066 0 0 -562.0738,193.08533 L -616.60005,161.60441 A 17.690963,17.690963 8.7603505e-5 0 0 -634.29104,161.60438 Z" />
      <path
         style="opacity:1;vector-effect:none;fill:#00112b;fill-opacity:1;fill-rule:evenodd;stroke:#000000;stroke-width:0.108618;stroke-linecap:butt;stroke-linejoin:miter;stroke-miterlimit:4;stroke-dasharray:none;stroke-dashoffset:0;stroke-opacity:1"
         d="M -681.75433,192.13045 C -688.08224,195.78386 -688.08195,201.66632 -681.7541,205.3197 L -636.86784,231.23474 C -630.54001,234.88812 -620.35165,234.88809 -614.0238,231.23468 L -569.13768,205.31953 C -562.80988,201.66614 -562.80985,195.7839 -569.13764,192.13052 L -614.02356,166.21547 C -620.35137,162.56208 -630.54004,162.56191 -636.8679,166.21529 Z"
         id="path1297" />
      <path
         style="opacity:1;vector-effect:none;fill:#00112b;fill-opacity:1;fill-rule:evenodd;stroke:#000000;stroke-width:0.108618;stroke-linecap:butt;stroke-linejoin:miter;stroke-miterlimit:4;stroke-dasharray:none;stroke-dashoffset:0;stroke-opacity:1"
         d="M -683.53667,208.40672 C -689.8645,204.75334 -694.95871,207.69447 -694.95871,215.0012 V 266.8312 C -694.95871,274.13793 -689.8645,282.96131 -683.53667,286.61468 L -638.65013,312.52988 C -632.32227,316.18327 -627.22809,313.24216 -627.22809,305.93542 V 254.10543 C -627.22809,246.79869 -632.32227,237.97531 -638.65013,234.32192 Z"
         id="path1299" />
      <path
         style="opacity:1;vector-effect:none;fill:#00112b;fill-opacity:1;fill-rule:evenodd;stroke:#000000;stroke-width:0.108618;stroke-linecap:butt;stroke-linejoin:miter;stroke-miterlimit:4;stroke-dasharray:none;stroke-dashoffset:0;stroke-opacity:1"
         d="M -612.24139,234.32193 C -618.56919,237.97531 -623.66334,246.79865 -623.66334,254.10537 V 305.93548 C -623.66334,313.24218 -618.56919,316.18327 -612.24139,312.52989 L -567.35516,286.61467 C -561.02736,282.9613 -555.93321,274.13795 -555.93321,266.83126 V 215.00115 C -555.93321,207.69443 -561.02736,204.75333 -567.35516,208.40671 Z"
         id="path1301" />
      <path
         style="opacity:1;vector-effect:none;fill:#00112b;fill-opacity:1;fill-rule:evenodd;stroke:#000000;stroke-width:0.108618;stroke-linecap:butt;stroke-linejoin:miter;stroke-miterlimit:4;stroke-dasharray:none;stroke-dashoffset:0;stroke-opacity:1"
         d="M -596.50467,194.09454 C -592.05363,191.52469 -584.66054,191.62661 -579.99181,194.32216 C -575.32299,197.01766 -575.14648,201.28609 -579.59756,203.8559 C -584.04859,206.42574 -591.44169,206.32382 -596.11041,203.62827 C -600.77922,200.93277 -600.95574,196.66436 -596.50467,194.09454 Z"
         id="path1303" />
      <path
         style="opacity:1;vector-effect:none;fill:#00112b;fill-opacity:1;fill-rule:evenodd;stroke:#000000;stroke-width:0.108618;stroke-linecap:butt;stroke-linejoin:miter;stroke-miterlimit:4;stroke-dasharray:none;stroke-dashoffset:0;stroke-opacity:1"
         d="M -632.96742,214.8928 C -628.51631,212.32313 -621.12343,212.42511 -616.45482,215.12059 C -611.78612,217.81602 -611.60948,222.0843 -616.06026,224.65416 C -620.5113,227.22401 -627.90443,227.12212 -632.57317,224.42657 C -637.24201,221.73107 -637.41853,217.46263 -632.96742,214.8928 Z"
         id="path1305" />
      <path
         style="opacity:1;vector-effect:none;fill:#00112b;fill-opacity:1;fill-rule:evenodd;stroke:#000000;stroke-width:0.108618;stroke-linecap:butt;stroke-linejoin:miter;stroke-miterlimit:4;stroke-dasharray:none;stroke-dashoffset:0;stroke-opacity:1"
         d="M -633.89957,193.8444 C -629.44852,191.27456 -622.0554,191.37648 -617.38666,194.07202 C -612.71783,196.76754 -612.54132,201.03596 -616.99241,203.60579 C -621.44346,206.17562 -628.83657,206.07372 -633.50531,203.37816 C -638.17415,200.68266 -638.35067,196.41423 -633.89957,193.8444 Z"
         id="path1307" />
      <path
         style="opacity:1;vector-effect:none;fill:#00112b;fill-opacity:1;fill-rule:evenodd;stroke:#000000;stroke-width:0.108618;stroke-linecap:butt;stroke-linejoin:miter;stroke-miterlimit:4;stroke-dasharray:none;stroke-dashoffset:0;stroke-opacity:1"
         d="M -633.68256,171.98064 C -629.2315,169.4108 -621.83837,169.51272 -617.16963,172.20829 C -612.5008,174.9038 -612.32428,179.17223 -616.77537,181.74205 C -621.22642,184.31188 -628.61955,184.20996 -633.2883,181.5144 C -637.95713,178.81889 -638.13364,174.55045 -633.68256,171.98064 Z"
         id="path1309" />
      <path
         style="opacity:1;vector-effect:none;fill:#00112b;fill-opacity:1;fill-rule:evenodd;stroke:#000000;stroke-width:0.108618;stroke-linecap:butt;stroke-linejoin:miter;stroke-miterlimit:4;stroke-dasharray:none;stroke-dashoffset:0;stroke-opacity:1"
         d="M -671.2438,193.4929 C -666.79267,190.92323 -659.39976,191.02522 -654.73113,193.72071 C -650.06268,196.41617 -649.88616,200.68434 -654.33686,203.25413 C -658.78782,205.82391 -666.18074,205.72208 -670.84955,203.02669 C -675.51841,200.33117 -675.69492,196.06273 -671.2438,193.4929 Z"
         id="path1311" />
      <path
         style="opacity:1;vector-effect:none;fill:#00112b;fill-opacity:1;fill-rule:evenodd;stroke:#000000;stroke-width:0.108618;stroke-linecap:butt;stroke-linejoin:miter;stroke-miterlimit:4;stroke-dasharray:none;stroke-dashoffset:0;stroke-opacity:1"
         d="M -678.85601,262.03841 C -674.40506,264.60815 -670.79681,271.0615 -670.79669,276.45249 C -670.79666,281.84355 -674.40495,284.13063 -678.85601,281.5608 C -683.30708,278.99101 -686.91538,272.53742 -686.91534,267.14639 C -686.91524,261.75553 -683.30698,259.46862 -678.85601,262.03841 Z"
         id="path1313" />
      <path
         style="opacity:1;vector-effect:none;fill:#00112b;fill-opacity:1;fill-rule:evenodd;stroke:#000000;stroke-width:0.108618;stroke-linecap:butt;stroke-linejoin:miter;stroke-miterlimit:4;stroke-dasharray:none;stroke-dashoffset:0;stroke-opacity:1"
         d="M -661.0934,250.70711 C -656.64244,253.27686 -653.03419,259.7302 -653.03408,265.12117 C -653.03403,270.51226 -656.64233,272.79935 -661.0934,270.22951 C -665.54448,267.6597 -669.15278,261.20612 -669.15273,255.81508 C -669.15261,250.42423 -665.54435,248.13734 -661.0934,250.70711 Z"
         id="path1315" />
      <path
         style="opacity:1;vector-effect:none;fill:#00112b;fill-opacity:1;fill-rule:evenodd;stroke:#000000;stroke-width:0.108618;stroke-linecap:butt;stroke-linejoin:miter;stroke-miterlimit:4;stroke-dasharray:none;stroke-dashoffset:0;stroke-opacity:1"
         d="M -642.05038,239.96318 C -637.59941,242.53291 -633.99114,248.98628 -633.99103,254.37727 C -633.99099,259.76835 -637.5993,262.05543 -642.05038,259.48557 C -646.50144,256.91576 -650.10973,250.4622 -650.10969,245.07116 C -650.10959,239.68031 -646.50134,237.39341 -642.05038,239.96318 Z"
         id="path1317" />
      <path
         style="opacity:1;vector-effect:none;fill:#00112b;fill-opacity:1;fill-rule:evenodd;stroke:#000000;stroke-width:0.108618;stroke-linecap:butt;stroke-linejoin:miter;stroke-miterlimit:4;stroke-dasharray:none;stroke-dashoffset:0;stroke-opacity:1"
         d="M -589.79828,250.70699 C -585.34724,248.13715 -581.73896,250.4242 -581.739,255.81526 C -581.73896,261.20627 -585.34724,267.65983 -589.79828,270.22962 C -594.24931,272.79946 -597.85759,270.5124 -597.85755,265.12135 C -597.85759,259.73035 -594.24931,253.27679 -589.79828,250.70699 Z"
         id="path1319" />
    </g>
    <path
       sodipodi:type="star"
       style="fill:#000000;fill-opacity:0;stroke-width:13.9904;stroke-linecap:square;stroke-linejoin:round"
       id="path833"
       sodipodi:sides="6"
       sodipodi:cx="7.869113"
       sodipodi:cy="72.826538"
       sodipodi:r1="89.768829"
       sodipodi:r2="77.742088"
       sodipodi:arg1="1.1230552"
       sodipodi:arg2="1.646654"
       inkscape:flatsided="true"
       inkscape:rounded="0"
       inkscape:randomized="-1.04083e-17"
       d="M 46.732771,153.74661 L -42.7779,146.94349 L -81.641558,66.023415 L -30.994545,-8.0935386 L 58.516126,-1.2904153 L 97.379784,79.629661 Z"
       inkscape:transform-center-y="-1.1085868e-06" />
    <path
       sodipodi:type="star"
       style="fill:#000000;fill-opacity:0;stroke-width:13.9904;stroke-linecap:square;stroke-linejoin:round"
       id="path835"
       sodipodi:sides="6"
       sodipodi:cx="-1.9995371"
       sodipodi:cy="35.892422"
       sodipodi:r1="109.52068"
       sodipodi:r2="94.847687"
       sodipodi:arg1="0.73551483"
       sodipodi:arg2="1.2591136"
       inkscape:flatsided="true"
       inkscape:rounded="0"
       inkscape:randomized="-1.04083e-17"
       d="M 79.208452,109.3774 L -25.035403,142.96309 L -106.24339,69.478113 L -83.207527,-37.59256 L 21.036329,-71.178251 L 102.24432,2.3067306 Z" />
    <path
       sodipodi:type="star"
       style="fill:#000000;fill-opacity:0;stroke-width:13.9904;stroke-linecap:square;stroke-linejoin:round"
       id="path837"
       sodipodi:sides="6"
       sodipodi:cx="54.51828"
       sodipodi:cy="207.43214"
       sodipodi:r1="87.631485"
       sodipodi:r2="75.891098"
       sodipodi:arg1="-2.3328525"
       sodipodi:arg2="-1.8092538"
       inkscape:flatsided="true"
       inkscape:rounded="0"
       inkscape:randomized="-1.04083e-17"
       d="M -5.9834065,144.03796 L 79.168414,123.33905 L 139.6701,186.73324 L 115.01997,270.82633 L 29.868146,291.52524 L -30.633541,228.13105 Z"
       inkscape:transform-center-y="-2.0534173e-06"
       transform="matrix(0.44016501,0,0,0.42291895,-17.149728,3.8269917)" />
    <g
       id="g1293">
      <g
         id="g1159"
         transform="rotate(-7.5710059,-559.52821,817.00427)">
        <path
           id="path849"
           style="opacity:1;fill:url(#linearGradient1112);fill-opacity:1;fill-rule:evenodd;stroke-width:0.219468;stroke-miterlimit:4;stroke-dasharray:none"
           d="M -634.29104,161.60438 L -688.81778,193.08536 A 17.69098,17.69098 120.00002 0 0 -697.66328,208.4062 V 271.3676 A 17.69098,17.69098 59.999979 0 0 -688.81778,286.68844 L -634.29104,318.16942 A 17.690963,17.690963 179.99991 0 0 -616.60005,318.16939 L -562.0738,286.68847 A 17.691043,17.691043 119.99993 0 0 -553.22831,271.3676 V 208.4062 A 17.691043,17.691043 60.000066 0 0 -562.0738,193.08533 L -616.60005,161.60441 A 17.690963,17.690963 8.7603505e-5 0 0 -634.29104,161.60438 Z" />
        <path
           style="opacity:1;vector-effect:none;fill:url(#linearGradient1144);fill-opacity:1;fill-rule:evenodd;stroke:#000000;stroke-width:0.108618;stroke-linecap:butt;stroke-linejoin:miter;stroke-miterlimit:4;stroke-dasharray:none;stroke-dashoffset:0;stroke-opacity:1"
           d="M -681.75433,192.13045 C -688.08224,195.78386 -688.08195,201.66632 -681.7541,205.3197 L -636.86784,231.23474 C -630.54001,234.88812 -620.35165,234.88809 -614.0238,231.23468 L -569.13768,205.31953 C -562.80988,201.66614 -562.80985,195.7839 -569.13764,192.13052 L -614.02356,166.21547 C -620.35137,162.56208 -630.54004,162.56191 -636.8679,166.21529 Z"
           id="rect929" />
        <path
           style="opacity:1;vector-effect:none;fill:url(#linearGradient1120);fill-opacity:1;fill-rule:evenodd;stroke:#000000;stroke-width:0.108618;stroke-linecap:butt;stroke-linejoin:miter;stroke-miterlimit:4;stroke-dasharray:none;stroke-dashoffset:0;stroke-opacity:1"
           d="M -683.53667,208.40672 C -689.8645,204.75334 -694.95871,207.69447 -694.95871,215.0012 V 266.8312 C -694.95871,274.13793 -689.8645,282.96131 -683.53667,286.61468 L -638.65013,312.52988 C -632.32227,316.18327 -627.22809,313.24216 -627.22809,305.93542 V 254.10543 C -627.22809,246.79869 -632.32227,237.97531 -638.65013,234.32192 Z"
           id="rect994" />
        <path
           style="opacity:1;vector-effect:none;fill:url(#linearGradient1128);fill-opacity:1;fill-rule:evenodd;stroke:#000000;stroke-width:0.108618;stroke-linecap:butt;stroke-linejoin:miter;stroke-miterlimit:4;stroke-dasharray:none;stroke-dashoffset:0;stroke-opacity:1"
           d="M -612.24139,234.32193 C -618.56919,237.97531 -623.66334,246.79865 -623.66334,254.10537 V 305.93548 C -623.66334,313.24218 -618.56919,316.18327 -612.24139,312.52989 L -567.35516,286.61467 C -561.02736,282.9613 -555.93321,274.13795 -555.93321,266.83126 V 215.00115 C -555.93321,207.69443 -561.02736,204.75333 -567.35516,208.40671 Z"
           id="rect1006" />
        <path
           style="opacity:1;vector-effect:none;fill:#ffffff;fill-opacity:1;fill-rule:evenodd;stroke:#000000;stroke-width:0.108618;stroke-linecap:butt;stroke-linejoin:miter;stroke-miterlimit:4;stroke-dasharray:none;stroke-dashoffset:0;stroke-opacity:1"
           d="M -596.50467,194.09454 C -592.05363,191.52469 -584.66054,191.62661 -579.99181,194.32216 C -575.32299,197.01766 -575.14648,201.28609 -579.59756,203.8559 C -584.04859,206.42574 -591.44169,206.32382 -596.11041,203.62827 C -600.77922,200.93277 -600.95574,196.66436 -596.50467,194.09454 Z"
           id="path1084" />
        <path
           style="opacity:1;vector-effect:none;fill:#ffffff;fill-opacity:1;fill-rule:evenodd;stroke:#000000;stroke-width:0.108618;stroke-linecap:butt;stroke-linejoin:miter;stroke-miterlimit:4;stroke-dasharray:none;stroke-dashoffset:0;stroke-opacity:1"
           d="M -632.96742,214.8928 C -628.51631,212.32313 -621.12343,212.42511 -616.45482,215.12059 C -611.78612,217.81602 -611.60948,222.0843 -616.06026,224.65416 C -620.5113,227.22401 -627.90443,227.12212 -632.57317,224.42657 C -637.24201,221.73107 -637.41853,217.46263 -632.96742,214.8928 Z"
           id="path1082" />
        <path
           style="opacity:1;vector-effect:none;fill:#ffffff;fill-opacity:1;fill-rule:evenodd;stroke:#000000;stroke-width:0.108618;stroke-linecap:butt;stroke-linejoin:miter;stroke-miterlimit:4;stroke-dasharray:none;stroke-dashoffset:0;stroke-opacity:1"
           d="M -633.89957,193.8444 C -629.44852,191.27456 -622.0554,191.37648 -617.38666,194.07202 C -612.71783,196.76754 -612.54132,201.03596 -616.99241,203.60579 C -621.44346,206.17562 -628.83657,206.07372 -633.50531,203.37816 C -638.17415,200.68266 -638.35067,196.41423 -633.89957,193.8444 Z"
           id="path1080" />
        <path
           style="opacity:1;vector-effect:none;fill:#ffffff;fill-opacity:1;fill-rule:evenodd;stroke:#000000;stroke-width:0.108618;stroke-linecap:butt;stroke-linejoin:miter;stroke-miterlimit:4;stroke-dasharray:none;stroke-dashoffset:0;stroke-opacity:1"
           d="M -633.68256,171.98064 C -629.2315,169.4108 -621.83837,169.51272 -617.16963,172.20829 C -612.5008,174.9038 -612.32428,179.17223 -616.77537,181.74205 C -621.22642,184.31188 -628.61955,184.20996 -633.2883,181.5144 C -637.95713,178.81889 -638.13364,174.55045 -633.68256,171.98064 Z"
           id="path1078" />
        <path
           style="opacity:1;vector-effect:none;fill:#ffffff;fill-opacity:1;fill-rule:evenodd;stroke:#000000;stroke-width:0.108618;stroke-linecap:butt;stroke-linejoin:miter;stroke-miterlimit:4;stroke-dasharray:none;stroke-dashoffset:0;stroke-opacity:1"
           d="M -671.2438,193.4929 C -666.79267,190.92323 -659.39976,191.02522 -654.73113,193.72071 C -650.06268,196.41617 -649.88616,200.68434 -654.33686,203.25413 C -658.78782,205.82391 -666.18074,205.72208 -670.84955,203.02669 C -675.51841,200.33117 -675.69492,196.06273 -671.2438,193.4929 Z"
           id="path1076" />
        <path
           style="opacity:1;vector-effect:none;fill:#ffffff;fill-opacity:1;fill-rule:evenodd;stroke:#000000;stroke-width:0.108618;stroke-linecap:butt;stroke-linejoin:miter;stroke-miterlimit:4;stroke-dasharray:none;stroke-dashoffset:0;stroke-opacity:1"
           d="M -678.85601,262.03841 C -674.40506,264.60815 -670.79681,271.0615 -670.79669,276.45249 C -670.79666,281.84355 -674.40495,284.13063 -678.85601,281.5608 C -683.30708,278.99101 -686.91538,272.53742 -686.91534,267.14639 C -686.91524,261.75553 -683.30698,259.46862 -678.85601,262.03841 Z"
           id="path1100" />
        <path
           style="opacity:1;vector-effect:none;fill:#ffffff;fill-opacity:1;fill-rule:evenodd;stroke:#000000;stroke-width:0.108618;stroke-linecap:butt;stroke-linejoin:miter;stroke-miterlimit:4;stroke-dasharray:none;stroke-dashoffset:0;stroke-opacity:1"
           d="M -661.0934,250.70711 C -656.64244,253.27686 -653.03419,259.7302 -653.03408,265.12117 C -653.03403,270.51226 -656.64233,272.79935 -661.0934,270.22951 C -665.54448,267.6597 -669.15278,261.20612 -669.15273,255.81508 C -669.15261,250.42423 -665.54435,248.13734 -661.0934,250.70711 Z"
           id="path1098" />
        <path
           style="opacity:1;vector-effect:none;fill:#ffffff;fill-opacity:1;fill-rule:evenodd;stroke:#000000;stroke-width:0.108618;stroke-linecap:butt;stroke-linejoin:miter;stroke-miterlimit:4;stroke-dasharray:none;stroke-dashoffset:0;stroke-opacity:1"
           d="M -642.05038,239.96318 C -637.59941,242.53291 -633.99114,248.98628 -633.99103,254.37727 C -633.99099,259.76835 -637.5993,262.05543 -642.05038,259.48557 C -646.50144,256.91576 -650.10973,250.4622 -650.10969,245.07116 C -650.10959,239.68031 -646.50134,237.39341 -642.05038,239.96318 Z"
           id="path1096" />
        <path
           style="opacity:1;vector-effect:none;fill:#ffffff;fill-opacity:1;fill-rule:evenodd;stroke:#000000;stroke-width:0.108618;stroke-linecap:butt;stroke-linejoin:miter;stroke-miterlimit:4;stroke-dasharray:none;stroke-dashoffset:0;stroke-opacity:1"
           d="M -589.79828,250.70699 C -585.34724,248.13715 -581.73896,250.4242 -581.739,255.81526 C -581.73896,261.20627 -585.34724,267.65983 -589.79828,270.22962 C -594.24931,272.79946 -597.85759,270.5124 -597.85755,265.12135 C -597.85759,259.73035 -594.24931,253.27679 -589.79828,250.70699 Z"
           id="path1104" />
      </g>
    </g>
  </g>
</svg>
