<?xml version="1.0" encoding="UTF-8" standalone="no"?>
<!-- Generator: Adobe Illustrator 25.2.0, SVG Export Plug-In . SVG Version: 6.00 Build 0)  -->

<svg
   xmlns:dc="http://purl.org/dc/elements/1.1/"
   xmlns:cc="http://creativecommons.org/ns#"
   xmlns:rdf="http://www.w3.org/1999/02/22-rdf-syntax-ns#"
   xmlns:svg="http://www.w3.org/2000/svg"
   xmlns="http://www.w3.org/2000/svg"
   xmlns:sodipodi="http://sodipodi.sourceforge.net/DTD/sodipodi-0.dtd"
   xmlns:inkscape="http://www.inkscape.org/namespaces/inkscape"
   version="1.1"
   id="Layer_1"
   x="0px"
   y="0px"
   viewBox="0 0 32 36.239435"
   xml:space="preserve"
   sodipodi:docname="shopify_glyph_black.svg"
   width="32"
   height="36.239433"
   inkscape:version="0.92.5 (2060ec1f9f, 2020-04-08)"><metadata
   id="metadata13"><rdf:RDF><cc:Work
       rdf:about=""><dc:format>image/svg+xml</dc:format><dc:type
         rdf:resource="http://purl.org/dc/dcmitype/StillImage" /><dc:title></dc:title></cc:Work></rdf:RDF></metadata><defs
   id="defs11" /><sodipodi:namedview
   pagecolor="#ffffff"
   bordercolor="#666666"
   borderopacity="1"
   objecttolerance="10"
   gridtolerance="10"
   guidetolerance="10"
   inkscape:pageopacity="0"
   inkscape:pageshadow="2"
   inkscape:window-width="1600"
   inkscape:window-height="829"
   id="namedview9"
   showgrid="false"
   fit-margin-top="0"
   fit-margin-left="0"
   fit-margin-right="0"
   fit-margin-bottom="0"
   inkscape:zoom="1.8955823"
   inkscape:cx="-137.27543"
   inkscape:cy="62.049998"
   inkscape:window-x="0"
   inkscape:window-y="0"
   inkscape:window-maximized="1"
   inkscape:current-layer="Layer_1" />
<g
   id="g6"
   transform="matrix(0.29223744,0,0,0.29223744,0,-0.08568144)"
   style="fill:#55245a;fill-opacity:1">
	<path
   d="m 74.7,14.8 c 0,0 -1.4,0.4 -3.7,1.1 -0.4,-1.3 -1,-2.8 -1.8,-4.4 -2.6,-5 -6.5,-7.7 -11.1,-7.7 0,0 0,0 0,0 -0.3,0 -0.6,0 -1,0.1 C 57,3.7 56.8,3.6 56.7,3.4 54.7,1.2 52.1,0.2 49,0.3 43,0.5 37,4.8 32.2,12.5 c -3.4,5.4 -6,12.2 -6.7,17.5 -6.9,2.1 -11.7,3.6 -11.8,3.7 -3.5,1.1 -3.6,1.2 -4,4.5 -0.6,2.5 -9.7,73 -9.7,73 l 75.6,13.1 V 14.6 c -0.4,0.1 -0.7,0.1 -0.9,0.2 z m -17.5,5.4 c -4,1.2 -8.4,2.6 -12.7,3.9 1.2,-4.7 3.6,-9.4 6.4,-12.5 1.1,-1.1 2.6,-2.4 4.3,-3.2 1.7,3.6 2.1,8.5 2,11.8 z M 49.1,4.3 c 1.4,0 2.6,0.3 3.6,0.9 -1.6,0.8 -3.2,2.1 -4.7,3.6 -3.8,4.1 -6.7,10.5 -7.9,16.6 -3.6,1.1 -7.2,2.2 -10.5,3.2 2.1,-9.5 10.2,-24 19.5,-24.3 z m -11.7,55 c 0.4,6.4 17.3,7.8 18.3,22.9 0.7,11.9 -6.3,20 -16.4,20.6 -12.2,0.8 -18.9,-6.4 -18.9,-6.4 l 2.6,-11 c 0,0 6.7,5.1 12.1,4.7 C 38.6,89.9 39.9,87 39.8,85 39.3,76.6 25.5,77.1 24.6,63.3 23.8,51.8 31.4,40.1 48.2,39 54.7,38.6 58,40.2 58,40.2 l -3.8,14.4 c 0,0 -4.3,-2 -9.4,-1.6 -7.4,0.5 -7.5,5.2 -7.4,6.3 z M 61.2,19 c 0,-3 -0.4,-7.3 -1.8,-10.9 4.6,0.9 6.8,6 7.8,9.1 -1.8,0.5 -3.8,1.1 -6,1.8 z"
   id="path2"
   inkscape:connector-curvature="0"
   style="fill:#55245a;fill-opacity:1" />
	<path
   d="m 78.1,123.9 31.4,-7.8 c 0,0 -13.5,-91.3 -13.6,-91.9 -0.1,-0.6 -0.6,-1 -1.1,-1 -0.5,0 -9.3,-0.2 -9.3,-0.2 0,0 -5.4,-5.2 -7.4,-7.2 z"
   id="path4"
   inkscape:connector-curvature="0"
   style="fill:#55245a;fill-opacity:1" />
</g>
</svg>