<?xml version="1.0" encoding="UTF-8"?>
<svg version="1.1" viewBox="0 0 320 320" xmlns="http://www.w3.org/2000/svg" xmlns:cc="http://creativecommons.org/ns#" xmlns:dc="http://purl.org/dc/elements/1.1/" xmlns:rdf="http://www.w3.org/1999/02/22-rdf-syntax-ns#">
<metadata>
<rdf:RDF>
<cc:Work rdf:about="">
<dc:format>image/svg+xml</dc:format>
<dc:type rdf:resource="http://purl.org/dc/dcmitype/StillImage"/>
<dc:title/>
</cc:Work>
</rdf:RDF>
</metadata>
<g transform="matrix(.73049 0 0 .74074 128.61 0)" fill="#f5df4d" fill-rule="evenodd">
<g transform="translate(176)">
<g fill="#f5df4d">
<path d="m10 0 32 16v-13.82a10 10 0 0 0-0.24-2.18h-2.06a8 8 0 0 1 0.3 2.18v10.58l-25.53-12.76zm31.76 24a10 10 0 0 0-5.29-6.76l-32.47-16.24-2-1v13.82a10 10 0 0 0 5.53 8.94l2.47 1.24h4.47l-6.05-3.02a8 8 0 0 1-4.42-7.16v-10.58l31.58 15.78a8 8 0 0 1 4.12 4.98zm36.24 0 2.47-1.24a10 10 0 0 0 5.53-8.94v-13.82l-2 1-32.47 16.24a10 10 0 0 0-5.29 6.76h2.06a8 8 0 0 1 4.12-4.98l31.58-15.78v10.58a8 8 0 0 1-4.42 7.16l-6.05 3.02zm0-24-32 16v-13.82a10 10 0 0 1 0.24-2.18h2.06a8 8 0 0 0-0.3 2.18v10.58l25.53-12.76z" fill="#f5df4d"/>
</g>
</g>
<g fill="#f5df4d">
<path d="m10 0 32 16v-13.82a10 10 0 0 0-0.24-2.18h-2.06a8 8 0 0 1 0.3 2.18v10.58l-25.53-12.76zm31.76 24a10 10 0 0 0-5.29-6.76l-32.47-16.24-2-1v13.82a10 10 0 0 0 5.53 8.94l2.47 1.24h4.47l-6.05-3.02a8 8 0 0 1-4.42-7.16v-10.58l31.58 15.78a8 8 0 0 1 4.12 4.98zm36.24 0 2.47-1.24a10 10 0 0 0 5.53-8.94v-13.82l-2 1-32.47 16.24a10 10 0 0 0-5.29 6.76h2.06a8 8 0 0 1 4.12-4.98l31.58-15.78v10.58a8 8 0 0 1-4.42 7.16l-6.05 3.02zm0-24-32 16v-13.82a10 10 0 0 1 0.24-2.18h2.06a8 8 0 0 0-0.3 2.18v10.58l25.53-12.76z" fill="#f5df4d"/>
</g>
<g fill="#f5df4d">
<path d="m10 0 32 16v-13.82a10 10 0 0 0-0.24-2.18h-2.06a8 8 0 0 1 0.3 2.18v10.58l-25.53-12.76zm31.76 24a10 10 0 0 0-5.29-6.76l-32.47-16.24-2-1v13.82a10 10 0 0 0 5.53 8.94l2.47 1.24h4.47l-6.05-3.02a8 8 0 0 1-4.42-7.16v-10.58l31.58 15.78a8 8 0 0 1 4.12 4.98zm36.24 0 2.47-1.24a10 10 0 0 0 5.53-8.94v-13.82l-2 1-32.47 16.24a10 10 0 0 0-5.29 6.76h2.06a8 8 0 0 1 4.12-4.98l31.58-15.78v10.58a8 8 0 0 1-4.42 7.16l-6.05 3.02zm0-24-32 16v-13.82a10 10 0 0 1 0.24-2.18h2.06a8 8 0 0 0-0.3 2.18v10.58l25.53-12.76z" fill="#f5df4d"/>
</g>
<g transform="translate(-176)">
<g fill="#f5df4d">
<path d="m10 0 32 16v-13.82a10 10 0 0 0-0.24-2.18h-2.06a8 8 0 0 1 0.3 2.18v10.58l-25.53-12.76zm31.76 24a10 10 0 0 0-5.29-6.76l-32.47-16.24-2-1v13.82a10 10 0 0 0 5.53 8.94l2.47 1.24h4.47l-6.05-3.02a8 8 0 0 1-4.42-7.16v-10.58l31.58 15.78a8 8 0 0 1 4.12 4.98zm36.24 0 2.47-1.24a10 10 0 0 0 5.53-8.94v-13.82l-2 1-32.47 16.24a10 10 0 0 0-5.29 6.76h2.06a8 8 0 0 1 4.12-4.98l31.58-15.78v10.58a8 8 0 0 1-4.42 7.16l-6.05 3.02zm0-24-32 16v-13.82a10 10 0 0 1 0.24-2.18h2.06a8 8 0 0 0-0.3 2.18v10.58l25.53-12.76z" fill="#f5df4d"/>
</g>
</g>
<g transform="translate(88)">
<g fill="#f5df4d">
<path d="m10 0 32 16v-13.82a10 10 0 0 0-0.24-2.18h-2.06a8 8 0 0 1 0.3 2.18v10.58l-25.53-12.76zm31.76 24a10 10 0 0 0-5.29-6.76l-32.47-16.24-2-1v13.82a10 10 0 0 0 5.53 8.94l2.47 1.24h4.47l-6.05-3.02a8 8 0 0 1-4.42-7.16v-10.58l31.58 15.78a8 8 0 0 1 4.12 4.98zm36.24 0 2.47-1.24a10 10 0 0 0 5.53-8.94v-13.82l-2 1-32.47 16.24a10 10 0 0 0-5.29 6.76h2.06a8 8 0 0 1 4.12-4.98l31.58-15.78v10.58a8 8 0 0 1-4.42 7.16l-6.05 3.02zm0-24-32 16v-13.82a10 10 0 0 1 0.24-2.18h2.06a8 8 0 0 0-0.3 2.18v10.58l25.53-12.76z" fill="#f5df4d"/>
</g>
</g>
<g transform="translate(-88)">
<g fill="#f5df4d">
<path d="m10 0 32 16v-13.82a10 10 0 0 0-0.24-2.18h-2.06a8 8 0 0 1 0.3 2.18v10.58l-25.53-12.76zm31.76 24a10 10 0 0 0-5.29-6.76l-32.47-16.24-2-1v13.82a10 10 0 0 0 5.53 8.94l2.47 1.24h4.47l-6.05-3.02a8 8 0 0 1-4.42-7.16v-10.58l31.58 15.78a8 8 0 0 1 4.12 4.98zm36.24 0 2.47-1.24a10 10 0 0 0 5.53-8.94v-13.82l-2 1-32.47 16.24a10 10 0 0 0-5.29 6.76h2.06a8 8 0 0 1 4.12-4.98l31.58-15.78v10.58a8 8 0 0 1-4.42 7.16l-6.05 3.02zm0-24-32 16v-13.82a10 10 0 0 1 0.24-2.18h2.06a8 8 0 0 0-0.3 2.18v10.58l25.53-12.76z" fill="#f5df4d"/>
</g>
</g>
<g transform="translate(0,336)">
<g transform="translate(176)">
<g fill="#f5df4d">
<path d="m10 0 32 16v-13.82a10 10 0 0 0-0.24-2.18h-2.06a8 8 0 0 1 0.3 2.18v10.58l-25.53-12.76zm31.76 24a10 10 0 0 0-5.29-6.76l-32.47-16.24-2-1v13.82a10 10 0 0 0 5.53 8.94l2.47 1.24h4.47l-6.05-3.02a8 8 0 0 1-4.42-7.16v-10.58l31.58 15.78a8 8 0 0 1 4.12 4.98zm36.24 0 2.47-1.24a10 10 0 0 0 5.53-8.94v-13.82l-2 1-32.47 16.24a10 10 0 0 0-5.29 6.76h2.06a8 8 0 0 1 4.12-4.98l31.58-15.78v10.58a8 8 0 0 1-4.42 7.16l-6.05 3.02zm0-24-32 16v-13.82a10 10 0 0 1 0.24-2.18h2.06a8 8 0 0 0-0.3 2.18v10.58l25.53-12.76z" fill="#f5df4d"/>
</g>
</g>
<g fill="#f5df4d">
<path d="m10 0 32 16v-13.82a10 10 0 0 0-0.24-2.18h-2.06a8 8 0 0 1 0.3 2.18v10.58l-25.53-12.76zm31.76 24a10 10 0 0 0-5.29-6.76l-32.47-16.24-2-1v13.82a10 10 0 0 0 5.53 8.94l2.47 1.24h4.47l-6.05-3.02a8 8 0 0 1-4.42-7.16v-10.58l31.58 15.78a8 8 0 0 1 4.12 4.98zm36.24 0 2.47-1.24a10 10 0 0 0 5.53-8.94v-13.82l-2 1-32.47 16.24a10 10 0 0 0-5.29 6.76h2.06a8 8 0 0 1 4.12-4.98l31.58-15.78v10.58a8 8 0 0 1-4.42 7.16l-6.05 3.02zm0-24-32 16v-13.82a10 10 0 0 1 0.24-2.18h2.06a8 8 0 0 0-0.3 2.18v10.58l25.53-12.76z" fill="#f5df4d"/>
</g>
<g fill="#f5df4d">
<path d="m10 0 32 16v-13.82a10 10 0 0 0-0.24-2.18h-2.06a8 8 0 0 1 0.3 2.18v10.58l-25.53-12.76zm31.76 24a10 10 0 0 0-5.29-6.76l-32.47-16.24-2-1v13.82a10 10 0 0 0 5.53 8.94l2.47 1.24h4.47l-6.05-3.02a8 8 0 0 1-4.42-7.16v-10.58l31.58 15.78a8 8 0 0 1 4.12 4.98zm36.24 0 2.47-1.24a10 10 0 0 0 5.53-8.94v-13.82l-2 1-32.47 16.24a10 10 0 0 0-5.29 6.76h2.06a8 8 0 0 1 4.12-4.98l31.58-15.78v10.58a8 8 0 0 1-4.42 7.16l-6.05 3.02zm0-24-32 16v-13.82a10 10 0 0 1 0.24-2.18h2.06a8 8 0 0 0-0.3 2.18v10.58l25.53-12.76z" fill="#f5df4d"/>
</g>
<g transform="translate(-176)">
<g fill="#f5df4d">
<path d="m10 0 32 16v-13.82a10 10 0 0 0-0.24-2.18h-2.06a8 8 0 0 1 0.3 2.18v10.58l-25.53-12.76zm31.76 24a10 10 0 0 0-5.29-6.76l-32.47-16.24-2-1v13.82a10 10 0 0 0 5.53 8.94l2.47 1.24h4.47l-6.05-3.02a8 8 0 0 1-4.42-7.16v-10.58l31.58 15.78a8 8 0 0 1 4.12 4.98zm36.24 0 2.47-1.24a10 10 0 0 0 5.53-8.94v-13.82l-2 1-32.47 16.24a10 10 0 0 0-5.29 6.76h2.06a8 8 0 0 1 4.12-4.98l31.58-15.78v10.58a8 8 0 0 1-4.42 7.16l-6.05 3.02zm0-24-32 16v-13.82a10 10 0 0 1 0.24-2.18h2.06a8 8 0 0 0-0.3 2.18v10.58l25.53-12.76z" fill="#f5df4d"/>
</g>
</g>
<g transform="translate(88)">
<g fill="#f5df4d">
<path d="m10 0 32 16v-13.82a10 10 0 0 0-0.24-2.18h-2.06a8 8 0 0 1 0.3 2.18v10.58l-25.53-12.76zm31.76 24a10 10 0 0 0-5.29-6.76l-32.47-16.24-2-1v13.82a10 10 0 0 0 5.53 8.94l2.47 1.24h4.47l-6.05-3.02a8 8 0 0 1-4.42-7.16v-10.58l31.58 15.78a8 8 0 0 1 4.12 4.98zm36.24 0 2.47-1.24a10 10 0 0 0 5.53-8.94v-13.82l-2 1-32.47 16.24a10 10 0 0 0-5.29 6.76h2.06a8 8 0 0 1 4.12-4.98l31.58-15.78v10.58a8 8 0 0 1-4.42 7.16l-6.05 3.02zm0-24-32 16v-13.82a10 10 0 0 1 0.24-2.18h2.06a8 8 0 0 0-0.3 2.18v10.58l25.53-12.76z" fill="#f5df4d"/>
</g>
</g>
<g transform="translate(-88)">
<g fill="#f5df4d">
<path d="m10 0 32 16v-13.82a10 10 0 0 0-0.24-2.18h-2.06a8 8 0 0 1 0.3 2.18v10.58l-25.53-12.76zm31.76 24a10 10 0 0 0-5.29-6.76l-32.47-16.24-2-1v13.82a10 10 0 0 0 5.53 8.94l2.47 1.24h4.47l-6.05-3.02a8 8 0 0 1-4.42-7.16v-10.58l31.58 15.78a8 8 0 0 1 4.12 4.98zm36.24 0 2.47-1.24a10 10 0 0 0 5.53-8.94v-13.82l-2 1-32.47 16.24a10 10 0 0 0-5.29 6.76h2.06a8 8 0 0 1 4.12-4.98l31.58-15.78v10.58a8 8 0 0 1-4.42 7.16l-6.05 3.02zm0-24-32 16v-13.82a10 10 0 0 1 0.24-2.18h2.06a8 8 0 0 0-0.3 2.18v10.58l25.53-12.76z" fill="#f5df4d"/>
</g>
</g>
</g>
<g transform="translate(0,312)">
<g transform="translate(176)">
<g fill="#f5df4d">
<path d="m10 0 32 16v-13.82a10 10 0 0 0-0.24-2.18h-2.06a8 8 0 0 1 0.3 2.18v10.58l-25.53-12.76zm31.76 24a10 10 0 0 0-5.29-6.76l-32.47-16.24-2-1v13.82a10 10 0 0 0 5.53 8.94l2.47 1.24h4.47l-6.05-3.02a8 8 0 0 1-4.42-7.16v-10.58l31.58 15.78a8 8 0 0 1 4.12 4.98zm36.24 0 2.47-1.24a10 10 0 0 0 5.53-8.94v-13.82l-2 1-32.47 16.24a10 10 0 0 0-5.29 6.76h2.06a8 8 0 0 1 4.12-4.98l31.58-15.78v10.58a8 8 0 0 1-4.42 7.16l-6.05 3.02zm0-24-32 16v-13.82a10 10 0 0 1 0.24-2.18h2.06a8 8 0 0 0-0.3 2.18v10.58l25.53-12.76z" fill="#f5df4d"/>
</g>
</g>
<g fill="#f5df4d">
<path d="m10 0 32 16v-13.82a10 10 0 0 0-0.24-2.18h-2.06a8 8 0 0 1 0.3 2.18v10.58l-25.53-12.76zm31.76 24a10 10 0 0 0-5.29-6.76l-32.47-16.24-2-1v13.82a10 10 0 0 0 5.53 8.94l2.47 1.24h4.47l-6.05-3.02a8 8 0 0 1-4.42-7.16v-10.58l31.58 15.78a8 8 0 0 1 4.12 4.98zm36.24 0 2.47-1.24a10 10 0 0 0 5.53-8.94v-13.82l-2 1-32.47 16.24a10 10 0 0 0-5.29 6.76h2.06a8 8 0 0 1 4.12-4.98l31.58-15.78v10.58a8 8 0 0 1-4.42 7.16l-6.05 3.02zm0-24-32 16v-13.82a10 10 0 0 1 0.24-2.18h2.06a8 8 0 0 0-0.3 2.18v10.58l25.53-12.76z" fill="#f5df4d"/>
</g>
<g fill="#f5df4d">
<path d="m10 0 32 16v-13.82a10 10 0 0 0-0.24-2.18h-2.06a8 8 0 0 1 0.3 2.18v10.58l-25.53-12.76zm31.76 24a10 10 0 0 0-5.29-6.76l-32.47-16.24-2-1v13.82a10 10 0 0 0 5.53 8.94l2.47 1.24h4.47l-6.05-3.02a8 8 0 0 1-4.42-7.16v-10.58l31.58 15.78a8 8 0 0 1 4.12 4.98zm36.24 0 2.47-1.24a10 10 0 0 0 5.53-8.94v-13.82l-2 1-32.47 16.24a10 10 0 0 0-5.29 6.76h2.06a8 8 0 0 1 4.12-4.98l31.58-15.78v10.58a8 8 0 0 1-4.42 7.16l-6.05 3.02zm0-24-32 16v-13.82a10 10 0 0 1 0.24-2.18h2.06a8 8 0 0 0-0.3 2.18v10.58l25.53-12.76z" fill="#f5df4d"/>
</g>
<g transform="translate(-176)">
<g fill="#f5df4d">
<path d="m10 0 32 16v-13.82a10 10 0 0 0-0.24-2.18h-2.06a8 8 0 0 1 0.3 2.18v10.58l-25.53-12.76zm31.76 24a10 10 0 0 0-5.29-6.76l-32.47-16.24-2-1v13.82a10 10 0 0 0 5.53 8.94l2.47 1.24h4.47l-6.05-3.02a8 8 0 0 1-4.42-7.16v-10.58l31.58 15.78a8 8 0 0 1 4.12 4.98zm36.24 0 2.47-1.24a10 10 0 0 0 5.53-8.94v-13.82l-2 1-32.47 16.24a10 10 0 0 0-5.29 6.76h2.06a8 8 0 0 1 4.12-4.98l31.58-15.78v10.58a8 8 0 0 1-4.42 7.16l-6.05 3.02zm0-24-32 16v-13.82a10 10 0 0 1 0.24-2.18h2.06a8 8 0 0 0-0.3 2.18v10.58l25.53-12.76z" fill="#f5df4d"/>
</g>
</g>
<g transform="translate(88)">
<g fill="#f5df4d">
<path d="m10 0 32 16v-13.82a10 10 0 0 0-0.24-2.18h-2.06a8 8 0 0 1 0.3 2.18v10.58l-25.53-12.76zm31.76 24a10 10 0 0 0-5.29-6.76l-32.47-16.24-2-1v13.82a10 10 0 0 0 5.53 8.94l2.47 1.24h4.47l-6.05-3.02a8 8 0 0 1-4.42-7.16v-10.58l31.58 15.78a8 8 0 0 1 4.12 4.98zm36.24 0 2.47-1.24a10 10 0 0 0 5.53-8.94v-13.82l-2 1-32.47 16.24a10 10 0 0 0-5.29 6.76h2.06a8 8 0 0 1 4.12-4.98l31.58-15.78v10.58a8 8 0 0 1-4.42 7.16l-6.05 3.02zm0-24-32 16v-13.82a10 10 0 0 1 0.24-2.18h2.06a8 8 0 0 0-0.3 2.18v10.58l25.53-12.76z" fill="#f5df4d"/>
</g>
</g>
<g transform="translate(-88)">
<g fill="#f5df4d">
<path d="m10 0 32 16v-13.82a10 10 0 0 0-0.24-2.18h-2.06a8 8 0 0 1 0.3 2.18v10.58l-25.53-12.76zm31.76 24a10 10 0 0 0-5.29-6.76l-32.47-16.24-2-1v13.82a10 10 0 0 0 5.53 8.94l2.47 1.24h4.47l-6.05-3.02a8 8 0 0 1-4.42-7.16v-10.58l31.58 15.78a8 8 0 0 1 4.12 4.98zm36.24 0 2.47-1.24a10 10 0 0 0 5.53-8.94v-13.82l-2 1-32.47 16.24a10 10 0 0 0-5.29 6.76h2.06a8 8 0 0 1 4.12-4.98l31.58-15.78v10.58a8 8 0 0 1-4.42 7.16l-6.05 3.02zm0-24-32 16v-13.82a10 10 0 0 1 0.24-2.18h2.06a8 8 0 0 0-0.3 2.18v10.58l25.53-12.76z" fill="#f5df4d"/>
</g>
</g>
</g>
<g transform="translate(0,288)">
<g transform="translate(176)">
<g fill="#f5df4d">
<path d="m10 0 32 16v-13.82a10 10 0 0 0-0.24-2.18h-2.06a8 8 0 0 1 0.3 2.18v10.58l-25.53-12.76zm31.76 24a10 10 0 0 0-5.29-6.76l-32.47-16.24-2-1v13.82a10 10 0 0 0 5.53 8.94l2.47 1.24h4.47l-6.05-3.02a8 8 0 0 1-4.42-7.16v-10.58l31.58 15.78a8 8 0 0 1 4.12 4.98zm36.24 0 2.47-1.24a10 10 0 0 0 5.53-8.94v-13.82l-2 1-32.47 16.24a10 10 0 0 0-5.29 6.76h2.06a8 8 0 0 1 4.12-4.98l31.58-15.78v10.58a8 8 0 0 1-4.42 7.16l-6.05 3.02zm0-24-32 16v-13.82a10 10 0 0 1 0.24-2.18h2.06a8 8 0 0 0-0.3 2.18v10.58l25.53-12.76z" fill="#f5df4d"/>
</g>
</g>
<g fill="#f5df4d">
<path d="m10 0 32 16v-13.82a10 10 0 0 0-0.24-2.18h-2.06a8 8 0 0 1 0.3 2.18v10.58l-25.53-12.76zm31.76 24a10 10 0 0 0-5.29-6.76l-32.47-16.24-2-1v13.82a10 10 0 0 0 5.53 8.94l2.47 1.24h4.47l-6.05-3.02a8 8 0 0 1-4.42-7.16v-10.58l31.58 15.78a8 8 0 0 1 4.12 4.98zm36.24 0 2.47-1.24a10 10 0 0 0 5.53-8.94v-13.82l-2 1-32.47 16.24a10 10 0 0 0-5.29 6.76h2.06a8 8 0 0 1 4.12-4.98l31.58-15.78v10.58a8 8 0 0 1-4.42 7.16l-6.05 3.02zm0-24-32 16v-13.82a10 10 0 0 1 0.24-2.18h2.06a8 8 0 0 0-0.3 2.18v10.58l25.53-12.76z" fill="#f5df4d"/>
</g>
<g fill="#f5df4d">
<path d="m10 0 32 16v-13.82a10 10 0 0 0-0.24-2.18h-2.06a8 8 0 0 1 0.3 2.18v10.58l-25.53-12.76zm31.76 24a10 10 0 0 0-5.29-6.76l-32.47-16.24-2-1v13.82a10 10 0 0 0 5.53 8.94l2.47 1.24h4.47l-6.05-3.02a8 8 0 0 1-4.42-7.16v-10.58l31.58 15.78a8 8 0 0 1 4.12 4.98zm36.24 0 2.47-1.24a10 10 0 0 0 5.53-8.94v-13.82l-2 1-32.47 16.24a10 10 0 0 0-5.29 6.76h2.06a8 8 0 0 1 4.12-4.98l31.58-15.78v10.58a8 8 0 0 1-4.42 7.16l-6.05 3.02zm0-24-32 16v-13.82a10 10 0 0 1 0.24-2.18h2.06a8 8 0 0 0-0.3 2.18v10.58l25.53-12.76z" fill="#f5df4d"/>
</g>
<g transform="translate(-176)">
<g fill="#f5df4d">
<path d="m10 0 32 16v-13.82a10 10 0 0 0-0.24-2.18h-2.06a8 8 0 0 1 0.3 2.18v10.58l-25.53-12.76zm31.76 24a10 10 0 0 0-5.29-6.76l-32.47-16.24-2-1v13.82a10 10 0 0 0 5.53 8.94l2.47 1.24h4.47l-6.05-3.02a8 8 0 0 1-4.42-7.16v-10.58l31.58 15.78a8 8 0 0 1 4.12 4.98zm36.24 0 2.47-1.24a10 10 0 0 0 5.53-8.94v-13.82l-2 1-32.47 16.24a10 10 0 0 0-5.29 6.76h2.06a8 8 0 0 1 4.12-4.98l31.58-15.78v10.58a8 8 0 0 1-4.42 7.16l-6.05 3.02zm0-24-32 16v-13.82a10 10 0 0 1 0.24-2.18h2.06a8 8 0 0 0-0.3 2.18v10.58l25.53-12.76z" fill="#f5df4d"/>
</g>
</g>
<g transform="translate(88)">
<g fill="#f5df4d">
<path d="m10 0 32 16v-13.82a10 10 0 0 0-0.24-2.18h-2.06a8 8 0 0 1 0.3 2.18v10.58l-25.53-12.76zm31.76 24a10 10 0 0 0-5.29-6.76l-32.47-16.24-2-1v13.82a10 10 0 0 0 5.53 8.94l2.47 1.24h4.47l-6.05-3.02a8 8 0 0 1-4.42-7.16v-10.58l31.58 15.78a8 8 0 0 1 4.12 4.98zm36.24 0 2.47-1.24a10 10 0 0 0 5.53-8.94v-13.82l-2 1-32.47 16.24a10 10 0 0 0-5.29 6.76h2.06a8 8 0 0 1 4.12-4.98l31.58-15.78v10.58a8 8 0 0 1-4.42 7.16l-6.05 3.02zm0-24-32 16v-13.82a10 10 0 0 1 0.24-2.18h2.06a8 8 0 0 0-0.3 2.18v10.58l25.53-12.76z" fill="#f5df4d"/>
</g>
</g>
<g transform="translate(-88)">
<g fill="#f5df4d">
<path d="m10 0 32 16v-13.82a10 10 0 0 0-0.24-2.18h-2.06a8 8 0 0 1 0.3 2.18v10.58l-25.53-12.76zm31.76 24a10 10 0 0 0-5.29-6.76l-32.47-16.24-2-1v13.82a10 10 0 0 0 5.53 8.94l2.47 1.24h4.47l-6.05-3.02a8 8 0 0 1-4.42-7.16v-10.58l31.58 15.78a8 8 0 0 1 4.12 4.98zm36.24 0 2.47-1.24a10 10 0 0 0 5.53-8.94v-13.82l-2 1-32.47 16.24a10 10 0 0 0-5.29 6.76h2.06a8 8 0 0 1 4.12-4.98l31.58-15.78v10.58a8 8 0 0 1-4.42 7.16l-6.05 3.02zm0-24-32 16v-13.82a10 10 0 0 1 0.24-2.18h2.06a8 8 0 0 0-0.3 2.18v10.58l25.53-12.76z" fill="#f5df4d"/>
</g>
</g>
</g>
<g transform="translate(0,264)">
<g transform="translate(176)">
<g fill="#f5df4d">
<path d="m10 0 32 16v-13.82a10 10 0 0 0-0.24-2.18h-2.06a8 8 0 0 1 0.3 2.18v10.58l-25.53-12.76zm31.76 24a10 10 0 0 0-5.29-6.76l-32.47-16.24-2-1v13.82a10 10 0 0 0 5.53 8.94l2.47 1.24h4.47l-6.05-3.02a8 8 0 0 1-4.42-7.16v-10.58l31.58 15.78a8 8 0 0 1 4.12 4.98zm36.24 0 2.47-1.24a10 10 0 0 0 5.53-8.94v-13.82l-2 1-32.47 16.24a10 10 0 0 0-5.29 6.76h2.06a8 8 0 0 1 4.12-4.98l31.58-15.78v10.58a8 8 0 0 1-4.42 7.16l-6.05 3.02zm0-24-32 16v-13.82a10 10 0 0 1 0.24-2.18h2.06a8 8 0 0 0-0.3 2.18v10.58l25.53-12.76z" fill="#f5df4d"/>
</g>
</g>
<g fill="#f5df4d">
<path d="m10 0 32 16v-13.82a10 10 0 0 0-0.24-2.18h-2.06a8 8 0 0 1 0.3 2.18v10.58l-25.53-12.76zm31.76 24a10 10 0 0 0-5.29-6.76l-32.47-16.24-2-1v13.82a10 10 0 0 0 5.53 8.94l2.47 1.24h4.47l-6.05-3.02a8 8 0 0 1-4.42-7.16v-10.58l31.58 15.78a8 8 0 0 1 4.12 4.98zm36.24 0 2.47-1.24a10 10 0 0 0 5.53-8.94v-13.82l-2 1-32.47 16.24a10 10 0 0 0-5.29 6.76h2.06a8 8 0 0 1 4.12-4.98l31.58-15.78v10.58a8 8 0 0 1-4.42 7.16l-6.05 3.02zm0-24-32 16v-13.82a10 10 0 0 1 0.24-2.18h2.06a8 8 0 0 0-0.3 2.18v10.58l25.53-12.76z" fill="#f5df4d"/>
</g>
<g fill="#f5df4d">
<path d="m10 0 32 16v-13.82a10 10 0 0 0-0.24-2.18h-2.06a8 8 0 0 1 0.3 2.18v10.58l-25.53-12.76zm31.76 24a10 10 0 0 0-5.29-6.76l-32.47-16.24-2-1v13.82a10 10 0 0 0 5.53 8.94l2.47 1.24h4.47l-6.05-3.02a8 8 0 0 1-4.42-7.16v-10.58l31.58 15.78a8 8 0 0 1 4.12 4.98zm36.24 0 2.47-1.24a10 10 0 0 0 5.53-8.94v-13.82l-2 1-32.47 16.24a10 10 0 0 0-5.29 6.76h2.06a8 8 0 0 1 4.12-4.98l31.58-15.78v10.58a8 8 0 0 1-4.42 7.16l-6.05 3.02zm0-24-32 16v-13.82a10 10 0 0 1 0.24-2.18h2.06a8 8 0 0 0-0.3 2.18v10.58l25.53-12.76z" fill="#f5df4d"/>
</g>
<g transform="translate(-176)">
<g fill="#f5df4d">
<path d="m10 0 32 16v-13.82a10 10 0 0 0-0.24-2.18h-2.06a8 8 0 0 1 0.3 2.18v10.58l-25.53-12.76zm31.76 24a10 10 0 0 0-5.29-6.76l-32.47-16.24-2-1v13.82a10 10 0 0 0 5.53 8.94l2.47 1.24h4.47l-6.05-3.02a8 8 0 0 1-4.42-7.16v-10.58l31.58 15.78a8 8 0 0 1 4.12 4.98zm36.24 0 2.47-1.24a10 10 0 0 0 5.53-8.94v-13.82l-2 1-32.47 16.24a10 10 0 0 0-5.29 6.76h2.06a8 8 0 0 1 4.12-4.98l31.58-15.78v10.58a8 8 0 0 1-4.42 7.16l-6.05 3.02zm0-24-32 16v-13.82a10 10 0 0 1 0.24-2.18h2.06a8 8 0 0 0-0.3 2.18v10.58l25.53-12.76z" fill="#f5df4d"/>
</g>
</g>
<g transform="translate(88)">
<g fill="#f5df4d">
<path d="m10 0 32 16v-13.82a10 10 0 0 0-0.24-2.18h-2.06a8 8 0 0 1 0.3 2.18v10.58l-25.53-12.76zm31.76 24a10 10 0 0 0-5.29-6.76l-32.47-16.24-2-1v13.82a10 10 0 0 0 5.53 8.94l2.47 1.24h4.47l-6.05-3.02a8 8 0 0 1-4.42-7.16v-10.58l31.58 15.78a8 8 0 0 1 4.12 4.98zm36.24 0 2.47-1.24a10 10 0 0 0 5.53-8.94v-13.82l-2 1-32.47 16.24a10 10 0 0 0-5.29 6.76h2.06a8 8 0 0 1 4.12-4.98l31.58-15.78v10.58a8 8 0 0 1-4.42 7.16l-6.05 3.02zm0-24-32 16v-13.82a10 10 0 0 1 0.24-2.18h2.06a8 8 0 0 0-0.3 2.18v10.58l25.53-12.76z" fill="#f5df4d"/>
</g>
</g>
<g transform="translate(-88)">
<g fill="#f5df4d">
<path d="m10 0 32 16v-13.82a10 10 0 0 0-0.24-2.18h-2.06a8 8 0 0 1 0.3 2.18v10.58l-25.53-12.76zm31.76 24a10 10 0 0 0-5.29-6.76l-32.47-16.24-2-1v13.82a10 10 0 0 0 5.53 8.94l2.47 1.24h4.47l-6.05-3.02a8 8 0 0 1-4.42-7.16v-10.58l31.58 15.78a8 8 0 0 1 4.12 4.98zm36.24 0 2.47-1.24a10 10 0 0 0 5.53-8.94v-13.82l-2 1-32.47 16.24a10 10 0 0 0-5.29 6.76h2.06a8 8 0 0 1 4.12-4.98l31.58-15.78v10.58a8 8 0 0 1-4.42 7.16l-6.05 3.02zm0-24-32 16v-13.82a10 10 0 0 1 0.24-2.18h2.06a8 8 0 0 0-0.3 2.18v10.58l25.53-12.76z" fill="#f5df4d"/>
</g>
</g>
</g>
<g transform="translate(0,240)">
<g transform="translate(176)">
<g fill="#f5df4d">
<path d="m10 0 32 16v-13.82a10 10 0 0 0-0.24-2.18h-2.06a8 8 0 0 1 0.3 2.18v10.58l-25.53-12.76zm31.76 24a10 10 0 0 0-5.29-6.76l-32.47-16.24-2-1v13.82a10 10 0 0 0 5.53 8.94l2.47 1.24h4.47l-6.05-3.02a8 8 0 0 1-4.42-7.16v-10.58l31.58 15.78a8 8 0 0 1 4.12 4.98zm36.24 0 2.47-1.24a10 10 0 0 0 5.53-8.94v-13.82l-2 1-32.47 16.24a10 10 0 0 0-5.29 6.76h2.06a8 8 0 0 1 4.12-4.98l31.58-15.78v10.58a8 8 0 0 1-4.42 7.16l-6.05 3.02zm0-24-32 16v-13.82a10 10 0 0 1 0.24-2.18h2.06a8 8 0 0 0-0.3 2.18v10.58l25.53-12.76z" fill="#f5df4d"/>
</g>
</g>
<g fill="#f5df4d">
<path d="m10 0 32 16v-13.82a10 10 0 0 0-0.24-2.18h-2.06a8 8 0 0 1 0.3 2.18v10.58l-25.53-12.76zm31.76 24a10 10 0 0 0-5.29-6.76l-32.47-16.24-2-1v13.82a10 10 0 0 0 5.53 8.94l2.47 1.24h4.47l-6.05-3.02a8 8 0 0 1-4.42-7.16v-10.58l31.58 15.78a8 8 0 0 1 4.12 4.98zm36.24 0 2.47-1.24a10 10 0 0 0 5.53-8.94v-13.82l-2 1-32.47 16.24a10 10 0 0 0-5.29 6.76h2.06a8 8 0 0 1 4.12-4.98l31.58-15.78v10.58a8 8 0 0 1-4.42 7.16l-6.05 3.02zm0-24-32 16v-13.82a10 10 0 0 1 0.24-2.18h2.06a8 8 0 0 0-0.3 2.18v10.58l25.53-12.76z" fill="#f5df4d"/>
</g>
<g fill="#f5df4d">
<path d="m10 0 32 16v-13.82a10 10 0 0 0-0.24-2.18h-2.06a8 8 0 0 1 0.3 2.18v10.58l-25.53-12.76zm31.76 24a10 10 0 0 0-5.29-6.76l-32.47-16.24-2-1v13.82a10 10 0 0 0 5.53 8.94l2.47 1.24h4.47l-6.05-3.02a8 8 0 0 1-4.42-7.16v-10.58l31.58 15.78a8 8 0 0 1 4.12 4.98zm36.24 0 2.47-1.24a10 10 0 0 0 5.53-8.94v-13.82l-2 1-32.47 16.24a10 10 0 0 0-5.29 6.76h2.06a8 8 0 0 1 4.12-4.98l31.58-15.78v10.58a8 8 0 0 1-4.42 7.16l-6.05 3.02zm0-24-32 16v-13.82a10 10 0 0 1 0.24-2.18h2.06a8 8 0 0 0-0.3 2.18v10.58l25.53-12.76z" fill="#f5df4d"/>
</g>
<g transform="translate(-176)">
<g fill="#f5df4d">
<path d="m10 0 32 16v-13.82a10 10 0 0 0-0.24-2.18h-2.06a8 8 0 0 1 0.3 2.18v10.58l-25.53-12.76zm31.76 24a10 10 0 0 0-5.29-6.76l-32.47-16.24-2-1v13.82a10 10 0 0 0 5.53 8.94l2.47 1.24h4.47l-6.05-3.02a8 8 0 0 1-4.42-7.16v-10.58l31.58 15.78a8 8 0 0 1 4.12 4.98zm36.24 0 2.47-1.24a10 10 0 0 0 5.53-8.94v-13.82l-2 1-32.47 16.24a10 10 0 0 0-5.29 6.76h2.06a8 8 0 0 1 4.12-4.98l31.58-15.78v10.58a8 8 0 0 1-4.42 7.16l-6.05 3.02zm0-24-32 16v-13.82a10 10 0 0 1 0.24-2.18h2.06a8 8 0 0 0-0.3 2.18v10.58l25.53-12.76z" fill="#f5df4d"/>
</g>
</g>
<g transform="translate(88)">
<g fill="#f5df4d">
<path d="m10 0 32 16v-13.82a10 10 0 0 0-0.24-2.18h-2.06a8 8 0 0 1 0.3 2.18v10.58l-25.53-12.76zm31.76 24a10 10 0 0 0-5.29-6.76l-32.47-16.24-2-1v13.82a10 10 0 0 0 5.53 8.94l2.47 1.24h4.47l-6.05-3.02a8 8 0 0 1-4.42-7.16v-10.58l31.58 15.78a8 8 0 0 1 4.12 4.98zm36.24 0 2.47-1.24a10 10 0 0 0 5.53-8.94v-13.82l-2 1-32.47 16.24a10 10 0 0 0-5.29 6.76h2.06a8 8 0 0 1 4.12-4.98l31.58-15.78v10.58a8 8 0 0 1-4.42 7.16l-6.05 3.02zm0-24-32 16v-13.82a10 10 0 0 1 0.24-2.18h2.06a8 8 0 0 0-0.3 2.18v10.58l25.53-12.76z" fill="#f5df4d"/>
</g>
</g>
<g transform="translate(-88)">
<g fill="#f5df4d">
<path d="m10 0 32 16v-13.82a10 10 0 0 0-0.24-2.18h-2.06a8 8 0 0 1 0.3 2.18v10.58l-25.53-12.76zm31.76 24a10 10 0 0 0-5.29-6.76l-32.47-16.24-2-1v13.82a10 10 0 0 0 5.53 8.94l2.47 1.24h4.47l-6.05-3.02a8 8 0 0 1-4.42-7.16v-10.58l31.58 15.78a8 8 0 0 1 4.12 4.98zm36.24 0 2.47-1.24a10 10 0 0 0 5.53-8.94v-13.82l-2 1-32.47 16.24a10 10 0 0 0-5.29 6.76h2.06a8 8 0 0 1 4.12-4.98l31.58-15.78v10.58a8 8 0 0 1-4.42 7.16l-6.05 3.02zm0-24-32 16v-13.82a10 10 0 0 1 0.24-2.18h2.06a8 8 0 0 0-0.3 2.18v10.58l25.53-12.76z" fill="#f5df4d"/>
</g>
</g>
</g>
<g transform="translate(0,216)">
<g transform="translate(176)">
<g fill="#f5df4d">
<path d="m10 0 32 16v-13.82a10 10 0 0 0-0.24-2.18h-2.06a8 8 0 0 1 0.3 2.18v10.58l-25.53-12.76zm31.76 24a10 10 0 0 0-5.29-6.76l-32.47-16.24-2-1v13.82a10 10 0 0 0 5.53 8.94l2.47 1.24h4.47l-6.05-3.02a8 8 0 0 1-4.42-7.16v-10.58l31.58 15.78a8 8 0 0 1 4.12 4.98zm36.24 0 2.47-1.24a10 10 0 0 0 5.53-8.94v-13.82l-2 1-32.47 16.24a10 10 0 0 0-5.29 6.76h2.06a8 8 0 0 1 4.12-4.98l31.58-15.78v10.58a8 8 0 0 1-4.42 7.16l-6.05 3.02zm0-24-32 16v-13.82a10 10 0 0 1 0.24-2.18h2.06a8 8 0 0 0-0.3 2.18v10.58l25.53-12.76z" fill="#f5df4d"/>
</g>
</g>
<g fill="#f5df4d">
<path d="m10 0 32 16v-13.82a10 10 0 0 0-0.24-2.18h-2.06a8 8 0 0 1 0.3 2.18v10.58l-25.53-12.76zm31.76 24a10 10 0 0 0-5.29-6.76l-32.47-16.24-2-1v13.82a10 10 0 0 0 5.53 8.94l2.47 1.24h4.47l-6.05-3.02a8 8 0 0 1-4.42-7.16v-10.58l31.58 15.78a8 8 0 0 1 4.12 4.98zm36.24 0 2.47-1.24a10 10 0 0 0 5.53-8.94v-13.82l-2 1-32.47 16.24a10 10 0 0 0-5.29 6.76h2.06a8 8 0 0 1 4.12-4.98l31.58-15.78v10.58a8 8 0 0 1-4.42 7.16l-6.05 3.02zm0-24-32 16v-13.82a10 10 0 0 1 0.24-2.18h2.06a8 8 0 0 0-0.3 2.18v10.58l25.53-12.76z" fill="#f5df4d"/>
</g>
<g fill="#f5df4d">
<path d="m10 0 32 16v-13.82a10 10 0 0 0-0.24-2.18h-2.06a8 8 0 0 1 0.3 2.18v10.58l-25.53-12.76zm31.76 24a10 10 0 0 0-5.29-6.76l-32.47-16.24-2-1v13.82a10 10 0 0 0 5.53 8.94l2.47 1.24h4.47l-6.05-3.02a8 8 0 0 1-4.42-7.16v-10.58l31.58 15.78a8 8 0 0 1 4.12 4.98zm36.24 0 2.47-1.24a10 10 0 0 0 5.53-8.94v-13.82l-2 1-32.47 16.24a10 10 0 0 0-5.29 6.76h2.06a8 8 0 0 1 4.12-4.98l31.58-15.78v10.58a8 8 0 0 1-4.42 7.16l-6.05 3.02zm0-24-32 16v-13.82a10 10 0 0 1 0.24-2.18h2.06a8 8 0 0 0-0.3 2.18v10.58l25.53-12.76z" fill="#f5df4d"/>
</g>
<g transform="translate(-176)">
<g fill="#f5df4d">
<path d="m10 0 32 16v-13.82a10 10 0 0 0-0.24-2.18h-2.06a8 8 0 0 1 0.3 2.18v10.58l-25.53-12.76zm31.76 24a10 10 0 0 0-5.29-6.76l-32.47-16.24-2-1v13.82a10 10 0 0 0 5.53 8.94l2.47 1.24h4.47l-6.05-3.02a8 8 0 0 1-4.42-7.16v-10.58l31.58 15.78a8 8 0 0 1 4.12 4.98zm36.24 0 2.47-1.24a10 10 0 0 0 5.53-8.94v-13.82l-2 1-32.47 16.24a10 10 0 0 0-5.29 6.76h2.06a8 8 0 0 1 4.12-4.98l31.58-15.78v10.58a8 8 0 0 1-4.42 7.16l-6.05 3.02zm0-24-32 16v-13.82a10 10 0 0 1 0.24-2.18h2.06a8 8 0 0 0-0.3 2.18v10.58l25.53-12.76z" fill="#f5df4d"/>
</g>
</g>
<g transform="translate(88)">
<g fill="#f5df4d">
<path d="m10 0 32 16v-13.82a10 10 0 0 0-0.24-2.18h-2.06a8 8 0 0 1 0.3 2.18v10.58l-25.53-12.76zm31.76 24a10 10 0 0 0-5.29-6.76l-32.47-16.24-2-1v13.82a10 10 0 0 0 5.53 8.94l2.47 1.24h4.47l-6.05-3.02a8 8 0 0 1-4.42-7.16v-10.58l31.58 15.78a8 8 0 0 1 4.12 4.98zm36.24 0 2.47-1.24a10 10 0 0 0 5.53-8.94v-13.82l-2 1-32.47 16.24a10 10 0 0 0-5.29 6.76h2.06a8 8 0 0 1 4.12-4.98l31.58-15.78v10.58a8 8 0 0 1-4.42 7.16l-6.05 3.02zm0-24-32 16v-13.82a10 10 0 0 1 0.24-2.18h2.06a8 8 0 0 0-0.3 2.18v10.58l25.53-12.76z" fill="#f5df4d"/>
</g>
</g>
<g transform="translate(-88)">
<g fill="#f5df4d">
<path d="m10 0 32 16v-13.82a10 10 0 0 0-0.24-2.18h-2.06a8 8 0 0 1 0.3 2.18v10.58l-25.53-12.76zm31.76 24a10 10 0 0 0-5.29-6.76l-32.47-16.24-2-1v13.82a10 10 0 0 0 5.53 8.94l2.47 1.24h4.47l-6.05-3.02a8 8 0 0 1-4.42-7.16v-10.58l31.58 15.78a8 8 0 0 1 4.12 4.98zm36.24 0 2.47-1.24a10 10 0 0 0 5.53-8.94v-13.82l-2 1-32.47 16.24a10 10 0 0 0-5.29 6.76h2.06a8 8 0 0 1 4.12-4.98l31.58-15.78v10.58a8 8 0 0 1-4.42 7.16l-6.05 3.02zm0-24-32 16v-13.82a10 10 0 0 1 0.24-2.18h2.06a8 8 0 0 0-0.3 2.18v10.58l25.53-12.76z" fill="#f5df4d"/>
</g>
</g>
</g>
<g transform="translate(0,192)">
<g transform="translate(176)">
<g fill="#f5df4d">
<path d="m10 0 32 16v-13.82a10 10 0 0 0-0.24-2.18h-2.06a8 8 0 0 1 0.3 2.18v10.58l-25.53-12.76zm31.76 24a10 10 0 0 0-5.29-6.76l-32.47-16.24-2-1v13.82a10 10 0 0 0 5.53 8.94l2.47 1.24h4.47l-6.05-3.02a8 8 0 0 1-4.42-7.16v-10.58l31.58 15.78a8 8 0 0 1 4.12 4.98zm36.24 0 2.47-1.24a10 10 0 0 0 5.53-8.94v-13.82l-2 1-32.47 16.24a10 10 0 0 0-5.29 6.76h2.06a8 8 0 0 1 4.12-4.98l31.58-15.78v10.58a8 8 0 0 1-4.42 7.16l-6.05 3.02zm0-24-32 16v-13.82a10 10 0 0 1 0.24-2.18h2.06a8 8 0 0 0-0.3 2.18v10.58l25.53-12.76z" fill="#f5df4d"/>
</g>
</g>
<g fill="#f5df4d">
<path d="m10 0 32 16v-13.82a10 10 0 0 0-0.24-2.18h-2.06a8 8 0 0 1 0.3 2.18v10.58l-25.53-12.76zm31.76 24a10 10 0 0 0-5.29-6.76l-32.47-16.24-2-1v13.82a10 10 0 0 0 5.53 8.94l2.47 1.24h4.47l-6.05-3.02a8 8 0 0 1-4.42-7.16v-10.58l31.58 15.78a8 8 0 0 1 4.12 4.98zm36.24 0 2.47-1.24a10 10 0 0 0 5.53-8.94v-13.82l-2 1-32.47 16.24a10 10 0 0 0-5.29 6.76h2.06a8 8 0 0 1 4.12-4.98l31.58-15.78v10.58a8 8 0 0 1-4.42 7.16l-6.05 3.02zm0-24-32 16v-13.82a10 10 0 0 1 0.24-2.18h2.06a8 8 0 0 0-0.3 2.18v10.58l25.53-12.76z" fill="#f5df4d"/>
</g>
<g fill="#f5df4d">
<path d="m10 0 32 16v-13.82a10 10 0 0 0-0.24-2.18h-2.06a8 8 0 0 1 0.3 2.18v10.58l-25.53-12.76zm31.76 24a10 10 0 0 0-5.29-6.76l-32.47-16.24-2-1v13.82a10 10 0 0 0 5.53 8.94l2.47 1.24h4.47l-6.05-3.02a8 8 0 0 1-4.42-7.16v-10.58l31.58 15.78a8 8 0 0 1 4.12 4.98zm36.24 0 2.47-1.24a10 10 0 0 0 5.53-8.94v-13.82l-2 1-32.47 16.24a10 10 0 0 0-5.29 6.76h2.06a8 8 0 0 1 4.12-4.98l31.58-15.78v10.58a8 8 0 0 1-4.42 7.16l-6.05 3.02zm0-24-32 16v-13.82a10 10 0 0 1 0.24-2.18h2.06a8 8 0 0 0-0.3 2.18v10.58l25.53-12.76z" fill="#f5df4d"/>
</g>
<g transform="translate(-176)">
<g fill="#f5df4d">
<path d="m10 0 32 16v-13.82a10 10 0 0 0-0.24-2.18h-2.06a8 8 0 0 1 0.3 2.18v10.58l-25.53-12.76zm31.76 24a10 10 0 0 0-5.29-6.76l-32.47-16.24-2-1v13.82a10 10 0 0 0 5.53 8.94l2.47 1.24h4.47l-6.05-3.02a8 8 0 0 1-4.42-7.16v-10.58l31.58 15.78a8 8 0 0 1 4.12 4.98zm36.24 0 2.47-1.24a10 10 0 0 0 5.53-8.94v-13.82l-2 1-32.47 16.24a10 10 0 0 0-5.29 6.76h2.06a8 8 0 0 1 4.12-4.98l31.58-15.78v10.58a8 8 0 0 1-4.42 7.16l-6.05 3.02zm0-24-32 16v-13.82a10 10 0 0 1 0.24-2.18h2.06a8 8 0 0 0-0.3 2.18v10.58l25.53-12.76z" fill="#f5df4d"/>
</g>
</g>
<g transform="translate(88)">
<g fill="#f5df4d">
<path d="m10 0 32 16v-13.82a10 10 0 0 0-0.24-2.18h-2.06a8 8 0 0 1 0.3 2.18v10.58l-25.53-12.76zm31.76 24a10 10 0 0 0-5.29-6.76l-32.47-16.24-2-1v13.82a10 10 0 0 0 5.53 8.94l2.47 1.24h4.47l-6.05-3.02a8 8 0 0 1-4.42-7.16v-10.58l31.58 15.78a8 8 0 0 1 4.12 4.98zm36.24 0 2.47-1.24a10 10 0 0 0 5.53-8.94v-13.82l-2 1-32.47 16.24a10 10 0 0 0-5.29 6.76h2.06a8 8 0 0 1 4.12-4.98l31.58-15.78v10.58a8 8 0 0 1-4.42 7.16l-6.05 3.02zm0-24-32 16v-13.82a10 10 0 0 1 0.24-2.18h2.06a8 8 0 0 0-0.3 2.18v10.58l25.53-12.76z" fill="#f5df4d"/>
</g>
</g>
<g transform="translate(-88)">
<g fill="#f5df4d">
<path d="m10 0 32 16v-13.82a10 10 0 0 0-0.24-2.18h-2.06a8 8 0 0 1 0.3 2.18v10.58l-25.53-12.76zm31.76 24a10 10 0 0 0-5.29-6.76l-32.47-16.24-2-1v13.82a10 10 0 0 0 5.53 8.94l2.47 1.24h4.47l-6.05-3.02a8 8 0 0 1-4.42-7.16v-10.58l31.58 15.78a8 8 0 0 1 4.12 4.98zm36.24 0 2.47-1.24a10 10 0 0 0 5.53-8.94v-13.82l-2 1-32.47 16.24a10 10 0 0 0-5.29 6.76h2.06a8 8 0 0 1 4.12-4.98l31.58-15.78v10.58a8 8 0 0 1-4.42 7.16l-6.05 3.02zm0-24-32 16v-13.82a10 10 0 0 1 0.24-2.18h2.06a8 8 0 0 0-0.3 2.18v10.58l25.53-12.76z" fill="#f5df4d"/>
</g>
</g>
</g>
<g transform="translate(0,168)">
<g transform="translate(176)">
<g fill="#f5df4d">
<path d="m10 0 32 16v-13.82a10 10 0 0 0-0.24-2.18h-2.06a8 8 0 0 1 0.3 2.18v10.58l-25.53-12.76zm31.76 24a10 10 0 0 0-5.29-6.76l-32.47-16.24-2-1v13.82a10 10 0 0 0 5.53 8.94l2.47 1.24h4.47l-6.05-3.02a8 8 0 0 1-4.42-7.16v-10.58l31.58 15.78a8 8 0 0 1 4.12 4.98zm36.24 0 2.47-1.24a10 10 0 0 0 5.53-8.94v-13.82l-2 1-32.47 16.24a10 10 0 0 0-5.29 6.76h2.06a8 8 0 0 1 4.12-4.98l31.58-15.78v10.58a8 8 0 0 1-4.42 7.16l-6.05 3.02zm0-24-32 16v-13.82a10 10 0 0 1 0.24-2.18h2.06a8 8 0 0 0-0.3 2.18v10.58l25.53-12.76z" fill="#f5df4d"/>
</g>
</g>
<g fill="#f5df4d">
<path d="m10 0 32 16v-13.82a10 10 0 0 0-0.24-2.18h-2.06a8 8 0 0 1 0.3 2.18v10.58l-25.53-12.76zm31.76 24a10 10 0 0 0-5.29-6.76l-32.47-16.24-2-1v13.82a10 10 0 0 0 5.53 8.94l2.47 1.24h4.47l-6.05-3.02a8 8 0 0 1-4.42-7.16v-10.58l31.58 15.78a8 8 0 0 1 4.12 4.98zm36.24 0 2.47-1.24a10 10 0 0 0 5.53-8.94v-13.82l-2 1-32.47 16.24a10 10 0 0 0-5.29 6.76h2.06a8 8 0 0 1 4.12-4.98l31.58-15.78v10.58a8 8 0 0 1-4.42 7.16l-6.05 3.02zm0-24-32 16v-13.82a10 10 0 0 1 0.24-2.18h2.06a8 8 0 0 0-0.3 2.18v10.58l25.53-12.76z" fill="#f5df4d"/>
</g>
<g fill="#f5df4d">
<path d="m10 0 32 16v-13.82a10 10 0 0 0-0.24-2.18h-2.06a8 8 0 0 1 0.3 2.18v10.58l-25.53-12.76zm31.76 24a10 10 0 0 0-5.29-6.76l-32.47-16.24-2-1v13.82a10 10 0 0 0 5.53 8.94l2.47 1.24h4.47l-6.05-3.02a8 8 0 0 1-4.42-7.16v-10.58l31.58 15.78a8 8 0 0 1 4.12 4.98zm36.24 0 2.47-1.24a10 10 0 0 0 5.53-8.94v-13.82l-2 1-32.47 16.24a10 10 0 0 0-5.29 6.76h2.06a8 8 0 0 1 4.12-4.98l31.58-15.78v10.58a8 8 0 0 1-4.42 7.16l-6.05 3.02zm0-24-32 16v-13.82a10 10 0 0 1 0.24-2.18h2.06a8 8 0 0 0-0.3 2.18v10.58l25.53-12.76z" fill="#f5df4d"/>
</g>
<g transform="translate(-176)">
<g fill="#f5df4d">
<path d="m10 0 32 16v-13.82a10 10 0 0 0-0.24-2.18h-2.06a8 8 0 0 1 0.3 2.18v10.58l-25.53-12.76zm31.76 24a10 10 0 0 0-5.29-6.76l-32.47-16.24-2-1v13.82a10 10 0 0 0 5.53 8.94l2.47 1.24h4.47l-6.05-3.02a8 8 0 0 1-4.42-7.16v-10.58l31.58 15.78a8 8 0 0 1 4.12 4.98zm36.24 0 2.47-1.24a10 10 0 0 0 5.53-8.94v-13.82l-2 1-32.47 16.24a10 10 0 0 0-5.29 6.76h2.06a8 8 0 0 1 4.12-4.98l31.58-15.78v10.58a8 8 0 0 1-4.42 7.16l-6.05 3.02zm0-24-32 16v-13.82a10 10 0 0 1 0.24-2.18h2.06a8 8 0 0 0-0.3 2.18v10.58l25.53-12.76z" fill="#f5df4d"/>
</g>
</g>
<g transform="translate(88)">
<g fill="#f5df4d">
<path d="m10 0 32 16v-13.82a10 10 0 0 0-0.24-2.18h-2.06a8 8 0 0 1 0.3 2.18v10.58l-25.53-12.76zm31.76 24a10 10 0 0 0-5.29-6.76l-32.47-16.24-2-1v13.82a10 10 0 0 0 5.53 8.94l2.47 1.24h4.47l-6.05-3.02a8 8 0 0 1-4.42-7.16v-10.58l31.58 15.78a8 8 0 0 1 4.12 4.98zm36.24 0 2.47-1.24a10 10 0 0 0 5.53-8.94v-13.82l-2 1-32.47 16.24a10 10 0 0 0-5.29 6.76h2.06a8 8 0 0 1 4.12-4.98l31.58-15.78v10.58a8 8 0 0 1-4.42 7.16l-6.05 3.02zm0-24-32 16v-13.82a10 10 0 0 1 0.24-2.18h2.06a8 8 0 0 0-0.3 2.18v10.58l25.53-12.76z" fill="#f5df4d"/>
</g>
</g>
<g transform="translate(-88)">
<g fill="#f5df4d">
<path d="m10 0 32 16v-13.82a10 10 0 0 0-0.24-2.18h-2.06a8 8 0 0 1 0.3 2.18v10.58l-25.53-12.76zm31.76 24a10 10 0 0 0-5.29-6.76l-32.47-16.24-2-1v13.82a10 10 0 0 0 5.53 8.94l2.47 1.24h4.47l-6.05-3.02a8 8 0 0 1-4.42-7.16v-10.58l31.58 15.78a8 8 0 0 1 4.12 4.98zm36.24 0 2.47-1.24a10 10 0 0 0 5.53-8.94v-13.82l-2 1-32.47 16.24a10 10 0 0 0-5.29 6.76h2.06a8 8 0 0 1 4.12-4.98l31.58-15.78v10.58a8 8 0 0 1-4.42 7.16l-6.05 3.02zm0-24-32 16v-13.82a10 10 0 0 1 0.24-2.18h2.06a8 8 0 0 0-0.3 2.18v10.58l25.53-12.76z" fill="#f5df4d"/>
</g>
</g>
</g>
<g transform="translate(0,144)">
<g transform="translate(176)">
<g fill="#f5df4d">
<path d="m10 0 32 16v-13.82a10 10 0 0 0-0.24-2.18h-2.06a8 8 0 0 1 0.3 2.18v10.58l-25.53-12.76zm31.76 24a10 10 0 0 0-5.29-6.76l-32.47-16.24-2-1v13.82a10 10 0 0 0 5.53 8.94l2.47 1.24h4.47l-6.05-3.02a8 8 0 0 1-4.42-7.16v-10.58l31.58 15.78a8 8 0 0 1 4.12 4.98zm36.24 0 2.47-1.24a10 10 0 0 0 5.53-8.94v-13.82l-2 1-32.47 16.24a10 10 0 0 0-5.29 6.76h2.06a8 8 0 0 1 4.12-4.98l31.58-15.78v10.58a8 8 0 0 1-4.42 7.16l-6.05 3.02zm0-24-32 16v-13.82a10 10 0 0 1 0.24-2.18h2.06a8 8 0 0 0-0.3 2.18v10.58l25.53-12.76z" fill="#f5df4d"/>
</g>
</g>
<g fill="#f5df4d">
<path d="m10 0 32 16v-13.82a10 10 0 0 0-0.24-2.18h-2.06a8 8 0 0 1 0.3 2.18v10.58l-25.53-12.76zm31.76 24a10 10 0 0 0-5.29-6.76l-32.47-16.24-2-1v13.82a10 10 0 0 0 5.53 8.94l2.47 1.24h4.47l-6.05-3.02a8 8 0 0 1-4.42-7.16v-10.58l31.58 15.78a8 8 0 0 1 4.12 4.98zm36.24 0 2.47-1.24a10 10 0 0 0 5.53-8.94v-13.82l-2 1-32.47 16.24a10 10 0 0 0-5.29 6.76h2.06a8 8 0 0 1 4.12-4.98l31.58-15.78v10.58a8 8 0 0 1-4.42 7.16l-6.05 3.02zm0-24-32 16v-13.82a10 10 0 0 1 0.24-2.18h2.06a8 8 0 0 0-0.3 2.18v10.58l25.53-12.76z" fill="#f5df4d"/>
</g>
<g fill="#f5df4d">
<path d="m10 0 32 16v-13.82a10 10 0 0 0-0.24-2.18h-2.06a8 8 0 0 1 0.3 2.18v10.58l-25.53-12.76zm31.76 24a10 10 0 0 0-5.29-6.76l-32.47-16.24-2-1v13.82a10 10 0 0 0 5.53 8.94l2.47 1.24h4.47l-6.05-3.02a8 8 0 0 1-4.42-7.16v-10.58l31.58 15.78a8 8 0 0 1 4.12 4.98zm36.24 0 2.47-1.24a10 10 0 0 0 5.53-8.94v-13.82l-2 1-32.47 16.24a10 10 0 0 0-5.29 6.76h2.06a8 8 0 0 1 4.12-4.98l31.58-15.78v10.58a8 8 0 0 1-4.42 7.16l-6.05 3.02zm0-24-32 16v-13.82a10 10 0 0 1 0.24-2.18h2.06a8 8 0 0 0-0.3 2.18v10.58l25.53-12.76z" fill="#f5df4d"/>
</g>
<g transform="translate(-176)">
<g fill="#f5df4d">
<path d="m10 0 32 16v-13.82a10 10 0 0 0-0.24-2.18h-2.06a8 8 0 0 1 0.3 2.18v10.58l-25.53-12.76zm31.76 24a10 10 0 0 0-5.29-6.76l-32.47-16.24-2-1v13.82a10 10 0 0 0 5.53 8.94l2.47 1.24h4.47l-6.05-3.02a8 8 0 0 1-4.42-7.16v-10.58l31.58 15.78a8 8 0 0 1 4.12 4.98zm36.24 0 2.47-1.24a10 10 0 0 0 5.53-8.94v-13.82l-2 1-32.47 16.24a10 10 0 0 0-5.29 6.76h2.06a8 8 0 0 1 4.12-4.98l31.58-15.78v10.58a8 8 0 0 1-4.42 7.16l-6.05 3.02zm0-24-32 16v-13.82a10 10 0 0 1 0.24-2.18h2.06a8 8 0 0 0-0.3 2.18v10.58l25.53-12.76z" fill="#f5df4d"/>
</g>
</g>
<g transform="translate(88)">
<g fill="#f5df4d">
<path d="m10 0 32 16v-13.82a10 10 0 0 0-0.24-2.18h-2.06a8 8 0 0 1 0.3 2.18v10.58l-25.53-12.76zm31.76 24a10 10 0 0 0-5.29-6.76l-32.47-16.24-2-1v13.82a10 10 0 0 0 5.53 8.94l2.47 1.24h4.47l-6.05-3.02a8 8 0 0 1-4.42-7.16v-10.58l31.58 15.78a8 8 0 0 1 4.12 4.98zm36.24 0 2.47-1.24a10 10 0 0 0 5.53-8.94v-13.82l-2 1-32.47 16.24a10 10 0 0 0-5.29 6.76h2.06a8 8 0 0 1 4.12-4.98l31.58-15.78v10.58a8 8 0 0 1-4.42 7.16l-6.05 3.02zm0-24-32 16v-13.82a10 10 0 0 1 0.24-2.18h2.06a8 8 0 0 0-0.3 2.18v10.58l25.53-12.76z" fill="#f5df4d"/>
</g>
</g>
<g transform="translate(-88)">
<g fill="#f5df4d">
<path d="m10 0 32 16v-13.82a10 10 0 0 0-0.24-2.18h-2.06a8 8 0 0 1 0.3 2.18v10.58l-25.53-12.76zm31.76 24a10 10 0 0 0-5.29-6.76l-32.47-16.24-2-1v13.82a10 10 0 0 0 5.53 8.94l2.47 1.24h4.47l-6.05-3.02a8 8 0 0 1-4.42-7.16v-10.58l31.58 15.78a8 8 0 0 1 4.12 4.98zm36.24 0 2.47-1.24a10 10 0 0 0 5.53-8.94v-13.82l-2 1-32.47 16.24a10 10 0 0 0-5.29 6.76h2.06a8 8 0 0 1 4.12-4.98l31.58-15.78v10.58a8 8 0 0 1-4.42 7.16l-6.05 3.02zm0-24-32 16v-13.82a10 10 0 0 1 0.24-2.18h2.06a8 8 0 0 0-0.3 2.18v10.58l25.53-12.76z" fill="#f5df4d"/>
</g>
</g>
</g>
<g transform="translate(0,120)">
<g transform="translate(176)">
<g fill="#f5df4d">
<path d="m10 0 32 16v-13.82a10 10 0 0 0-0.24-2.18h-2.06a8 8 0 0 1 0.3 2.18v10.58l-25.53-12.76zm31.76 24a10 10 0 0 0-5.29-6.76l-32.47-16.24-2-1v13.82a10 10 0 0 0 5.53 8.94l2.47 1.24h4.47l-6.05-3.02a8 8 0 0 1-4.42-7.16v-10.58l31.58 15.78a8 8 0 0 1 4.12 4.98zm36.24 0 2.47-1.24a10 10 0 0 0 5.53-8.94v-13.82l-2 1-32.47 16.24a10 10 0 0 0-5.29 6.76h2.06a8 8 0 0 1 4.12-4.98l31.58-15.78v10.58a8 8 0 0 1-4.42 7.16l-6.05 3.02zm0-24-32 16v-13.82a10 10 0 0 1 0.24-2.18h2.06a8 8 0 0 0-0.3 2.18v10.58l25.53-12.76z" fill="#f5df4d"/>
</g>
</g>
<g fill="#f5df4d">
<path d="m10 0 32 16v-13.82a10 10 0 0 0-0.24-2.18h-2.06a8 8 0 0 1 0.3 2.18v10.58l-25.53-12.76zm31.76 24a10 10 0 0 0-5.29-6.76l-32.47-16.24-2-1v13.82a10 10 0 0 0 5.53 8.94l2.47 1.24h4.47l-6.05-3.02a8 8 0 0 1-4.42-7.16v-10.58l31.58 15.78a8 8 0 0 1 4.12 4.98zm36.24 0 2.47-1.24a10 10 0 0 0 5.53-8.94v-13.82l-2 1-32.47 16.24a10 10 0 0 0-5.29 6.76h2.06a8 8 0 0 1 4.12-4.98l31.58-15.78v10.58a8 8 0 0 1-4.42 7.16l-6.05 3.02zm0-24-32 16v-13.82a10 10 0 0 1 0.24-2.18h2.06a8 8 0 0 0-0.3 2.18v10.58l25.53-12.76z" fill="#f5df4d"/>
</g>
<g fill="#f5df4d">
<path d="m10 0 32 16v-13.82a10 10 0 0 0-0.24-2.18h-2.06a8 8 0 0 1 0.3 2.18v10.58l-25.53-12.76zm31.76 24a10 10 0 0 0-5.29-6.76l-32.47-16.24-2-1v13.82a10 10 0 0 0 5.53 8.94l2.47 1.24h4.47l-6.05-3.02a8 8 0 0 1-4.42-7.16v-10.58l31.58 15.78a8 8 0 0 1 4.12 4.98zm36.24 0 2.47-1.24a10 10 0 0 0 5.53-8.94v-13.82l-2 1-32.47 16.24a10 10 0 0 0-5.29 6.76h2.06a8 8 0 0 1 4.12-4.98l31.58-15.78v10.58a8 8 0 0 1-4.42 7.16l-6.05 3.02zm0-24-32 16v-13.82a10 10 0 0 1 0.24-2.18h2.06a8 8 0 0 0-0.3 2.18v10.58l25.53-12.76z" fill="#f5df4d"/>
</g>
<g transform="translate(-176)">
<g fill="#f5df4d">
<path d="m10 0 32 16v-13.82a10 10 0 0 0-0.24-2.18h-2.06a8 8 0 0 1 0.3 2.18v10.58l-25.53-12.76zm31.76 24a10 10 0 0 0-5.29-6.76l-32.47-16.24-2-1v13.82a10 10 0 0 0 5.53 8.94l2.47 1.24h4.47l-6.05-3.02a8 8 0 0 1-4.42-7.16v-10.58l31.58 15.78a8 8 0 0 1 4.12 4.98zm36.24 0 2.47-1.24a10 10 0 0 0 5.53-8.94v-13.82l-2 1-32.47 16.24a10 10 0 0 0-5.29 6.76h2.06a8 8 0 0 1 4.12-4.98l31.58-15.78v10.58a8 8 0 0 1-4.42 7.16l-6.05 3.02zm0-24-32 16v-13.82a10 10 0 0 1 0.24-2.18h2.06a8 8 0 0 0-0.3 2.18v10.58l25.53-12.76z" fill="#f5df4d"/>
</g>
</g>
<g transform="translate(88)">
<g fill="#f5df4d">
<path d="m10 0 32 16v-13.82a10 10 0 0 0-0.24-2.18h-2.06a8 8 0 0 1 0.3 2.18v10.58l-25.53-12.76zm31.76 24a10 10 0 0 0-5.29-6.76l-32.47-16.24-2-1v13.82a10 10 0 0 0 5.53 8.94l2.47 1.24h4.47l-6.05-3.02a8 8 0 0 1-4.42-7.16v-10.58l31.58 15.78a8 8 0 0 1 4.12 4.98zm36.24 0 2.47-1.24a10 10 0 0 0 5.53-8.94v-13.82l-2 1-32.47 16.24a10 10 0 0 0-5.29 6.76h2.06a8 8 0 0 1 4.12-4.98l31.58-15.78v10.58a8 8 0 0 1-4.42 7.16l-6.05 3.02zm0-24-32 16v-13.82a10 10 0 0 1 0.24-2.18h2.06a8 8 0 0 0-0.3 2.18v10.58l25.53-12.76z" fill="#f5df4d"/>
</g>
</g>
<g transform="translate(-88)">
<g fill="#f5df4d">
<path d="m10 0 32 16v-13.82a10 10 0 0 0-0.24-2.18h-2.06a8 8 0 0 1 0.3 2.18v10.58l-25.53-12.76zm31.76 24a10 10 0 0 0-5.29-6.76l-32.47-16.24-2-1v13.82a10 10 0 0 0 5.53 8.94l2.47 1.24h4.47l-6.05-3.02a8 8 0 0 1-4.42-7.16v-10.58l31.58 15.78a8 8 0 0 1 4.12 4.98zm36.24 0 2.47-1.24a10 10 0 0 0 5.53-8.94v-13.82l-2 1-32.47 16.24a10 10 0 0 0-5.29 6.76h2.06a8 8 0 0 1 4.12-4.98l31.58-15.78v10.58a8 8 0 0 1-4.42 7.16l-6.05 3.02zm0-24-32 16v-13.82a10 10 0 0 1 0.24-2.18h2.06a8 8 0 0 0-0.3 2.18v10.58l25.53-12.76z" fill="#f5df4d"/>
</g>
</g>
</g>
<g transform="translate(0,96)">
<g transform="translate(176)">
<g fill="#f5df4d">
<path d="m10 0 32 16v-13.82a10 10 0 0 0-0.24-2.18h-2.06a8 8 0 0 1 0.3 2.18v10.58l-25.53-12.76zm31.76 24a10 10 0 0 0-5.29-6.76l-32.47-16.24-2-1v13.82a10 10 0 0 0 5.53 8.94l2.47 1.24h4.47l-6.05-3.02a8 8 0 0 1-4.42-7.16v-10.58l31.58 15.78a8 8 0 0 1 4.12 4.98zm36.24 0 2.47-1.24a10 10 0 0 0 5.53-8.94v-13.82l-2 1-32.47 16.24a10 10 0 0 0-5.29 6.76h2.06a8 8 0 0 1 4.12-4.98l31.58-15.78v10.58a8 8 0 0 1-4.42 7.16l-6.05 3.02zm0-24-32 16v-13.82a10 10 0 0 1 0.24-2.18h2.06a8 8 0 0 0-0.3 2.18v10.58l25.53-12.76z" fill="#f5df4d"/>
</g>
</g>
<g fill="#f5df4d">
<path d="m10 0 32 16v-13.82a10 10 0 0 0-0.24-2.18h-2.06a8 8 0 0 1 0.3 2.18v10.58l-25.53-12.76zm31.76 24a10 10 0 0 0-5.29-6.76l-32.47-16.24-2-1v13.82a10 10 0 0 0 5.53 8.94l2.47 1.24h4.47l-6.05-3.02a8 8 0 0 1-4.42-7.16v-10.58l31.58 15.78a8 8 0 0 1 4.12 4.98zm36.24 0 2.47-1.24a10 10 0 0 0 5.53-8.94v-13.82l-2 1-32.47 16.24a10 10 0 0 0-5.29 6.76h2.06a8 8 0 0 1 4.12-4.98l31.58-15.78v10.58a8 8 0 0 1-4.42 7.16l-6.05 3.02zm0-24-32 16v-13.82a10 10 0 0 1 0.24-2.18h2.06a8 8 0 0 0-0.3 2.18v10.58l25.53-12.76z" fill="#f5df4d"/>
</g>
<g fill="#f5df4d">
<path d="m10 0 32 16v-13.82a10 10 0 0 0-0.24-2.18h-2.06a8 8 0 0 1 0.3 2.18v10.58l-25.53-12.76zm31.76 24a10 10 0 0 0-5.29-6.76l-32.47-16.24-2-1v13.82a10 10 0 0 0 5.53 8.94l2.47 1.24h4.47l-6.05-3.02a8 8 0 0 1-4.42-7.16v-10.58l31.58 15.78a8 8 0 0 1 4.12 4.98zm36.24 0 2.47-1.24a10 10 0 0 0 5.53-8.94v-13.82l-2 1-32.47 16.24a10 10 0 0 0-5.29 6.76h2.06a8 8 0 0 1 4.12-4.98l31.58-15.78v10.58a8 8 0 0 1-4.42 7.16l-6.05 3.02zm0-24-32 16v-13.82a10 10 0 0 1 0.24-2.18h2.06a8 8 0 0 0-0.3 2.18v10.58l25.53-12.76z" fill="#f5df4d"/>
</g>
<g transform="translate(-176)">
<g fill="#f5df4d">
<path d="m10 0 32 16v-13.82a10 10 0 0 0-0.24-2.18h-2.06a8 8 0 0 1 0.3 2.18v10.58l-25.53-12.76zm31.76 24a10 10 0 0 0-5.29-6.76l-32.47-16.24-2-1v13.82a10 10 0 0 0 5.53 8.94l2.47 1.24h4.47l-6.05-3.02a8 8 0 0 1-4.42-7.16v-10.58l31.58 15.78a8 8 0 0 1 4.12 4.98zm36.24 0 2.47-1.24a10 10 0 0 0 5.53-8.94v-13.82l-2 1-32.47 16.24a10 10 0 0 0-5.29 6.76h2.06a8 8 0 0 1 4.12-4.98l31.58-15.78v10.58a8 8 0 0 1-4.42 7.16l-6.05 3.02zm0-24-32 16v-13.82a10 10 0 0 1 0.24-2.18h2.06a8 8 0 0 0-0.3 2.18v10.58l25.53-12.76z" fill="#f5df4d"/>
</g>
</g>
<g transform="translate(88)">
<g fill="#f5df4d">
<path d="m10 0 32 16v-13.82a10 10 0 0 0-0.24-2.18h-2.06a8 8 0 0 1 0.3 2.18v10.58l-25.53-12.76zm31.76 24a10 10 0 0 0-5.29-6.76l-32.47-16.24-2-1v13.82a10 10 0 0 0 5.53 8.94l2.47 1.24h4.47l-6.05-3.02a8 8 0 0 1-4.42-7.16v-10.58l31.58 15.78a8 8 0 0 1 4.12 4.98zm36.24 0 2.47-1.24a10 10 0 0 0 5.53-8.94v-13.82l-2 1-32.47 16.24a10 10 0 0 0-5.29 6.76h2.06a8 8 0 0 1 4.12-4.98l31.58-15.78v10.58a8 8 0 0 1-4.42 7.16l-6.05 3.02zm0-24-32 16v-13.82a10 10 0 0 1 0.24-2.18h2.06a8 8 0 0 0-0.3 2.18v10.58l25.53-12.76z" fill="#f5df4d"/>
</g>
</g>
<g transform="translate(-88)">
<g fill="#f5df4d">
<path d="m10 0 32 16v-13.82a10 10 0 0 0-0.24-2.18h-2.06a8 8 0 0 1 0.3 2.18v10.58l-25.53-12.76zm31.76 24a10 10 0 0 0-5.29-6.76l-32.47-16.24-2-1v13.82a10 10 0 0 0 5.53 8.94l2.47 1.24h4.47l-6.05-3.02a8 8 0 0 1-4.42-7.16v-10.58l31.58 15.78a8 8 0 0 1 4.12 4.98zm36.24 0 2.47-1.24a10 10 0 0 0 5.53-8.94v-13.82l-2 1-32.47 16.24a10 10 0 0 0-5.29 6.76h2.06a8 8 0 0 1 4.12-4.98l31.58-15.78v10.58a8 8 0 0 1-4.42 7.16l-6.05 3.02zm0-24-32 16v-13.82a10 10 0 0 1 0.24-2.18h2.06a8 8 0 0 0-0.3 2.18v10.58l25.53-12.76z" fill="#f5df4d"/>
</g>
</g>
</g>
<g transform="translate(0,72)">
<g transform="translate(176)">
<g fill="#f5df4d">
<path d="m10 0 32 16v-13.82a10 10 0 0 0-0.24-2.18h-2.06a8 8 0 0 1 0.3 2.18v10.58l-25.53-12.76zm31.76 24a10 10 0 0 0-5.29-6.76l-32.47-16.24-2-1v13.82a10 10 0 0 0 5.53 8.94l2.47 1.24h4.47l-6.05-3.02a8 8 0 0 1-4.42-7.16v-10.58l31.58 15.78a8 8 0 0 1 4.12 4.98zm36.24 0 2.47-1.24a10 10 0 0 0 5.53-8.94v-13.82l-2 1-32.47 16.24a10 10 0 0 0-5.29 6.76h2.06a8 8 0 0 1 4.12-4.98l31.58-15.78v10.58a8 8 0 0 1-4.42 7.16l-6.05 3.02zm0-24-32 16v-13.82a10 10 0 0 1 0.24-2.18h2.06a8 8 0 0 0-0.3 2.18v10.58l25.53-12.76z" fill="#f5df4d"/>
</g>
</g>
<g fill="#f5df4d">
<path d="m10 0 32 16v-13.82a10 10 0 0 0-0.24-2.18h-2.06a8 8 0 0 1 0.3 2.18v10.58l-25.53-12.76zm31.76 24a10 10 0 0 0-5.29-6.76l-32.47-16.24-2-1v13.82a10 10 0 0 0 5.53 8.94l2.47 1.24h4.47l-6.05-3.02a8 8 0 0 1-4.42-7.16v-10.58l31.58 15.78a8 8 0 0 1 4.12 4.98zm36.24 0 2.47-1.24a10 10 0 0 0 5.53-8.94v-13.82l-2 1-32.47 16.24a10 10 0 0 0-5.29 6.76h2.06a8 8 0 0 1 4.12-4.98l31.58-15.78v10.58a8 8 0 0 1-4.42 7.16l-6.05 3.02zm0-24-32 16v-13.82a10 10 0 0 1 0.24-2.18h2.06a8 8 0 0 0-0.3 2.18v10.58l25.53-12.76z" fill="#f5df4d"/>
</g>
<g fill="#f5df4d">
<path d="m10 0 32 16v-13.82a10 10 0 0 0-0.24-2.18h-2.06a8 8 0 0 1 0.3 2.18v10.58l-25.53-12.76zm31.76 24a10 10 0 0 0-5.29-6.76l-32.47-16.24-2-1v13.82a10 10 0 0 0 5.53 8.94l2.47 1.24h4.47l-6.05-3.02a8 8 0 0 1-4.42-7.16v-10.58l31.58 15.78a8 8 0 0 1 4.12 4.98zm36.24 0 2.47-1.24a10 10 0 0 0 5.53-8.94v-13.82l-2 1-32.47 16.24a10 10 0 0 0-5.29 6.76h2.06a8 8 0 0 1 4.12-4.98l31.58-15.78v10.58a8 8 0 0 1-4.42 7.16l-6.05 3.02zm0-24-32 16v-13.82a10 10 0 0 1 0.24-2.18h2.06a8 8 0 0 0-0.3 2.18v10.58l25.53-12.76z" fill="#f5df4d"/>
</g>
<g transform="translate(-176)">
<g fill="#f5df4d">
<path d="m10 0 32 16v-13.82a10 10 0 0 0-0.24-2.18h-2.06a8 8 0 0 1 0.3 2.18v10.58l-25.53-12.76zm31.76 24a10 10 0 0 0-5.29-6.76l-32.47-16.24-2-1v13.82a10 10 0 0 0 5.53 8.94l2.47 1.24h4.47l-6.05-3.02a8 8 0 0 1-4.42-7.16v-10.58l31.58 15.78a8 8 0 0 1 4.12 4.98zm36.24 0 2.47-1.24a10 10 0 0 0 5.53-8.94v-13.82l-2 1-32.47 16.24a10 10 0 0 0-5.29 6.76h2.06a8 8 0 0 1 4.12-4.98l31.58-15.78v10.58a8 8 0 0 1-4.42 7.16l-6.05 3.02zm0-24-32 16v-13.82a10 10 0 0 1 0.24-2.18h2.06a8 8 0 0 0-0.3 2.18v10.58l25.53-12.76z" fill="#f5df4d"/>
</g>
</g>
<g transform="translate(88)">
<g fill="#f5df4d">
<path d="m10 0 32 16v-13.82a10 10 0 0 0-0.24-2.18h-2.06a8 8 0 0 1 0.3 2.18v10.58l-25.53-12.76zm31.76 24a10 10 0 0 0-5.29-6.76l-32.47-16.24-2-1v13.82a10 10 0 0 0 5.53 8.94l2.47 1.24h4.47l-6.05-3.02a8 8 0 0 1-4.42-7.16v-10.58l31.58 15.78a8 8 0 0 1 4.12 4.98zm36.24 0 2.47-1.24a10 10 0 0 0 5.53-8.94v-13.82l-2 1-32.47 16.24a10 10 0 0 0-5.29 6.76h2.06a8 8 0 0 1 4.12-4.98l31.58-15.78v10.58a8 8 0 0 1-4.42 7.16l-6.05 3.02zm0-24-32 16v-13.82a10 10 0 0 1 0.24-2.18h2.06a8 8 0 0 0-0.3 2.18v10.58l25.53-12.76z" fill="#f5df4d"/>
</g>
</g>
<g transform="translate(-88)">
<g fill="#f5df4d">
<path d="m10 0 32 16v-13.82a10 10 0 0 0-0.24-2.18h-2.06a8 8 0 0 1 0.3 2.18v10.58l-25.53-12.76zm31.76 24a10 10 0 0 0-5.29-6.76l-32.47-16.24-2-1v13.82a10 10 0 0 0 5.53 8.94l2.47 1.24h4.47l-6.05-3.02a8 8 0 0 1-4.42-7.16v-10.58l31.58 15.78a8 8 0 0 1 4.12 4.98zm36.24 0 2.47-1.24a10 10 0 0 0 5.53-8.94v-13.82l-2 1-32.47 16.24a10 10 0 0 0-5.29 6.76h2.06a8 8 0 0 1 4.12-4.98l31.58-15.78v10.58a8 8 0 0 1-4.42 7.16l-6.05 3.02zm0-24-32 16v-13.82a10 10 0 0 1 0.24-2.18h2.06a8 8 0 0 0-0.3 2.18v10.58l25.53-12.76z" fill="#f5df4d"/>
</g>
</g>
</g>
<g transform="translate(0,48)">
<g transform="translate(176)">
<g fill="#f5df4d">
<path d="m10 0 32 16v-13.82a10 10 0 0 0-0.24-2.18h-2.06a8 8 0 0 1 0.3 2.18v10.58l-25.53-12.76zm31.76 24a10 10 0 0 0-5.29-6.76l-32.47-16.24-2-1v13.82a10 10 0 0 0 5.53 8.94l2.47 1.24h4.47l-6.05-3.02a8 8 0 0 1-4.42-7.16v-10.58l31.58 15.78a8 8 0 0 1 4.12 4.98zm36.24 0 2.47-1.24a10 10 0 0 0 5.53-8.94v-13.82l-2 1-32.47 16.24a10 10 0 0 0-5.29 6.76h2.06a8 8 0 0 1 4.12-4.98l31.58-15.78v10.58a8 8 0 0 1-4.42 7.16l-6.05 3.02zm0-24-32 16v-13.82a10 10 0 0 1 0.24-2.18h2.06a8 8 0 0 0-0.3 2.18v10.58l25.53-12.76z" fill="#f5df4d"/>
</g>
</g>
<g fill="#f5df4d">
<path d="m10 0 32 16v-13.82a10 10 0 0 0-0.24-2.18h-2.06a8 8 0 0 1 0.3 2.18v10.58l-25.53-12.76zm31.76 24a10 10 0 0 0-5.29-6.76l-32.47-16.24-2-1v13.82a10 10 0 0 0 5.53 8.94l2.47 1.24h4.47l-6.05-3.02a8 8 0 0 1-4.42-7.16v-10.58l31.58 15.78a8 8 0 0 1 4.12 4.98zm36.24 0 2.47-1.24a10 10 0 0 0 5.53-8.94v-13.82l-2 1-32.47 16.24a10 10 0 0 0-5.29 6.76h2.06a8 8 0 0 1 4.12-4.98l31.58-15.78v10.58a8 8 0 0 1-4.42 7.16l-6.05 3.02zm0-24-32 16v-13.82a10 10 0 0 1 0.24-2.18h2.06a8 8 0 0 0-0.3 2.18v10.58l25.53-12.76z" fill="#f5df4d"/>
</g>
<g fill="#f5df4d">
<path d="m10 0 32 16v-13.82a10 10 0 0 0-0.24-2.18h-2.06a8 8 0 0 1 0.3 2.18v10.58l-25.53-12.76zm31.76 24a10 10 0 0 0-5.29-6.76l-32.47-16.24-2-1v13.82a10 10 0 0 0 5.53 8.94l2.47 1.24h4.47l-6.05-3.02a8 8 0 0 1-4.42-7.16v-10.58l31.58 15.78a8 8 0 0 1 4.12 4.98zm36.24 0 2.47-1.24a10 10 0 0 0 5.53-8.94v-13.82l-2 1-32.47 16.24a10 10 0 0 0-5.29 6.76h2.06a8 8 0 0 1 4.12-4.98l31.58-15.78v10.58a8 8 0 0 1-4.42 7.16l-6.05 3.02zm0-24-32 16v-13.82a10 10 0 0 1 0.24-2.18h2.06a8 8 0 0 0-0.3 2.18v10.58l25.53-12.76z" fill="#f5df4d"/>
</g>
<g transform="translate(-176)">
<g fill="#f5df4d">
<path d="m10 0 32 16v-13.82a10 10 0 0 0-0.24-2.18h-2.06a8 8 0 0 1 0.3 2.18v10.58l-25.53-12.76zm31.76 24a10 10 0 0 0-5.29-6.76l-32.47-16.24-2-1v13.82a10 10 0 0 0 5.53 8.94l2.47 1.24h4.47l-6.05-3.02a8 8 0 0 1-4.42-7.16v-10.58l31.58 15.78a8 8 0 0 1 4.12 4.98zm36.24 0 2.47-1.24a10 10 0 0 0 5.53-8.94v-13.82l-2 1-32.47 16.24a10 10 0 0 0-5.29 6.76h2.06a8 8 0 0 1 4.12-4.98l31.58-15.78v10.58a8 8 0 0 1-4.42 7.16l-6.05 3.02zm0-24-32 16v-13.82a10 10 0 0 1 0.24-2.18h2.06a8 8 0 0 0-0.3 2.18v10.58l25.53-12.76z" fill="#f5df4d"/>
</g>
</g>
<g transform="translate(88)">
<g fill="#f5df4d">
<path d="m10 0 32 16v-13.82a10 10 0 0 0-0.24-2.18h-2.06a8 8 0 0 1 0.3 2.18v10.58l-25.53-12.76zm31.76 24a10 10 0 0 0-5.29-6.76l-32.47-16.24-2-1v13.82a10 10 0 0 0 5.53 8.94l2.47 1.24h4.47l-6.05-3.02a8 8 0 0 1-4.42-7.16v-10.58l31.58 15.78a8 8 0 0 1 4.12 4.98zm36.24 0 2.47-1.24a10 10 0 0 0 5.53-8.94v-13.82l-2 1-32.47 16.24a10 10 0 0 0-5.29 6.76h2.06a8 8 0 0 1 4.12-4.98l31.58-15.78v10.58a8 8 0 0 1-4.42 7.16l-6.05 3.02zm0-24-32 16v-13.82a10 10 0 0 1 0.24-2.18h2.06a8 8 0 0 0-0.3 2.18v10.58l25.53-12.76z" fill="#f5df4d"/>
</g>
</g>
<g transform="translate(-88)">
<g fill="#f5df4d">
<path d="m10 0 32 16v-13.82a10 10 0 0 0-0.24-2.18h-2.06a8 8 0 0 1 0.3 2.18v10.58l-25.53-12.76zm31.76 24a10 10 0 0 0-5.29-6.76l-32.47-16.24-2-1v13.82a10 10 0 0 0 5.53 8.94l2.47 1.24h4.47l-6.05-3.02a8 8 0 0 1-4.42-7.16v-10.58l31.58 15.78a8 8 0 0 1 4.12 4.98zm36.24 0 2.47-1.24a10 10 0 0 0 5.53-8.94v-13.82l-2 1-32.47 16.24a10 10 0 0 0-5.29 6.76h2.06a8 8 0 0 1 4.12-4.98l31.58-15.78v10.58a8 8 0 0 1-4.42 7.16l-6.05 3.02zm0-24-32 16v-13.82a10 10 0 0 1 0.24-2.18h2.06a8 8 0 0 0-0.3 2.18v10.58l25.53-12.76z" fill="#f5df4d"/>
</g>
</g>
</g>
<g transform="translate(-2.06,24)">
<g transform="translate(176)">
<g fill="#f5df4d">
<path d="m10 0 32 16v-13.82a10 10 0 0 0-0.24-2.18h-2.06a8 8 0 0 1 0.3 2.18v10.58l-25.53-12.76zm31.76 24a10 10 0 0 0-5.29-6.76l-32.47-16.24-2-1v13.82a10 10 0 0 0 5.53 8.94l2.47 1.24h4.47l-6.05-3.02a8 8 0 0 1-4.42-7.16v-10.58l31.58 15.78a8 8 0 0 1 4.12 4.98zm36.24 0 2.47-1.24a10 10 0 0 0 5.53-8.94v-13.82l-2 1-32.47 16.24a10 10 0 0 0-5.29 6.76h2.06a8 8 0 0 1 4.12-4.98l31.58-15.78v10.58a8 8 0 0 1-4.42 7.16l-6.05 3.02zm0-24-32 16v-13.82a10 10 0 0 1 0.24-2.18h2.06a8 8 0 0 0-0.3 2.18v10.58l25.53-12.76z" fill="#f5df4d"/>
</g>
</g>
<g fill="#f5df4d">
<path d="m10 0 32 16v-13.82a10 10 0 0 0-0.24-2.18h-2.06a8 8 0 0 1 0.3 2.18v10.58l-25.53-12.76zm31.76 24a10 10 0 0 0-5.29-6.76l-32.47-16.24-2-1v13.82a10 10 0 0 0 5.53 8.94l2.47 1.24h4.47l-6.05-3.02a8 8 0 0 1-4.42-7.16v-10.58l31.58 15.78a8 8 0 0 1 4.12 4.98zm36.24 0 2.47-1.24a10 10 0 0 0 5.53-8.94v-13.82l-2 1-32.47 16.24a10 10 0 0 0-5.29 6.76h2.06a8 8 0 0 1 4.12-4.98l31.58-15.78v10.58a8 8 0 0 1-4.42 7.16l-6.05 3.02zm0-24-32 16v-13.82a10 10 0 0 1 0.24-2.18h2.06a8 8 0 0 0-0.3 2.18v10.58l25.53-12.76z" fill="#f5df4d"/>
</g>
<g fill="#f5df4d">
<path d="m10 0 32 16v-13.82a10 10 0 0 0-0.24-2.18h-2.06a8 8 0 0 1 0.3 2.18v10.58l-25.53-12.76zm31.76 24a10 10 0 0 0-5.29-6.76l-32.47-16.24-2-1v13.82a10 10 0 0 0 5.53 8.94l2.47 1.24h4.47l-6.05-3.02a8 8 0 0 1-4.42-7.16v-10.58l31.58 15.78a8 8 0 0 1 4.12 4.98zm36.24 0 2.47-1.24a10 10 0 0 0 5.53-8.94v-13.82l-2 1-32.47 16.24a10 10 0 0 0-5.29 6.76h2.06a8 8 0 0 1 4.12-4.98l31.58-15.78v10.58a8 8 0 0 1-4.42 7.16l-6.05 3.02zm0-24-32 16v-13.82a10 10 0 0 1 0.24-2.18h2.06a8 8 0 0 0-0.3 2.18v10.58l25.53-12.76z" fill="#f5df4d"/>
</g>
<g transform="translate(-176)">
<g fill="#f5df4d">
<path d="m10 0 32 16v-13.82a10 10 0 0 0-0.24-2.18h-2.06a8 8 0 0 1 0.3 2.18v10.58l-25.53-12.76zm31.76 24a10 10 0 0 0-5.29-6.76l-32.47-16.24-2-1v13.82a10 10 0 0 0 5.53 8.94l2.47 1.24h4.47l-6.05-3.02a8 8 0 0 1-4.42-7.16v-10.58l31.58 15.78a8 8 0 0 1 4.12 4.98zm36.24 0 2.47-1.24a10 10 0 0 0 5.53-8.94v-13.82l-2 1-32.47 16.24a10 10 0 0 0-5.29 6.76h2.06a8 8 0 0 1 4.12-4.98l31.58-15.78v10.58a8 8 0 0 1-4.42 7.16l-6.05 3.02zm0-24-32 16v-13.82a10 10 0 0 1 0.24-2.18h2.06a8 8 0 0 0-0.3 2.18v10.58l25.53-12.76z" fill="#f5df4d"/>
</g>
</g>
<g transform="translate(88)">
<g fill="#f5df4d">
<path d="m10 0 32 16v-13.82a10 10 0 0 0-0.24-2.18h-2.06a8 8 0 0 1 0.3 2.18v10.58l-25.53-12.76zm31.76 24a10 10 0 0 0-5.29-6.76l-32.47-16.24-2-1v13.82a10 10 0 0 0 5.53 8.94l2.47 1.24h4.47l-6.05-3.02a8 8 0 0 1-4.42-7.16v-10.58l31.58 15.78a8 8 0 0 1 4.12 4.98zm36.24 0 2.47-1.24a10 10 0 0 0 5.53-8.94v-13.82l-2 1-32.47 16.24a10 10 0 0 0-5.29 6.76h2.06a8 8 0 0 1 4.12-4.98l31.58-15.78v10.58a8 8 0 0 1-4.42 7.16l-6.05 3.02zm0-24-32 16v-13.82a10 10 0 0 1 0.24-2.18h2.06a8 8 0 0 0-0.3 2.18v10.58l25.53-12.76z" fill="#f5df4d"/>
</g>
</g>
<g transform="translate(-88)">
<g fill="#f5df4d">
<path d="m10 0 32 16v-13.82a10 10 0 0 0-0.24-2.18h-2.06a8 8 0 0 1 0.3 2.18v10.58l-25.53-12.76zm31.76 24a10 10 0 0 0-5.29-6.76l-32.47-16.24-2-1v13.82a10 10 0 0 0 5.53 8.94l2.47 1.24h4.47l-6.05-3.02a8 8 0 0 1-4.42-7.16v-10.58l31.58 15.78a8 8 0 0 1 4.12 4.98zm36.24 0 2.47-1.24a10 10 0 0 0 5.53-8.94v-13.82l-2 1-32.47 16.24a10 10 0 0 0-5.29 6.76h2.06a8 8 0 0 1 4.12-4.98l31.58-15.78v10.58a8 8 0 0 1-4.42 7.16l-6.05 3.02zm0-24-32 16v-13.82a10 10 0 0 1 0.24-2.18h2.06a8 8 0 0 0-0.3 2.18v10.58l25.53-12.76z" fill="#f5df4d"/>
</g>
</g>
</g>
<g transform="translate(0,408)">
<g transform="translate(176)">
<g fill="#f5df4d">
<path d="m10 0 32 16v-13.82a10 10 0 0 0-0.24-2.18h-2.06a8 8 0 0 1 0.3 2.18v10.58l-25.53-12.76zm31.76 24a10 10 0 0 0-5.29-6.76l-32.47-16.24-2-1v13.82a10 10 0 0 0 5.53 8.94l2.47 1.24h4.47l-6.05-3.02a8 8 0 0 1-4.42-7.16v-10.58l31.58 15.78a8 8 0 0 1 4.12 4.98zm36.24 0 2.47-1.24a10 10 0 0 0 5.53-8.94v-13.82l-2 1-32.47 16.24a10 10 0 0 0-5.29 6.76h2.06a8 8 0 0 1 4.12-4.98l31.58-15.78v10.58a8 8 0 0 1-4.42 7.16l-6.05 3.02zm0-24-32 16v-13.82a10 10 0 0 1 0.24-2.18h2.06a8 8 0 0 0-0.3 2.18v10.58l25.53-12.76z" fill="#f5df4d"/>
</g>
</g>
<g fill="#f5df4d">
<path d="m10 0 32 16v-13.82a10 10 0 0 0-0.24-2.18h-2.06a8 8 0 0 1 0.3 2.18v10.58l-25.53-12.76zm31.76 24a10 10 0 0 0-5.29-6.76l-32.47-16.24-2-1v13.82a10 10 0 0 0 5.53 8.94l2.47 1.24h4.47l-6.05-3.02a8 8 0 0 1-4.42-7.16v-10.58l31.58 15.78a8 8 0 0 1 4.12 4.98zm36.24 0 2.47-1.24a10 10 0 0 0 5.53-8.94v-13.82l-2 1-32.47 16.24a10 10 0 0 0-5.29 6.76h2.06a8 8 0 0 1 4.12-4.98l31.58-15.78v10.58a8 8 0 0 1-4.42 7.16l-6.05 3.02zm0-24-32 16v-13.82a10 10 0 0 1 0.24-2.18h2.06a8 8 0 0 0-0.3 2.18v10.58l25.53-12.76z" fill="#f5df4d"/>
</g>
<g fill="#f5df4d">
<path d="m10 0 32 16v-13.82a10 10 0 0 0-0.24-2.18h-2.06a8 8 0 0 1 0.3 2.18v10.58l-25.53-12.76zm31.76 24a10 10 0 0 0-5.29-6.76l-32.47-16.24-2-1v13.82a10 10 0 0 0 5.53 8.94l2.47 1.24h4.47l-6.05-3.02a8 8 0 0 1-4.42-7.16v-10.58l31.58 15.78a8 8 0 0 1 4.12 4.98zm36.24 0 2.47-1.24a10 10 0 0 0 5.53-8.94v-13.82l-2 1-32.47 16.24a10 10 0 0 0-5.29 6.76h2.06a8 8 0 0 1 4.12-4.98l31.58-15.78v10.58a8 8 0 0 1-4.42 7.16l-6.05 3.02zm0-24-32 16v-13.82a10 10 0 0 1 0.24-2.18h2.06a8 8 0 0 0-0.3 2.18v10.58l25.53-12.76z" fill="#f5df4d"/>
</g>
<g transform="translate(-176)">
<g fill="#f5df4d">
<path d="m10 0 32 16v-13.82a10 10 0 0 0-0.24-2.18h-2.06a8 8 0 0 1 0.3 2.18v10.58l-25.53-12.76zm31.76 24a10 10 0 0 0-5.29-6.76l-32.47-16.24-2-1v13.82a10 10 0 0 0 5.53 8.94l2.47 1.24h4.47l-6.05-3.02a8 8 0 0 1-4.42-7.16v-10.58l31.58 15.78a8 8 0 0 1 4.12 4.98zm36.24 0 2.47-1.24a10 10 0 0 0 5.53-8.94v-13.82l-2 1-32.47 16.24a10 10 0 0 0-5.29 6.76h2.06a8 8 0 0 1 4.12-4.98l31.58-15.78v10.58a8 8 0 0 1-4.42 7.16l-6.05 3.02zm0-24-32 16v-13.82a10 10 0 0 1 0.24-2.18h2.06a8 8 0 0 0-0.3 2.18v10.58l25.53-12.76z" fill="#f5df4d"/>
</g>
</g>
<g transform="translate(88)">
<g fill="#f5df4d">
<path d="m10 0 32 16v-13.82a10 10 0 0 0-0.24-2.18h-2.06a8 8 0 0 1 0.3 2.18v10.58l-25.53-12.76zm31.76 24a10 10 0 0 0-5.29-6.76l-32.47-16.24-2-1v13.82a10 10 0 0 0 5.53 8.94l2.47 1.24h4.47l-6.05-3.02a8 8 0 0 1-4.42-7.16v-10.58l31.58 15.78a8 8 0 0 1 4.12 4.98zm36.24 0 2.47-1.24a10 10 0 0 0 5.53-8.94v-13.82l-2 1-32.47 16.24a10 10 0 0 0-5.29 6.76h2.06a8 8 0 0 1 4.12-4.98l31.58-15.78v10.58a8 8 0 0 1-4.42 7.16l-6.05 3.02zm0-24-32 16v-13.82a10 10 0 0 1 0.24-2.18h2.06a8 8 0 0 0-0.3 2.18v10.58l25.53-12.76z" fill="#f5df4d"/>
</g>
</g>
<g transform="translate(-88)">
<g fill="#f5df4d">
<path d="m10 0 32 16v-13.82a10 10 0 0 0-0.24-2.18h-2.06a8 8 0 0 1 0.3 2.18v10.58l-25.53-12.76zm31.76 24a10 10 0 0 0-5.29-6.76l-32.47-16.24-2-1v13.82a10 10 0 0 0 5.53 8.94l2.47 1.24h4.47l-6.05-3.02a8 8 0 0 1-4.42-7.16v-10.58l31.58 15.78a8 8 0 0 1 4.12 4.98zm36.24 0 2.47-1.24a10 10 0 0 0 5.53-8.94v-13.82l-2 1-32.47 16.24a10 10 0 0 0-5.29 6.76h2.06a8 8 0 0 1 4.12-4.98l31.58-15.78v10.58a8 8 0 0 1-4.42 7.16l-6.05 3.02zm0-24-32 16v-13.82a10 10 0 0 1 0.24-2.18h2.06a8 8 0 0 0-0.3 2.18v10.58l25.53-12.76z" fill="#f5df4d"/>
</g>
</g>
</g>
<g transform="translate(0,384)">
<g transform="translate(176)">
<g fill="#f5df4d">
<path d="m10 0 32 16v-13.82a10 10 0 0 0-0.24-2.18h-2.06a8 8 0 0 1 0.3 2.18v10.58l-25.53-12.76zm31.76 24a10 10 0 0 0-5.29-6.76l-32.47-16.24-2-1v13.82a10 10 0 0 0 5.53 8.94l2.47 1.24h4.47l-6.05-3.02a8 8 0 0 1-4.42-7.16v-10.58l31.58 15.78a8 8 0 0 1 4.12 4.98zm36.24 0 2.47-1.24a10 10 0 0 0 5.53-8.94v-13.82l-2 1-32.47 16.24a10 10 0 0 0-5.29 6.76h2.06a8 8 0 0 1 4.12-4.98l31.58-15.78v10.58a8 8 0 0 1-4.42 7.16l-6.05 3.02zm0-24-32 16v-13.82a10 10 0 0 1 0.24-2.18h2.06a8 8 0 0 0-0.3 2.18v10.58l25.53-12.76z" fill="#f5df4d"/>
</g>
</g>
<g fill="#f5df4d">
<path d="m10 0 32 16v-13.82a10 10 0 0 0-0.24-2.18h-2.06a8 8 0 0 1 0.3 2.18v10.58l-25.53-12.76zm31.76 24a10 10 0 0 0-5.29-6.76l-32.47-16.24-2-1v13.82a10 10 0 0 0 5.53 8.94l2.47 1.24h4.47l-6.05-3.02a8 8 0 0 1-4.42-7.16v-10.58l31.58 15.78a8 8 0 0 1 4.12 4.98zm36.24 0 2.47-1.24a10 10 0 0 0 5.53-8.94v-13.82l-2 1-32.47 16.24a10 10 0 0 0-5.29 6.76h2.06a8 8 0 0 1 4.12-4.98l31.58-15.78v10.58a8 8 0 0 1-4.42 7.16l-6.05 3.02zm0-24-32 16v-13.82a10 10 0 0 1 0.24-2.18h2.06a8 8 0 0 0-0.3 2.18v10.58l25.53-12.76z" fill="#f5df4d"/>
</g>
<g fill="#f5df4d">
<path d="m10 0 32 16v-13.82a10 10 0 0 0-0.24-2.18h-2.06a8 8 0 0 1 0.3 2.18v10.58l-25.53-12.76zm31.76 24a10 10 0 0 0-5.29-6.76l-32.47-16.24-2-1v13.82a10 10 0 0 0 5.53 8.94l2.47 1.24h4.47l-6.05-3.02a8 8 0 0 1-4.42-7.16v-10.58l31.58 15.78a8 8 0 0 1 4.12 4.98zm36.24 0 2.47-1.24a10 10 0 0 0 5.53-8.94v-13.82l-2 1-32.47 16.24a10 10 0 0 0-5.29 6.76h2.06a8 8 0 0 1 4.12-4.98l31.58-15.78v10.58a8 8 0 0 1-4.42 7.16l-6.05 3.02zm0-24-32 16v-13.82a10 10 0 0 1 0.24-2.18h2.06a8 8 0 0 0-0.3 2.18v10.58l25.53-12.76z" fill="#f5df4d"/>
</g>
<g transform="translate(-176)">
<g fill="#f5df4d">
<path d="m10 0 32 16v-13.82a10 10 0 0 0-0.24-2.18h-2.06a8 8 0 0 1 0.3 2.18v10.58l-25.53-12.76zm31.76 24a10 10 0 0 0-5.29-6.76l-32.47-16.24-2-1v13.82a10 10 0 0 0 5.53 8.94l2.47 1.24h4.47l-6.05-3.02a8 8 0 0 1-4.42-7.16v-10.58l31.58 15.78a8 8 0 0 1 4.12 4.98zm36.24 0 2.47-1.24a10 10 0 0 0 5.53-8.94v-13.82l-2 1-32.47 16.24a10 10 0 0 0-5.29 6.76h2.06a8 8 0 0 1 4.12-4.98l31.58-15.78v10.58a8 8 0 0 1-4.42 7.16l-6.05 3.02zm0-24-32 16v-13.82a10 10 0 0 1 0.24-2.18h2.06a8 8 0 0 0-0.3 2.18v10.58l25.53-12.76z" fill="#f5df4d"/>
</g>
</g>
<g transform="translate(88)">
<g fill="#f5df4d">
<path d="m10 0 32 16v-13.82a10 10 0 0 0-0.24-2.18h-2.06a8 8 0 0 1 0.3 2.18v10.58l-25.53-12.76zm31.76 24a10 10 0 0 0-5.29-6.76l-32.47-16.24-2-1v13.82a10 10 0 0 0 5.53 8.94l2.47 1.24h4.47l-6.05-3.02a8 8 0 0 1-4.42-7.16v-10.58l31.58 15.78a8 8 0 0 1 4.12 4.98zm36.24 0 2.47-1.24a10 10 0 0 0 5.53-8.94v-13.82l-2 1-32.47 16.24a10 10 0 0 0-5.29 6.76h2.06a8 8 0 0 1 4.12-4.98l31.58-15.78v10.58a8 8 0 0 1-4.42 7.16l-6.05 3.02zm0-24-32 16v-13.82a10 10 0 0 1 0.24-2.18h2.06a8 8 0 0 0-0.3 2.18v10.58l25.53-12.76z" fill="#f5df4d"/>
</g>
</g>
<g transform="translate(-88)">
<g fill="#f5df4d">
<path d="m10 0 32 16v-13.82a10 10 0 0 0-0.24-2.18h-2.06a8 8 0 0 1 0.3 2.18v10.58l-25.53-12.76zm31.76 24a10 10 0 0 0-5.29-6.76l-32.47-16.24-2-1v13.82a10 10 0 0 0 5.53 8.94l2.47 1.24h4.47l-6.05-3.02a8 8 0 0 1-4.42-7.16v-10.58l31.58 15.78a8 8 0 0 1 4.12 4.98zm36.24 0 2.47-1.24a10 10 0 0 0 5.53-8.94v-13.82l-2 1-32.47 16.24a10 10 0 0 0-5.29 6.76h2.06a8 8 0 0 1 4.12-4.98l31.58-15.78v10.58a8 8 0 0 1-4.42 7.16l-6.05 3.02zm0-24-32 16v-13.82a10 10 0 0 1 0.24-2.18h2.06a8 8 0 0 0-0.3 2.18v10.58l25.53-12.76z" fill="#f5df4d"/>
</g>
</g>
</g>
<g transform="translate(0,360)">
<g transform="translate(176)">
<g fill="#f5df4d">
<path d="m10 0 32 16v-13.82a10 10 0 0 0-0.24-2.18h-2.06a8 8 0 0 1 0.3 2.18v10.58l-25.53-12.76zm31.76 24a10 10 0 0 0-5.29-6.76l-32.47-16.24-2-1v13.82a10 10 0 0 0 5.53 8.94l2.47 1.24h4.47l-6.05-3.02a8 8 0 0 1-4.42-7.16v-10.58l31.58 15.78a8 8 0 0 1 4.12 4.98zm36.24 0 2.47-1.24a10 10 0 0 0 5.53-8.94v-13.82l-2 1-32.47 16.24a10 10 0 0 0-5.29 6.76h2.06a8 8 0 0 1 4.12-4.98l31.58-15.78v10.58a8 8 0 0 1-4.42 7.16l-6.05 3.02zm0-24-32 16v-13.82a10 10 0 0 1 0.24-2.18h2.06a8 8 0 0 0-0.3 2.18v10.58l25.53-12.76z" fill="#f5df4d"/>
</g>
</g>
<g fill="#f5df4d">
<path d="m10 0 32 16v-13.82a10 10 0 0 0-0.24-2.18h-2.06a8 8 0 0 1 0.3 2.18v10.58l-25.53-12.76zm31.76 24a10 10 0 0 0-5.29-6.76l-32.47-16.24-2-1v13.82a10 10 0 0 0 5.53 8.94l2.47 1.24h4.47l-6.05-3.02a8 8 0 0 1-4.42-7.16v-10.58l31.58 15.78a8 8 0 0 1 4.12 4.98zm36.24 0 2.47-1.24a10 10 0 0 0 5.53-8.94v-13.82l-2 1-32.47 16.24a10 10 0 0 0-5.29 6.76h2.06a8 8 0 0 1 4.12-4.98l31.58-15.78v10.58a8 8 0 0 1-4.42 7.16l-6.05 3.02zm0-24-32 16v-13.82a10 10 0 0 1 0.24-2.18h2.06a8 8 0 0 0-0.3 2.18v10.58l25.53-12.76z" fill="#f5df4d"/>
</g>
<g fill="#f5df4d">
<path d="m10 0 32 16v-13.82a10 10 0 0 0-0.24-2.18h-2.06a8 8 0 0 1 0.3 2.18v10.58l-25.53-12.76zm31.76 24a10 10 0 0 0-5.29-6.76l-32.47-16.24-2-1v13.82a10 10 0 0 0 5.53 8.94l2.47 1.24h4.47l-6.05-3.02a8 8 0 0 1-4.42-7.16v-10.58l31.58 15.78a8 8 0 0 1 4.12 4.98zm36.24 0 2.47-1.24a10 10 0 0 0 5.53-8.94v-13.82l-2 1-32.47 16.24a10 10 0 0 0-5.29 6.76h2.06a8 8 0 0 1 4.12-4.98l31.58-15.78v10.58a8 8 0 0 1-4.42 7.16l-6.05 3.02zm0-24-32 16v-13.82a10 10 0 0 1 0.24-2.18h2.06a8 8 0 0 0-0.3 2.18v10.58l25.53-12.76z" fill="#f5df4d"/>
</g>
<g transform="translate(-176)">
<g fill="#f5df4d">
<path d="m10 0 32 16v-13.82a10 10 0 0 0-0.24-2.18h-2.06a8 8 0 0 1 0.3 2.18v10.58l-25.53-12.76zm31.76 24a10 10 0 0 0-5.29-6.76l-32.47-16.24-2-1v13.82a10 10 0 0 0 5.53 8.94l2.47 1.24h4.47l-6.05-3.02a8 8 0 0 1-4.42-7.16v-10.58l31.58 15.78a8 8 0 0 1 4.12 4.98zm36.24 0 2.47-1.24a10 10 0 0 0 5.53-8.94v-13.82l-2 1-32.47 16.24a10 10 0 0 0-5.29 6.76h2.06a8 8 0 0 1 4.12-4.98l31.58-15.78v10.58a8 8 0 0 1-4.42 7.16l-6.05 3.02zm0-24-32 16v-13.82a10 10 0 0 1 0.24-2.18h2.06a8 8 0 0 0-0.3 2.18v10.58l25.53-12.76z" fill="#f5df4d"/>
</g>
</g>
<g transform="translate(88)">
<g fill="#f5df4d">
<path d="m10 0 32 16v-13.82a10 10 0 0 0-0.24-2.18h-2.06a8 8 0 0 1 0.3 2.18v10.58l-25.53-12.76zm31.76 24a10 10 0 0 0-5.29-6.76l-32.47-16.24-2-1v13.82a10 10 0 0 0 5.53 8.94l2.47 1.24h4.47l-6.05-3.02a8 8 0 0 1-4.42-7.16v-10.58l31.58 15.78a8 8 0 0 1 4.12 4.98zm36.24 0 2.47-1.24a10 10 0 0 0 5.53-8.94v-13.82l-2 1-32.47 16.24a10 10 0 0 0-5.29 6.76h2.06a8 8 0 0 1 4.12-4.98l31.58-15.78v10.58a8 8 0 0 1-4.42 7.16l-6.05 3.02zm0-24-32 16v-13.82a10 10 0 0 1 0.24-2.18h2.06a8 8 0 0 0-0.3 2.18v10.58l25.53-12.76z" fill="#f5df4d"/>
</g>
</g>
<g transform="translate(-88)">
<g fill="#f5df4d">
<path d="m10 0 32 16v-13.82a10 10 0 0 0-0.24-2.18h-2.06a8 8 0 0 1 0.3 2.18v10.58l-25.53-12.76zm31.76 24a10 10 0 0 0-5.29-6.76l-32.47-16.24-2-1v13.82a10 10 0 0 0 5.53 8.94l2.47 1.24h4.47l-6.05-3.02a8 8 0 0 1-4.42-7.16v-10.58l31.58 15.78a8 8 0 0 1 4.12 4.98zm36.24 0 2.47-1.24a10 10 0 0 0 5.53-8.94v-13.82l-2 1-32.47 16.24a10 10 0 0 0-5.29 6.76h2.06a8 8 0 0 1 4.12-4.98l31.58-15.78v10.58a8 8 0 0 1-4.42 7.16l-6.05 3.02zm0-24-32 16v-13.82a10 10 0 0 1 0.24-2.18h2.06a8 8 0 0 0-0.3 2.18v10.58l25.53-12.76z" fill="#f5df4d"/>
</g>
</g>
</g>
</g>
</svg>
