<?xml version="1.0" encoding="UTF-8"?>
<svg version="1.1" viewBox="0 0 320 320" xmlns="http://www.w3.org/2000/svg" xmlns:cc="http://creativecommons.org/ns#" xmlns:dc="http://purl.org/dc/elements/1.1/" xmlns:rdf="http://www.w3.org/1999/02/22-rdf-syntax-ns#">
<metadata>
<rdf:RDF>
<cc:Work rdf:about="">
<dc:format>image/svg+xml</dc:format>
<dc:type rdf:resource="http://purl.org/dc/dcmitype/StillImage"/>
<dc:title/>
</cc:Work>
</rdf:RDF>
</metadata>
<g transform="scale(1.2214 1.0738)" fill="#f5df4d" fill-rule="evenodd">
<path d="m12 18h12v18h6v4h-12v-18h-6zm-6-2v-4h-6v-12h36v6h6v36h-6v4h6v12h-36v-6h-6v-36zm28-14h-32v8h24v24h8zm-28 6a2 2 0 1 0 0-4 2 2 0 0 0 0 4zm8 0a2 2 0 1 0 0-4 2 2 0 0 0 0 4zm8 0a2 2 0 1 0 0-4 2 2 0 0 0 0 4zm8 0a2 2 0 1 0 0-4 2 2 0 0 0 0 4zm0 8a2 2 0 1 0 0-4 2 2 0 0 0 0 4zm0 8a2 2 0 1 0 0-4 2 2 0 0 0 0 4zm0 8a2 2 0 1 0 0-4 2 2 0 0 0 0 4zm-28 18h32v-8h-24v-24h-8zm28-6a2 2 0 1 0 0 4 2 2 0 0 0 0-4zm-8 0a2 2 0 1 0 0 4 2 2 0 0 0 0-4zm-8 0a2 2 0 1 0 0 4 2 2 0 0 0 0-4zm-8 0a2 2 0 1 0 0 4 2 2 0 0 0 0-4zm0-8a2 2 0 1 0 0 4 2 2 0 0 0 0-4zm0-8a2 2 0 1 0 0 4 2 2 0 0 0 0-4zm0-8a2 2 0 1 0 0 4 2 2 0 0 0 0-4z"/>
<path d="m232 18h12v18h6v4h-12v-18h-6zm-6-2v-4h-6v-12h36v6h6v36h-6v4h6v12h-36v-6h-6v-36zm28-14h-32v8h24v24h8zm-28 6a2 2 0 1 0 0-4 2 2 0 0 0 0 4zm8 0a2 2 0 1 0 0-4 2 2 0 0 0 0 4zm8 0a2 2 0 1 0 0-4 2 2 0 0 0 0 4zm8 0a2 2 0 1 0 0-4 2 2 0 0 0 0 4zm0 8a2 2 0 1 0 0-4 2 2 0 0 0 0 4zm0 8a2 2 0 1 0 0-4 2 2 0 0 0 0 4zm0 8a2 2 0 1 0 0-4 2 2 0 0 0 0 4zm-28 18h32v-8h-24v-24h-8zm28-6a2 2 0 1 0 0 4 2 2 0 0 0 0-4zm-8 0a2 2 0 1 0 0 4 2 2 0 0 0 0-4zm-8 0a2 2 0 1 0 0 4 2 2 0 0 0 0-4zm-8 0a2 2 0 1 0 0 4 2 2 0 0 0 0-4zm0-8a2 2 0 1 0 0 4 2 2 0 0 0 0-4zm0-8a2 2 0 1 0 0 4 2 2 0 0 0 0-4zm0-8a2 2 0 1 0 0 4 2 2 0 0 0 0-4z"/>
<path d="m188 18h12v18h6v4h-12v-18h-6zm-6-2v-4h-6v-12h36v6h6v36h-6v4h6v12h-36v-6h-6v-36zm28-14h-32v8h24v24h8zm-28 6a2 2 0 1 0 0-4 2 2 0 0 0 0 4zm8 0a2 2 0 1 0 0-4 2 2 0 0 0 0 4zm8 0a2 2 0 1 0 0-4 2 2 0 0 0 0 4zm8 0a2 2 0 1 0 0-4 2 2 0 0 0 0 4zm0 8a2 2 0 1 0 0-4 2 2 0 0 0 0 4zm0 8a2 2 0 1 0 0-4 2 2 0 0 0 0 4zm0 8a2 2 0 1 0 0-4 2 2 0 0 0 0 4zm-28 18h32v-8h-24v-24h-8zm28-6a2 2 0 1 0 0 4 2 2 0 0 0 0-4zm-8 0a2 2 0 1 0 0 4 2 2 0 0 0 0-4zm-8 0a2 2 0 1 0 0 4 2 2 0 0 0 0-4zm-8 0a2 2 0 1 0 0 4 2 2 0 0 0 0-4zm0-8a2 2 0 1 0 0 4 2 2 0 0 0 0-4zm0-8a2 2 0 1 0 0 4 2 2 0 0 0 0-4zm0-8a2 2 0 1 0 0 4 2 2 0 0 0 0-4z"/>
<path d="m144 18h12v18h6v4h-12v-18h-6zm-6-2v-4h-6v-12h36v6h6v36h-6v4h6v12h-36v-6h-6v-36zm28-14h-32v8h24v24h8zm-28 6a2 2 0 1 0 0-4 2 2 0 0 0 0 4zm8 0a2 2 0 1 0 0-4 2 2 0 0 0 0 4zm8 0a2 2 0 1 0 0-4 2 2 0 0 0 0 4zm8 0a2 2 0 1 0 0-4 2 2 0 0 0 0 4zm0 8a2 2 0 1 0 0-4 2 2 0 0 0 0 4zm0 8a2 2 0 1 0 0-4 2 2 0 0 0 0 4zm0 8a2 2 0 1 0 0-4 2 2 0 0 0 0 4zm-28 18h32v-8h-24v-24h-8zm28-6a2 2 0 1 0 0 4 2 2 0 0 0 0-4zm-8 0a2 2 0 1 0 0 4 2 2 0 0 0 0-4zm-8 0a2 2 0 1 0 0 4 2 2 0 0 0 0-4zm-8 0a2 2 0 1 0 0 4 2 2 0 0 0 0-4zm0-8a2 2 0 1 0 0 4 2 2 0 0 0 0-4zm0-8a2 2 0 1 0 0 4 2 2 0 0 0 0-4zm0-8a2 2 0 1 0 0 4 2 2 0 0 0 0-4z"/>
<path d="m100 18h12v18h6v4h-12v-18h-6zm-6-2v-4h-6v-12h36v6h6v36h-6v4h6v12h-36v-6h-6v-36zm28-14h-32v8h24v24h8zm-28 6a2 2 0 1 0 0-4 2 2 0 0 0 0 4zm8 0a2 2 0 1 0 0-4 2 2 0 0 0 0 4zm8 0a2 2 0 1 0 0-4 2 2 0 0 0 0 4zm8 0a2 2 0 1 0 0-4 2 2 0 0 0 0 4zm0 8a2 2 0 1 0 0-4 2 2 0 0 0 0 4zm0 8a2 2 0 1 0 0-4 2 2 0 0 0 0 4zm0 8a2 2 0 1 0 0-4 2 2 0 0 0 0 4zm-28 18h32v-8h-24v-24h-8zm28-6a2 2 0 1 0 0 4 2 2 0 0 0 0-4zm-8 0a2 2 0 1 0 0 4 2 2 0 0 0 0-4zm-8 0a2 2 0 1 0 0 4 2 2 0 0 0 0-4zm-8 0a2 2 0 1 0 0 4 2 2 0 0 0 0-4zm0-8a2 2 0 1 0 0 4 2 2 0 0 0 0-4zm0-8a2 2 0 1 0 0 4 2 2 0 0 0 0-4zm0-8a2 2 0 1 0 0 4 2 2 0 0 0 0-4z"/>
<path d="m56 18h12v18h6v4h-12v-18h-6zm-6-2v-4h-6v-12h36v6h6v36h-6v4h6v12h-36v-6h-6v-36zm28-14h-32v8h24v24h8zm-28 6a2 2 0 1 0 0-4 2 2 0 0 0 0 4zm8 0a2 2 0 1 0 0-4 2 2 0 0 0 0 4zm8 0a2 2 0 1 0 0-4 2 2 0 0 0 0 4zm8 0a2 2 0 1 0 0-4 2 2 0 0 0 0 4zm0 8a2 2 0 1 0 0-4 2 2 0 0 0 0 4zm0 8a2 2 0 1 0 0-4 2 2 0 0 0 0 4zm0 8a2 2 0 1 0 0-4 2 2 0 0 0 0 4zm-28 18h32v-8h-24v-24h-8zm28-6a2 2 0 1 0 0 4 2 2 0 0 0 0-4zm-8 0a2 2 0 1 0 0 4 2 2 0 0 0 0-4zm-8 0a2 2 0 1 0 0 4 2 2 0 0 0 0-4zm-8 0a2 2 0 1 0 0 4 2 2 0 0 0 0-4zm0-8a2 2 0 1 0 0 4 2 2 0 0 0 0-4zm0-8a2 2 0 1 0 0 4 2 2 0 0 0 0-4zm0-8a2 2 0 1 0 0 4 2 2 0 0 0 0-4z"/>
<g transform="translate(0,240)">
<path d="m12 18h12v18h6v4h-12v-18h-6zm-6-2v-4h-6v-12h36v6h6v36h-6v4h6v12h-36v-6h-6v-36zm28-14h-32v8h24v24h8zm-28 6a2 2 0 1 0 0-4 2 2 0 0 0 0 4zm8 0a2 2 0 1 0 0-4 2 2 0 0 0 0 4zm8 0a2 2 0 1 0 0-4 2 2 0 0 0 0 4zm8 0a2 2 0 1 0 0-4 2 2 0 0 0 0 4zm0 8a2 2 0 1 0 0-4 2 2 0 0 0 0 4zm0 8a2 2 0 1 0 0-4 2 2 0 0 0 0 4zm0 8a2 2 0 1 0 0-4 2 2 0 0 0 0 4zm-28 18h32v-8h-24v-24h-8zm28-6a2 2 0 1 0 0 4 2 2 0 0 0 0-4zm-8 0a2 2 0 1 0 0 4 2 2 0 0 0 0-4zm-8 0a2 2 0 1 0 0 4 2 2 0 0 0 0-4zm-8 0a2 2 0 1 0 0 4 2 2 0 0 0 0-4zm0-8a2 2 0 1 0 0 4 2 2 0 0 0 0-4zm0-8a2 2 0 1 0 0 4 2 2 0 0 0 0-4zm0-8a2 2 0 1 0 0 4 2 2 0 0 0 0-4z"/>
<path d="m232 18h12v18h6v4h-12v-18h-6zm-6-2v-4h-6v-12h36v6h6v36h-6v4h6v12h-36v-6h-6v-36zm28-14h-32v8h24v24h8zm-28 6a2 2 0 1 0 0-4 2 2 0 0 0 0 4zm8 0a2 2 0 1 0 0-4 2 2 0 0 0 0 4zm8 0a2 2 0 1 0 0-4 2 2 0 0 0 0 4zm8 0a2 2 0 1 0 0-4 2 2 0 0 0 0 4zm0 8a2 2 0 1 0 0-4 2 2 0 0 0 0 4zm0 8a2 2 0 1 0 0-4 2 2 0 0 0 0 4zm0 8a2 2 0 1 0 0-4 2 2 0 0 0 0 4zm-28 18h32v-8h-24v-24h-8zm28-6a2 2 0 1 0 0 4 2 2 0 0 0 0-4zm-8 0a2 2 0 1 0 0 4 2 2 0 0 0 0-4zm-8 0a2 2 0 1 0 0 4 2 2 0 0 0 0-4zm-8 0a2 2 0 1 0 0 4 2 2 0 0 0 0-4zm0-8a2 2 0 1 0 0 4 2 2 0 0 0 0-4zm0-8a2 2 0 1 0 0 4 2 2 0 0 0 0-4zm0-8a2 2 0 1 0 0 4 2 2 0 0 0 0-4z"/>
<path d="m188 18h12v18h6v4h-12v-18h-6zm-6-2v-4h-6v-12h36v6h6v36h-6v4h6v12h-36v-6h-6v-36zm28-14h-32v8h24v24h8zm-28 6a2 2 0 1 0 0-4 2 2 0 0 0 0 4zm8 0a2 2 0 1 0 0-4 2 2 0 0 0 0 4zm8 0a2 2 0 1 0 0-4 2 2 0 0 0 0 4zm8 0a2 2 0 1 0 0-4 2 2 0 0 0 0 4zm0 8a2 2 0 1 0 0-4 2 2 0 0 0 0 4zm0 8a2 2 0 1 0 0-4 2 2 0 0 0 0 4zm0 8a2 2 0 1 0 0-4 2 2 0 0 0 0 4zm-28 18h32v-8h-24v-24h-8zm28-6a2 2 0 1 0 0 4 2 2 0 0 0 0-4zm-8 0a2 2 0 1 0 0 4 2 2 0 0 0 0-4zm-8 0a2 2 0 1 0 0 4 2 2 0 0 0 0-4zm-8 0a2 2 0 1 0 0 4 2 2 0 0 0 0-4zm0-8a2 2 0 1 0 0 4 2 2 0 0 0 0-4zm0-8a2 2 0 1 0 0 4 2 2 0 0 0 0-4zm0-8a2 2 0 1 0 0 4 2 2 0 0 0 0-4z"/>
<path d="m144 18h12v18h6v4h-12v-18h-6zm-6-2v-4h-6v-12h36v6h6v36h-6v4h6v12h-36v-6h-6v-36zm28-14h-32v8h24v24h8zm-28 6a2 2 0 1 0 0-4 2 2 0 0 0 0 4zm8 0a2 2 0 1 0 0-4 2 2 0 0 0 0 4zm8 0a2 2 0 1 0 0-4 2 2 0 0 0 0 4zm8 0a2 2 0 1 0 0-4 2 2 0 0 0 0 4zm0 8a2 2 0 1 0 0-4 2 2 0 0 0 0 4zm0 8a2 2 0 1 0 0-4 2 2 0 0 0 0 4zm0 8a2 2 0 1 0 0-4 2 2 0 0 0 0 4zm-28 18h32v-8h-24v-24h-8zm28-6a2 2 0 1 0 0 4 2 2 0 0 0 0-4zm-8 0a2 2 0 1 0 0 4 2 2 0 0 0 0-4zm-8 0a2 2 0 1 0 0 4 2 2 0 0 0 0-4zm-8 0a2 2 0 1 0 0 4 2 2 0 0 0 0-4zm0-8a2 2 0 1 0 0 4 2 2 0 0 0 0-4zm0-8a2 2 0 1 0 0 4 2 2 0 0 0 0-4zm0-8a2 2 0 1 0 0 4 2 2 0 0 0 0-4z"/>
<path d="m100 18h12v18h6v4h-12v-18h-6zm-6-2v-4h-6v-12h36v6h6v36h-6v4h6v12h-36v-6h-6v-36zm28-14h-32v8h24v24h8zm-28 6a2 2 0 1 0 0-4 2 2 0 0 0 0 4zm8 0a2 2 0 1 0 0-4 2 2 0 0 0 0 4zm8 0a2 2 0 1 0 0-4 2 2 0 0 0 0 4zm8 0a2 2 0 1 0 0-4 2 2 0 0 0 0 4zm0 8a2 2 0 1 0 0-4 2 2 0 0 0 0 4zm0 8a2 2 0 1 0 0-4 2 2 0 0 0 0 4zm0 8a2 2 0 1 0 0-4 2 2 0 0 0 0 4zm-28 18h32v-8h-24v-24h-8zm28-6a2 2 0 1 0 0 4 2 2 0 0 0 0-4zm-8 0a2 2 0 1 0 0 4 2 2 0 0 0 0-4zm-8 0a2 2 0 1 0 0 4 2 2 0 0 0 0-4zm-8 0a2 2 0 1 0 0 4 2 2 0 0 0 0-4zm0-8a2 2 0 1 0 0 4 2 2 0 0 0 0-4zm0-8a2 2 0 1 0 0 4 2 2 0 0 0 0-4zm0-8a2 2 0 1 0 0 4 2 2 0 0 0 0-4z"/>
<path d="m56 18h12v18h6v4h-12v-18h-6zm-6-2v-4h-6v-12h36v6h6v36h-6v4h6v12h-36v-6h-6v-36zm28-14h-32v8h24v24h8zm-28 6a2 2 0 1 0 0-4 2 2 0 0 0 0 4zm8 0a2 2 0 1 0 0-4 2 2 0 0 0 0 4zm8 0a2 2 0 1 0 0-4 2 2 0 0 0 0 4zm8 0a2 2 0 1 0 0-4 2 2 0 0 0 0 4zm0 8a2 2 0 1 0 0-4 2 2 0 0 0 0 4zm0 8a2 2 0 1 0 0-4 2 2 0 0 0 0 4zm0 8a2 2 0 1 0 0-4 2 2 0 0 0 0 4zm-28 18h32v-8h-24v-24h-8zm28-6a2 2 0 1 0 0 4 2 2 0 0 0 0-4zm-8 0a2 2 0 1 0 0 4 2 2 0 0 0 0-4zm-8 0a2 2 0 1 0 0 4 2 2 0 0 0 0-4zm-8 0a2 2 0 1 0 0 4 2 2 0 0 0 0-4zm0-8a2 2 0 1 0 0 4 2 2 0 0 0 0-4zm0-8a2 2 0 1 0 0 4 2 2 0 0 0 0-4zm0-8a2 2 0 1 0 0 4 2 2 0 0 0 0-4z"/>
</g>
<g transform="translate(0,180)">
<path d="m12 18h12v18h6v4h-12v-18h-6zm-6-2v-4h-6v-12h36v6h6v36h-6v4h6v12h-36v-6h-6v-36zm28-14h-32v8h24v24h8zm-28 6a2 2 0 1 0 0-4 2 2 0 0 0 0 4zm8 0a2 2 0 1 0 0-4 2 2 0 0 0 0 4zm8 0a2 2 0 1 0 0-4 2 2 0 0 0 0 4zm8 0a2 2 0 1 0 0-4 2 2 0 0 0 0 4zm0 8a2 2 0 1 0 0-4 2 2 0 0 0 0 4zm0 8a2 2 0 1 0 0-4 2 2 0 0 0 0 4zm0 8a2 2 0 1 0 0-4 2 2 0 0 0 0 4zm-28 18h32v-8h-24v-24h-8zm28-6a2 2 0 1 0 0 4 2 2 0 0 0 0-4zm-8 0a2 2 0 1 0 0 4 2 2 0 0 0 0-4zm-8 0a2 2 0 1 0 0 4 2 2 0 0 0 0-4zm-8 0a2 2 0 1 0 0 4 2 2 0 0 0 0-4zm0-8a2 2 0 1 0 0 4 2 2 0 0 0 0-4zm0-8a2 2 0 1 0 0 4 2 2 0 0 0 0-4zm0-8a2 2 0 1 0 0 4 2 2 0 0 0 0-4z"/>
<path d="m232 18h12v18h6v4h-12v-18h-6zm-6-2v-4h-6v-12h36v6h6v36h-6v4h6v12h-36v-6h-6v-36zm28-14h-32v8h24v24h8zm-28 6a2 2 0 1 0 0-4 2 2 0 0 0 0 4zm8 0a2 2 0 1 0 0-4 2 2 0 0 0 0 4zm8 0a2 2 0 1 0 0-4 2 2 0 0 0 0 4zm8 0a2 2 0 1 0 0-4 2 2 0 0 0 0 4zm0 8a2 2 0 1 0 0-4 2 2 0 0 0 0 4zm0 8a2 2 0 1 0 0-4 2 2 0 0 0 0 4zm0 8a2 2 0 1 0 0-4 2 2 0 0 0 0 4zm-28 18h32v-8h-24v-24h-8zm28-6a2 2 0 1 0 0 4 2 2 0 0 0 0-4zm-8 0a2 2 0 1 0 0 4 2 2 0 0 0 0-4zm-8 0a2 2 0 1 0 0 4 2 2 0 0 0 0-4zm-8 0a2 2 0 1 0 0 4 2 2 0 0 0 0-4zm0-8a2 2 0 1 0 0 4 2 2 0 0 0 0-4zm0-8a2 2 0 1 0 0 4 2 2 0 0 0 0-4zm0-8a2 2 0 1 0 0 4 2 2 0 0 0 0-4z"/>
<path d="m188 18h12v18h6v4h-12v-18h-6zm-6-2v-4h-6v-12h36v6h6v36h-6v4h6v12h-36v-6h-6v-36zm28-14h-32v8h24v24h8zm-28 6a2 2 0 1 0 0-4 2 2 0 0 0 0 4zm8 0a2 2 0 1 0 0-4 2 2 0 0 0 0 4zm8 0a2 2 0 1 0 0-4 2 2 0 0 0 0 4zm8 0a2 2 0 1 0 0-4 2 2 0 0 0 0 4zm0 8a2 2 0 1 0 0-4 2 2 0 0 0 0 4zm0 8a2 2 0 1 0 0-4 2 2 0 0 0 0 4zm0 8a2 2 0 1 0 0-4 2 2 0 0 0 0 4zm-28 18h32v-8h-24v-24h-8zm28-6a2 2 0 1 0 0 4 2 2 0 0 0 0-4zm-8 0a2 2 0 1 0 0 4 2 2 0 0 0 0-4zm-8 0a2 2 0 1 0 0 4 2 2 0 0 0 0-4zm-8 0a2 2 0 1 0 0 4 2 2 0 0 0 0-4zm0-8a2 2 0 1 0 0 4 2 2 0 0 0 0-4zm0-8a2 2 0 1 0 0 4 2 2 0 0 0 0-4zm0-8a2 2 0 1 0 0 4 2 2 0 0 0 0-4z"/>
<path d="m144 18h12v18h6v4h-12v-18h-6zm-6-2v-4h-6v-12h36v6h6v36h-6v4h6v12h-36v-6h-6v-36zm28-14h-32v8h24v24h8zm-28 6a2 2 0 1 0 0-4 2 2 0 0 0 0 4zm8 0a2 2 0 1 0 0-4 2 2 0 0 0 0 4zm8 0a2 2 0 1 0 0-4 2 2 0 0 0 0 4zm8 0a2 2 0 1 0 0-4 2 2 0 0 0 0 4zm0 8a2 2 0 1 0 0-4 2 2 0 0 0 0 4zm0 8a2 2 0 1 0 0-4 2 2 0 0 0 0 4zm0 8a2 2 0 1 0 0-4 2 2 0 0 0 0 4zm-28 18h32v-8h-24v-24h-8zm28-6a2 2 0 1 0 0 4 2 2 0 0 0 0-4zm-8 0a2 2 0 1 0 0 4 2 2 0 0 0 0-4zm-8 0a2 2 0 1 0 0 4 2 2 0 0 0 0-4zm-8 0a2 2 0 1 0 0 4 2 2 0 0 0 0-4zm0-8a2 2 0 1 0 0 4 2 2 0 0 0 0-4zm0-8a2 2 0 1 0 0 4 2 2 0 0 0 0-4zm0-8a2 2 0 1 0 0 4 2 2 0 0 0 0-4z"/>
<path d="m100 18h12v18h6v4h-12v-18h-6zm-6-2v-4h-6v-12h36v6h6v36h-6v4h6v12h-36v-6h-6v-36zm28-14h-32v8h24v24h8zm-28 6a2 2 0 1 0 0-4 2 2 0 0 0 0 4zm8 0a2 2 0 1 0 0-4 2 2 0 0 0 0 4zm8 0a2 2 0 1 0 0-4 2 2 0 0 0 0 4zm8 0a2 2 0 1 0 0-4 2 2 0 0 0 0 4zm0 8a2 2 0 1 0 0-4 2 2 0 0 0 0 4zm0 8a2 2 0 1 0 0-4 2 2 0 0 0 0 4zm0 8a2 2 0 1 0 0-4 2 2 0 0 0 0 4zm-28 18h32v-8h-24v-24h-8zm28-6a2 2 0 1 0 0 4 2 2 0 0 0 0-4zm-8 0a2 2 0 1 0 0 4 2 2 0 0 0 0-4zm-8 0a2 2 0 1 0 0 4 2 2 0 0 0 0-4zm-8 0a2 2 0 1 0 0 4 2 2 0 0 0 0-4zm0-8a2 2 0 1 0 0 4 2 2 0 0 0 0-4zm0-8a2 2 0 1 0 0 4 2 2 0 0 0 0-4zm0-8a2 2 0 1 0 0 4 2 2 0 0 0 0-4z"/>
<path d="m56 18h12v18h6v4h-12v-18h-6zm-6-2v-4h-6v-12h36v6h6v36h-6v4h6v12h-36v-6h-6v-36zm28-14h-32v8h24v24h8zm-28 6a2 2 0 1 0 0-4 2 2 0 0 0 0 4zm8 0a2 2 0 1 0 0-4 2 2 0 0 0 0 4zm8 0a2 2 0 1 0 0-4 2 2 0 0 0 0 4zm8 0a2 2 0 1 0 0-4 2 2 0 0 0 0 4zm0 8a2 2 0 1 0 0-4 2 2 0 0 0 0 4zm0 8a2 2 0 1 0 0-4 2 2 0 0 0 0 4zm0 8a2 2 0 1 0 0-4 2 2 0 0 0 0 4zm-28 18h32v-8h-24v-24h-8zm28-6a2 2 0 1 0 0 4 2 2 0 0 0 0-4zm-8 0a2 2 0 1 0 0 4 2 2 0 0 0 0-4zm-8 0a2 2 0 1 0 0 4 2 2 0 0 0 0-4zm-8 0a2 2 0 1 0 0 4 2 2 0 0 0 0-4zm0-8a2 2 0 1 0 0 4 2 2 0 0 0 0-4zm0-8a2 2 0 1 0 0 4 2 2 0 0 0 0-4zm0-8a2 2 0 1 0 0 4 2 2 0 0 0 0-4z"/>
</g>
<g transform="translate(0,120)">
<path d="m12 18h12v18h6v4h-12v-18h-6zm-6-2v-4h-6v-12h36v6h6v36h-6v4h6v12h-36v-6h-6v-36zm28-14h-32v8h24v24h8zm-28 6a2 2 0 1 0 0-4 2 2 0 0 0 0 4zm8 0a2 2 0 1 0 0-4 2 2 0 0 0 0 4zm8 0a2 2 0 1 0 0-4 2 2 0 0 0 0 4zm8 0a2 2 0 1 0 0-4 2 2 0 0 0 0 4zm0 8a2 2 0 1 0 0-4 2 2 0 0 0 0 4zm0 8a2 2 0 1 0 0-4 2 2 0 0 0 0 4zm0 8a2 2 0 1 0 0-4 2 2 0 0 0 0 4zm-28 18h32v-8h-24v-24h-8zm28-6a2 2 0 1 0 0 4 2 2 0 0 0 0-4zm-8 0a2 2 0 1 0 0 4 2 2 0 0 0 0-4zm-8 0a2 2 0 1 0 0 4 2 2 0 0 0 0-4zm-8 0a2 2 0 1 0 0 4 2 2 0 0 0 0-4zm0-8a2 2 0 1 0 0 4 2 2 0 0 0 0-4zm0-8a2 2 0 1 0 0 4 2 2 0 0 0 0-4zm0-8a2 2 0 1 0 0 4 2 2 0 0 0 0-4z"/>
<path d="m232 18h12v18h6v4h-12v-18h-6zm-6-2v-4h-6v-12h36v6h6v36h-6v4h6v12h-36v-6h-6v-36zm28-14h-32v8h24v24h8zm-28 6a2 2 0 1 0 0-4 2 2 0 0 0 0 4zm8 0a2 2 0 1 0 0-4 2 2 0 0 0 0 4zm8 0a2 2 0 1 0 0-4 2 2 0 0 0 0 4zm8 0a2 2 0 1 0 0-4 2 2 0 0 0 0 4zm0 8a2 2 0 1 0 0-4 2 2 0 0 0 0 4zm0 8a2 2 0 1 0 0-4 2 2 0 0 0 0 4zm0 8a2 2 0 1 0 0-4 2 2 0 0 0 0 4zm-28 18h32v-8h-24v-24h-8zm28-6a2 2 0 1 0 0 4 2 2 0 0 0 0-4zm-8 0a2 2 0 1 0 0 4 2 2 0 0 0 0-4zm-8 0a2 2 0 1 0 0 4 2 2 0 0 0 0-4zm-8 0a2 2 0 1 0 0 4 2 2 0 0 0 0-4zm0-8a2 2 0 1 0 0 4 2 2 0 0 0 0-4zm0-8a2 2 0 1 0 0 4 2 2 0 0 0 0-4zm0-8a2 2 0 1 0 0 4 2 2 0 0 0 0-4z"/>
<path d="m188 18h12v18h6v4h-12v-18h-6zm-6-2v-4h-6v-12h36v6h6v36h-6v4h6v12h-36v-6h-6v-36zm28-14h-32v8h24v24h8zm-28 6a2 2 0 1 0 0-4 2 2 0 0 0 0 4zm8 0a2 2 0 1 0 0-4 2 2 0 0 0 0 4zm8 0a2 2 0 1 0 0-4 2 2 0 0 0 0 4zm8 0a2 2 0 1 0 0-4 2 2 0 0 0 0 4zm0 8a2 2 0 1 0 0-4 2 2 0 0 0 0 4zm0 8a2 2 0 1 0 0-4 2 2 0 0 0 0 4zm0 8a2 2 0 1 0 0-4 2 2 0 0 0 0 4zm-28 18h32v-8h-24v-24h-8zm28-6a2 2 0 1 0 0 4 2 2 0 0 0 0-4zm-8 0a2 2 0 1 0 0 4 2 2 0 0 0 0-4zm-8 0a2 2 0 1 0 0 4 2 2 0 0 0 0-4zm-8 0a2 2 0 1 0 0 4 2 2 0 0 0 0-4zm0-8a2 2 0 1 0 0 4 2 2 0 0 0 0-4zm0-8a2 2 0 1 0 0 4 2 2 0 0 0 0-4zm0-8a2 2 0 1 0 0 4 2 2 0 0 0 0-4z"/>
<path d="m144 18h12v18h6v4h-12v-18h-6zm-6-2v-4h-6v-12h36v6h6v36h-6v4h6v12h-36v-6h-6v-36zm28-14h-32v8h24v24h8zm-28 6a2 2 0 1 0 0-4 2 2 0 0 0 0 4zm8 0a2 2 0 1 0 0-4 2 2 0 0 0 0 4zm8 0a2 2 0 1 0 0-4 2 2 0 0 0 0 4zm8 0a2 2 0 1 0 0-4 2 2 0 0 0 0 4zm0 8a2 2 0 1 0 0-4 2 2 0 0 0 0 4zm0 8a2 2 0 1 0 0-4 2 2 0 0 0 0 4zm0 8a2 2 0 1 0 0-4 2 2 0 0 0 0 4zm-28 18h32v-8h-24v-24h-8zm28-6a2 2 0 1 0 0 4 2 2 0 0 0 0-4zm-8 0a2 2 0 1 0 0 4 2 2 0 0 0 0-4zm-8 0a2 2 0 1 0 0 4 2 2 0 0 0 0-4zm-8 0a2 2 0 1 0 0 4 2 2 0 0 0 0-4zm0-8a2 2 0 1 0 0 4 2 2 0 0 0 0-4zm0-8a2 2 0 1 0 0 4 2 2 0 0 0 0-4zm0-8a2 2 0 1 0 0 4 2 2 0 0 0 0-4z"/>
<path d="m100 18h12v18h6v4h-12v-18h-6zm-6-2v-4h-6v-12h36v6h6v36h-6v4h6v12h-36v-6h-6v-36zm28-14h-32v8h24v24h8zm-28 6a2 2 0 1 0 0-4 2 2 0 0 0 0 4zm8 0a2 2 0 1 0 0-4 2 2 0 0 0 0 4zm8 0a2 2 0 1 0 0-4 2 2 0 0 0 0 4zm8 0a2 2 0 1 0 0-4 2 2 0 0 0 0 4zm0 8a2 2 0 1 0 0-4 2 2 0 0 0 0 4zm0 8a2 2 0 1 0 0-4 2 2 0 0 0 0 4zm0 8a2 2 0 1 0 0-4 2 2 0 0 0 0 4zm-28 18h32v-8h-24v-24h-8zm28-6a2 2 0 1 0 0 4 2 2 0 0 0 0-4zm-8 0a2 2 0 1 0 0 4 2 2 0 0 0 0-4zm-8 0a2 2 0 1 0 0 4 2 2 0 0 0 0-4zm-8 0a2 2 0 1 0 0 4 2 2 0 0 0 0-4zm0-8a2 2 0 1 0 0 4 2 2 0 0 0 0-4zm0-8a2 2 0 1 0 0 4 2 2 0 0 0 0-4zm0-8a2 2 0 1 0 0 4 2 2 0 0 0 0-4z"/>
<path d="m56 18h12v18h6v4h-12v-18h-6zm-6-2v-4h-6v-12h36v6h6v36h-6v4h6v12h-36v-6h-6v-36zm28-14h-32v8h24v24h8zm-28 6a2 2 0 1 0 0-4 2 2 0 0 0 0 4zm8 0a2 2 0 1 0 0-4 2 2 0 0 0 0 4zm8 0a2 2 0 1 0 0-4 2 2 0 0 0 0 4zm8 0a2 2 0 1 0 0-4 2 2 0 0 0 0 4zm0 8a2 2 0 1 0 0-4 2 2 0 0 0 0 4zm0 8a2 2 0 1 0 0-4 2 2 0 0 0 0 4zm0 8a2 2 0 1 0 0-4 2 2 0 0 0 0 4zm-28 18h32v-8h-24v-24h-8zm28-6a2 2 0 1 0 0 4 2 2 0 0 0 0-4zm-8 0a2 2 0 1 0 0 4 2 2 0 0 0 0-4zm-8 0a2 2 0 1 0 0 4 2 2 0 0 0 0-4zm-8 0a2 2 0 1 0 0 4 2 2 0 0 0 0-4zm0-8a2 2 0 1 0 0 4 2 2 0 0 0 0-4zm0-8a2 2 0 1 0 0 4 2 2 0 0 0 0-4zm0-8a2 2 0 1 0 0 4 2 2 0 0 0 0-4z"/>
</g>
<g transform="translate(0,60)">
<path d="m12 18h12v18h6v4h-12v-18h-6zm-6-2v-4h-6v-12h36v6h6v36h-6v4h6v12h-36v-6h-6v-36zm28-14h-32v8h24v24h8zm-28 6a2 2 0 1 0 0-4 2 2 0 0 0 0 4zm8 0a2 2 0 1 0 0-4 2 2 0 0 0 0 4zm8 0a2 2 0 1 0 0-4 2 2 0 0 0 0 4zm8 0a2 2 0 1 0 0-4 2 2 0 0 0 0 4zm0 8a2 2 0 1 0 0-4 2 2 0 0 0 0 4zm0 8a2 2 0 1 0 0-4 2 2 0 0 0 0 4zm0 8a2 2 0 1 0 0-4 2 2 0 0 0 0 4zm-28 18h32v-8h-24v-24h-8zm28-6a2 2 0 1 0 0 4 2 2 0 0 0 0-4zm-8 0a2 2 0 1 0 0 4 2 2 0 0 0 0-4zm-8 0a2 2 0 1 0 0 4 2 2 0 0 0 0-4zm-8 0a2 2 0 1 0 0 4 2 2 0 0 0 0-4zm0-8a2 2 0 1 0 0 4 2 2 0 0 0 0-4zm0-8a2 2 0 1 0 0 4 2 2 0 0 0 0-4zm0-8a2 2 0 1 0 0 4 2 2 0 0 0 0-4z"/>
<path d="m232 18h12v18h6v4h-12v-18h-6zm-6-2v-4h-6v-12h36v6h6v36h-6v4h6v12h-36v-6h-6v-36zm28-14h-32v8h24v24h8zm-28 6a2 2 0 1 0 0-4 2 2 0 0 0 0 4zm8 0a2 2 0 1 0 0-4 2 2 0 0 0 0 4zm8 0a2 2 0 1 0 0-4 2 2 0 0 0 0 4zm8 0a2 2 0 1 0 0-4 2 2 0 0 0 0 4zm0 8a2 2 0 1 0 0-4 2 2 0 0 0 0 4zm0 8a2 2 0 1 0 0-4 2 2 0 0 0 0 4zm0 8a2 2 0 1 0 0-4 2 2 0 0 0 0 4zm-28 18h32v-8h-24v-24h-8zm28-6a2 2 0 1 0 0 4 2 2 0 0 0 0-4zm-8 0a2 2 0 1 0 0 4 2 2 0 0 0 0-4zm-8 0a2 2 0 1 0 0 4 2 2 0 0 0 0-4zm-8 0a2 2 0 1 0 0 4 2 2 0 0 0 0-4zm0-8a2 2 0 1 0 0 4 2 2 0 0 0 0-4zm0-8a2 2 0 1 0 0 4 2 2 0 0 0 0-4zm0-8a2 2 0 1 0 0 4 2 2 0 0 0 0-4z"/>
<path d="m188 18h12v18h6v4h-12v-18h-6zm-6-2v-4h-6v-12h36v6h6v36h-6v4h6v12h-36v-6h-6v-36zm28-14h-32v8h24v24h8zm-28 6a2 2 0 1 0 0-4 2 2 0 0 0 0 4zm8 0a2 2 0 1 0 0-4 2 2 0 0 0 0 4zm8 0a2 2 0 1 0 0-4 2 2 0 0 0 0 4zm8 0a2 2 0 1 0 0-4 2 2 0 0 0 0 4zm0 8a2 2 0 1 0 0-4 2 2 0 0 0 0 4zm0 8a2 2 0 1 0 0-4 2 2 0 0 0 0 4zm0 8a2 2 0 1 0 0-4 2 2 0 0 0 0 4zm-28 18h32v-8h-24v-24h-8zm28-6a2 2 0 1 0 0 4 2 2 0 0 0 0-4zm-8 0a2 2 0 1 0 0 4 2 2 0 0 0 0-4zm-8 0a2 2 0 1 0 0 4 2 2 0 0 0 0-4zm-8 0a2 2 0 1 0 0 4 2 2 0 0 0 0-4zm0-8a2 2 0 1 0 0 4 2 2 0 0 0 0-4zm0-8a2 2 0 1 0 0 4 2 2 0 0 0 0-4zm0-8a2 2 0 1 0 0 4 2 2 0 0 0 0-4z"/>
<path d="m144 18h12v18h6v4h-12v-18h-6zm-6-2v-4h-6v-12h36v6h6v36h-6v4h6v12h-36v-6h-6v-36zm28-14h-32v8h24v24h8zm-28 6a2 2 0 1 0 0-4 2 2 0 0 0 0 4zm8 0a2 2 0 1 0 0-4 2 2 0 0 0 0 4zm8 0a2 2 0 1 0 0-4 2 2 0 0 0 0 4zm8 0a2 2 0 1 0 0-4 2 2 0 0 0 0 4zm0 8a2 2 0 1 0 0-4 2 2 0 0 0 0 4zm0 8a2 2 0 1 0 0-4 2 2 0 0 0 0 4zm0 8a2 2 0 1 0 0-4 2 2 0 0 0 0 4zm-28 18h32v-8h-24v-24h-8zm28-6a2 2 0 1 0 0 4 2 2 0 0 0 0-4zm-8 0a2 2 0 1 0 0 4 2 2 0 0 0 0-4zm-8 0a2 2 0 1 0 0 4 2 2 0 0 0 0-4zm-8 0a2 2 0 1 0 0 4 2 2 0 0 0 0-4zm0-8a2 2 0 1 0 0 4 2 2 0 0 0 0-4zm0-8a2 2 0 1 0 0 4 2 2 0 0 0 0-4zm0-8a2 2 0 1 0 0 4 2 2 0 0 0 0-4z"/>
<path d="m100 18h12v18h6v4h-12v-18h-6zm-6-2v-4h-6v-12h36v6h6v36h-6v4h6v12h-36v-6h-6v-36zm28-14h-32v8h24v24h8zm-28 6a2 2 0 1 0 0-4 2 2 0 0 0 0 4zm8 0a2 2 0 1 0 0-4 2 2 0 0 0 0 4zm8 0a2 2 0 1 0 0-4 2 2 0 0 0 0 4zm8 0a2 2 0 1 0 0-4 2 2 0 0 0 0 4zm0 8a2 2 0 1 0 0-4 2 2 0 0 0 0 4zm0 8a2 2 0 1 0 0-4 2 2 0 0 0 0 4zm0 8a2 2 0 1 0 0-4 2 2 0 0 0 0 4zm-28 18h32v-8h-24v-24h-8zm28-6a2 2 0 1 0 0 4 2 2 0 0 0 0-4zm-8 0a2 2 0 1 0 0 4 2 2 0 0 0 0-4zm-8 0a2 2 0 1 0 0 4 2 2 0 0 0 0-4zm-8 0a2 2 0 1 0 0 4 2 2 0 0 0 0-4zm0-8a2 2 0 1 0 0 4 2 2 0 0 0 0-4zm0-8a2 2 0 1 0 0 4 2 2 0 0 0 0-4zm0-8a2 2 0 1 0 0 4 2 2 0 0 0 0-4z"/>
<path d="m56 18h12v18h6v4h-12v-18h-6zm-6-2v-4h-6v-12h36v6h6v36h-6v4h6v12h-36v-6h-6v-36zm28-14h-32v8h24v24h8zm-28 6a2 2 0 1 0 0-4 2 2 0 0 0 0 4zm8 0a2 2 0 1 0 0-4 2 2 0 0 0 0 4zm8 0a2 2 0 1 0 0-4 2 2 0 0 0 0 4zm8 0a2 2 0 1 0 0-4 2 2 0 0 0 0 4zm0 8a2 2 0 1 0 0-4 2 2 0 0 0 0 4zm0 8a2 2 0 1 0 0-4 2 2 0 0 0 0 4zm0 8a2 2 0 1 0 0-4 2 2 0 0 0 0 4zm-28 18h32v-8h-24v-24h-8zm28-6a2 2 0 1 0 0 4 2 2 0 0 0 0-4zm-8 0a2 2 0 1 0 0 4 2 2 0 0 0 0-4zm-8 0a2 2 0 1 0 0 4 2 2 0 0 0 0-4zm-8 0a2 2 0 1 0 0 4 2 2 0 0 0 0-4zm0-8a2 2 0 1 0 0 4 2 2 0 0 0 0-4zm0-8a2 2 0 1 0 0 4 2 2 0 0 0 0-4zm0-8a2 2 0 1 0 0 4 2 2 0 0 0 0-4z"/>
</g>
</g>
</svg>
